<?xml version="1.0" encoding="utf-8"?>
<!-- Generator: Adobe Illustrator 26.5.0, SVG Export Plug-In . SVG Version: 6.00 Build 0)  -->
<svg version="1.1" id="レイヤー_1" xmlns="http://www.w3.org/2000/svg" xmlns:xlink="http://www.w3.org/1999/xlink" x="0px"
	 y="0px" viewBox="0 0 508 380" style="enable-background:new 0 0 508 380;" xml:space="preserve">
<style type="text/css">
	.st0{fill:#FFFFFF;}
</style>
<path class="st0" d="M492,20.3c-0.6-0.8-1.3-1.5-2-2.2C465.8-6,426.4-6,402.3,18.1L190.1,230.2l-84.2-84.1
	C94.2,134.4,78.6,128,62,128c-16.6,0-32.2,6.5-43.9,18.2C6.5,157.9,0,173.4,0,190s6.5,32.2,18.2,43.9l128,128
	c12.1,12.1,28,18.1,43.9,18.1c15.9,0,31.8-6,43.9-18.1l256-256C513.4,82.4,514.1,44.6,492,20.3z"/>
</svg>
