<svg width="16" height="16" viewBox="0 0 16 16" fill="none" xmlns="http://www.w3.org/2000/svg">
<mask id="mask0_260_3281" style="mask-type:luminance" maskUnits="userSpaceOnUse" x="0" y="0" width="16" height="16">
<path d="M16 0H0V16H16V0Z" fill="white"/>
</mask>
<g mask="url(#mask0_260_3281)">
<path d="M7.99998 1C6.47101 1 5.00466 1.60738 3.92352 2.68853C2.84237 3.76968 2.23499 5.23603 2.23499 6.765C2.23499 9.948 6.76298 15 7.99998 15C9.23698 15 13.763 9.948 13.763 6.765C13.763 5.23637 13.1559 3.77033 12.0752 2.68924C10.9944 1.60815 9.52861 1.00053 7.99998 1ZM7.99998 9.411C7.47666 9.411 6.96508 9.25582 6.52995 8.96507C6.09481 8.67432 5.75567 8.26107 5.5554 7.77758C5.35513 7.29409 5.30273 6.76206 5.40483 6.24879C5.50692 5.73552 5.75893 5.26405 6.12898 4.894C6.49903 4.52395 6.9705 4.27194 7.48378 4.16984C7.99705 4.06775 8.52907 4.12015 9.01257 4.32041C9.49606 4.52068 9.90931 4.85983 10.2001 5.29496C10.4908 5.73009 10.646 6.24167 10.646 6.765C10.646 7.46676 10.3672 8.13978 9.87099 8.636C9.37477 9.13223 8.70175 9.411 7.99998 9.411Z" fill="#828282"/>
</g>
</svg>
