<svg width="280" height="160" viewBox="0 0 280 160" fill="none" xmlns="http://www.w3.org/2000/svg">
<mask id="mask0_181_3154" style="mask-type:alpha" maskUnits="userSpaceOnUse" x="0" y="0" width="280" height="160">
<rect width="280" height="160" fill="#D9D9D9"/>
</mask>
<g mask="url(#mask0_181_3154)">
<path d="M175.391 45.0517C179.853 33.0545 190.396 22.6881 203.136 21.4551C195.476 33.0778 192.175 47.0353 193.815 60.8581C194.467 66.1866 195.747 72.0454 192.875 76.5806C191.088 79.4025 187.938 81.1397 184.691 81.9237C181.444 82.7077 178.06 82.647 174.721 82.5817L173.973 82.9509C171.624 70.3682 170.929 57.0489 175.391 45.0517Z" fill="#F0F0F0"/>
<path d="M203.198 21.7163C194.513 27.784 187.96 36.4341 184.471 46.4379C183.736 48.5857 183.178 50.8283 183.146 53.109C183.131 55.3322 183.713 57.5188 184.829 59.4414C185.834 61.255 187.073 62.9937 187.619 65.0201C188.195 67.1559 187.726 69.3166 186.549 71.1619C185.108 73.4197 182.943 75.0254 180.77 76.5219C178.358 78.1836 175.827 79.8714 174.351 82.4817C174.172 82.798 173.692 82.502 173.87 82.1862C176.438 77.6446 181.827 75.9949 185.123 72.1372C186.662 70.3371 187.667 68.0625 187.191 65.6656C186.775 63.5696 185.5 61.7755 184.467 59.948C183.381 58.0291 182.672 56.0377 182.59 53.8175C182.505 51.5464 182.977 49.2772 183.653 47.1201C185.223 42.2401 187.551 37.6372 190.551 33.4803C193.949 28.7169 198.136 24.5699 202.932 21.2186C203.229 21.0113 203.493 21.5104 203.198 21.7163Z" fill="white"/>
<path d="M185.405 43.1508C183.806 42.3375 182.548 40.9823 181.856 39.3273C181.164 37.6723 181.083 35.8251 181.627 34.1158C181.738 33.7703 182.28 33.927 182.169 34.2729C181.659 35.8638 181.735 37.5844 182.383 39.1242C183.03 40.6641 184.207 41.9217 185.7 42.6702C186.024 42.8332 185.727 43.3129 185.405 43.1508Z" fill="white"/>
<path d="M184.199 58.589C187.696 57.4846 190.648 55.1027 192.466 51.9184C192.646 51.6028 193.127 51.8986 192.947 52.2139C191.048 55.524 187.971 57.9964 184.33 59.1377C183.982 59.2463 183.853 58.6969 184.199 58.589Z" fill="white"/>
<path d="M194.335 29.3577C194.888 29.8012 195.543 30.1005 196.24 30.2286C196.938 30.3567 197.656 30.3095 198.33 30.0914C198.676 29.9785 198.805 30.528 198.461 30.6402C197.715 30.8777 196.922 30.9288 196.151 30.789C195.38 30.6492 194.655 30.3228 194.04 29.8382C193.978 29.7974 193.934 29.7346 193.917 29.6625C193.899 29.5905 193.91 29.5145 193.947 29.4502C193.987 29.3868 194.049 29.3415 194.122 29.3241C194.195 29.3068 194.271 29.3188 194.335 29.3577Z" fill="white"/>
<path d="M233.845 52.036C233.632 52.1127 233.418 52.1893 233.203 52.2705C230.334 53.3156 227.554 54.592 224.892 56.0872C224.684 56.1996 224.476 56.3165 224.272 56.4346C217.896 60.1052 212.257 64.9277 207.642 70.6567C205.808 72.9381 204.149 75.3558 202.682 77.8888C200.655 81.3871 198.736 85.3414 195.76 87.8908C195.452 88.1603 195.128 88.4105 194.79 88.6399L174.482 83.8344C174.441 83.8004 174.399 83.7708 174.358 83.7367L173.539 83.5819C173.605 83.446 173.677 83.3064 173.744 83.1705C173.782 83.0915 173.825 83.0136 173.863 82.9345C173.89 82.8822 173.917 82.8299 173.939 82.7811C173.947 82.7637 173.957 82.7463 173.964 82.7334C173.986 82.6847 174.011 82.6416 174.031 82.5975C174.431 81.8164 174.837 81.0367 175.25 80.2585C175.251 80.2539 175.251 80.2539 175.257 80.2503C178.414 74.3287 182.094 68.6186 186.524 63.6487C186.657 63.4992 186.792 63.345 186.934 63.1977C188.943 60.9686 191.131 58.9074 193.476 57.0347C194.764 56.0134 196.102 55.058 197.486 54.172C201.066 51.8896 204.983 50.1846 209.093 49.1195C217.287 46.9973 226.068 47.5193 233.296 51.7104C233.481 51.8178 233.662 51.9241 233.845 52.036Z" fill="#F0F0F0"/>
<path d="M233.738 52.2829C223.151 51.8985 212.711 54.8599 203.902 60.7467C202.022 62.0193 200.226 63.4739 198.827 65.2755C197.477 67.042 196.625 69.1379 196.359 71.3452C196.07 73.3984 196.011 75.5321 195.228 77.4791C194.402 79.5314 192.726 80.9738 190.675 81.7385C188.166 82.6741 185.47 82.6522 182.835 82.5392C179.908 82.4138 176.871 82.2371 174.121 83.4328C173.787 83.5776 173.582 83.0522 173.915 82.9075C178.699 80.8272 183.995 82.7545 188.95 81.6591C191.262 81.148 193.434 79.937 194.497 77.7369C195.427 75.8129 195.489 73.6127 195.764 71.5313C196.053 69.3458 196.686 67.3289 197.957 65.5064C199.257 63.6422 200.999 62.1143 202.838 60.7992C207.03 57.8481 211.66 55.5745 216.558 54.0616C222.139 52.3039 227.979 51.5138 233.826 51.7255C234.188 51.7387 234.098 52.2961 233.738 52.2829Z" fill="white"/>
<path d="M206.627 58.6842C205.84 57.0721 205.651 55.2328 206.095 53.4947C206.539 51.7566 207.586 50.2329 209.05 49.1957C209.347 48.9868 209.685 49.4384 209.388 49.6475C208.023 50.6108 207.048 52.0303 206.638 53.6496C206.228 55.269 206.41 56.9816 207.152 58.4784C207.313 58.8038 206.786 59.0078 206.627 58.6842Z" fill="white"/>
<path d="M196.369 70.2847C199.826 71.5082 203.617 71.3838 206.987 69.9363C207.32 69.7926 207.526 70.318 207.192 70.4615C203.683 71.9613 199.738 72.0828 196.143 70.8017C195.801 70.6793 196.029 70.163 196.369 70.2847Z" fill="white"/>
<path d="M222.062 53.0479C222.236 53.7351 222.579 54.3681 223.058 54.8902C223.538 55.4123 224.14 55.8071 224.81 56.0392C225.154 56.1571 224.926 56.6733 224.584 56.5561C223.845 56.2963 223.181 55.8595 222.65 55.2838C222.118 54.7082 221.736 54.0112 221.536 53.2537C221.512 53.1839 221.514 53.1072 221.544 53.0393C221.574 52.9714 221.628 52.9174 221.696 52.8882C221.766 52.8613 221.843 52.8629 221.912 52.8929C221.98 52.9228 222.034 52.9785 222.062 53.0479Z" fill="white"/>
<path d="M57.7241 155.021C46.0982 149.665 36.5575 138.37 36.29 125.573C47.3012 134.088 60.9695 138.435 74.8767 137.843C80.2392 137.595 86.1779 136.761 90.4832 139.968C93.1622 141.963 94.6566 145.235 95.1932 148.532C95.7297 151.829 95.4136 155.198 95.0964 158.523L95.4081 159.296C82.6838 160.688 69.3501 160.376 57.7241 155.021Z" fill="#F0F0F0"/>
<path d="M36.5554 125.531C41.9499 134.649 50.0805 141.837 59.7923 146.071C61.8784 146.966 64.0725 147.692 66.3442 147.896C68.5601 148.078 70.7843 147.664 72.7857 146.696C74.6701 145.83 76.4973 144.727 78.5591 144.335C80.7324 143.922 82.8514 144.553 84.6026 145.866C86.7452 147.473 88.1827 149.754 89.5109 152.033C90.9857 154.564 92.4774 157.215 94.9689 158.884C95.2708 159.086 94.9394 159.543 94.638 159.341C90.3033 156.438 89.0652 150.94 85.4675 147.361C83.7887 145.691 81.5965 144.517 79.1705 144.811C77.049 145.067 75.1638 146.203 73.2634 147.096C71.2681 148.033 69.2288 148.589 67.0087 148.504C64.7377 148.417 62.5107 147.775 60.4108 146.938C55.6632 145.004 51.2493 142.335 47.3308 139.03C42.8376 135.282 39.0186 130.794 36.0391 125.758C35.8548 125.447 36.3724 125.221 36.5554 125.531Z" fill="white"/>
<path d="M56.5848 144.892C55.6531 146.425 54.2068 147.577 52.5042 148.142C50.8016 148.707 48.9536 148.648 47.2903 147.977C46.9542 147.84 47.1513 147.311 47.4879 147.448C49.0357 148.077 50.7571 148.131 52.3415 147.601C53.9258 147.072 55.2687 145.994 56.1279 144.561C56.3149 144.25 56.7707 144.583 56.5848 144.892Z" fill="white"/>
<path d="M71.8882 147.26C71.0509 143.69 68.8988 140.566 65.861 138.512C65.5598 138.309 65.8911 137.852 66.1919 138.055C69.3492 140.199 71.5822 143.454 72.4452 147.171C72.5273 147.525 71.9697 147.612 71.8882 147.26Z" fill="white"/>
<path d="M43.5057 134.946C43.9898 134.428 44.3376 133.797 44.518 133.112C44.6984 132.426 44.7056 131.706 44.5391 131.017C44.4526 130.664 45.0102 130.577 45.0962 130.928C45.2766 131.69 45.2676 132.485 45.07 133.243C44.8724 134.001 44.4922 134.699 43.9626 135.277C43.9172 135.335 43.8513 135.374 43.7781 135.386C43.7049 135.398 43.6301 135.381 43.5687 135.34C43.5084 135.295 43.468 135.229 43.4562 135.156C43.4444 135.082 43.4622 135.006 43.5057 134.946Z" fill="white"/>
<path d="M69.1028 97.2607C69.1631 97.4797 69.2234 97.6987 69.2881 97.9193C70.1136 100.859 71.1765 103.727 72.4663 106.494C72.5627 106.71 72.6635 106.927 72.7659 107.139C75.9446 113.774 80.3274 119.761 85.6916 124.796C87.828 126.797 90.1135 128.633 92.5285 130.288C95.8638 132.573 99.6618 134.785 101.979 137.945C102.225 138.272 102.45 138.614 102.653 138.969L96.3276 158.856C96.2905 158.894 96.2579 158.934 96.2208 158.972L96.0045 159.778C95.874 159.701 95.7403 159.619 95.6098 159.542C95.5339 159.498 95.4594 159.449 95.3835 159.405C95.3334 159.374 95.2833 159.343 95.2363 159.318C95.2195 159.308 95.2029 159.298 95.1907 159.289C95.1436 159.264 95.1026 159.236 95.0601 159.212C94.3115 158.754 93.5647 158.29 92.8198 157.82C92.8153 157.819 92.8153 157.819 92.8122 157.813C87.1459 154.217 81.7301 150.116 77.1089 145.324C76.9699 145.18 76.8263 145.034 76.6902 144.881C74.6191 142.709 72.729 140.372 71.0388 137.892C70.1176 136.531 69.2659 135.125 68.487 133.678C66.4815 129.936 65.0772 125.901 64.3254 121.722C62.8281 113.392 64.0117 104.675 68.7367 97.7837C68.8577 97.6075 68.9773 97.4355 69.1028 97.2607Z" fill="#F0F0F0"/>
<path d="M69.3411 97.3858C68.1582 107.914 70.3228 118.548 75.5275 127.776C76.6546 129.747 77.9694 131.647 79.6602 133.178C81.3198 134.658 83.3453 135.666 85.5263 136.098C87.5517 136.541 89.6749 136.761 91.5572 137.689C93.5413 138.667 94.853 140.448 95.4606 142.55C96.204 145.123 95.9786 147.81 95.6669 150.429C95.3209 153.338 94.9153 156.353 95.8999 159.186C96.0192 159.529 95.4797 159.694 95.3606 159.351C93.6476 154.423 95.9693 149.288 95.2512 144.265C94.9161 141.921 93.8726 139.663 91.759 138.437C89.9108 137.364 87.7215 137.136 85.6668 136.705C83.5094 136.252 81.546 135.468 79.8248 134.064C78.064 132.627 76.6721 130.774 75.4996 128.841C72.8735 124.438 70.956 119.65 69.8173 114.651C68.486 108.954 68.1392 103.071 68.7918 97.2565C68.8324 96.8967 69.3813 97.0283 69.3411 97.3858Z" fill="white"/>
<path d="M73.6766 124.904C72.0098 125.567 70.1615 125.616 68.4619 125.042C66.7623 124.468 65.322 123.308 64.3983 121.771C64.2124 121.459 64.6882 121.155 64.8743 121.468C65.7318 122.901 67.0735 123.981 68.6573 124.512C70.2411 125.043 71.9626 124.991 73.5111 124.364C73.8477 124.228 74.0114 124.769 73.6766 124.904Z" fill="white"/>
<path d="M84.4693 136.008C85.9503 132.653 86.1125 128.864 84.9236 125.395C84.8055 125.051 85.3449 124.886 85.4629 125.229C86.6934 128.841 86.5166 132.785 84.9677 136.272C84.8198 136.605 84.3222 136.339 84.4693 136.008Z" fill="white"/>
<path d="M69.2219 109.087C69.9203 108.965 70.5774 108.671 71.1343 108.232C71.6911 107.794 72.1302 107.223 72.4122 106.573C72.5557 106.239 73.0532 106.505 72.9106 106.837C72.5957 107.554 72.11 108.184 71.4959 108.67C70.8817 109.156 70.1578 109.485 69.3875 109.627C69.316 109.646 69.2397 109.637 69.1743 109.603C69.1088 109.568 69.059 109.51 69.035 109.44C69.0135 109.368 69.021 109.291 69.056 109.225C69.091 109.159 69.1506 109.109 69.2219 109.087Z" fill="white"/>
<path d="M84.4931 84.2998C74.22 74.1867 69.8812 63.6362 72.2754 54.592C75.3481 42.9858 88.9982 34.961 109.726 32.5754L109.802 33.2412C89.3633 35.5934 75.9214 43.4381 72.9232 54.7634C70.593 63.5652 74.8689 73.8852 84.9632 83.8225L84.4931 84.2998Z" fill="#F0F0F0"/>
<path d="M183.611 120.198C170.789 120.198 156.857 118.293 143.017 114.629C125.903 110.098 110.212 103.26 97.6387 94.8522L98.011 94.2954C110.523 102.662 126.146 109.47 143.189 113.981C158.591 118.059 174.108 119.948 188.057 119.45L188.081 120.119C186.608 120.172 185.118 120.198 183.611 120.198Z" fill="#F0F0F0"/>
<path d="M213.025 115.985L212.81 115.35C224.277 111.473 231.45 105.228 233.552 97.2882C236.223 87.1953 230.419 75.4833 217.207 64.3094C203.927 53.0787 184.778 43.7601 163.286 38.0704L163.457 37.4226C185.043 43.1373 204.286 52.5042 217.639 63.7978C231.06 75.1481 236.941 87.1027 234.199 97.4596C232.037 105.627 224.715 112.032 213.025 115.985Z" fill="#F0F0F0"/>
<path d="M107.731 120.478C82.5378 109.305 63.1244 94.8085 53.0674 79.6595L53.6255 79.2888C63.613 94.3329 82.9245 108.743 108.003 119.866L107.731 120.478Z" fill="#F0F0F0"/>
<path d="M196.309 139.836C193.71 139.836 191.067 139.778 188.38 139.662L188.409 138.992C208.463 139.86 226.158 137.46 239.583 132.05L239.834 132.672C228.123 137.391 213.196 139.836 196.309 139.836Z" fill="#F0F0F0"/>
<path d="M181.691 33.1763C177.527 31.8206 173.244 30.5583 168.961 29.4244C144.314 22.8993 120.085 20.5826 98.8931 22.7259L98.8257 22.0592C120.096 19.9088 144.408 22.2311 169.132 28.7766C173.428 29.9138 177.723 31.1797 181.899 32.5393L181.691 33.1763Z" fill="#F0F0F0"/>
<path d="M68.748 85.3047C58.4749 75.1916 54.136 64.641 56.5303 55.5969C59.6029 43.9907 73.2531 35.9659 93.9807 33.5803L94.0572 34.2461C73.6182 36.5983 60.1763 44.4429 57.1781 55.7683C54.8479 64.5701 59.1238 74.8901 69.2181 84.8273L68.748 85.3047Z" fill="#F0F0F0"/>
<path d="M167.866 121.203C155.044 121.203 141.112 119.298 127.272 115.634C110.158 111.103 94.4665 104.265 81.8936 95.8571L82.2659 95.3003C94.7783 103.667 110.401 110.474 127.444 114.986C142.845 119.064 158.363 120.953 172.312 120.455L172.336 121.124C170.863 121.177 169.373 121.203 167.866 121.203Z" fill="#F0F0F0"/>
<path d="M197.28 116.99L197.065 116.355C208.532 112.478 215.704 106.233 217.806 98.2933C220.478 88.2005 214.674 76.4884 201.462 65.3145C188.182 54.0838 169.033 44.7652 147.541 39.0755L147.712 38.4277C169.298 44.1424 188.541 53.5093 201.894 64.803C215.315 76.1532 221.196 88.1079 218.454 98.4647C216.292 106.632 208.97 113.038 197.28 116.99Z" fill="#F0F0F0"/>
<path d="M91.9856 121.483C66.7922 110.31 47.3788 95.8133 37.3218 80.6644L37.8799 80.2937C47.8674 95.3378 67.1789 109.748 92.2571 120.871L91.9856 121.483Z" fill="#F0F0F0"/>
<path d="M180.564 140.84C177.965 140.84 175.322 140.782 172.635 140.666L172.664 139.997C192.718 140.865 210.413 138.465 223.838 133.055L224.089 133.677C212.378 138.396 197.451 140.84 180.564 140.84Z" fill="#F0F0F0"/>
<path d="M165.946 34.1812C161.782 32.8255 157.499 31.5632 153.216 30.4292C128.568 23.9042 104.34 21.5874 83.148 23.7308L83.0806 23.0641C104.351 20.9137 128.663 23.236 153.387 29.7815C157.683 30.9187 161.978 32.1846 166.154 33.5442L165.946 34.1812Z" fill="#F0F0F0"/>
<path d="M99.385 83.9309C98.0083 83.9325 96.6884 84.48 95.7149 85.4535C94.7415 86.427 94.1939 87.7468 94.1924 89.1235C92.2182 103.659 91.5588 118.344 92.2224 132.998C92.2619 133.934 92.3055 134.789 92.3562 135.615C92.4299 136.979 92.5234 138.418 92.6342 139.894C92.6978 140.765 92.7649 141.639 92.8383 142.509C92.9613 143.927 93.0964 145.368 93.2402 146.791C93.3305 147.661 93.4242 148.535 93.5245 149.405C93.717 151.114 93.9349 152.867 94.1909 154.762C94.1883 156.142 94.7341 157.467 95.7081 158.445C96.6821 159.423 98.0047 159.974 99.385 159.977H186.486C187.863 159.975 189.183 159.428 190.156 158.454C191.13 157.481 191.677 156.161 191.679 154.784L191.683 154.748C192.071 152.981 192.432 151.179 192.757 149.394C192.931 148.453 193.081 147.598 193.215 146.781C193.46 145.293 193.677 143.853 193.861 142.501C193.987 141.593 194.101 140.714 194.199 139.887C194.361 138.533 194.508 137.134 194.647 135.61C194.724 134.781 194.794 133.925 194.862 132.994V132.993C195.927 118.305 194.856 103.54 191.683 89.1595L191.679 89.1235C191.677 87.7468 191.13 86.4269 190.156 85.4535C189.183 84.48 187.863 83.9324 186.486 83.9309L99.385 83.9309Z" fill="#3F3D56"/>
<path d="M146.317 106.161C127.444 106.161 107.446 104.446 81.273 101.015H81.2703C79.9134 101.013 78.605 100.51 77.5958 99.6034C76.5867 98.6964 75.9478 97.4488 75.8017 96.0998C75.7779 95.897 75.7664 95.6929 75.7672 95.4887V79.7434C75.7666 79.7098 75.7682 79.6761 75.7718 79.6427C75.8013 78.196 76.3956 76.8182 77.4277 75.8041C78.4598 74.7899 79.8478 74.2199 81.2948 74.2159C126.831 68.0245 154.492 68.0252 204.597 74.2172H204.599C206.046 74.2267 207.431 74.8014 208.459 75.8186C209.487 76.8358 210.076 78.2147 210.101 79.6607C210.104 79.6882 210.105 79.7158 210.104 79.7434V95.4887C210.105 95.6934 210.093 95.8981 210.069 96.1014C209.921 97.4539 209.278 98.7038 208.264 99.611C207.25 100.518 205.937 101.019 204.576 101.016C182.929 104.445 165.185 106.161 146.317 106.161Z" fill="#46b4bc"/>
<path d="M149.344 117.096H137.894C136.436 117.095 135.039 116.515 134.008 115.485C132.978 114.454 132.398 113.057 132.396 111.599V69.9979C132.398 68.5405 132.978 67.1432 134.008 66.1127C135.039 65.0821 136.436 64.5024 137.894 64.5007H149.344C150.802 64.5024 152.199 65.0821 153.23 66.1126C154.26 67.1432 154.84 68.5404 154.842 69.9979V111.599C154.84 113.057 154.26 114.454 153.23 115.485C152.199 116.515 150.802 117.095 149.344 117.096Z" fill="#3F3D56"/>
<path d="M175.342 56.5403C175.259 55.7603 175.113 54.9884 174.906 54.2321C174.681 53.4743 174.398 52.7355 174.057 52.0225C172.835 49.4012 170.775 47.2618 168.201 45.9426C165.007 44.3702 161.354 44.2416 157.919 44.9991C155.033 45.6457 152.322 46.9149 149.976 48.7179C148.76 49.6341 147.649 50.6819 146.664 51.8423C145.646 53.0632 143.753 56.4175 143.617 56.7281C142.547 54.2984 141.011 52.1018 139.097 50.2622C136.872 48.1501 134.216 46.5449 131.311 45.5569C129.767 45.0366 128.164 44.7108 126.539 44.5869C124.82 44.444 123.089 44.595 121.42 45.0335C118.423 45.8728 115.831 47.7679 114.121 50.3689C112.493 52.7864 111.693 55.6672 111.842 58.5784C111.924 60.0482 112.241 61.4953 112.781 62.865C113.07 63.6065 113.413 64.3258 113.807 65.0173C114.214 65.7003 114.67 66.3534 115.171 66.9716C117.135 69.3817 119.78 71.1432 122.761 72.0259C125.943 73.0095 129.319 73.0417 132.592 72.5799C135.953 72.1057 139.187 71.0178 142.353 69.8263C142.775 69.6674 143.195 69.5039 143.616 69.3419C146.43 70.4244 149.268 71.4684 152.214 72.131C155.527 72.9313 158.967 73.0693 162.334 72.5369C165.472 72.0217 168.39 70.5963 170.726 68.4376C172.887 66.4039 174.399 63.7775 175.074 60.8877C175.406 59.4639 175.497 57.9942 175.342 56.5403ZM131.718 69.3435C129.902 69.5762 128.064 69.587 126.245 69.3755C124.941 69.1866 123.664 68.8466 122.439 68.3625C119.551 67.1599 117.249 64.8744 116.026 61.9954C115.66 61.0878 115.4 60.1413 115.25 59.1744C115.154 58.3142 115.153 57.4459 115.249 56.5856C115.391 55.6805 115.636 54.7944 115.977 53.944C116.346 53.117 116.804 52.3326 117.343 51.605C117.866 50.9539 118.457 50.3604 119.106 49.8347C119.72 49.3798 120.382 48.992 121.08 48.6778C121.912 48.3527 122.778 48.1211 123.662 47.9872C124.859 47.8547 126.067 47.8641 127.262 48.0153C128.683 48.2348 130.075 48.6183 131.408 49.1582C132.826 49.7737 134.166 50.555 135.4 51.4859C136.542 52.3907 137.577 53.4227 138.486 54.5619C139.385 55.7579 140.139 57.0565 140.732 58.4303C141.308 59.8636 141.713 61.36 141.938 62.8884L141.941 62.9108C141.853 63.6787 141.809 64.451 141.809 65.2239C141.81 65.5217 141.823 65.8191 141.838 66.1163C141.697 66.2525 141.579 66.4113 141.489 66.586C139.155 67.5015 136.763 68.2601 134.329 68.8568C133.466 69.056 132.596 69.2182 131.718 69.3435ZM171.991 59.1743C171.841 60.1413 171.58 61.088 171.214 61.9957C169.997 64.8786 167.693 67.166 164.802 68.3625C163.577 68.8466 162.299 69.1866 160.996 69.3755C159.173 69.5874 157.332 69.5762 155.512 69.3423C152.28 68.8802 149.163 67.86 146.113 66.7214C145.987 66.6745 145.863 66.6251 145.737 66.5779C145.652 66.4057 145.539 66.2487 145.403 66.1132C145.457 65.0346 145.424 63.9533 145.303 62.88C145.529 61.3545 145.933 59.861 146.508 58.4303C147.101 57.0565 147.855 55.758 148.755 54.5621C149.663 53.4227 150.698 52.3907 151.84 51.4859C153.074 50.555 154.414 49.7737 155.833 49.1582C157.166 48.6183 158.557 48.2348 159.979 48.0153C161.173 47.8641 162.382 47.8547 163.579 47.9872C164.462 48.1211 165.328 48.3527 166.161 48.6778C166.858 48.992 167.52 49.3799 168.135 49.8348C168.784 50.3605 169.375 50.954 169.897 51.6051C170.437 52.3327 170.895 53.117 171.264 53.944C171.605 54.7944 171.849 55.6805 171.991 56.5856C172.087 57.4459 172.087 58.3141 171.991 59.1743Z" fill="#3F3D56"/>
<path d="M108.765 118.939C109.876 118.939 110.775 118.039 110.775 116.929C110.775 115.819 109.876 114.919 108.765 114.919C107.655 114.919 106.755 115.819 106.755 116.929C106.755 118.039 107.655 118.939 108.765 118.939Z" fill="#46b4bc"/>
<path d="M123.17 113.914C124.28 113.914 125.18 113.014 125.18 111.904C125.18 110.794 124.28 109.894 123.17 109.894C122.06 109.894 121.16 110.794 121.16 111.904C121.16 113.014 122.06 113.914 123.17 113.914Z" fill="#46b4bc"/>
<path d="M116.805 129.659C117.916 129.659 118.815 128.759 118.815 127.649C118.815 126.539 117.916 125.639 116.805 125.639C115.695 125.639 114.795 126.539 114.795 127.649C114.795 128.759 115.695 129.659 116.805 129.659Z" fill="#46b4bc"/>
<path d="M176.436 118.939C177.546 118.939 178.446 118.039 178.446 116.929C178.446 115.819 177.546 114.919 176.436 114.919C175.326 114.919 174.426 115.819 174.426 116.929C174.426 118.039 175.326 118.939 176.436 118.939Z" fill="#46b4bc"/>
<path d="M162.031 113.914C163.141 113.914 164.041 113.014 164.041 111.904C164.041 110.794 163.141 109.894 162.031 109.894C160.921 109.894 160.021 110.794 160.021 111.904C160.021 113.014 160.921 113.914 162.031 113.914Z" fill="#46b4bc"/>
<path d="M168.396 129.659C169.506 129.659 170.406 128.759 170.406 127.649C170.406 126.539 169.506 125.639 168.396 125.639C167.286 125.639 166.386 126.539 166.386 127.649C166.386 128.759 167.286 129.659 168.396 129.659Z" fill="#46b4bc"/>
<path d="M178.111 154.114C179.221 154.114 180.121 153.214 180.121 152.104C180.121 150.994 179.221 150.094 178.111 150.094C177.001 150.094 176.101 150.994 176.101 152.104C176.101 153.214 177.001 154.114 178.111 154.114Z" fill="#46b4bc"/>
<path d="M183.136 139.71C184.246 139.71 185.146 138.81 185.146 137.699C185.146 136.589 184.246 135.689 183.136 135.689C182.026 135.689 181.126 136.589 181.126 137.699C181.126 138.81 182.026 139.71 183.136 139.71Z" fill="#46b4bc"/>
<path d="M167.391 146.074C168.501 146.074 169.401 145.174 169.401 144.064C169.401 142.954 168.501 142.054 167.391 142.054C166.281 142.054 165.381 142.954 165.381 144.064C165.381 145.174 166.281 146.074 167.391 146.074Z" fill="#46b4bc"/>
<path d="M120.491 154.114C121.601 154.114 122.501 153.214 122.501 152.104C122.501 150.994 121.601 150.094 120.491 150.094C119.38 150.094 118.48 150.994 118.48 152.104C118.48 153.214 119.38 154.114 120.491 154.114Z" fill="#46b4bc"/>
<path d="M125.515 139.71C126.626 139.71 127.525 138.81 127.525 137.699C127.525 136.589 126.626 135.689 125.515 135.689C124.405 135.689 123.505 136.589 123.505 137.699C123.505 138.81 124.405 139.71 125.515 139.71Z" fill="#46b4bc"/>
<path d="M109.77 146.074C110.88 146.074 111.78 145.174 111.78 144.064C111.78 142.954 110.88 142.054 109.77 142.054C108.66 142.054 107.76 142.954 107.76 144.064C107.76 145.174 108.66 146.074 109.77 146.074Z" fill="#46b4bc"/>
<path d="M167.523 12.1528C168.284 12.4705 169.114 12.5869 169.934 12.4907C170.753 12.3944 171.533 12.0889 172.2 11.6034C173.9 10.3356 174.537 8.12252 175.071 6.07058L176.648 0L173.985 1.61682C172.069 2.77932 170.11 3.98034 168.728 5.74521C167.345 7.51009 166.646 9.98327 167.557 12.0313" fill="#F2F2F2"/>
<path d="M96.2984 64.0076C96.8125 63.3626 97.1517 62.5961 97.2835 61.7819C97.4153 60.9677 97.3352 60.1333 97.051 59.3591C96.2972 57.377 94.3433 56.158 92.516 55.0826L87.1094 51.9036L87.935 54.9076C88.5285 57.0679 89.147 59.2811 90.4658 61.094C91.7846 62.9069 93.9716 64.2569 96.1909 63.9416" fill="#F2F2F2"/>
<path d="M223.265 157.474C223.779 156.829 224.119 156.062 224.25 155.248C224.382 154.434 224.302 153.599 224.018 152.825C223.264 150.843 221.31 149.624 219.483 148.549L214.076 145.37L214.902 148.374C215.495 150.534 216.114 152.747 217.433 154.56C218.751 156.373 220.938 157.723 223.158 157.408" fill="#F2F2F2"/>
<path d="M121.161 38.8728C122.641 38.8728 123.841 37.6729 123.841 36.1927C123.841 34.7126 122.641 33.5127 121.161 33.5127C119.68 33.5127 118.48 34.7126 118.48 36.1927C118.48 37.6729 119.68 38.8728 121.161 38.8728Z" fill="#FD6584"/>
<path d="M49.8045 117.934C51.2847 117.934 52.4846 116.734 52.4846 115.254C52.4846 113.774 51.2847 112.574 49.8045 112.574C48.3244 112.574 47.1245 113.774 47.1245 115.254C47.1245 116.734 48.3244 117.934 49.8045 117.934Z" fill="#FD6584"/>
<path d="M234.057 96.1587C235.537 96.1587 236.737 94.9588 236.737 93.4786C236.737 91.9985 235.537 90.7986 234.057 90.7986C232.577 90.7986 231.377 91.9985 231.377 93.4786C231.377 94.9588 232.577 96.1587 234.057 96.1587Z" fill="#FD6584"/>
<path d="M47.1244 50.5979C48.6045 50.5979 49.8044 49.398 49.8044 47.9178C49.8044 46.4377 48.6045 45.2378 47.1244 45.2378C45.6442 45.2378 44.4443 46.4377 44.4443 47.9178C44.4443 49.398 45.6442 50.5979 47.1244 50.5979Z" fill="#E6E6E6"/>
<path d="M212.952 126.979C214.432 126.979 215.632 125.779 215.632 124.299C215.632 122.819 214.432 121.619 212.952 121.619C211.471 121.619 210.271 122.819 210.271 124.299C210.271 125.779 211.471 126.979 212.952 126.979Z" fill="#E6E6E6"/>
<path d="M218.312 45.573C219.792 45.573 220.992 44.3731 220.992 42.8929C220.992 41.4128 219.792 40.2129 218.312 40.2129C216.832 40.2129 215.632 41.4128 215.632 42.8929C215.632 44.3731 216.832 45.573 218.312 45.573Z" fill="#E6E6E6"/>
<path d="M100.801 88.1978C100.569 88.5642 100.008 88.511 99.6923 88.2819C99.2544 87.9638 99.3962 87.3512 99.6977 86.9893C100.656 85.8388 102.241 87.0534 102.455 88.1959C102.534 88.753 102.448 89.3211 102.208 89.8299C101.968 90.3387 101.583 90.7657 101.102 91.058C100.009 91.7059 98.5887 91.3809 97.6487 90.6055C95.6877 88.9878 96.2216 85.749 98.3998 84.5786C99.7899 83.8318 101.547 84.1596 102.917 84.7852C104.458 85.4895 105.784 86.569 107.209 87.4687C110.337 89.4267 113.875 90.6348 117.547 90.9988C118.19 91.0644 118.186 90.0589 117.547 89.9938C115.512 89.7835 113.515 89.3024 111.607 88.5635C109.72 87.7985 107.928 86.8152 106.269 85.6338C104.591 84.4833 102.837 83.3657 100.76 83.1756C99.9219 83.0777 99.0727 83.2035 98.2989 83.5402C97.525 83.8769 96.8541 84.4126 96.3544 85.0926C95.9099 85.7012 95.6124 86.4044 95.4851 87.1472C95.3579 87.89 95.4043 88.6521 95.6209 89.3739C95.8819 90.1287 96.3383 90.8009 96.9435 91.322C97.5488 91.843 98.2813 92.1945 99.0665 92.3404C99.8223 92.4833 100.604 92.3866 101.302 92.064C102.001 91.7413 102.581 91.2088 102.962 90.5406C103.727 89.2184 103.702 87.4422 102.547 86.3459C102.216 86.0094 101.802 85.7669 101.346 85.643C100.891 85.5191 100.41 85.5184 99.9547 85.6409C99.5347 85.7828 99.1652 86.0439 98.8913 86.3925C98.6174 86.7411 98.4511 87.1619 98.4126 87.6035C98.3012 89.3199 100.738 90.1782 101.669 88.705C102.015 88.1567 101.146 87.6519 100.801 88.1978Z" fill="#3F3D56"/>
<path d="M186.745 88.1978C186.977 88.5642 187.539 88.511 187.854 88.2819C188.292 87.9638 188.15 87.3512 187.849 86.9893C186.89 85.8388 185.305 87.0534 185.091 88.1959C185.012 88.753 185.098 89.3211 185.338 89.8299C185.579 90.3387 185.963 90.7657 186.444 91.058C187.537 91.7059 188.958 91.3809 189.898 90.6055C191.859 88.9878 191.325 85.749 189.146 84.5786C187.756 83.8318 185.999 84.1596 184.63 84.7852C183.088 85.4895 181.763 86.569 180.337 87.4687C177.209 89.4267 173.671 90.6348 169.999 90.9988C169.356 91.0644 169.361 90.0589 169.999 89.9938C172.034 89.7835 174.032 89.3024 175.939 88.5635C177.827 87.7985 179.618 86.8152 181.277 85.6338C182.955 84.4833 184.709 83.3657 186.786 83.1756C187.624 83.0777 188.474 83.2035 189.247 83.5402C190.021 83.8769 190.692 84.4126 191.192 85.0926C191.636 85.7012 191.934 86.4044 192.061 87.1472C192.188 87.89 192.142 88.6521 191.925 89.3739C191.664 90.1287 191.208 90.8009 190.603 91.322C189.997 91.843 189.265 92.1945 188.48 92.3404C187.724 92.4833 186.942 92.3866 186.244 92.064C185.546 91.7413 184.965 91.2088 184.584 90.5406C183.82 89.2184 183.845 87.4422 184.999 86.3459C185.33 86.0094 185.745 85.7669 186.2 85.643C186.656 85.5191 187.136 85.5184 187.592 85.6409C188.012 85.7828 188.381 86.0439 188.655 86.3925C188.929 86.7411 189.095 87.1619 189.134 87.6035C189.245 89.3199 186.809 90.1782 185.877 88.705C185.531 88.1567 186.4 87.6519 186.745 88.1978Z" fill="#3F3D56"/>
<path d="M65.8271 12.1817L64.4995 13.8472L59.8047 11.07L61.132 9.40454L65.8271 12.1817Z" fill="#E4E4E4"/>
<path d="M70.7255 19.3374L71.8979 21.0872L66.9658 23.5403L65.7935 21.7909L70.7255 19.3374Z" fill="#E4E4E4"/>
<path d="M75.8312 11.7307L78.1741 11.8137L77.9409 16.7161L75.5977 16.6334L75.8312 11.7307Z" fill="#E4E4E4"/>
<path d="M231.654 114.693L230.327 116.359L225.632 113.582L226.959 111.916L231.654 114.693Z" fill="#E4E4E4"/>
<path d="M236.553 121.849L237.725 123.598L232.793 126.052L231.621 124.302L236.553 121.849Z" fill="#E4E4E4"/>
<path d="M241.658 114.242L244.001 114.325L243.768 119.228L241.425 119.145L241.658 114.242Z" fill="#E4E4E4"/>
</g>
</svg>
