<svg width="280" height="200" viewBox="0 0 280 200" fill="none" xmlns="http://www.w3.org/2000/svg">
<mask id="mask0_136_1905" style="mask-type:alpha" maskUnits="userSpaceOnUse" x="0" y="0" width="280" height="200">
<rect width="280" height="200" fill="#D9D9D9"/>
</mask>
<g mask="url(#mask0_136_1905)">
<path d="M280 113.566C280 101.146 269.925 71.6758 257.497 71.6758C245.07 71.6758 234.995 101.146 234.995 113.566C234.999 119.531 237.372 125.25 241.592 129.467C245.811 133.683 251.532 136.052 257.498 136.052C263.463 136.052 269.184 133.683 273.403 129.467C277.623 125.25 279.996 119.531 280 113.566Z" fill="#F2F2F2"/>
<path d="M257.498 163.395C257.429 163.395 257.364 163.368 257.316 163.319C257.267 163.271 257.24 163.206 257.24 163.137V110.607C257.24 110.539 257.267 110.474 257.316 110.425C257.364 110.377 257.429 110.35 257.498 110.35C257.566 110.35 257.631 110.377 257.68 110.425C257.728 110.474 257.755 110.539 257.755 110.607V163.137C257.755 163.206 257.728 163.271 257.68 163.319C257.631 163.368 257.566 163.395 257.498 163.395Z" fill="#CCCCCC"/>
<path d="M257.498 120.422C257.461 120.422 257.424 120.414 257.391 120.399C257.357 120.384 257.327 120.361 257.303 120.333L244.361 105.409C244.317 105.357 244.295 105.29 244.299 105.222C244.304 105.154 244.336 105.091 244.388 105.046C244.439 105.001 244.506 104.979 244.574 104.984C244.642 104.988 244.706 105.02 244.75 105.071L257.692 119.996C257.724 120.033 257.745 120.079 257.752 120.128C257.759 120.177 257.752 120.227 257.732 120.271C257.711 120.316 257.678 120.354 257.637 120.381C257.595 120.408 257.547 120.422 257.498 120.422Z" fill="#CCCCCC"/>
<path d="M257.497 129.035C257.447 129.035 257.397 129.02 257.355 128.992C257.312 128.963 257.279 128.923 257.26 128.876C257.24 128.829 257.235 128.778 257.245 128.728C257.255 128.678 257.28 128.632 257.316 128.596L264.669 121.242C264.718 121.194 264.783 121.167 264.851 121.167C264.919 121.167 264.984 121.194 265.033 121.243C265.081 121.291 265.108 121.356 265.108 121.424C265.108 121.492 265.081 121.558 265.033 121.606L257.679 128.96C257.656 128.984 257.627 129.003 257.596 129.016C257.565 129.029 257.531 129.035 257.497 129.035Z" fill="#CCCCCC"/>
<path d="M31.87 135.335C31.87 128.341 26.1967 111.746 19.1984 111.746C12.2001 111.746 6.52686 128.341 6.52686 135.335C6.52873 138.694 7.86458 141.916 10.2408 144.29C12.6169 146.665 15.8389 147.999 19.1984 147.999C22.5579 147.999 25.7799 146.665 28.1561 144.29C30.5323 141.916 31.8681 138.694 31.87 135.335Z" fill="#F2F2F2"/>
<path d="M19.1984 163.395C19.1599 163.395 19.1231 163.379 19.0959 163.352C19.0687 163.325 19.0535 163.288 19.0535 163.25V133.669C19.0535 133.631 19.0687 133.594 19.0959 133.567C19.1231 133.539 19.1599 133.524 19.1984 133.524C19.2368 133.524 19.2737 133.539 19.3008 133.567C19.328 133.594 19.3433 133.631 19.3433 133.669V163.25C19.3433 163.288 19.328 163.325 19.3008 163.352C19.2737 163.379 19.2368 163.395 19.1984 163.395Z" fill="#CCCCCC"/>
<path d="M19.1987 139.196C19.1779 139.196 19.1573 139.191 19.1384 139.183C19.1195 139.174 19.1027 139.162 19.0891 139.146L11.8014 130.741C11.7764 130.712 11.7639 130.675 11.7667 130.636C11.7695 130.598 11.7874 130.563 11.8163 130.537C11.8453 130.512 11.883 130.5 11.9213 130.502C11.9595 130.505 11.9952 130.523 12.0204 130.551L19.3081 138.956C19.3263 138.977 19.3381 139.003 19.342 139.03C19.346 139.058 19.342 139.086 19.3304 139.111C19.3189 139.136 19.3004 139.158 19.277 139.173C19.2536 139.188 19.2265 139.196 19.1987 139.196Z" fill="#CCCCCC"/>
<path d="M19.1986 144.046C19.1699 144.046 19.1419 144.038 19.1181 144.022C19.0943 144.006 19.0757 143.983 19.0647 143.957C19.0538 143.93 19.0509 143.901 19.0565 143.873C19.0621 143.845 19.0759 143.819 19.0961 143.799L23.2371 139.658C23.2643 139.63 23.3012 139.615 23.3396 139.615C23.378 139.615 23.4149 139.63 23.442 139.658C23.4692 139.685 23.4845 139.722 23.4845 139.76C23.4845 139.799 23.4692 139.835 23.442 139.863L19.301 144.004C19.2876 144.017 19.2716 144.028 19.254 144.035C19.2365 144.042 19.2176 144.046 19.1986 144.046Z" fill="#CCCCCC"/>
<path d="M5.47388 163.203C5.47388 161.8 6.03122 160.454 7.0233 159.462C8.01538 158.47 9.36093 157.913 10.7639 157.913C12.167 157.913 13.5125 158.47 14.5046 159.462C15.4967 160.454 16.054 161.8 16.054 163.203" fill="#F2F2F2"/>
<path d="M10.7641 163.203C10.7261 163.203 10.6898 163.188 10.663 163.161C10.6362 163.134 10.6211 163.098 10.6211 163.06V160.272C10.6211 160.234 10.6362 160.197 10.663 160.171C10.6898 160.144 10.7261 160.129 10.7641 160.129C10.802 160.129 10.8383 160.144 10.8652 160.171C10.892 160.197 10.907 160.234 10.907 160.272V163.06C10.907 163.098 10.892 163.134 10.8652 163.161C10.8383 163.188 10.802 163.203 10.7641 163.203Z" fill="#CCCCCC"/>
<path d="M10.764 162.245C10.7298 162.245 10.6968 162.233 10.6709 162.21L8.95523 160.738C8.94091 160.726 8.92914 160.711 8.9206 160.694C8.91207 160.677 8.90692 160.659 8.90546 160.64C8.904 160.621 8.90626 160.603 8.91211 160.585C8.91795 160.567 8.92726 160.55 8.93952 160.536C8.95177 160.522 8.96672 160.51 8.98351 160.501C9.0003 160.493 9.0186 160.488 9.03736 160.486C9.05612 160.485 9.07497 160.487 9.09284 160.493C9.1107 160.499 9.12722 160.509 9.14146 160.521L10.8572 161.993C10.8793 162.012 10.8951 162.038 10.9024 162.066C10.9098 162.094 10.9082 162.124 10.8981 162.152C10.8879 162.179 10.8696 162.203 10.8457 162.219C10.8217 162.236 10.7932 162.245 10.764 162.245Z" fill="#CCCCCC"/>
<path d="M21.7732 163.203C21.7732 161.8 22.3305 160.454 23.3226 159.462C24.3147 158.47 25.6602 157.913 27.0633 157.913C28.4663 157.913 29.8118 158.47 30.8039 159.462C31.796 160.454 32.3533 161.8 32.3533 163.203" fill="#F2F2F2"/>
<path d="M27.0631 163.203C27.0252 163.203 26.9888 163.188 26.962 163.161C26.9352 163.134 26.9202 163.098 26.9202 163.06V160.272C26.9202 160.234 26.9352 160.197 26.962 160.171C26.9888 160.144 27.0252 160.129 27.0631 160.129C27.1011 160.129 27.1374 160.144 27.1642 160.171C27.191 160.197 27.2061 160.234 27.2061 160.272V163.06C27.2061 163.098 27.191 163.134 27.1642 163.161C27.1374 163.188 27.1011 163.203 27.0631 163.203Z" fill="#CCCCCC"/>
<path d="M27.0632 162.245C27.029 162.245 26.996 162.233 26.9701 162.21L25.2544 160.738C25.2257 160.713 25.2079 160.678 25.205 160.64C25.2021 160.602 25.2144 160.565 25.2391 160.536C25.2638 160.507 25.2989 160.49 25.3367 160.487C25.3745 160.484 25.4119 160.496 25.4407 160.521L27.1564 161.993C27.1786 162.012 27.1944 162.038 27.2017 162.066C27.209 162.094 27.2075 162.124 27.1973 162.152C27.1872 162.179 27.1689 162.203 27.1449 162.219C27.1209 162.236 27.0924 162.245 27.0632 162.245Z" fill="#CCCCCC"/>
<path d="M119.872 142.183C87.5646 142.183 61.2805 115.899 61.2805 83.5917C61.2805 51.2842 87.5646 25 119.872 25C152.18 25 178.464 51.2842 178.464 83.5917C178.464 115.899 152.18 142.183 119.872 142.183ZM119.872 25.7865C87.9983 25.7865 62.067 51.7177 62.067 83.5917C62.067 115.466 87.9983 141.397 119.872 141.397C151.746 141.397 177.677 115.466 177.677 83.5917C177.677 51.7177 151.746 25.7865 119.872 25.7865Z" fill="#CCCCCC"/>
<path d="M119.872 79.2661C119.768 79.2661 119.668 79.2247 119.594 79.151C119.52 79.0772 119.479 78.9772 119.479 78.8729V25.3932C119.479 25.2889 119.52 25.1889 119.594 25.1152C119.668 25.0414 119.768 25 119.872 25C119.977 25 120.077 25.0414 120.15 25.1152C120.224 25.1889 120.265 25.2889 120.265 25.3932V78.8729C120.265 78.9772 120.224 79.0772 120.15 79.1509C120.077 79.2247 119.977 79.2661 119.872 79.2661Z" fill="#CCCCCC"/>
<path d="M178.071 83.985H124.591C124.487 83.985 124.387 83.9435 124.313 83.8698C124.239 83.796 124.198 83.696 124.198 83.5917C124.198 83.4874 124.239 83.3874 124.313 83.3137C124.387 83.2399 124.487 83.1985 124.591 83.1985H178.071C178.175 83.1985 178.275 83.2399 178.349 83.3137C178.422 83.3874 178.464 83.4874 178.464 83.5917C178.464 83.696 178.422 83.796 178.349 83.8698C178.275 83.9435 178.175 83.985 178.071 83.985Z" fill="#CCCCCC"/>
<path d="M115.153 83.985H61.6991C61.5948 83.985 61.4948 83.9435 61.4211 83.8698C61.3473 83.796 61.3059 83.696 61.3059 83.5917C61.3059 83.4874 61.3473 83.3874 61.4211 83.3137C61.4948 83.2399 61.5948 83.1985 61.6991 83.1985H115.153C115.258 83.1985 115.358 83.2399 115.432 83.3137C115.505 83.3874 115.547 83.4874 115.547 83.5917C115.547 83.696 115.505 83.796 115.432 83.8698C115.358 83.9435 115.258 83.985 115.153 83.985Z" fill="#CCCCCC"/>
<path d="M119.872 142.183C119.768 142.183 119.668 142.142 119.594 142.068C119.52 141.994 119.479 141.894 119.479 141.79V88.3105C119.479 88.2062 119.52 88.1062 119.594 88.0324C119.668 87.9587 119.768 87.9172 119.872 87.9172C119.977 87.9172 120.077 87.9587 120.15 88.0324C120.224 88.1062 120.265 88.2062 120.265 88.3105V141.79C120.265 141.894 120.224 141.994 120.15 142.068C120.077 142.142 119.977 142.183 119.872 142.183Z" fill="#CCCCCC"/>
<path d="M123.339 80.7895C123.261 80.7895 123.185 80.7664 123.121 80.7232C123.056 80.68 123.006 80.6186 122.976 80.5467C122.946 80.4749 122.938 80.3958 122.954 80.3196C122.969 80.2433 123.006 80.1732 123.061 80.1182L160.711 42.4687C160.747 42.4322 160.79 42.4032 160.838 42.3834C160.886 42.3637 160.937 42.3535 160.989 42.3535C161.04 42.3535 161.091 42.3637 161.139 42.3834C161.187 42.4032 161.23 42.4322 161.267 42.4687C161.303 42.5052 161.332 42.5485 161.352 42.5962C161.372 42.6439 161.382 42.6951 161.382 42.7467C161.382 42.7983 161.372 42.8495 161.352 42.8972C161.332 42.9449 161.303 42.9882 161.267 43.0247L123.617 80.6743C123.581 80.7109 123.537 80.7399 123.49 80.7596C123.442 80.7794 123.391 80.7895 123.339 80.7895Z" fill="#CCCCCC"/>
<path d="M116.405 80.7895C116.353 80.7896 116.302 80.7794 116.255 80.7596C116.207 80.7399 116.163 80.7109 116.127 80.6743L78.4775 43.0247C78.4037 42.951 78.3623 42.851 78.3623 42.7467C78.3623 42.6424 78.4037 42.5424 78.4775 42.4687C78.5512 42.3949 78.6512 42.3535 78.7555 42.3535C78.8598 42.3535 78.9598 42.3949 79.0335 42.4687L116.683 80.1182C116.738 80.1732 116.775 80.2433 116.791 80.3195C116.806 80.3958 116.798 80.4749 116.768 80.5467C116.739 80.6185 116.688 80.68 116.623 80.7232C116.559 80.7664 116.483 80.7895 116.405 80.7895Z" fill="#CCCCCC"/>
<path d="M160.989 124.83C160.937 124.83 160.886 124.82 160.838 124.8C160.79 124.78 160.747 124.751 160.711 124.715L123.061 87.065C122.987 86.9913 122.946 86.8913 122.946 86.787C122.946 86.6827 122.987 86.5827 123.061 86.509C123.135 86.4352 123.235 86.3938 123.339 86.3938C123.444 86.3938 123.544 86.4352 123.617 86.509L161.267 124.159C161.322 124.213 161.359 124.284 161.374 124.36C161.389 124.436 161.382 124.515 161.352 124.587C161.322 124.659 161.272 124.72 161.207 124.763C161.142 124.807 161.066 124.83 160.989 124.83Z" fill="#CCCCCC"/>
<path d="M78.7557 124.83C78.6779 124.83 78.6019 124.807 78.5373 124.764C78.4726 124.72 78.4222 124.659 78.3925 124.587C78.3627 124.515 78.3549 124.436 78.3701 124.36C78.3853 124.284 78.4227 124.214 78.4777 124.159L116.127 86.5092C116.164 86.4727 116.207 86.4437 116.255 86.424C116.302 86.4042 116.354 86.394 116.405 86.394C116.457 86.394 116.508 86.4042 116.556 86.424C116.603 86.4437 116.647 86.4727 116.683 86.5092C116.72 86.5457 116.749 86.5891 116.769 86.6368C116.788 86.6845 116.798 86.7356 116.798 86.7872C116.798 86.8389 116.788 86.89 116.769 86.9377C116.749 86.9854 116.72 87.0287 116.683 87.0653L79.0337 124.715C78.9973 124.751 78.9539 124.78 78.9062 124.8C78.8585 124.82 78.8073 124.83 78.7557 124.83Z" fill="#CCCCCC"/>
<path d="M119.872 123.898C111.9 123.898 104.108 121.534 97.4793 117.105C90.8509 112.676 85.6848 106.381 82.6341 99.0164C79.5834 91.6513 78.7852 83.5471 80.3404 75.7284C81.8956 67.9097 85.7345 60.7278 91.3714 55.0909C97.0083 49.4539 104.19 45.6151 112.009 44.0599C119.828 42.5047 127.932 43.3029 135.297 46.3536C142.662 49.4043 148.957 54.5704 153.386 61.1988C157.815 67.8271 160.179 75.6199 160.179 83.5918C160.167 94.278 155.916 104.523 148.36 112.079C140.804 119.636 130.559 123.886 119.872 123.898ZM119.872 44.0719C112.056 44.0719 104.415 46.3897 97.9162 50.7322C91.4172 55.0747 86.3518 61.2469 83.3607 68.4682C80.3695 75.6895 79.5869 83.6356 81.1118 91.3017C82.6367 98.9678 86.4006 106.01 91.9275 111.537C97.4545 117.064 104.496 120.827 112.162 122.352C119.828 123.877 127.775 123.095 134.996 120.103C142.217 117.112 148.389 112.047 152.732 105.548C157.074 99.0488 159.392 91.4081 159.392 83.5918C159.38 73.1141 155.213 63.0689 147.804 55.6601C140.395 48.2512 130.35 44.0837 119.872 44.0719Z" fill="#CCCCCC"/>
<path d="M119.872 88.3104C122.478 88.3104 124.591 86.1977 124.591 83.5916C124.591 80.9855 122.478 78.8728 119.872 78.8728C117.266 78.8728 115.154 80.9855 115.154 83.5916C115.154 86.1977 117.266 88.3104 119.872 88.3104Z" fill="#3F3D56"/>
<path d="M101.604 163.298L97.458 163.418L117.693 81.7454L121.454 82.8928L101.604 163.298Z" fill="#3F3D56"/>
<path d="M138.141 163.298L142.287 163.418L122.052 81.7454L118.291 82.8928L138.141 163.298Z" fill="#3F3D56"/>
<path d="M126.164 37.1902H113.187V44.2684H126.164V37.1902Z" fill="#CCCCCC"/>
<path d="M119.086 38.7632H113.974V44.2684H119.086V38.7632Z" fill="white"/>
<path d="M125.377 38.7632H120.265V44.2684H125.377V38.7632Z" fill="white"/>
<path d="M119.676 51.9364C117.695 51.9341 115.796 51.1462 114.395 49.7456C112.994 48.3449 112.206 46.4458 112.204 44.4649V44.2683C112.205 43.7992 112.391 43.3494 112.723 43.0177C113.055 42.6859 113.504 42.4993 113.974 42.4988H125.377C125.847 42.4993 126.296 42.6859 126.628 43.0177C126.96 43.3494 127.146 43.7992 127.147 44.2683V44.4649C127.145 46.4458 126.357 48.3449 124.956 49.7456C123.555 51.1462 121.656 51.9341 119.676 51.9364Z" fill="#CCCCCC"/>
<path d="M125.678 38.9599H113.673C113.506 38.9599 113.341 38.9171 113.195 38.8355C113.048 38.7539 112.925 38.6362 112.837 38.4936C112.749 38.3511 112.699 38.1884 112.691 38.0209C112.684 37.8535 112.719 37.687 112.794 37.5371L115.153 32.8183C115.235 32.6546 115.36 32.5169 115.515 32.4209C115.671 32.3248 115.85 32.2743 116.033 32.2749H123.318C123.501 32.2743 123.68 32.3248 123.836 32.4209C123.991 32.5169 124.117 32.6546 124.198 32.8183L126.557 37.5371C126.632 37.687 126.668 37.8535 126.66 38.0209C126.652 38.1884 126.602 38.3511 126.514 38.4936C126.426 38.6362 126.303 38.7539 126.157 38.8355C126.01 38.9171 125.845 38.9599 125.678 38.9599Z" fill="#46b4bc"/>
<path d="M161.162 52.9194H148.185V59.9976H161.162V52.9194Z" fill="#CCCCCC"/>
<path d="M154.083 54.4924H148.971V59.9977H154.083V54.4924Z" fill="white"/>
<path d="M160.375 54.4924H155.263V59.9977H160.375V54.4924Z" fill="white"/>
<path d="M154.673 67.6659C152.692 67.6636 150.793 66.8757 149.393 65.475C147.992 64.0744 147.204 62.1753 147.202 60.1944V59.9978C147.202 59.5287 147.389 59.0789 147.721 58.7471C148.053 58.4154 148.502 58.2288 148.971 58.2283H160.375C160.844 58.2288 161.294 58.4154 161.626 58.7471C161.958 59.0789 162.144 59.5287 162.145 59.9978V60.1944C162.143 62.1753 161.355 64.0744 159.954 65.475C158.553 66.8757 156.654 67.6636 154.673 67.6659Z" fill="#CCCCCC"/>
<path d="M151.03 48.3975C150.921 48.3971 150.813 48.4275 150.72 48.4851C150.627 48.5427 150.551 48.6253 150.503 48.7235L148.143 53.4423C148.098 53.5322 148.077 53.6322 148.082 53.7326C148.086 53.8331 148.116 53.9307 148.169 54.0162C148.222 54.1018 148.296 54.1724 148.384 54.2213C148.471 54.2703 148.57 54.296 148.671 54.296H160.675C160.776 54.296 160.875 54.2703 160.963 54.2213C161.051 54.1724 161.124 54.1018 161.177 54.0162C161.23 53.9307 161.26 53.8331 161.265 53.7326C161.269 53.6322 161.248 53.5322 161.203 53.4423L158.844 48.7235C158.795 48.6253 158.72 48.5427 158.626 48.4851C158.533 48.4275 158.426 48.3971 158.316 48.3975H151.03Z" fill="#46b4bc"/>
<path d="M174.925 88.3105H161.948V95.3887H174.925V88.3105Z" fill="#CCCCCC"/>
<path d="M167.847 89.8833H162.735V95.3886H167.847V89.8833Z" fill="white"/>
<path d="M174.138 89.8833H169.026V95.3886H174.138V89.8833Z" fill="white"/>
<path d="M168.437 103.057C166.456 103.054 164.557 102.267 163.156 100.866C161.755 99.4652 160.967 97.5662 160.965 95.5853V95.3887C160.966 94.9195 161.152 94.4698 161.484 94.138C161.816 93.8063 162.265 93.6197 162.735 93.6191H174.138C174.608 93.6197 175.057 93.8063 175.389 94.138C175.721 94.4698 175.907 94.9195 175.908 95.3887V95.5853C175.906 97.5662 175.118 99.4652 173.717 100.866C172.316 102.267 170.417 103.054 168.437 103.057Z" fill="#CCCCCC"/>
<path d="M174.439 90.08H162.434C162.267 90.08 162.102 90.0372 161.956 89.9556C161.809 89.874 161.686 89.7563 161.598 89.6138C161.51 89.4712 161.46 89.3085 161.452 89.1411C161.445 88.9736 161.48 88.8071 161.555 88.6572L163.914 83.9384C163.996 83.7747 164.121 83.637 164.276 83.541C164.432 83.445 164.611 83.3944 164.794 83.395H172.079C172.262 83.3944 172.441 83.445 172.597 83.541C172.752 83.637 172.878 83.7747 172.959 83.9384L175.318 88.6572C175.393 88.8071 175.429 88.9736 175.421 89.1411C175.413 89.3085 175.363 89.4712 175.275 89.6137C175.187 89.7563 175.064 89.874 174.918 89.9556C174.771 90.0372 174.606 90.08 174.439 90.08Z" fill="#46b4bc"/>
<path d="M160.375 121.342H147.398V128.42H160.375V121.342Z" fill="#CCCCCC"/>
<path d="M153.297 122.915H148.185V128.42H153.297V122.915Z" fill="white"/>
<path d="M159.589 122.915H154.477V128.42H159.589V122.915Z" fill="white"/>
<path d="M153.887 136.088C151.906 136.086 150.007 135.298 148.606 133.897C147.206 132.497 146.418 130.598 146.416 128.617V128.42C146.416 127.951 146.603 127.501 146.934 127.169C147.266 126.838 147.716 126.651 148.185 126.651H159.589C160.058 126.651 160.508 126.838 160.839 127.169C161.171 127.501 161.358 127.951 161.358 128.42V128.617C161.356 130.598 160.568 132.497 159.168 133.897C157.767 135.298 155.868 136.086 153.887 136.088Z" fill="#CCCCCC"/>
<path d="M159.889 123.111H147.885C147.717 123.111 147.552 123.069 147.406 122.987C147.259 122.905 147.136 122.788 147.048 122.645C146.96 122.503 146.91 122.34 146.902 122.173C146.895 122.005 146.93 121.839 147.005 121.689L149.365 116.97C149.446 116.806 149.571 116.669 149.727 116.572C149.882 116.476 150.061 116.426 150.244 116.427H157.53C157.712 116.426 157.892 116.476 158.047 116.572C158.202 116.669 158.328 116.806 158.409 116.97L160.768 121.689C160.843 121.839 160.879 122.005 160.871 122.173C160.864 122.34 160.813 122.503 160.725 122.645C160.637 122.788 160.514 122.905 160.368 122.987C160.221 123.069 160.057 123.111 159.889 123.111Z" fill="#46b4bc"/>
<path d="M78.5829 59.9978H91.5596V52.9196H78.5829V59.9978Z" fill="#CCCCCC"/>
<path d="M85.6609 59.9978H90.7729V54.4925H85.6609V59.9978Z" fill="white"/>
<path d="M79.3692 59.9978H84.4812V54.4925H79.3692V59.9978Z" fill="white"/>
<path d="M85.071 67.6659C83.0902 67.6636 81.1911 66.8757 79.7904 65.475C78.3897 64.0744 77.6019 62.1753 77.5996 60.1944V59.9978C77.6001 59.5287 77.7867 59.0789 78.1185 58.7471C78.4502 58.4154 78.9 58.2288 79.3692 58.2283H90.7729C91.2421 58.2288 91.6918 58.4154 92.0236 58.7471C92.3553 59.0789 92.5419 59.5287 92.5425 59.9978V60.1944C92.5402 62.1753 91.7523 64.0744 90.3516 65.475C88.951 66.8757 87.0519 67.6636 85.071 67.6659Z" fill="#CCCCCC"/>
<path d="M91.0734 54.6891H79.0688C78.9012 54.6891 78.7364 54.6463 78.5901 54.5647C78.4437 54.4831 78.3206 54.3654 78.2325 54.2229C78.1444 54.0803 78.0942 53.9176 78.0867 53.7502C78.0792 53.5828 78.1146 53.4162 78.1895 53.2663L80.5489 48.5475C80.6301 48.3838 80.7555 48.2462 80.9109 48.1501C81.0663 48.0541 81.2455 48.0035 81.4282 48.0042H88.714C88.8967 48.0035 89.0759 48.0541 89.2313 48.1501C89.3867 48.2462 89.5121 48.3838 89.5933 48.5475L91.9527 53.2663C92.0276 53.4162 92.063 53.5828 92.0555 53.7502C92.048 53.9176 91.9978 54.0803 91.9097 54.2229C91.8216 54.3654 91.6985 54.4831 91.5521 54.5647C91.4058 54.6463 91.241 54.6891 91.0734 54.6891Z" fill="#46b4bc"/>
<path d="M64.8197 95.3887H77.7964V88.3105H64.8197V95.3887Z" fill="#CCCCCC"/>
<path d="M71.8977 95.3887H77.0098V89.8834H71.8977V95.3887Z" fill="white"/>
<path d="M65.6062 95.3887H70.7183V89.8834H65.6062V95.3887Z" fill="white"/>
<path d="M71.3081 103.057C69.3272 103.054 67.4282 102.267 66.0275 100.866C64.6268 99.4652 63.8389 97.5662 63.8367 95.5853V95.3887C63.8372 94.9195 64.0238 94.4698 64.3555 94.138C64.6873 93.8063 65.1371 93.6197 65.6062 93.6191H77.01C77.4791 93.6197 77.9289 93.8063 78.2606 94.138C78.5924 94.4698 78.779 94.9195 78.7795 95.3887V95.5853C78.7773 97.5662 77.9894 99.4652 76.5887 100.866C75.188 102.267 73.2889 103.054 71.3081 103.057Z" fill="#CCCCCC"/>
<path d="M77.3102 90.08H65.3056C65.1381 90.08 64.9733 90.0372 64.8269 89.9556C64.6805 89.874 64.5574 89.7563 64.4693 89.6138C64.3812 89.4712 64.331 89.3085 64.3235 89.1411C64.316 88.9736 64.3514 88.8071 64.4263 88.6572L66.7857 83.9384C66.8669 83.7747 66.9923 83.637 67.1477 83.541C67.3031 83.445 67.4823 83.3944 67.665 83.395H74.9508C75.1335 83.3944 75.3127 83.445 75.4681 83.541C75.6236 83.637 75.749 83.7747 75.8301 83.9384L78.1895 88.6572C78.2645 88.8071 78.2998 88.9736 78.2923 89.1411C78.2848 89.3085 78.2346 89.4712 78.1465 89.6137C78.0584 89.7563 77.9353 89.874 77.789 89.9556C77.6426 90.0372 77.4778 90.08 77.3102 90.08Z" fill="#46b4bc"/>
<path d="M79.3693 128.42H92.3459V121.342H79.3693V128.42Z" fill="#CCCCCC"/>
<path d="M86.4475 128.42H91.5596V122.915H86.4475V128.42Z" fill="white"/>
<path d="M80.1558 128.42H85.2678V122.915H80.1558V128.42Z" fill="white"/>
<path d="M85.8577 136.088C83.8768 136.086 81.9777 135.298 80.577 133.897C79.1764 132.497 78.3885 130.598 78.3862 128.617V128.42C78.3868 127.951 78.5734 127.501 78.9051 127.169C79.2368 126.838 79.6866 126.651 80.1558 126.651H91.5595C92.0287 126.651 92.4785 126.838 92.8102 127.169C93.1419 127.501 93.3285 127.951 93.3291 128.42V128.617C93.3268 130.598 92.5389 132.497 91.1383 133.897C89.7376 135.298 87.8385 136.086 85.8577 136.088Z" fill="#CCCCCC"/>
<path d="M91.8598 123.111H79.8552C79.6876 123.111 79.5228 123.069 79.3764 122.987C79.2301 122.905 79.107 122.788 79.0189 122.645C78.9308 122.503 78.8806 122.34 78.8731 122.173C78.8655 122.005 78.9009 121.839 78.9759 121.689L81.3353 116.97C81.4164 116.806 81.5418 116.669 81.6973 116.572C81.8527 116.476 82.0319 116.426 82.2146 116.427H89.5004C89.6831 116.426 89.8623 116.476 90.0177 116.572C90.1731 116.669 90.2985 116.806 90.3797 116.97L92.7391 121.689C92.814 121.839 92.8494 122.005 92.8419 122.173C92.8344 122.34 92.7842 122.503 92.6961 122.645C92.608 122.788 92.4849 122.905 92.3385 122.987C92.1921 123.069 92.0273 123.111 91.8598 123.111Z" fill="#46b4bc"/>
<path d="M126.164 136.285H113.187V143.363H126.164V136.285Z" fill="#CCCCCC"/>
<path d="M119.086 137.858H113.974V143.363H119.086V137.858Z" fill="white"/>
<path d="M125.377 137.858H120.265V143.363H125.377V137.858Z" fill="white"/>
<path d="M113.974 141.987C113.609 141.987 113.259 142.132 113.001 142.39C112.743 142.648 112.598 142.998 112.597 143.363V143.56C112.597 145.437 113.343 147.237 114.671 148.565C115.998 149.892 117.798 150.638 119.676 150.638C121.553 150.638 123.353 149.892 124.681 148.565C126.008 147.237 126.754 145.437 126.754 143.56V143.363C126.753 142.998 126.608 142.648 126.35 142.39C126.092 142.132 125.742 141.987 125.377 141.987H113.974Z" fill="#CCCCCC"/>
<path d="M116.033 131.763C115.923 131.762 115.816 131.793 115.722 131.85C115.629 131.908 115.554 131.991 115.505 132.089L113.146 136.808C113.101 136.897 113.08 136.997 113.084 137.098C113.089 137.198 113.119 137.296 113.172 137.381C113.224 137.467 113.298 137.538 113.386 137.587C113.474 137.636 113.573 137.661 113.673 137.661H125.678C125.778 137.661 125.877 137.636 125.965 137.587C126.053 137.538 126.127 137.467 126.18 137.381C126.233 137.296 126.263 137.198 126.267 137.098C126.272 136.997 126.25 136.897 126.205 136.808L123.846 132.089C123.797 131.991 123.722 131.908 123.629 131.85C123.536 131.793 123.428 131.762 123.319 131.763H116.033Z" fill="#46b4bc"/>
<path d="M208.038 151.621C208.143 151.621 208.243 151.58 208.316 151.506C208.39 151.432 208.432 151.332 208.432 151.228C208.432 151.123 208.39 151.023 208.316 150.95C208.243 150.876 208.143 150.834 208.038 150.834H204.303V149.262H208.038C208.143 149.262 208.243 149.22 208.316 149.146C208.39 149.073 208.432 148.973 208.432 148.868C208.432 148.764 208.39 148.664 208.316 148.59C208.243 148.517 208.143 148.475 208.038 148.475H176.186C176.082 148.475 175.982 148.517 175.908 148.59C175.835 148.664 175.793 148.764 175.793 148.868C175.793 148.973 175.835 149.073 175.908 149.146C175.982 149.22 176.082 149.262 176.186 149.262H179.922V150.834H176.186C176.082 150.834 175.982 150.876 175.908 150.95C175.835 151.023 175.793 151.123 175.793 151.228C175.793 151.332 175.835 151.432 175.908 151.506C175.982 151.58 176.082 151.621 176.186 151.621H179.922V153.194H176.186C176.082 153.194 175.982 153.235 175.908 153.309C175.835 153.383 175.793 153.483 175.793 153.587C175.793 153.691 175.835 153.791 175.908 153.865C175.982 153.939 176.082 153.98 176.186 153.98H179.922V155.553H176.58C176.371 155.553 176.171 155.636 176.024 155.784C175.876 155.931 175.793 156.131 175.793 156.34C175.793 156.548 175.876 156.748 176.024 156.896C176.171 157.043 176.371 157.126 176.58 157.126H179.762C179.738 157.189 179.726 157.256 179.726 157.323V162.828C179.726 162.985 179.788 163.135 179.898 163.245C180.009 163.356 180.159 163.418 180.315 163.418C180.472 163.418 180.622 163.356 180.732 163.245C180.843 163.135 180.905 162.985 180.905 162.828V157.323C180.905 157.256 180.892 157.189 180.869 157.126H203.356C203.332 157.189 203.32 157.256 203.32 157.323V162.828C203.32 162.985 203.382 163.135 203.492 163.245C203.603 163.356 203.753 163.418 203.909 163.418C204.066 163.418 204.216 163.356 204.326 163.245C204.437 163.135 204.499 162.985 204.499 162.828V157.323C204.499 157.256 204.486 157.189 204.463 157.126H207.645C207.854 157.126 208.054 157.043 208.201 156.896C208.349 156.748 208.432 156.548 208.432 156.34C208.432 156.131 208.349 155.931 208.201 155.784C208.054 155.636 207.854 155.553 207.645 155.553H204.303V153.98H208.038C208.143 153.98 208.243 153.939 208.316 153.865C208.39 153.791 208.432 153.691 208.432 153.587C208.432 153.483 208.39 153.383 208.316 153.309C208.243 153.235 208.143 153.194 208.038 153.194H204.303V151.621H208.038ZM180.709 149.262H203.516V150.834H180.709V149.262ZM203.516 155.553H180.709V153.98H203.516V155.553ZM203.516 153.194H180.709V151.621H203.516V153.194Z" fill="#3F3D56"/>
<path d="M74.3393 151.621C74.4436 151.621 74.5436 151.58 74.6174 151.506C74.6911 151.432 74.7326 151.332 74.7326 151.228C74.7326 151.123 74.6911 151.023 74.6174 150.95C74.5436 150.876 74.4436 150.834 74.3393 150.834H70.6036V149.262H74.3393C74.4436 149.262 74.5436 149.22 74.6174 149.146C74.6911 149.073 74.7326 148.973 74.7326 148.868C74.7326 148.764 74.6911 148.664 74.6174 148.59C74.5436 148.517 74.4436 148.475 74.3393 148.475H42.4875C42.3832 148.475 42.2832 148.517 42.2094 148.59C42.1357 148.664 42.0942 148.764 42.0942 148.868C42.0942 148.973 42.1357 149.073 42.2094 149.146C42.2832 149.22 42.3832 149.262 42.4875 149.262H46.2232V150.834H42.4875C42.3832 150.834 42.2832 150.876 42.2094 150.95C42.1357 151.023 42.0942 151.123 42.0942 151.228C42.0942 151.332 42.1357 151.432 42.2094 151.506C42.2832 151.58 42.3832 151.621 42.4875 151.621H46.2232V153.194H42.4875C42.3832 153.194 42.2832 153.235 42.2094 153.309C42.1357 153.383 42.0942 153.483 42.0942 153.587C42.0942 153.691 42.1357 153.791 42.2094 153.865C42.2832 153.939 42.3832 153.98 42.4875 153.98H46.2232V155.553H42.8807C42.6721 155.553 42.4721 155.636 42.3246 155.784C42.1771 155.931 42.0942 156.131 42.0942 156.34C42.0942 156.548 42.1771 156.748 42.3246 156.896C42.4721 157.043 42.6721 157.126 42.8807 157.126H46.0627C46.0395 157.189 46.0273 157.256 46.0266 157.323V162.828C46.0266 162.985 46.0887 163.135 46.1993 163.245C46.31 163.356 46.46 163.418 46.6164 163.418C46.7729 163.418 46.9229 163.356 47.0335 163.245C47.1441 163.135 47.2063 162.985 47.2063 162.828V157.323C47.2056 157.256 47.1934 157.189 47.1702 157.126H69.6566C69.6334 157.189 69.6212 157.256 69.6205 157.323V162.828C69.6205 162.985 69.6827 163.135 69.7933 163.245C69.9039 163.356 70.054 163.418 70.2104 163.418C70.3668 163.418 70.5169 163.356 70.6275 163.245C70.7381 163.135 70.8002 162.985 70.8002 162.828V157.323C70.7996 157.256 70.7873 157.189 70.7641 157.126H73.9461C74.1547 157.126 74.3547 157.043 74.5022 156.896C74.6497 156.748 74.7326 156.548 74.7326 156.34C74.7326 156.131 74.6497 155.931 74.5022 155.784C74.3547 155.636 74.1547 155.553 73.9461 155.553H70.6036V153.98H74.3393C74.4436 153.98 74.5436 153.939 74.6174 153.865C74.6911 153.791 74.7326 153.691 74.7326 153.587C74.7326 153.483 74.6911 153.383 74.6174 153.309C74.5436 153.235 74.4436 153.194 74.3393 153.194H70.6036V151.621H74.3393ZM47.0096 149.262H69.8172V150.834H47.0096V149.262ZM69.8172 155.553H47.0096V153.98H69.8172V155.553ZM69.8172 153.194H47.0096V151.621H69.8172V153.194Z" fill="#3F3D56"/>
<path d="M198.208 149.458H197.028C196.871 149.458 196.722 149.396 196.611 149.285C196.5 149.175 196.438 149.025 196.438 148.868V147.689C196.438 147.532 196.5 147.382 196.611 147.272C196.722 147.161 196.871 147.099 197.028 147.099H198.208C198.364 147.099 198.514 147.161 198.624 147.272C198.735 147.382 198.797 147.532 198.797 147.689V148.868C198.797 149.025 198.735 149.175 198.624 149.285C198.514 149.396 198.364 149.458 198.208 149.458Z" fill="#CCCCCC"/>
<path d="M197.64 148.158C197.617 148.158 197.595 148.156 197.573 148.152C197.522 148.144 197.473 148.125 197.429 148.097C197.386 148.07 197.348 148.034 197.318 147.992C197.288 147.95 197.267 147.902 197.256 147.852C197.244 147.801 197.243 147.749 197.252 147.698L201.141 125.069C201.159 124.967 201.216 124.875 201.302 124.815C201.387 124.755 201.492 124.731 201.595 124.749C201.697 124.767 201.789 124.824 201.849 124.909C201.909 124.994 201.933 125.1 201.916 125.202L198.027 147.832C198.011 147.923 197.964 148.006 197.893 148.065C197.822 148.125 197.732 148.158 197.64 148.158Z" fill="#CCCCCC"/>
<path d="M197.639 148.158C197.546 148.158 197.457 148.125 197.386 148.066C197.315 148.006 197.267 147.923 197.252 147.832L193.363 125.203C193.345 125.1 193.369 124.994 193.429 124.909C193.489 124.824 193.581 124.766 193.684 124.748C193.787 124.731 193.892 124.755 193.977 124.815C194.063 124.875 194.12 124.967 194.138 125.069L198.027 147.698C198.036 147.749 198.034 147.801 198.023 147.852C198.011 147.902 197.99 147.95 197.96 147.992C197.931 148.034 197.893 148.07 197.849 148.098C197.805 148.125 197.757 148.144 197.706 148.153C197.684 148.156 197.661 148.158 197.639 148.158Z" fill="#CCCCCC"/>
<path d="M206.011 121.196C206.391 118.51 204.956 116.088 202.808 115.784C200.659 115.481 198.611 117.412 198.232 120.098C197.912 122.363 198.884 124.435 200.485 125.213L200.394 125.858L202.339 126.133L202.43 125.487C204.183 125.183 205.692 123.461 206.011 121.196Z" fill="#FF6584"/>
<path d="M196.98 119.974C196.515 117.302 194.405 115.438 192.267 115.81C190.129 116.182 188.774 118.65 189.239 121.322C189.632 123.575 191.195 125.248 192.957 125.496L193.069 126.138L195.004 125.801L194.892 125.159C196.467 124.33 197.372 122.227 196.98 119.974Z" fill="#CCCCCC"/>
<path d="M197.618 147.689C197.514 147.689 197.414 147.647 197.34 147.573C197.266 147.5 197.225 147.4 197.225 147.295V124.033C197.225 123.928 197.266 123.828 197.34 123.755C197.414 123.681 197.514 123.639 197.618 123.639C197.722 123.639 197.822 123.681 197.896 123.755C197.97 123.828 198.011 123.928 198.011 124.033V147.295C198.011 147.4 197.97 147.5 197.896 147.573C197.822 147.647 197.722 147.689 197.618 147.689Z" fill="#CCCCCC"/>
<path d="M201.303 119.564C201.303 116.852 199.544 114.654 197.374 114.654C195.204 114.654 193.446 116.852 193.446 119.564C193.446 121.852 194.698 123.768 196.392 124.314V124.966H198.356V124.314C200.05 123.768 201.303 121.852 201.303 119.564Z" fill="#46b4bc"/>
<path d="M279.386 164.022H0.468212C0.344034 164.022 0.224943 163.973 0.137136 163.885C0.0493286 163.797 0 163.678 0 163.554C0 163.43 0.0493286 163.311 0.137136 163.223C0.224943 163.135 0.344034 163.086 0.468212 163.086H279.386C279.51 163.086 279.629 163.135 279.717 163.223C279.805 163.311 279.854 163.43 279.854 163.554C279.854 163.678 279.805 163.797 279.717 163.885C279.629 163.973 279.51 164.022 279.386 164.022Z" fill="#CCCCCC"/>
<path d="M217.645 163.185L216.75 163.184L216.324 159.735H217.645V163.185Z" fill="#A0616A"/>
<path d="M215.984 162.929H217.836V164.015H215.025V163.888C215.025 163.762 215.05 163.637 215.098 163.521C215.146 163.404 215.217 163.299 215.306 163.21C215.395 163.121 215.5 163.05 215.617 163.002C215.733 162.954 215.858 162.929 215.984 162.929Z" fill="#2F2E41"/>
<path d="M224.134 162.171L223.321 162.543L221.5 159.582L222.701 159.033L224.134 162.171Z" fill="#A0616A"/>
<path d="M222.518 162.629L224.202 161.859L224.654 162.847L222.097 164.015L222.044 163.899C221.991 163.785 221.962 163.661 221.958 163.535C221.953 163.409 221.974 163.284 222.018 163.166C222.062 163.048 222.128 162.94 222.214 162.848C222.3 162.755 222.403 162.681 222.518 162.629Z" fill="#2F2E41"/>
<path d="M217.587 162.275H216.733C216.65 162.275 216.57 162.243 216.51 162.187C216.449 162.13 216.412 162.053 216.406 161.97L215.94 149.527C215.936 149.48 215.943 149.432 215.96 149.387C215.977 149.342 216.004 149.302 216.038 149.269C216.072 149.235 216.113 149.21 216.158 149.194C216.203 149.178 216.251 149.172 216.299 149.177L221.24 149.702C221.321 149.709 221.395 149.746 221.45 149.806C221.504 149.865 221.535 149.942 221.537 150.022L221.64 155.511C221.641 155.541 221.647 155.57 221.657 155.598L223.685 160.855C223.7 160.895 223.708 160.939 223.706 160.982C223.705 161.026 223.695 161.068 223.677 161.108C223.659 161.148 223.634 161.183 223.602 161.213C223.57 161.243 223.533 161.266 223.492 161.281L222.626 161.6C222.551 161.627 222.468 161.627 222.393 161.598C222.319 161.569 222.257 161.513 222.22 161.442L219.73 156.6C219.717 156.574 219.707 156.546 219.701 156.517L219.275 154.467C219.263 154.408 219.23 154.355 219.182 154.317C219.134 154.28 219.074 154.261 219.014 154.264C218.953 154.267 218.896 154.291 218.851 154.332C218.807 154.374 218.779 154.43 218.772 154.49L217.914 161.984C217.904 162.064 217.866 162.138 217.806 162.192C217.746 162.245 217.668 162.275 217.587 162.275Z" fill="#2F2E41"/>
<path d="M218.013 139.798C219.002 139.798 219.805 138.996 219.805 138.006C219.805 137.017 219.002 136.214 218.013 136.214C217.023 136.214 216.221 137.017 216.221 138.006C216.221 138.996 217.023 139.798 218.013 139.798Z" fill="#A0616A"/>
<path d="M219.248 150.663C218.093 150.648 216.962 150.325 215.973 149.727C215.922 149.695 215.881 149.651 215.853 149.597C215.826 149.544 215.814 149.484 215.819 149.425L216.254 143.196C216.282 142.776 216.408 142.368 216.622 142.005C216.836 141.642 217.132 141.334 217.486 141.106C217.824 140.882 218.21 140.741 218.613 140.693C219.016 140.645 219.424 140.692 219.805 140.83C219.974 140.888 220.133 140.97 220.277 141.074C220.741 141.405 221.106 141.857 221.331 142.381C221.556 142.904 221.633 143.48 221.554 144.044C221.234 146.468 221.596 149.737 221.638 150.102L221.641 150.128L221.617 150.139C220.875 150.484 220.067 150.663 219.248 150.663Z" fill="#46b4bc"/>
<path d="M221.529 151.552C221.615 151.488 221.686 151.406 221.736 151.311C221.786 151.216 221.815 151.112 221.821 151.004C221.826 150.897 221.809 150.79 221.768 150.691C221.728 150.591 221.666 150.502 221.588 150.429L222.639 148.043L221.304 148.27L220.51 150.501C220.396 150.641 220.337 150.818 220.345 150.998C220.353 151.178 220.427 151.35 220.552 151.479C220.678 151.609 220.847 151.688 221.027 151.702C221.207 151.715 221.386 151.662 221.529 151.552Z" fill="#A0616A"/>
<path d="M221.63 150.079C221.585 150.079 221.54 150.069 221.498 150.051C221.456 150.033 221.419 150.006 221.388 149.972L220.997 149.545C220.958 149.503 220.932 149.452 220.919 149.397C220.906 149.342 220.908 149.284 220.924 149.23L221.821 146.191L220.456 143.323C220.396 143.197 220.381 143.054 220.414 142.919C220.443 142.799 220.508 142.692 220.599 142.61C220.69 142.529 220.804 142.477 220.926 142.461C221.048 142.446 221.171 142.467 221.28 142.523C221.389 142.579 221.478 142.667 221.537 142.775L223.383 145.771C223.455 145.888 223.497 146.02 223.506 146.156C223.515 146.293 223.49 146.429 223.433 146.554L221.93 149.886C221.907 149.935 221.873 149.978 221.83 150.011C221.787 150.044 221.736 150.066 221.682 150.075C221.665 150.077 221.648 150.079 221.63 150.079Z" fill="#46b4bc"/>
<path d="M219.489 139.586C219.303 139.618 219.15 139.359 219.127 139.177C219.129 138.997 219.146 138.818 219.178 138.64C219.188 138.546 219.168 138.451 219.12 138.369C219.072 138.288 218.999 138.223 218.912 138.186C218.715 138.13 218.533 138.288 218.331 138.269C218.05 138.243 217.91 137.914 217.876 137.648C217.842 137.383 217.815 137.068 217.572 136.916C217.329 136.765 217.029 136.875 216.751 136.88C216.513 136.877 216.282 136.799 216.091 136.656C215.901 136.513 215.761 136.314 215.691 136.086C215.748 136.102 215.809 136.099 215.864 136.077C215.92 136.055 215.966 136.015 215.996 135.964C216.019 135.909 216.024 135.848 216.009 135.79C215.995 135.733 215.961 135.681 215.914 135.645L216.448 135.906C216.434 135.869 216.429 135.83 216.431 135.791C216.433 135.751 216.444 135.713 216.461 135.678C216.479 135.643 216.504 135.612 216.534 135.587C216.564 135.562 216.599 135.543 216.637 135.532C216.799 135.489 216.969 135.488 217.132 135.527C217.967 135.657 218.935 135.593 219.489 136.23C219.907 136.747 220.138 137.389 220.146 138.054C220.013 138.597 219.791 139.115 219.489 139.586Z" fill="#2F2E41"/>
<path d="M209.988 142.641C210.081 142.588 210.185 142.556 210.292 142.547C210.399 142.538 210.506 142.553 210.607 142.59C210.707 142.628 210.798 142.687 210.874 142.763C210.949 142.84 211.007 142.931 211.042 143.033L213.649 143.014L212.912 144.15L210.549 143.994C210.375 144.043 210.19 144.026 210.027 143.948C209.865 143.869 209.737 143.733 209.668 143.566C209.598 143.4 209.593 143.213 209.652 143.043C209.711 142.872 209.831 142.729 209.988 142.641Z" fill="#A0616A"/>
<path d="M211.345 143.879C211.335 143.835 211.335 143.789 211.345 143.744C211.354 143.7 211.373 143.658 211.4 143.621L211.738 143.15C211.771 143.104 211.816 143.067 211.867 143.044C211.919 143.02 211.975 143.01 212.032 143.014L215.081 142.887L217.719 141.352C217.83 141.267 217.967 141.224 218.106 141.228C218.229 141.233 218.347 141.274 218.446 141.347C218.544 141.42 218.619 141.521 218.658 141.636C218.698 141.752 218.702 141.877 218.67 141.996C218.637 142.114 218.569 142.219 218.476 142.298L215.919 144.717C215.82 144.811 215.699 144.879 215.567 144.915C215.435 144.952 215.296 144.955 215.163 144.926L211.595 144.133C211.542 144.121 211.492 144.096 211.451 144.061C211.41 144.025 211.379 143.98 211.359 143.929C211.353 143.913 211.348 143.896 211.345 143.879Z" fill="#46b4bc"/>
<path d="M166.515 161.715C166.552 161.611 166.566 161.5 166.555 161.39C166.545 161.281 166.51 161.174 166.454 161.079C166.398 160.984 166.322 160.902 166.231 160.84C166.14 160.777 166.036 160.736 165.927 160.718L165.474 158.072L164.456 159.025L165.042 161.391C165.024 161.576 165.074 161.762 165.184 161.912C165.293 162.063 165.453 162.168 165.635 162.208C165.817 162.248 166.006 162.22 166.169 162.129C166.331 162.038 166.454 161.891 166.515 161.715Z" fill="#FFB8B8"/>
<path d="M165.839 160.45L164.84 160.712C164.792 160.724 164.742 160.717 164.699 160.693C164.656 160.669 164.625 160.629 164.611 160.581L162.815 154.217L162.272 152.593C162.22 152.437 162.208 152.27 162.238 152.107C162.267 151.945 162.338 151.793 162.442 151.665C162.546 151.537 162.681 151.438 162.834 151.376C162.987 151.314 163.153 151.292 163.317 151.312C163.506 151.335 163.685 151.413 163.831 151.536C163.977 151.659 164.083 151.822 164.137 152.006L165.573 156.858L165.978 160.246C165.982 160.283 165.975 160.321 165.958 160.355C165.94 160.389 165.913 160.416 165.879 160.434C165.867 160.441 165.853 160.446 165.839 160.45Z" fill="#46b4bc"/>
<path d="M162.186 150.238C163.205 150.238 164.031 149.412 164.031 148.394C164.031 147.375 163.205 146.549 162.186 146.549C161.167 146.549 160.341 147.375 160.341 148.394C160.341 149.412 161.167 150.238 162.186 150.238Z" fill="#FFB8B8"/>
<path d="M156.753 173.633L155.871 173.37L156.464 169.84L157.766 170.228L156.753 173.633Z" fill="#FFB8B8"/>
<path d="M156.724 174.555L153.878 173.708L153.889 173.672C153.932 173.527 154.004 173.391 154.099 173.273C154.195 173.155 154.313 173.058 154.446 172.985C154.58 172.913 154.726 172.868 154.877 172.852C155.028 172.836 155.181 172.851 155.326 172.894L157.065 173.411L156.724 174.555Z" fill="#2F2E41"/>
<path d="M166.424 173.587L165.503 173.587L165.065 170.035L165.973 170.035L166.424 173.587Z" fill="#FFB8B8"/>
<path d="M166.659 174.48L163.689 174.48V174.442C163.689 174.29 163.719 174.14 163.777 174C163.835 173.86 163.92 173.732 164.028 173.625C164.135 173.518 164.262 173.432 164.403 173.374C164.543 173.316 164.693 173.286 164.845 173.286L166.659 173.286L166.659 174.48Z" fill="#2F2E41"/>
<path d="M157.093 172.588H156.169C156.119 172.588 156.07 172.577 156.025 172.556C155.98 172.535 155.941 172.504 155.909 172.466C155.877 172.428 155.854 172.384 155.842 172.336C155.829 172.288 155.827 172.238 155.836 172.189C155.247 171.927 158.421 156.701 159.172 156.996L159.196 156.961L162.974 157.269C164.666 160.655 165.737 166.258 166.739 172.108C166.751 172.156 166.752 172.207 166.743 172.256C166.733 172.305 166.713 172.352 166.683 172.392C166.653 172.432 166.615 172.465 166.57 172.489C166.526 172.512 166.477 172.526 166.427 172.528L165.389 172.579C165.318 172.582 165.249 172.564 165.189 172.526C165.13 172.488 165.084 172.432 165.058 172.367L161.078 162.416C161.07 162.395 161.055 162.376 161.036 162.363C161.017 162.35 160.994 162.344 160.971 162.346C160.948 162.346 160.925 162.353 160.907 162.367C160.888 162.38 160.874 162.399 160.867 162.421L157.413 172.361C157.39 172.427 157.346 172.485 157.289 172.525C157.232 172.566 157.164 172.588 157.093 172.588Z" fill="#2F2E41"/>
<path d="M163.053 157.567L163.024 157.565L159.002 157.261L159.707 152.775C159.785 152.274 160.022 151.811 160.384 151.457C160.746 151.102 161.212 150.873 161.715 150.805C161.746 150.801 161.777 150.797 161.808 150.793C162.203 150.741 162.604 150.791 162.973 150.939C163.343 151.087 163.668 151.327 163.918 151.637C164.173 151.949 164.345 152.321 164.415 152.718C164.486 153.114 164.453 153.523 164.32 153.903L163.053 157.567Z" fill="#46b4bc"/>
<path d="M165.768 150.504C164.5 151.084 162.778 150.98 160.811 150.504C161.083 149.758 161.295 149.038 161.054 148.509C160.957 148.309 160.902 148.092 160.893 147.87C160.884 147.648 160.921 147.427 161.001 147.22C161.19 146.768 161.508 146.383 161.915 146.112C162.322 145.841 162.8 145.696 163.289 145.697C163.947 145.697 164.577 145.958 165.042 146.423C165.507 146.887 165.768 147.518 165.768 148.175L165.768 150.504Z" fill="#2F2E41"/>
<path d="M161.699 145.865H163.064V147.805H159.759C159.759 147.55 159.809 147.298 159.906 147.063C160.004 146.827 160.147 146.614 160.327 146.433C160.507 146.253 160.721 146.11 160.956 146.013C161.192 145.915 161.444 145.865 161.699 145.865Z" fill="#2F2E41"/>
<path d="M158.915 162.133C158.996 162.058 159.06 161.966 159.103 161.864C159.145 161.762 159.164 161.652 159.159 161.542C159.154 161.432 159.125 161.324 159.074 161.226C159.023 161.128 158.951 161.043 158.863 160.976L159.703 158.426L158.356 158.791L157.765 161.156C157.663 161.311 157.62 161.498 157.646 161.682C157.672 161.866 157.765 162.035 157.906 162.155C158.048 162.275 158.229 162.34 158.415 162.335C158.601 162.331 158.779 162.259 158.915 162.133Z" fill="#FFB8B8"/>
<path d="M158.91 160.698L157.904 160.461C157.857 160.449 157.815 160.42 157.789 160.378C157.763 160.337 157.754 160.287 157.764 160.238L159.16 153.774L159.441 152.085C159.468 151.923 159.536 151.77 159.638 151.64C159.74 151.511 159.874 151.409 160.026 151.345C160.178 151.281 160.344 151.256 160.508 151.274C160.672 151.291 160.829 151.349 160.964 151.443C161.121 151.552 161.242 151.705 161.313 151.882C161.385 152.059 161.402 152.253 161.364 152.441L160.358 157.399L159.129 160.582C159.115 160.618 159.091 160.648 159.059 160.67C159.028 160.691 158.991 160.702 158.953 160.702C158.939 160.702 158.924 160.701 158.91 160.698Z" fill="#46b4bc"/>
<path d="M190.002 146.648C189.963 146.658 189.925 146.671 189.888 146.687L186.866 144.737L186.907 143.864L185.598 143.629L185.374 145.167C185.356 145.291 185.379 145.418 185.439 145.528C185.499 145.639 185.593 145.726 185.707 145.779L189.43 147.478C189.449 147.631 189.513 147.776 189.616 147.891C189.718 148.007 189.854 148.089 190.004 148.126C190.154 148.163 190.312 148.153 190.456 148.098C190.601 148.044 190.725 147.946 190.813 147.819C190.901 147.691 190.947 147.54 190.947 147.386C190.947 147.231 190.9 147.08 190.812 146.953C190.724 146.826 190.599 146.729 190.454 146.674C190.31 146.62 190.152 146.611 190.002 146.648Z" fill="#FFB8B8"/>
<path d="M186.742 144.683L185.121 144.384C185.075 144.376 185.031 144.357 184.993 144.33C184.954 144.303 184.922 144.268 184.899 144.228C184.875 144.187 184.86 144.142 184.856 144.096C184.851 144.049 184.856 144.002 184.872 143.957L185.404 142.403C185.448 142.166 185.584 141.957 185.783 141.822C185.981 141.686 186.225 141.635 186.462 141.679C186.698 141.723 186.907 141.86 187.043 142.058C187.178 142.256 187.23 142.501 187.185 142.737L187.128 144.374C187.126 144.421 187.114 144.467 187.093 144.509C187.072 144.551 187.042 144.587 187.006 144.617C186.969 144.646 186.927 144.667 186.881 144.679C186.836 144.69 186.788 144.692 186.742 144.683Z" fill="#3F3D56"/>
<path d="M192.379 140.466C192.37 140.505 192.364 140.545 192.362 140.585L189.246 142.382L188.489 141.946L187.681 143.003L188.947 143.905C189.049 143.978 189.172 144.016 189.298 144.013C189.423 144.01 189.545 143.966 189.643 143.888L192.856 141.354C193.001 141.407 193.159 141.416 193.309 141.377C193.458 141.339 193.593 141.256 193.694 141.14C193.796 141.023 193.86 140.878 193.877 140.725C193.894 140.571 193.864 140.416 193.791 140.279C193.718 140.143 193.605 140.033 193.467 139.962C193.33 139.892 193.174 139.865 193.02 139.885C192.867 139.905 192.724 139.972 192.609 140.075C192.495 140.179 192.414 140.315 192.379 140.466Z" fill="#FFB8B8"/>
<path d="M189.142 142.467L188.135 143.773C188.106 143.81 188.07 143.84 188.028 143.862C187.987 143.884 187.941 143.896 187.894 143.899C187.848 143.902 187.801 143.894 187.757 143.877C187.713 143.86 187.674 143.833 187.641 143.8L186.501 142.616C186.312 142.468 186.188 142.252 186.158 142.013C186.128 141.775 186.194 141.534 186.341 141.344C186.489 141.154 186.705 141.031 186.944 141.001C187.183 140.97 187.423 141.036 187.613 141.184L189.043 141.983C189.084 142.006 189.119 142.038 189.147 142.075C189.175 142.113 189.194 142.157 189.203 142.203C189.213 142.249 189.212 142.296 189.201 142.342C189.191 142.387 189.17 142.43 189.142 142.467Z" fill="#CCCCCC"/>
<path d="M185.018 139.351C186.002 139.351 186.8 138.554 186.8 137.57C186.8 136.586 186.002 135.789 185.018 135.789C184.034 135.789 183.237 136.586 183.237 137.57C183.237 138.554 184.034 139.351 185.018 139.351Z" fill="#FFB8B8"/>
<path d="M186.7 163.076H187.589L188.012 159.646H186.699L186.7 163.076Z" fill="#FFB8B8"/>
<path d="M186.473 162.785L188.224 162.785C188.371 162.785 188.516 162.814 188.651 162.87C188.787 162.926 188.91 163.009 189.013 163.112C189.117 163.216 189.199 163.339 189.255 163.474C189.311 163.61 189.34 163.755 189.34 163.901V163.938L186.473 163.938L186.473 162.785Z" fill="#2F2E41"/>
<path d="M183.654 163.076H184.543L184.966 159.646H183.654V163.076Z" fill="#FFB8B8"/>
<path d="M183.427 162.785L185.178 162.785C185.324 162.785 185.47 162.814 185.605 162.87C185.74 162.926 185.863 163.009 185.967 163.112C186.071 163.216 186.153 163.339 186.209 163.474C186.265 163.61 186.294 163.755 186.294 163.901V163.938L183.427 163.938L183.427 162.785Z" fill="#2F2E41"/>
<path d="M186.433 161.774L185.526 154.757C185.525 154.747 185.521 154.739 185.514 154.732C185.508 154.726 185.499 154.723 185.489 154.723C185.485 154.723 185.48 154.723 185.476 154.725C185.471 154.727 185.467 154.729 185.464 154.733C185.461 154.736 185.458 154.74 185.456 154.744C185.454 154.748 185.453 154.753 185.453 154.758L185.193 161.673C185.19 161.758 185.154 161.838 185.093 161.896C185.033 161.955 184.951 161.988 184.867 161.987H183.79C183.704 161.988 183.622 161.955 183.561 161.895C183.5 161.835 183.465 161.754 183.463 161.669L183.184 150.147L188.004 150.195L188.124 161.754C188.123 161.8 188.112 161.845 188.093 161.887C188.073 161.928 188.045 161.965 188.01 161.995C187.975 162.024 187.935 162.046 187.892 162.059C187.849 162.072 187.803 162.076 187.759 162.07L186.714 162.073C186.64 162.063 186.572 162.028 186.521 161.973C186.469 161.919 186.439 161.849 186.433 161.774Z" fill="#2F2E41"/>
<path d="M183.113 150.462C183.059 150.441 183.011 150.407 182.975 150.362C182.939 150.317 182.915 150.263 182.907 150.206L182.858 143.874C182.645 142.464 182.393 141.082 183.626 140.368L183.735 140.042C183.747 140.007 183.769 139.976 183.799 139.954C183.829 139.932 183.865 139.919 183.902 139.918L186.24 139.851C186.277 139.85 186.312 139.86 186.343 139.879C186.374 139.899 186.398 139.927 186.412 139.961L186.586 140.367L186.648 140.402C187.235 140.737 187.711 141.238 188.015 141.842C188.32 142.445 188.439 143.126 188.359 143.797L188.226 144.926L188.131 150.201C188.129 150.259 188.113 150.316 188.083 150.365C188.053 150.415 188.01 150.456 187.959 150.483C187.298 150.827 186.56 150.999 185.815 150.983C184.891 150.966 183.977 150.79 183.113 150.462Z" fill="#CCCCCC"/>
<path d="M184.96 139.417C184.692 139.423 184.426 139.372 184.179 139.268C183.932 139.163 183.71 139.008 183.527 138.811C183.345 138.615 183.206 138.382 183.119 138.128C183.033 137.874 183.002 137.605 183.027 137.338C183.052 137.071 183.134 136.812 183.266 136.579C183.399 136.346 183.579 136.143 183.795 135.985C184.011 135.826 184.259 135.715 184.521 135.659C184.783 135.603 185.054 135.602 185.316 135.658C185.702 135.405 186.159 135.28 186.62 135.301C186.849 135.316 187.071 135.392 187.261 135.522C187.45 135.651 187.602 135.83 187.699 136.038C187.785 136.251 187.788 136.488 187.707 136.703C187.626 136.918 187.467 137.094 187.262 137.197C186.978 137.279 186.678 137.283 186.392 137.209C186.105 137.136 185.801 137.163 185.532 137.285C185.279 137.435 185.165 137.837 185.392 138.024C185.512 138.128 185.597 138.265 185.637 138.418C185.677 138.571 185.67 138.733 185.615 138.882C185.562 139.02 185.474 139.143 185.359 139.237C185.244 139.331 185.107 139.393 184.96 139.417Z" fill="#2F2E41"/>
<path d="M81.6608 173.553H82.5275L82.9396 170.211H81.6604L81.6608 173.553Z" fill="#FFB8B8"/>
<path d="M81.2784 174.555L81.2783 173.11L83.1462 173.109C83.4773 173.11 83.7947 173.241 84.0288 173.476C84.263 173.71 84.3947 174.027 84.3951 174.358V174.555L81.2784 174.555Z" fill="#2F2E41"/>
<path d="M76.9899 173.553H77.8562L78.2683 170.211H76.9895L76.9899 173.553Z" fill="#FFB8B8"/>
<path d="M76.6075 174.555L76.6074 173.11L78.4753 173.109C78.8064 173.11 79.1238 173.241 79.3579 173.476C79.5921 173.71 79.7238 174.027 79.7242 174.358V174.555L76.6075 174.555Z" fill="#2F2E41"/>
<path d="M79.5278 149.792C80.556 149.792 81.3895 148.959 81.3895 147.93C81.3895 146.902 80.556 146.069 79.5278 146.069C78.4995 146.069 77.666 146.902 77.666 147.93C77.666 148.959 78.4995 149.792 79.5278 149.792Z" fill="#FFB8B8"/>
<path d="M85.8936 160.072C85.8806 159.969 85.8452 159.87 85.7898 159.782C85.7344 159.694 85.6604 159.619 85.573 159.563C85.4856 159.507 85.3869 159.471 85.284 159.457C85.181 159.443 85.0762 159.451 84.977 159.482L83.9366 158.235L83.0244 158.683L84.5185 160.423C84.5814 160.586 84.7021 160.721 84.8576 160.801C85.013 160.881 85.1925 160.902 85.3621 160.858C85.5316 160.815 85.6793 160.711 85.7773 160.566C85.8752 160.421 85.9166 160.245 85.8936 160.072Z" fill="#FFB8B8"/>
<path d="M76.9388 161.334C76.9831 161.24 77.0063 161.137 77.0068 161.033C77.0072 160.929 76.9848 160.826 76.9412 160.732C76.8976 160.638 76.8339 160.554 76.7545 160.487C76.6751 160.42 76.582 160.371 76.4817 160.344L76.2728 158.733L75.2629 158.622L75.5899 160.892C75.5555 161.064 75.5851 161.242 75.6733 161.393C75.7615 161.544 75.902 161.658 76.0683 161.712C76.2346 161.766 76.415 161.758 76.5755 161.688C76.7359 161.618 76.8652 161.492 76.9388 161.334Z" fill="#FFB8B8"/>
<path d="M77.9717 151.447C77.8727 151.32 77.7419 151.221 77.5925 151.161C77.4432 151.1 77.2805 151.08 77.121 151.103C76.9614 151.125 76.8107 151.19 76.6839 151.289C76.5571 151.388 76.4588 151.519 76.3988 151.669L74.8729 155.477C74.7169 155.866 74.6672 156.29 74.7288 156.705L75.2258 160.052C75.2323 160.095 75.2479 160.136 75.2718 160.173C75.2956 160.21 75.3271 160.241 75.364 160.264C75.4009 160.287 75.4424 160.302 75.4857 160.308C75.529 160.314 75.573 160.31 75.6147 160.297L76.2696 160.096C76.3374 160.075 76.3958 160.031 76.4345 159.972C76.4733 159.913 76.49 159.841 76.4817 159.771C76.2506 157.8 76.5561 155.804 77.3659 153.993L78.0852 152.384C78.1531 152.232 78.1783 152.064 78.1583 151.899C78.1383 151.734 78.0738 151.578 77.9717 151.447Z" fill="#CCCCCC"/>
<path d="M79.0742 149.792C78.794 149.798 78.5157 149.745 78.2575 149.636C77.9994 149.526 77.7673 149.364 77.5765 149.159C77.3857 148.953 77.2404 148.71 77.1503 148.445C77.0602 148.179 77.0273 147.898 77.0538 147.619C77.0802 147.34 77.1654 147.069 77.3037 146.826C77.442 146.582 77.6304 146.37 77.8564 146.205C78.0823 146.039 78.3408 145.923 78.6149 145.864C78.8889 145.805 79.1723 145.805 79.4464 145.864C79.8496 145.598 80.3266 145.468 80.8088 145.49C81.0487 145.505 81.28 145.585 81.4784 145.721C81.6768 145.856 81.8349 146.043 81.9361 146.261C82.0263 146.483 82.0293 146.731 81.9446 146.956C81.86 147.18 81.6938 147.364 81.4793 147.472C81.1829 147.557 80.869 147.562 80.5703 147.485C80.2704 147.408 79.9532 147.436 79.6715 147.564C79.4074 147.721 79.2887 148.141 79.5252 148.336C79.6506 148.444 79.7402 148.588 79.7819 148.748C79.8237 148.908 79.8157 149.077 79.759 149.232C79.7035 149.377 79.6111 149.505 79.491 149.603C79.3709 149.701 79.2272 149.766 79.0742 149.792Z" fill="#2F2E41"/>
<path d="M76.7644 159.998L76.4342 172.531C76.4331 172.573 76.4406 172.614 76.4564 172.653C76.4721 172.692 76.4956 172.727 76.5255 172.756C76.5554 172.785 76.5911 172.808 76.6302 172.823C76.6693 172.837 76.711 172.844 76.7527 172.842L77.8406 172.786C77.91 172.783 77.9761 172.756 78.0278 172.709C78.0795 172.663 78.1137 172.6 78.1246 172.531L79.4186 164.391C79.4242 164.356 79.4417 164.324 79.4681 164.301C79.4946 164.278 79.5284 164.264 79.5636 164.263C79.5989 164.262 79.6334 164.273 79.6613 164.295C79.6891 164.317 79.7086 164.347 79.7163 164.382L81.4679 172.219C81.4772 172.261 81.4954 172.301 81.5211 172.335C81.5468 172.369 81.5796 172.398 81.6171 172.419C81.6547 172.439 81.6963 172.452 81.7391 172.455C81.7818 172.459 81.8249 172.453 81.8653 172.439L82.945 172.373C83.0075 172.351 83.0609 172.309 83.0972 172.253C83.1335 172.198 83.1506 172.132 83.1459 172.066L82.2034 159.88L76.7644 159.998Z" fill="#2F2E41"/>
<path d="M76.2345 154.046C76.1883 153.594 76.2327 153.137 76.3651 152.703C76.4974 152.268 76.7151 151.864 77.0054 151.515C77.2957 151.166 77.6527 150.878 78.0556 150.668C78.4585 150.458 78.8992 150.331 79.3519 150.293C80.1719 150.235 81.4449 150.214 81.8645 151.289C83.1287 154.527 80.9157 154.448 81.6782 157.253C82.4406 160.059 83.114 160.219 82.0678 160.422C81.0217 160.624 76.3171 161.82 76.5103 159.846C76.6291 158.632 76.4162 155.94 76.2345 154.046Z" fill="#CCCCCC"/>
<path d="M81.6406 150.96C81.4904 150.902 81.3274 150.884 81.1682 150.909C81.0091 150.934 80.8593 151.001 80.734 151.102C80.6087 151.203 80.5124 151.336 80.4547 151.486C80.397 151.637 80.3801 151.8 80.4056 151.959L80.9998 155.672C81.1014 156.307 81.3699 156.904 81.7779 157.401L83.7077 159.753C83.7354 159.787 83.7701 159.814 83.8093 159.833C83.8486 159.852 83.8915 159.863 83.9351 159.864C83.9788 159.865 84.0221 159.856 84.0622 159.839C84.1023 159.822 84.1382 159.796 84.1674 159.763L84.6258 159.254C84.6732 159.202 84.7007 159.134 84.7034 159.063C84.7062 158.992 84.6839 158.922 84.6406 158.866L84.5056 158.691C83.3829 157.234 82.6747 155.501 82.4556 153.675L82.2194 151.705C82.1996 151.54 82.1353 151.384 82.0333 151.252C81.9314 151.121 81.7956 151.02 81.6406 150.96Z" fill="#CCCCCC"/>
<path d="M85.9823 160.935C86.0779 160.887 86.1618 160.819 86.2283 160.736C86.2948 160.652 86.3421 160.555 86.367 160.452C86.3919 160.348 86.3937 160.24 86.3724 160.135C86.351 160.031 86.307 159.932 86.2434 159.846L86.7893 154.509H85.6095L85.1756 159.721C85.0387 159.837 84.9492 160 84.9242 160.177C84.8991 160.355 84.9402 160.536 85.0396 160.686C85.139 160.836 85.2899 160.944 85.4637 160.99C85.6374 161.036 85.822 161.016 85.9823 160.935Z" fill="#A0616A"/>
<path d="M87.0657 151.563C87.9876 151.563 88.7349 150.815 88.7349 149.893C88.7349 148.971 87.9876 148.224 87.0657 148.224C86.1438 148.224 85.3965 148.971 85.3965 149.893C85.3965 150.815 86.1438 151.563 87.0657 151.563Z" fill="#A0616A"/>
<path d="M87.3798 157.617C87.313 157.617 87.248 157.595 87.1949 157.555C87.1417 157.514 87.1033 157.457 87.0856 157.393C86.8054 156.553 86.4596 155.736 86.0514 154.951C85.9268 154.694 85.8578 154.415 85.8489 154.13C85.84 153.845 85.8915 153.561 86 153.297C86.1084 153.034 86.2714 152.796 86.4782 152.599C86.6851 152.403 86.9311 152.253 87.2001 152.158C87.455 152.068 87.7254 152.03 87.9953 152.047C88.2651 152.063 88.529 152.133 88.7712 152.253C89.0134 152.373 89.2291 152.541 89.4055 152.746C89.5818 152.951 89.7153 153.189 89.798 153.446C90.1114 154.529 90.2394 155.657 90.1768 156.783C90.1732 156.85 90.1478 156.914 90.1044 156.965C90.0611 157.016 90.0021 157.051 89.9366 157.066L87.4454 157.61C87.4238 157.615 87.4018 157.617 87.3798 157.617Z" fill="#46b4bc"/>
<path d="M89.7924 173.468H90.6256L91.022 170.254H89.792L89.7924 173.468Z" fill="#A0616A"/>
<path d="M92.4289 174.438H89.4171L89.417 173.033H91.2209C91.3796 173.033 91.5367 173.064 91.6833 173.125C91.8298 173.186 91.963 173.275 92.0752 173.387C92.1874 173.499 92.2764 173.633 92.3371 173.779C92.3977 173.926 92.429 174.083 92.4289 174.242L92.4289 174.438Z" fill="#2F2E41"/>
<path d="M81.4607 172.388L82.1909 172.789L84.0867 170.164L83.0092 169.572L81.4607 172.388Z" fill="#A0616A"/>
<path d="M83.3038 174.509L80.6646 173.058L81.3414 171.826L82.9218 172.695C83.2026 172.85 83.4106 173.109 83.5 173.417C83.5894 173.725 83.5529 174.055 83.3985 174.336L83.3038 174.509Z" fill="#2F2E41"/>
<path d="M89.7532 171.684C89.679 171.684 89.6073 171.657 89.5515 171.608C89.4958 171.559 89.4598 171.491 89.4502 171.417L88.4082 163.388C88.4036 163.352 88.3879 163.319 88.3633 163.293C88.3388 163.267 88.3066 163.249 88.2714 163.243C88.2362 163.236 88.1998 163.241 88.1674 163.256C88.135 163.271 88.1082 163.296 88.0909 163.328L83.7482 171.206C83.7124 171.271 83.6547 171.32 83.5856 171.346C83.5164 171.371 83.4405 171.371 83.3716 171.345L82.425 170.984C82.3869 170.97 82.3521 170.948 82.3226 170.919C82.2932 170.891 82.2696 170.858 82.2534 170.82C82.2371 170.783 82.2285 170.743 82.228 170.702C82.2276 170.661 82.2352 170.621 82.2506 170.583L85.2589 163.193C85.2665 163.174 85.2717 163.155 85.2742 163.134C85.6817 159.981 86.7184 158.377 87.0264 157.961C87.0489 157.93 87.0637 157.894 87.0696 157.857C87.0755 157.819 87.0722 157.781 87.0601 157.745L87.0178 157.618C87.0009 157.568 86.9974 157.514 87.0077 157.461C87.018 157.409 87.0418 157.361 87.0766 157.321C88.1866 156.056 90.1211 156.746 90.1405 156.753L90.1502 156.757L90.1563 156.765C92.3254 159.74 91.5234 169.402 91.3406 171.309C91.3338 171.381 91.3018 171.448 91.2504 171.498C91.199 171.548 91.1314 171.579 91.0597 171.584L89.777 171.683C89.769 171.684 89.7611 171.684 89.7532 171.684Z" fill="#2F2E41"/>
<path d="M93.5549 151.832C93.5466 151.869 93.5412 151.906 93.5387 151.944L90.6192 153.628L89.9096 153.22L89.1531 154.21L90.339 155.055C90.4348 155.124 90.5502 155.159 90.6679 155.156C90.7855 155.153 90.899 155.112 90.9914 155.039L94.0018 152.664C94.1377 152.715 94.2857 152.722 94.426 152.687C94.5664 152.651 94.6925 152.573 94.7876 152.464C94.8827 152.354 94.9423 152.219 94.9585 152.075C94.9746 151.931 94.9465 151.785 94.878 151.658C94.8094 151.53 94.7036 151.426 94.5747 151.36C94.4457 151.294 94.2997 151.269 94.1561 151.288C94.0125 151.307 93.878 151.369 93.7707 151.467C93.6633 151.564 93.588 151.691 93.5549 151.832Z" fill="#A0616A"/>
<path d="M90.5215 153.708L89.5779 154.931C89.551 154.966 89.517 154.994 89.4781 155.015C89.4392 155.035 89.3964 155.047 89.3525 155.049C89.3086 155.052 89.2647 155.045 89.2238 155.029C89.1829 155.013 89.146 154.988 89.1155 154.956L88.0473 153.847C87.8702 153.709 87.7552 153.506 87.7274 153.283C87.6997 153.059 87.7615 152.834 87.8994 152.657C88.0372 152.479 88.2398 152.364 88.4628 152.335C88.6858 152.307 88.9109 152.368 89.0889 152.505L90.4287 153.254C90.467 153.276 90.5003 153.305 90.5262 153.341C90.5522 153.376 90.5702 153.417 90.579 153.46C90.5878 153.503 90.5872 153.547 90.5773 153.59C90.5674 153.633 90.5483 153.673 90.5215 153.708Z" fill="#46b4bc"/>
<path d="M86.8643 155.833L85.3443 155.558C85.301 155.55 85.26 155.533 85.2239 155.508C85.1878 155.483 85.1576 155.45 85.1352 155.413C85.1129 155.375 85.099 155.333 85.0944 155.289C85.0899 155.245 85.0948 155.201 85.1088 155.159L85.6016 153.7C85.6428 153.479 85.77 153.284 85.9553 153.156C86.1405 153.029 86.3688 152.98 86.59 153.021C86.8111 153.061 87.0072 153.188 87.1351 153.373C87.263 153.558 87.3124 153.786 87.2724 154.007L87.2243 155.541C87.2229 155.585 87.2121 155.628 87.1925 155.668C87.173 155.707 87.1452 155.742 87.111 155.769C87.0768 155.797 87.0371 155.817 86.9945 155.828C86.952 155.839 86.9075 155.84 86.8643 155.833Z" fill="#46b4bc"/>
<path d="M87.3297 149.51C87.7587 149.803 88.3221 150.105 88.7603 149.792C88.8973 149.688 88.9969 149.542 89.0441 149.376C89.0912 149.211 89.0835 149.034 89.022 148.873C88.8121 148.273 88.2357 148.009 87.6844 147.807C86.9841 147.49 86.2049 147.391 85.4477 147.522C84.7079 147.711 84.0541 148.427 84.1877 149.179C84.2951 149.783 84.8652 150.286 84.7843 150.895C84.7028 151.507 84.014 151.83 83.4059 151.939C82.7978 152.049 82.1173 152.084 81.6803 152.521C81.1228 153.078 81.262 154.074 81.7866 154.662C82.3597 155.211 83.0864 155.573 83.8699 155.698C84.8863 155.939 85.9855 156.065 86.9508 155.666C87.9161 155.268 88.6672 154.195 88.3876 153.188C88.2404 152.771 88.0146 152.386 87.7223 152.054C87.43 151.722 87.2107 151.332 87.0786 150.91C87.0313 150.732 87.0261 150.545 87.0634 150.364C87.1006 150.184 87.1794 150.014 87.2935 149.869C87.3366 149.822 87.3637 149.763 87.371 149.699C87.3783 149.636 87.3653 149.572 87.3339 149.517L87.3297 149.51Z" fill="#2F2E41"/>
</g>
</svg>
