<svg width="280" height="200" viewBox="0 0 280 200" fill="none" xmlns="http://www.w3.org/2000/svg">
<mask id="mask0_136_2467" style="mask-type:alpha" maskUnits="userSpaceOnUse" x="0" y="0" width="280" height="200">
<rect width="280" height="200" fill="#D9D9D9"/>
</mask>
<g mask="url(#mask0_136_2467)">
<path d="M169.566 84.1792C169.566 84.1792 170.226 93.0938 170.226 93.424C170.226 93.7542 165.604 116.536 165.604 116.536C165.604 116.536 159 129.082 165.604 128.752C172.207 128.422 170.226 116.866 170.226 116.866L177.16 97.7162L174.188 84.1792L169.566 84.1792Z" fill="#FFB8B8"/>
<path d="M202.253 183.891L203.243 191.155L196.31 191.815L197.3 182.9L202.253 183.891Z" fill="#FFB8B8"/>
<path d="M180.461 183.891L179.471 191.155L186.404 191.815L185.414 182.9L180.461 183.891Z" fill="#FFB8B8"/>
<path d="M172.867 115.876L171.217 118.187C171.217 118.187 170.226 128.092 171.217 131.394C172.207 134.695 174.188 149.883 174.188 150.874C174.188 151.864 174.518 152.525 174.188 152.855C173.858 153.185 174.188 156.487 174.188 156.487V158.138L178.48 182.57C178.48 182.57 175.839 185.542 177.82 185.542C179.801 185.542 187.065 185.542 186.735 182.24L186.074 181.91C186.074 181.91 185.084 160.119 185.414 159.128C185.744 158.138 186.074 151.864 186.074 151.864L189.046 131.724L194.659 151.204L195.979 180.259C195.979 180.259 194.659 183.561 195.979 184.221C197.3 184.881 202.913 187.193 203.243 183.891C203.573 180.589 205.224 151.864 205.224 150.544C205.224 149.223 204.564 128.752 204.564 128.752C204.564 128.752 204.894 125.451 205.224 124.79C205.554 124.13 204.894 123.47 205.224 122.479C205.554 121.489 204.564 118.187 204.564 118.187L189.706 114.225L172.867 115.876Z" fill="#2F2E41"/>
<path d="M184.423 189.834C184.423 189.834 186.074 188.183 183.763 188.183C182.279 188.213 180.818 188.551 179.471 189.174L177.82 195.117C177.82 195.117 171.051 200.565 178.645 199.904C186.239 199.244 187.395 199.079 187.725 198.418C187.957 197.955 187.538 193.1 187.267 190.247C187.255 190.109 187.206 189.978 187.126 189.866C187.045 189.754 186.936 189.666 186.81 189.611C186.683 189.556 186.544 189.536 186.407 189.553C186.27 189.57 186.141 189.624 186.032 189.709C185.817 189.908 185.541 190.029 185.249 190.052C184.957 190.075 184.666 189.998 184.423 189.834Z" fill="#2F2E41"/>
<path d="M198.62 189.834C198.62 189.834 196.969 188.183 199.281 188.183C200.764 188.213 202.226 188.551 203.573 189.174L205.224 195.117C205.224 195.117 211.992 200.564 204.398 199.904C196.804 199.244 194.658 199.079 194.328 198.418C194.098 197.958 194.99 193.173 195.552 190.311C195.583 190.153 195.653 190.006 195.757 189.883C195.861 189.76 195.995 189.665 196.146 189.608C196.296 189.552 196.459 189.534 196.618 189.558C196.778 189.582 196.928 189.646 197.056 189.744C197.27 189.929 197.54 190.038 197.823 190.054C198.106 190.07 198.386 189.993 198.62 189.834Z" fill="#2F2E41"/>
<path d="M174.188 55.7846C174.188 55.7846 175.509 62.388 175.509 63.3786C175.509 64.3691 181.122 67.3406 181.122 67.3406L187.395 59.4165C187.395 59.4165 183.433 53.8036 183.433 52.4829L174.188 55.7846Z" fill="#FFB8B8"/>
<path d="M179.14 64.369C179.14 64.369 176.263 63.603 175.39 62.3352C175.39 62.3352 166.264 71.3026 166.264 72.9534L173.527 85.8301C173.527 85.8301 173.527 90.4525 174.188 90.7827C174.848 91.1128 174.188 90.7827 174.188 92.1033C174.188 93.424 172.207 102.008 172.867 103.329C173.527 104.65 174.188 103.659 173.527 105.64C172.867 107.621 171.216 118.187 171.216 118.187C171.216 118.187 177.159 116.206 185.744 119.508C194.328 122.809 204.564 118.187 204.564 118.187C204.564 118.187 201.922 112.244 202.583 110.263C203.243 108.282 200.932 104.65 200.932 104.65L199.281 74.2741C199.281 74.2741 201.592 60.7371 199.941 60.0768L196.639 58.7561L186.066 57.4565C186.066 57.4565 183.433 64.0388 179.14 64.369Z" fill="#3F3D56"/>
<path d="M169.566 70.6423L166.264 72.9535C166.264 72.9535 164.613 77.9061 166.264 80.2173C167.915 82.5285 168.575 85.8302 168.575 85.8302L175.179 85.1699L169.566 70.6423Z" fill="#3F3D56"/>
<path d="M170.626 47.5275V17.4234C170.626 15.1353 170.176 12.8697 169.3 10.7558C168.424 8.64186 167.141 6.72112 165.523 5.10321C163.905 3.48529 161.985 2.20189 159.871 1.32628C157.757 0.450673 155.491 1.80447e-06 153.203 0H89.4234C87.1354 -5.41322e-06 84.8697 0.45066 82.7558 1.32626C80.6419 2.20187 78.7211 3.48526 77.1032 5.10317C75.4853 6.72108 74.2019 8.64182 73.3263 10.7557C72.4507 12.8696 72 15.1353 72 17.4234V182.577C72 187.198 73.8357 191.629 77.1032 194.897C80.3707 198.164 84.8024 200 89.4234 200H153.203C157.824 200 162.256 198.164 165.523 194.897C168.791 191.629 170.626 187.198 170.626 182.577V68.9561L170.626 47.5275Z" fill="#E6E6E6"/>
<path d="M153.906 4.53297H145.581C145.963 5.47162 146.11 6.49002 146.006 7.49846C145.903 8.50689 145.553 9.47442 144.987 10.3158C144.422 11.1572 143.658 11.8466 142.764 12.3233C141.869 12.8 140.871 13.0494 139.857 13.0494H103.319C102.305 13.0494 101.307 12.8 100.412 12.3233C99.5174 11.8466 98.7537 11.1572 98.1883 10.3158C97.6228 9.47442 97.273 8.50689 97.1695 7.49845C97.0661 6.49001 97.2122 5.47161 97.5951 4.53296H89.8192C86.3683 4.53296 83.0588 5.90382 80.6186 8.34396C78.1785 10.7841 76.8076 14.0937 76.8076 17.5446V182.455C76.8076 185.906 78.1785 189.216 80.6186 191.656C83.0588 194.096 86.3683 195.467 89.8192 195.467H153.906C155.615 195.467 157.307 195.131 158.885 194.477C160.464 193.823 161.898 192.864 163.107 191.656C164.315 190.448 165.273 189.013 165.927 187.435C166.581 185.856 166.918 184.164 166.918 182.455V17.5446C166.918 15.8358 166.581 14.1439 165.927 12.5652C165.273 10.9866 164.315 9.5522 163.107 8.34396C161.898 7.13573 160.464 6.1773 158.885 5.52341C157.307 4.86952 155.615 4.53297 153.906 4.53297Z" fill="white"/>
<path d="M162.369 78.241H83.1501C82.7612 78.2406 82.3883 78.0859 82.1133 77.8108C81.8383 77.5358 81.6836 77.1629 81.6831 76.774V57.1233C81.6836 56.7343 81.8383 56.3614 82.1133 56.0864C82.3883 55.8114 82.7612 55.6567 83.1501 55.6562H162.369C162.758 55.6567 163.131 55.8114 163.406 56.0864C163.681 56.3614 163.835 56.7343 163.836 57.1233V76.774C163.835 77.1629 163.681 77.5358 163.406 77.8108C163.131 78.0859 162.758 78.2406 162.369 78.241ZM83.1501 56.2431C82.9167 56.2433 82.693 56.3361 82.528 56.5011C82.363 56.6662 82.2702 56.8899 82.2699 57.1233V76.774C82.2702 77.0074 82.363 77.2311 82.528 77.3962C82.693 77.5612 82.9167 77.654 83.1501 77.6542H162.369C162.602 77.654 162.826 77.5612 162.991 77.3962C163.156 77.2311 163.249 77.0074 163.249 76.774V57.1233C163.249 56.8899 163.156 56.6661 162.991 56.5011C162.826 56.3361 162.602 56.2433 162.369 56.243L83.1501 56.2431Z" fill="#E6E6E6"/>
<path d="M95.4592 72.1706C98.7596 72.1706 101.435 69.4952 101.435 66.1948C101.435 62.8945 98.7596 60.219 95.4592 60.219C92.1589 60.219 89.4834 62.8945 89.4834 66.1948C89.4834 69.4952 92.1589 72.1706 95.4592 72.1706Z" fill="#E6E6E6"/>
<path d="M109.26 62.2109C108.997 62.2114 108.744 62.3165 108.557 62.5032C108.371 62.69 108.266 62.9431 108.266 63.2069C108.266 63.4708 108.371 63.7238 108.557 63.9106C108.744 64.0973 108.997 64.2024 109.26 64.2029H156.213C156.344 64.2031 156.474 64.1775 156.595 64.1275C156.716 64.0776 156.826 64.0043 156.919 63.9118C157.011 63.8193 157.085 63.7094 157.135 63.5884C157.185 63.4675 157.211 63.3378 157.211 63.2069C157.211 63.076 157.185 62.9463 157.135 62.8254C157.085 62.7044 157.011 62.5946 156.919 62.5021C156.826 62.4096 156.716 62.3362 156.595 62.2863C156.474 62.2363 156.344 62.2107 156.213 62.2109H109.26Z" fill="#E6E6E6"/>
<path d="M109.261 68.1868C108.996 68.1868 108.743 68.2917 108.556 68.4785C108.37 68.6653 108.265 68.9186 108.265 69.1827C108.265 69.4469 108.37 69.7002 108.556 69.887C108.743 70.0738 108.996 70.1787 109.261 70.1787H129.465C129.729 70.1787 129.982 70.0738 130.169 69.887C130.356 69.7002 130.461 69.4469 130.461 69.1827C130.461 68.9186 130.356 68.6653 130.169 68.4785C129.982 68.2917 129.729 68.1868 129.465 68.1868H109.261Z" fill="#E6E6E6"/>
<path d="M162.369 141.997H83.1501C82.7612 141.996 82.3883 141.842 82.1133 141.567C81.8383 141.292 81.6836 140.919 81.6831 140.53V120.879C81.6836 120.49 81.8383 120.117 82.1133 119.842C82.3883 119.567 82.7612 119.413 83.1501 119.412H162.369C162.758 119.413 163.131 119.567 163.406 119.842C163.681 120.117 163.835 120.49 163.836 120.879V140.53C163.835 140.919 163.681 141.292 163.406 141.567C163.131 141.842 162.758 141.996 162.369 141.997ZM83.1501 119.999C82.9167 119.999 82.693 120.092 82.528 120.257C82.363 120.422 82.2702 120.646 82.2699 120.879V140.53C82.2702 140.763 82.363 140.987 82.528 141.152C82.693 141.317 82.9167 141.41 83.1501 141.41H162.369C162.602 141.41 162.826 141.317 162.991 141.152C163.156 140.987 163.249 140.763 163.249 140.53V120.879C163.249 120.646 163.156 120.422 162.991 120.257C162.826 120.092 162.602 119.999 162.369 119.999L83.1501 119.999Z" fill="#E6E6E6"/>
<path d="M95.4592 135.926C98.7596 135.926 101.435 133.251 101.435 129.95C101.435 126.65 98.7596 123.975 95.4592 123.975C92.1589 123.975 89.4834 126.65 89.4834 129.95C89.4834 133.251 92.1589 135.926 95.4592 135.926Z" fill="#E6E6E6"/>
<path d="M109.261 125.967C108.996 125.967 108.743 126.072 108.556 126.258C108.37 126.445 108.265 126.699 108.265 126.963C108.265 127.227 108.37 127.48 108.556 127.667C108.743 127.854 108.996 127.959 109.261 127.959H156.213C156.344 127.959 156.474 127.933 156.595 127.883C156.716 127.833 156.826 127.76 156.919 127.668C157.011 127.575 157.085 127.465 157.135 127.344C157.185 127.223 157.211 127.094 157.211 126.963C157.211 126.832 157.185 126.702 157.135 126.581C157.085 126.46 157.011 126.35 156.919 126.258C156.826 126.165 156.716 126.092 156.595 126.042C156.474 125.992 156.344 125.967 156.213 125.967H109.261Z" fill="#E6E6E6"/>
<path d="M109.26 131.942C108.997 131.943 108.744 132.048 108.557 132.235C108.371 132.421 108.266 132.675 108.266 132.938C108.266 133.202 108.371 133.455 108.557 133.642C108.744 133.829 108.997 133.934 109.26 133.934H129.464C129.729 133.934 129.982 133.829 130.169 133.643C130.355 133.456 130.46 133.203 130.46 132.938C130.46 132.674 130.355 132.421 130.169 132.234C129.982 132.047 129.729 131.942 129.464 131.942H109.26Z" fill="#E6E6E6"/>
<path d="M163.285 90.9249V110.576C163.285 110.965 163.13 111.338 162.856 111.613C162.581 111.888 162.209 112.043 161.82 112.044H121.162V89.8394H162.801C162.954 89.9761 163.076 90.1434 163.159 90.3305C163.242 90.5175 163.285 90.7201 163.285 90.9249Z" fill="#9C519D"/>
<path d="M142.498 89.4575H141.948V111.456H142.498V89.4575Z" fill="white"/>
<path d="M162.802 89.8395C162.534 89.5929 162.184 89.4565 161.82 89.4575H82.6013C82.2123 89.4584 81.8396 89.6133 81.5645 89.8883C81.2895 90.1633 81.1346 90.5361 81.1338 90.925V110.577C81.1346 110.966 81.2895 111.338 81.5645 111.613C81.8396 111.888 82.2123 112.043 82.6013 112.044H161.82C162.209 112.043 162.582 111.888 162.856 111.613C163.131 111.338 163.285 110.965 163.285 110.577V90.925C163.286 90.7202 163.243 90.5177 163.159 90.3306C163.076 90.1436 162.954 89.9762 162.802 89.8395ZM162.7 110.577C162.699 110.81 162.606 111.033 162.442 111.198C162.277 111.362 162.053 111.455 161.82 111.456H82.6013C82.3681 111.456 82.1446 111.363 81.9797 111.198C81.8148 111.033 81.7221 110.81 81.7219 110.577V90.925C81.7218 90.8095 81.7444 90.6951 81.7886 90.5883C81.8327 90.4816 81.8975 90.3846 81.9792 90.3029C82.0608 90.2212 82.1578 90.1565 82.2646 90.1123C82.3713 90.0682 82.4858 90.0455 82.6013 90.0456H161.82C162.054 90.0458 162.277 90.1386 162.442 90.3034C162.607 90.4683 162.7 90.6918 162.7 90.925L162.7 110.577Z" fill="#E6E6E6"/>
<path d="M107.847 99.8589H88.9239C88.6597 99.8589 88.4063 99.9638 88.2195 100.151C88.0327 100.337 87.9277 100.591 87.9277 100.855C87.9277 101.119 88.0327 101.373 88.2195 101.559C88.4063 101.746 88.6597 101.851 88.9239 101.851H107.847C108.111 101.851 108.365 101.746 108.552 101.559C108.739 101.373 108.843 101.119 108.843 100.855C108.843 100.591 108.739 100.337 108.552 100.151C108.365 99.9638 108.111 99.8589 107.847 99.8589Z" fill="#E6E6E6"/>
<path d="M130.62 98.5566C130.263 98.2762 129.815 98.1394 129.363 98.1733C128.911 98.2071 128.487 98.4092 128.177 98.7395C127.857 99.0983 127.688 99.5669 127.705 100.047C127.722 100.528 127.924 100.983 128.269 101.318L130.586 103.635C130.638 103.686 130.708 103.715 130.781 103.715C130.853 103.715 130.923 103.686 130.975 103.635L133.292 101.318C133.637 100.983 133.839 100.528 133.856 100.047C133.873 99.5669 133.704 99.0983 133.384 98.7395C133.074 98.4092 132.65 98.2071 132.198 98.1733C131.746 98.1394 131.298 98.2762 130.941 98.5566C130.895 98.5923 130.839 98.6117 130.781 98.6117C130.722 98.6117 130.666 98.5923 130.62 98.5566Z" fill="white"/>
<path d="M154.749 103.827H151.331C151.27 103.827 151.21 103.807 151.162 103.769C151.113 103.731 151.079 103.678 151.064 103.619L150.102 99.7716C150.092 99.7311 150.092 99.6888 150.1 99.648C150.109 99.6071 150.127 99.5688 150.152 99.5359C150.178 99.5029 150.211 99.4763 150.249 99.458C150.286 99.4397 150.327 99.4302 150.369 99.4302H155.711C155.753 99.4302 155.794 99.4397 155.831 99.458C155.869 99.4763 155.902 99.5029 155.928 99.5359C155.953 99.5688 155.971 99.6071 155.98 99.648C155.988 99.6888 155.988 99.7311 155.978 99.7716L155.016 103.619C155.001 103.678 154.966 103.731 154.918 103.769C154.87 103.807 154.81 103.827 154.749 103.827Z" fill="white"/>
<path d="M153.04 100.667C153.003 100.667 152.968 100.682 152.943 100.707C152.917 100.733 152.902 100.768 152.902 100.804V102.728C152.902 102.765 152.917 102.799 152.943 102.825C152.968 102.851 153.003 102.865 153.04 102.865C153.076 102.865 153.111 102.851 153.137 102.825C153.163 102.799 153.177 102.765 153.177 102.728V100.804C153.177 100.768 153.163 100.733 153.137 100.707C153.111 100.682 153.076 100.667 153.04 100.667Z" fill="#9C519D"/>
<path d="M154.023 102.691C154.013 102.726 154.017 102.764 154.035 102.795C154.053 102.827 154.083 102.85 154.118 102.86C154.153 102.87 154.191 102.865 154.222 102.848C154.254 102.83 154.277 102.8 154.287 102.765L154.806 100.913C154.815 100.878 154.81 100.84 154.793 100.809C154.775 100.777 154.745 100.754 154.71 100.744C154.675 100.734 154.637 100.739 154.606 100.757C154.574 100.774 154.551 100.804 154.541 100.839L154.023 102.691Z" fill="#9C519D"/>
<path d="M151.407 100.738C151.395 100.738 151.382 100.74 151.37 100.743C151.335 100.753 151.305 100.776 151.287 100.808C151.269 100.84 151.265 100.877 151.275 100.913L151.793 102.765C151.803 102.8 151.826 102.83 151.858 102.848C151.89 102.866 151.927 102.87 151.962 102.86C151.997 102.851 152.027 102.827 152.045 102.795C152.063 102.764 152.067 102.726 152.058 102.691L151.539 100.838C151.531 100.81 151.514 100.784 151.49 100.766C151.466 100.748 151.437 100.738 151.407 100.738Z" fill="#9C519D"/>
<path d="M155.513 98.8806H153.59V98.6058C153.59 98.46 153.532 98.3202 153.429 98.2171C153.325 98.1141 153.186 98.0562 153.04 98.0562C152.894 98.0562 152.754 98.1141 152.651 98.2171C152.548 98.3202 152.49 98.46 152.49 98.6058V98.8806H150.567C150.53 98.8806 150.495 98.8951 150.469 98.9208C150.444 98.9466 150.429 98.9815 150.429 99.018C150.429 99.0544 150.444 99.0894 150.469 99.1151C150.495 99.1409 150.53 99.1554 150.567 99.1554H155.513C155.55 99.1554 155.585 99.1409 155.61 99.1151C155.636 99.0894 155.651 99.0544 155.651 99.018C155.651 98.9815 155.636 98.9466 155.61 98.9208C155.585 98.8951 155.55 98.8806 155.513 98.8806Z" fill="white"/>
<path d="M177.16 58.0957C181.901 58.0957 185.744 54.2523 185.744 49.5112C185.744 44.7701 181.901 40.9268 177.16 40.9268C172.419 40.9268 168.575 44.7701 168.575 49.5112C168.575 54.2523 172.419 58.0957 177.16 58.0957Z" fill="#FFB8B8"/>
<path d="M170.605 40.4391L169.116 39.8429C169.116 39.8429 172.23 36.4151 176.562 36.7132L175.343 35.3719C175.343 35.3719 178.321 34.1796 181.029 37.3093C182.452 38.9546 184.099 40.8884 185.125 43.0669H186.72L186.054 44.5324L188.384 45.9979L185.993 45.7347C186.219 46.9999 186.142 48.3008 185.767 49.5302L185.831 50.6885C185.831 50.6885 183.059 46.4005 183.059 45.8043V47.2947C183.059 47.2947 181.57 45.9534 181.57 45.0592L180.758 46.1024L180.352 44.463L175.343 46.1024L176.155 44.7611L173.042 45.2082L174.26 43.5688C174.26 43.5688 170.741 45.5063 170.605 47.1457C170.47 48.7851 168.71 50.8715 168.71 50.8715L167.898 49.3812C167.898 49.3812 166.68 42.6746 170.605 40.4391Z" fill="#2F2E41"/>
<path d="M193.998 73.6138C193.998 73.6138 192.086 78.5303 192.486 83.3947C192.559 84.2656 192.852 85.1037 193.338 85.8301L169.914 96.9506C169.914 96.9506 159.33 98.0464 161.972 102.669C164.613 107.291 174.188 100.358 174.188 100.358C174.188 100.358 199.281 96.7258 201.262 93.0939C203.243 89.462 204.564 74.2741 204.564 74.2741L193.998 73.6138Z" fill="#FFB8B8"/>
<path d="M194.989 60.0769H199.941C199.941 60.0769 203.573 60.7372 204.564 67.3407C205.554 73.9441 206.545 75.5949 205.554 75.5949C204.564 75.5949 192.678 75.2648 192.678 74.9346C192.678 74.6044 194.989 60.0769 194.989 60.0769Z" fill="#3F3D56"/>
</g>
</svg>
