<?xml version="1.0" encoding="UTF-8"?>
<svg id="_レイヤー_2" data-name="レイヤー 2" xmlns="http://www.w3.org/2000/svg" viewBox="0 0 360.41 356.97">
  <defs>
    <style>
      .cls-1 {
        fill: #ed8599;
      }

      .cls-2 {
        fill: #fff;
      }

      .cls-3 {
        fill: #fcd13e;
      }

      .cls-4 {
        fill: #d9da21;
      }

      .cls-5 {
        fill: #231815;
      }
    </style>
  </defs>
  <g id="_レイヤー_1-2" data-name="レイヤー 1">
    <g>
      <g>
        <path class="cls-2" d="M19.51,345.77c-.14,1.3-.58,2.1-1.73,2.1-3.32,0-9.03-.87-9.03-3.47,0-3.32,9.39-28.33,13.44-36.64,.94-1.95,3.32-3.69,3.54-3.83-8.46,.87-15.75,5.85-15.75,12.57,0,4.55,1.81,5.56,1.81,6.36,0,.43-.36,.72-1.16,.72-3.47,0-10.62-3.4-10.62-9.47,0-10.84,11.2-15.25,26.88-15.25,6.07,0,9.9,.65,12.94,.65,5.42,0,7.37-1.88,8.24-1.88,.51,0,.79,.36,.79,.79,0,1.73-4.55,8.96-7.3,8.96s-4.48-2.17-6.43-2.17c-.79,0-1.3,1.01-1.59,1.66-5.13,11.49-13.15,30.5-14.02,38.88Z"/>
        <path class="cls-2" d="M43.65,345.48c0,1.08-.22,1.73-1.37,1.73-3.4,0-8.09-.87-8.09-3.47,0-5.2,7.23-15.61,7.23-21.39,0-.72,.65-1.23,2.02-1.23,4.34,0,7.01,3.25,7.01,5.28,0,4.19-6.79,13.59-6.79,19.08Zm8.38-38.66c2.6,0,4.55,1.66,4.55,4.34,0,3.69-2.82,7.15-6.14,7.15-2.53,0-4.77-1.66-4.77-4.26,0-3.76,2.82-7.23,6.36-7.23Z"/>
        <path class="cls-2" d="M60.56,347.65c-6.36,0-9.76-3.4-9.76-8.74,0-8.31,10.26-17.78,19.73-17.78,5.71,0,8.24,2.38,8.24,5.56,0,4.26-5.13,7.3-9.18,7.3-.65,0-1.16-.36-1.16-.79,0-.65,.43-1.01,1.3-2.24,.79-1.08,1.73-2.67,1.73-3.9,0-.87-.43-1.3-1.3-1.3-3.25,0-7.15,6.58-7.15,10.84,0,2.89,1.37,4.05,3.9,4.05,4.77,0,6.79-3.32,7.88-3.32,.51,0,1.08,.58,1.08,1.23,0,1.3-5.13,9.11-15.32,9.11Z"/>
        <path class="cls-2" d="M92.36,330.09c0,.22,.14,.29,.29,.29,2.82,0,7.08-4.55,8.02-8.31,.22-.65,.72-.94,1.45-.94,2.67,0,7.95,.22,7.95,2.46,0,4.26-10.62,10.55-15.83,11.27,0,0,2.82,3.9,8.09,3.9,1.59,0,1.95-.43,2.67-.43s1.01,.29,1.01,.94c0,2.38-4.91,7.95-9.97,7.95-3.97,0-5.13-8.82-6.5-8.82-.87,0-2.53,5.28-2.67,7.3-.07,1.08-.36,1.52-1.37,1.52-3.4,0-8.09-.87-8.09-3.47,0-5.2,14.02-32.81,14.02-38.59,0-.72,.65-1.23,2.02-1.23,3.04,0,7.08,3.25,7.08,5.28,0,3.18-8.17,20.09-8.17,20.88Z"/>
        <path class="cls-2" d="M131.53,337.32c.58,0,1.16,.58,1.16,1.23,0,1.3-4.12,8.82-15.46,8.82-4.91,0-9.03-2.96-9.03-8.24,0-8.96,9.76-17.99,19.66-17.99,5.56,0,7.73,2.89,7.73,5.71,0,5.56-9.11,10.19-15.61,11.42,.43,1.52,1.59,2.38,3.69,2.38,4.91,0,6.79-3.32,7.88-3.32Zm-11.49-3.18c4.7-1.3,8.6-4.7,8.6-6.94,0-.87-.51-1.23-1.23-1.23-2.31,0-6.21,3.76-7.37,8.17Z"/>
        <path class="cls-2" d="M138.25,327.2c0-.87,1.23-3.69,2.17-4.55,.72-.65,1.59-.72,2.6-.72,1.88-4.62,3.54-8.67,3.54-10.48,0-.65,.65-1.16,2.02-1.16,3.04,0,7.01,3.18,7.01,5.28,0,1.01-1.08,3.25-2.31,6.36,3.04,0,3.54-.29,4.34-.29,.51,0,.72,.29,.72,.79,0,2.67-1.73,5.78-7.59,5.78-1.88,3.9-6.36,14.53-6.36,17.27,0,1.08-.29,1.73-1.45,1.73-3.32,0-8.02-.87-8.02-3.47,0-3.18,5.49-13.37,5.49-15.61-.72,0-2.17,0-2.17-.94Z"/>
        <path class="cls-2" d="M211.24,344.25c0,3.61,2.24,6.43,6.65,6.43,2.24,0,3.25-.79,3.9-.79,.51,0,.87,.36,.87,.87,0,1.45-4.55,6.21-12.29,6.21-6,0-10.91-3.97-10.91-9.83,0-8.46,6.72-15.39,6.72-18.28,0-.65-.36-1.08-1.16-1.08-1.08,0-3.47,.94-5.56,4.19-2.53,3.9-5.13,10.41-5.13,13.51,0,1.08-.22,1.73-1.37,1.73-3.4,0-7.73-.87-7.73-3.47,0-4.12,4.84-12.65,4.84-14.89,0-.65-.51-1.08-1.23-1.08-1.08,0-2.24,.51-4.34,3.76-2.53,3.97-5.93,10.84-5.93,13.95,0,1.08-.22,1.73-1.37,1.73-3.4,0-8.09-.87-8.09-3.47,0-5.2,6.58-15.61,6.58-21.39,0-.72,.65-1.23,2.02-1.23,6.43,0,6.72,4.62,7.01,4.62,.36,0,4.12-4.62,9.61-4.62,5.78,0,6.79,4.62,7.08,4.62s4.62-4.62,10.19-4.62c3.61,0,5.49,1.88,5.49,4.77,0,4.91-5.85,11.35-5.85,18.36Z"/>
        <path class="cls-2" d="M242.83,347.22c-5.85,0-8.17-4.05-8.67-4.05-.87,0-4.55,4.05-11.13,4.05-3.69,0-6-2.46-6-6.5,0-9.39,9.54-19.58,21.32-19.58,6.21,0,10.7,3.61,10.7,5.28,0,1.37-5.64,7.8-5.64,16.69,0,2.17,.51,2.38,.51,3.25,0,.51-.36,.87-1.08,.87Zm-15.32-8.24c0,.72,.43,1.3,1.3,1.3,3.83,0,9.83-11.78,9.83-13.37,0-.65-.29-.94-.87-.94-4.41,0-10.26,8.31-10.26,13.01Z"/>
        <path class="cls-2" d="M271.23,321.13c2.24,0,3.69,1.3,3.69,3.69,0,3.76-4.7,8.89-6.79,8.89-.72,0-1.01-.29-1.16-.87-.36-1.16-.29-3.76-2.02-3.76-.79,0-2.1,.79-3.32,2.82-2.38,3.83-5.06,11.27-5.06,13.59,0,1.08-.22,1.73-1.37,1.73-3.4,0-8.09-.87-8.09-3.47,0-5.2,6.65-15.61,6.65-21.39,0-.72,.65-1.23,2.02-1.23,6.43,0,6.36,4.62,6.65,4.62s3.9-4.62,8.82-4.62Z"/>
        <path class="cls-2" d="M282.87,347.65c-6.36,0-9.76-3.4-9.76-8.74,0-8.31,10.26-17.78,19.73-17.78,5.71,0,8.24,2.38,8.24,5.56,0,4.26-5.13,7.3-9.18,7.3-.65,0-1.16-.36-1.16-.79,0-.65,.43-1.01,1.3-2.24,.79-1.08,1.73-2.67,1.73-3.9,0-.87-.43-1.3-1.3-1.3-3.25,0-7.15,6.58-7.15,10.84,0,2.89,1.37,4.05,3.9,4.05,4.77,0,6.79-3.32,7.88-3.32,.51,0,1.08,.58,1.08,1.23,0,1.3-5.13,9.11-15.32,9.11Z"/>
        <path class="cls-2" d="M326.95,344.25c0,3.61,2.31,6.43,6.65,6.43,2.24,0,3.25-.79,3.9-.79,.51,0,.87,.36,.87,.87,0,1.45-4.48,6.21-12.29,6.21-6,0-10.91-3.97-10.91-9.83,0-8.46,6.65-15.83,6.65-18.72,0-.65-.43-1.16-1.16-1.16-1.37,0-4.48,1.08-6.58,4.7-2.24,3.76-4.91,11.06-4.91,13.51,0,1.08-.22,1.73-1.37,1.73-3.4,0-8.09-.87-8.09-3.47,0-4.77,14.02-33.1,14.02-38.59,0-.72,.65-1.23,2.02-1.23,3.76,0,7.08,3.25,7.08,5.28,0,3.11-5.64,14.16-5.64,15.1,0,.14,.07,.22,.22,.22,.29,0,5.28-3.4,9.9-3.4,3.61,0,5.56,1.88,5.56,4.77,0,4.91-5.93,11.35-5.93,18.36Z"/>
        <path class="cls-2" d="M355.79,337.32c.58,0,1.16,.58,1.16,1.23,0,1.3-4.12,8.82-15.46,8.82-4.91,0-9.03-2.96-9.03-8.24,0-8.96,9.76-17.99,19.66-17.99,5.56,0,7.73,2.89,7.73,5.71,0,5.56-9.11,10.19-15.61,11.42,.43,1.52,1.59,2.38,3.69,2.38,4.91,0,6.79-3.32,7.88-3.32Zm-11.49-3.18c4.7-1.3,8.6-4.7,8.6-6.94,0-.87-.51-1.23-1.23-1.23-2.31,0-6.21,3.76-7.37,8.17Zm16.12-22.91c0,1.16-.29,1.73-1.66,2.89-2.89,2.53-7.95,3.76-10.04,3.76-.79,0-1.23-.51-1.23-1.01,0-.58,.22-.87,1.08-1.37,2.1-1.23,4.55-4.05,6.65-7.37,.58-.94,.94-1.37,1.66-1.37,1.08,0,3.54,2.96,3.54,4.48Z"/>
      </g>
      <g>
        <g>
          <path class="cls-5" d="M339.53,213.13c-.1,0-.2-.03-.29-.09-.28-.2-6.94-5.08-9.13-13.05-3.12-11.35,3.37-23.93,3.65-24.46,.13-.24,.43-.34,.67-.21,.24,.13,.34,.43,.21,.67-.07,.13-6.58,12.76-3.57,23.73,2.1,7.63,8.69,12.45,8.75,12.5,.22,.16,.28,.47,.11,.7-.1,.14-.25,.21-.41,.21Z"/>
          <path class="cls-1" d="M340.54,139.58c18.92,3.98,15.59,24.24,7.52,32.66-6.72,7.01-26.58,5.05-27.95-11.18-1.38-16.35,8.53-23.98,20.43-21.48Z"/>
          <polygon class="cls-1" points="335.76 174.94 337.95 183.89 327.69 181.68 333.47 174.46 335.76 174.94"/>
          <path class="cls-5" d="M336.18,177.13s-.06,0-.1,0l-3.42-.67c-.27-.05-.45-.32-.39-.59,.05-.27,.31-.45,.59-.39l3.42,.67c.27,.05,.45,.32,.39,.59-.05,.24-.26,.4-.49,.4Z"/>
        </g>
        <path class="cls-2" d="M337.46,146.96c-2.53-2.53-6.91,2.83-5.07,4.64,1.84,1.81,7.14-2.57,5.07-4.64Z"/>
      </g>
      <rect class="cls-1" x="130.71" y="73.6" width="11.37" height="11.37" transform="translate(34.63 199.83) rotate(-80)"/>
      <rect class="cls-3" x="241.76" y="133.43" width="11.37" height="11.37" transform="translate(67.47 358.64) rotate(-80)"/>
      <rect class="cls-4" x="59.2" y="58.55" width="11.79" height="11.79" transform="translate(-10.2 12.28) rotate(-10)"/>
      <rect class="cls-3" x="148.95" y="35.64" width="11.79" height="11.79" transform="translate(56.99 -85.45) rotate(37.37)"/>
      <rect class="cls-2" x="91.83" y="123.4" width="11.79" height="11.79" transform="translate(98.53 -32.77) rotate(37.37)"/>
      <rect class="cls-4" x="301.54" y="124.18" width="10.22" height="10.22" transform="translate(141.41 -159.58) rotate(37.37)"/>
      <rect class="cls-2" x="276.7" y="153.59" width="11.64" height="11.64" transform="translate(-28.02 65.64) rotate(-12.63)"/>
      <rect class="cls-2" x="100.16" y="25.91" width="11.64" height="11.64" transform="translate(-4.37 23.95) rotate(-12.63)"/>
      <g>
        <g>
          <path class="cls-5" d="M58.27,184.42c-.12,0-.25-.05-.34-.14-.07-.07-7.02-6.68-11.8-13.05-7.28-9.71-13.6-27.81-13.66-27.99-.09-.26,.05-.55,.31-.64,.26-.09,.55,.05,.64,.31,.06,.18,6.33,18.14,13.52,27.72,4.73,6.3,11.62,12.86,11.68,12.92,.2,.19,.21,.51,.02,.71-.1,.1-.23,.16-.36,.16Z"/>
          <path class="cls-3" d="M24.49,94.92C-.69,100.21,3.73,127.18,14.48,138.39c8.95,9.34,35.38,6.72,37.21-14.88,1.84-21.77-11.36-31.92-27.2-28.59Z"/>
          <polygon class="cls-3" points="30.84 141.99 27.93 153.9 41.59 150.96 33.89 141.35 30.84 141.99"/>
          <path class="cls-5" d="M30.29,144.74c-.23,0-.44-.17-.49-.4-.05-.27,.12-.53,.39-.59l4.56-.89c.27-.05,.54,.12,.59,.39,.05,.27-.12,.53-.39,.59l-4.56,.89s-.07,0-.1,0Z"/>
        </g>
        <path class="cls-2" d="M22.66,102.13c-3.37-3.37-9.2,3.77-6.74,6.18,2.45,2.41,9.5-3.42,6.74-6.18Z"/>
      </g>
      <path class="cls-2" d="M173.4,118.73c-21.69,38.59-52.25,74.59-90.92,104.99-12.94-3.37-25.75-7.4-38.37-12.13,53.63-22.21,96.74-55.62,127.17-94.14,.68,.47,1.38,.9,2.12,1.28Z"/>
      <path class="cls-2" d="M179.34,120.69c-4.33,38.54-10.37,76.98-18.14,115.19-13.24-.68-26.46-2.02-39.6-4.04,23.28-35.69,41.51-73.36,54.51-111.95,1.04,.36,2.12,.63,3.23,.8Z"/>
      <path class="cls-2" d="M240.56,231.84c-13.14,2.02-26.35,3.36-39.6,4.04-7.74-38.14-13.78-76.5-18.11-114.96,1.17-.02,2.31-.15,3.42-.38,12.99,38.36,31.14,75.81,54.29,111.3Z"/>
      <path class="cls-2" d="M318.05,211.59c-12.62,4.73-25.43,8.76-38.37,12.13-38.34-30.16-68.73-65.82-90.39-104.05,.85-.32,1.67-.7,2.45-1.13,30.38,38.06,73.19,71.05,126.31,93.05Z"/>
      <g>
        <path class="cls-4" d="M50.94,260.8c-1.95,0-3.9-.29-5.81-.88-5.05-1.54-9.05-4.83-11.27-9.28-2.12-4.24-2.33-8.97-.59-13.3l7.43-19.02c10.71,3.75,21.79,7.12,32.98,10.03l-5.33,19.6c-1.98,7.57-9.13,12.85-17.4,12.85Z"/>
        <path class="cls-1" d="M268.43,271.54c-9.03,0-16.5-6.13-17.76-14.57l-3.22-20.05c11.18-1.76,22.47-4.02,33.6-6.7l5.34,19.63c1.28,4.54,.57,9.25-2,13.27-2.66,4.16-6.94,7.02-12.04,8.03-1.3,.26-2.61,.39-3.91,.39Z"/>
        <path class="cls-4" d="M224.92,277.99c-9.7,0-17.61-7.17-18-16.32l-1.08-20.28c11.37-.66,22.78-1.78,33.98-3.34l3.22,20.04c.8,4.66-.41,9.28-3.4,13.03-3.07,3.86-7.6,6.26-12.75,6.77-.66,.06-1.32,.1-1.97,.1h0Z"/>
        <path class="cls-4" d="M137.26,277.99c-.65,0-1.31-.03-1.98-.1-5.14-.5-9.67-2.91-12.75-6.76-2.99-3.75-4.2-8.37-3.41-13l3.22-20.07c11.2,1.56,22.61,2.68,33.98,3.34l-1.08,20.24c-.39,9.18-8.3,16.36-18,16.36Z"/>
        <path class="cls-1" d="M93.74,271.54c-1.29,0-2.61-.13-3.9-.39-5.11-1.01-9.39-3.87-12.05-8.03-2.57-4.02-3.29-8.72-2.01-13.23l5.35-19.67c11.11,2.68,22.39,4.94,33.6,6.7l-3.21,20.01c-1.27,8.47-8.75,14.6-17.78,14.6Z"/>
        <path class="cls-1" d="M181.09,280.14c-5.16,0-9.91-1.94-13.36-5.47-3.37-3.44-5.07-7.92-4.77-12.61l1.08-20.28c5.69,.23,11.42,.34,17.05,.34s11.36-.12,17.05-.34l1.07,20.25c.3,4.72-1.4,9.22-4.77,12.66-3.45,3.52-8.19,5.46-13.33,5.46h-.02Z"/>
        <path class="cls-4" d="M311.23,260.8c-8.27,0-15.41-5.27-17.39-12.82l-5.34-19.64c11.2-2.92,22.28-6.29,32.98-10.03l7.41,18.99c1.75,4.36,1.54,9.08-.58,13.33-2.22,4.45-6.23,7.75-11.27,9.29-1.9,.58-3.86,.88-5.81,.88Z"/>
      </g>
      <path class="cls-1" d="M264.61,82.05v-13.26c-27.84,.11-55.69,4.22-83.53-9.94v40.99c22.38,4.68,44.76-2.43,67.13-9.78v7.44c17.84-5.41,35.68-9.18,53.52-5.45-12.38-6.29-24.75-8.97-37.13-9.99Z"/>
      <rect class="cls-1" x="181.08" y="94.26" width="2.86" height="9.98"/>
      <path class="cls-2" d="M330.72,24.94c-11.17-9.42-23.58-3.28-27.31,.71-4.09,4.38-4.87,8.52-6.59,8.17-6.25-1.28-9.06,3.1-12.13,4.48,0,0,7.74,4.54,7.69,8.02-.04,2.89-.83,9.66,.64,14.06,3.99,11.91,17.9,12.4,17.9,12.4,0,0-1.53-8.38-.83-11.97,.82-4.19,2.67-6.83,5.41-7.5,2.75-.67,9.12,3.97,10.8,3.19,1.67-.78,4.18-7.66,3.31-9.09-.87-1.43-10.06-2.05-11.54-4.48-1-1.65-1.79-5.3,1.53-10.68,2.33-3.77,11.12-7.33,11.12-7.33Z"/>
      <path class="cls-5" d="M326.04,49.83s-.07,0-.1,0l-3.53-.61c-.32-.06-.53-.36-.48-.68,.06-.32,.36-.53,.68-.48l3.53,.61c.32,.06,.53,.36,.48,.68-.05,.28-.3,.48-.58,.48Z"/>
      <path class="cls-5" d="M325.35,53.47c-.08,0-.15-.01-.23-.05l-3.57-1.5c-.3-.12-.44-.47-.31-.77,.12-.3,.47-.44,.76-.31l3.57,1.5c.3,.12,.44,.47,.31,.77-.09,.22-.31,.36-.54,.36Z"/>
      <path class="cls-5" d="M295.39,37.38c0,.9-.73,1.63-1.63,1.63s-1.63-.73-1.63-1.63,.73-1.63,1.63-1.63,1.63,.73,1.63,1.63Z"/>
      <g>
        <path class="cls-3" d="M279.74,3.61c-8.12-6.85-17.14-2.38-19.85,.52-2.97,3.18-3.54,6.2-4.79,5.94-4.54-.93-6.58,2.25-8.82,3.26,0,0,5.63,3.3,5.59,5.83-.03,2.1-.61,7.02,.47,10.22,2.9,8.66,13.01,9.01,13.01,9.01,0,0-1.12-6.09-.6-8.7,.6-3.04,1.94-4.96,3.93-5.45s6.63,2.89,7.85,2.32c1.22-.57,3.04-5.57,2.4-6.61-.63-1.04-7.31-1.49-8.39-3.25-.73-1.2-1.3-3.85,1.11-7.76,1.69-2.74,8.08-5.33,8.08-5.33Z"/>
        <path class="cls-5" d="M276.34,21.7s-.05,0-.07,0l-2.56-.45c-.23-.04-.39-.26-.35-.49,.04-.23,.25-.38,.49-.35l2.56,.45c.23,.04,.39,.26,.35,.49-.04,.21-.22,.35-.42,.35Z"/>
        <path class="cls-5" d="M275.83,24.35c-.05,0-.11-.01-.16-.03l-2.59-1.09c-.22-.09-.32-.34-.23-.56s.34-.32,.56-.23l2.59,1.09c.22,.09,.32,.34,.23,.56-.07,.16-.23,.26-.39,.26Z"/>
        <path class="cls-5" d="M254.06,12.65c0,.65-.53,1.18-1.18,1.18s-1.18-.53-1.18-1.18,.53-1.18,1.18-1.18,1.18,.53,1.18,1.18Z"/>
      </g>
    </g>
  </g>
</svg>