<?xml version="1.0" encoding="UTF-8"?>
<svg id="_レイヤー_2" data-name="レイヤー 2" xmlns="http://www.w3.org/2000/svg" viewBox="0 0 384.52 81.17">
  <defs>
    <style>
      .cls-1 {
        fill: #c6c6c6;
      }

      .cls-2 {
        fill: #5dc1cf;
      }
    </style>
  </defs>
  <g id="_レイヤー_1-2" data-name="レイヤー 1">
    <g>
      <g>
        <path class="cls-2" d="M22.53,7.88c3.41-3.33,8.33-5.47,13.96-5.47,6.5,0,10.23,3.49,10.23,8.49,0,4.52-3.49,7.93-8.25,7.93-4.04,0-6.98-1.43-9.91-2.93,.71,6.35,11.42,12.29,11.42,22.6s-9.04,17.69-19.75,17.69c-8.09,0-15.62-4.44-15.62-10.71s7.53-11.26,13.01-11.26c.71,0,1.43,.32,1.43,.95,0,1.27-3.25,3.01-3.25,9.2,0,3.97,2.22,6.58,6.11,6.58,3.41,0,6.74-3.09,6.74-7.53,0-8.17-11.02-15.7-11.02-24.43,0-2.14,.48-4.2,1.35-6.11-5.31,0-8.8,3.17-8.8,6.66s2.62,5.63,2.62,6.42c0,.56-.32,.79-1.03,.79-2.54,0-11.74-4.84-11.74-12.37C0,9.23,4.2,4.63,11.02,4.63c4.6,0,8.01,1.59,11.5,3.25Zm7.46,3.01c1.9,.56,3.89,.87,6.27,.87,2.62,0,3.57-.95,3.57-2.06,0-1.19-1.03-1.82-3.01-1.82-2.46,0-5.16,.95-6.82,3.01Z"/>
        <path class="cls-2" d="M47.19,33.5c0-.95,1.35-4.05,2.38-5,.79-.71,1.74-.79,2.85-.79,2.06-5.08,3.89-9.52,3.89-11.5,0-.71,.71-1.27,2.22-1.27,3.33,0,7.69,3.49,7.69,5.79,0,1.11-1.19,3.57-2.54,6.98,3.33,0,3.89-.32,4.76-.32,.55,0,.79,.32,.79,.87,0,2.93-1.9,6.35-8.33,6.35-2.06,4.28-6.98,15.94-6.98,18.96,0,1.19-.32,1.9-1.59,1.9-3.65,0-8.8-.95-8.8-3.81,0-3.49,6.03-14.67,6.03-17.13-.79,0-2.38,0-2.38-1.03Z"/>
        <path class="cls-2" d="M94.23,55.47c-6.42,0-8.96-4.44-9.52-4.44-.95,0-5,4.44-12.21,4.44-4.04,0-6.58-2.7-6.58-7.14,0-10.31,10.47-21.49,23.4-21.49,6.82,0,11.74,3.97,11.74,5.79,0,1.51-6.19,8.57-6.19,18.32,0,2.38,.56,2.62,.56,3.57,0,.56-.4,.95-1.19,.95Zm-16.81-9.04c0,.79,.48,1.43,1.43,1.43,4.2,0,10.79-12.93,10.79-14.67,0-.71-.32-1.03-.95-1.03-4.84,0-11.26,9.12-11.26,14.28Z"/>
        <path class="cls-2" d="M118.66,51.74c0-.16-.16-.16-.24-.16-.56,0-4.44,3.89-11.34,3.89-4.04,0-6.58-2.7-6.58-7.14,0-10.31,10.47-21.49,23.4-21.49,6.82,0,11.66,3.97,11.66,5.79s-3.81,5.55-6.11,15.47c-3.09,13.32-7.38,33.07-22.76,33.07-9.91,0-14.83-8.01-14.83-10.63,0-.71,.56-1.19,1.19-1.19,1.11,0,2.06,1.82,6.9,1.82,11.74,0,16.34-11.98,18.56-18.88,.08-.16,.16-.32,.16-.55Zm-6.66-5.31c0,.79,.48,1.43,1.43,1.43,4.2,0,10.79-12.93,10.79-14.67,0-.71-.32-1.03-.95-1.03-4.84,0-11.26,9.12-11.26,14.28Z"/>
        <path class="cls-2" d="M160.54,44.6c.63,0,1.27,.63,1.27,1.35,0,1.43-4.52,9.68-16.97,9.68-5.39,0-9.92-3.25-9.92-9.04,0-9.83,10.71-19.75,21.57-19.75,6.11,0,8.49,3.17,8.49,6.27,0,6.11-9.99,11.18-17.13,12.53,.48,1.67,1.75,2.62,4.04,2.62,5.39,0,7.46-3.65,8.65-3.65Zm-12.61-3.49c5.16-1.43,9.44-5.16,9.44-7.61,0-.95-.55-1.35-1.35-1.35-2.54,0-6.82,4.12-8.09,8.96Z"/>
        <path class="cls-2" d="M220.81,52.22c0,3.97,2.46,7.06,7.3,7.06,2.46,0,3.57-.87,4.28-.87,.56,0,.95,.4,.95,.95,0,1.59-5,6.82-13.48,6.82-6.58,0-11.98-4.36-11.98-10.79,0-9.28,7.38-16.89,7.38-20.07,0-.71-.4-1.19-1.27-1.19-1.19,0-3.81,1.03-6.11,4.6-2.78,4.28-5.63,11.42-5.63,14.83,0,1.19-.24,1.9-1.51,1.9-3.73,0-8.49-.95-8.49-3.81,0-4.52,5.31-13.88,5.31-16.34,0-.71-.55-1.19-1.35-1.19-1.19,0-2.46,.56-4.76,4.12-2.78,4.36-6.5,11.9-6.5,15.31,0,1.19-.24,1.9-1.51,1.9-3.73,0-8.88-.95-8.88-3.81,0-5.71,7.22-17.13,7.22-23.48,0-.79,.71-1.35,2.22-1.35,7.06,0,7.38,5.08,7.69,5.08,.4,0,4.52-5.08,10.55-5.08,6.35,0,7.46,5.08,7.77,5.08s5.08-5.08,11.18-5.08c3.97,0,6.03,2.06,6.03,5.23,0,5.39-6.42,12.45-6.42,20.15Z"/>
        <path class="cls-2" d="M255.48,55.47c-6.42,0-8.96-4.44-9.52-4.44-.95,0-5,4.44-12.21,4.44-4.04,0-6.58-2.7-6.58-7.14,0-10.31,10.47-21.49,23.4-21.49,6.82,0,11.74,3.97,11.74,5.79,0,1.51-6.19,8.57-6.19,18.32,0,2.38,.56,2.62,.56,3.57,0,.56-.4,.95-1.19,.95Zm-16.81-9.04c0,.79,.48,1.43,1.43,1.43,4.2,0,10.79-12.93,10.79-14.67,0-.71-.32-1.03-.95-1.03-4.84,0-11.26,9.12-11.26,14.28Z"/>
        <path class="cls-2" d="M286.65,26.84c2.46,0,4.04,1.43,4.04,4.04,0,4.12-5.16,9.76-7.46,9.76-.79,0-1.11-.32-1.27-.95-.4-1.27-.32-4.13-2.22-4.13-.87,0-2.3,.87-3.65,3.09-2.62,4.2-5.55,12.37-5.55,14.91,0,1.19-.24,1.9-1.51,1.9-3.73,0-8.88-.95-8.88-3.81,0-5.71,7.3-17.13,7.3-23.48,0-.79,.71-1.35,2.22-1.35,7.06,0,6.98,5.08,7.3,5.08s4.28-5.08,9.68-5.08Z"/>
        <path class="cls-2" d="M299.42,55.94c-6.98,0-10.71-3.73-10.71-9.6,0-9.12,11.26-19.51,21.65-19.51,6.27,0,9.04,2.62,9.04,6.11,0,4.68-5.63,8.01-10.07,8.01-.71,0-1.27-.4-1.27-.87,0-.71,.48-1.11,1.43-2.46,.87-1.19,1.9-2.94,1.9-4.28,0-.95-.48-1.43-1.43-1.43-3.57,0-7.85,7.22-7.85,11.9,0,3.17,1.51,4.44,4.28,4.44,5.23,0,7.46-3.65,8.65-3.65,.55,0,1.19,.63,1.19,1.35,0,1.43-5.63,9.99-16.81,9.99Z"/>
        <path class="cls-2" d="M347.8,52.22c0,3.97,2.54,7.06,7.3,7.06,2.46,0,3.57-.87,4.28-.87,.56,0,.95,.4,.95,.95,0,1.59-4.92,6.82-13.48,6.82-6.58,0-11.98-4.36-11.98-10.79,0-9.28,7.3-17.37,7.3-20.54,0-.71-.48-1.27-1.27-1.27-1.51,0-4.92,1.19-7.22,5.16-2.46,4.12-5.39,12.13-5.39,14.83,0,1.19-.24,1.9-1.51,1.9-3.73,0-8.88-.95-8.88-3.81,0-5.23,15.39-36.33,15.39-42.35,0-.79,.71-1.35,2.22-1.35,4.12,0,7.77,3.57,7.77,5.79,0,3.41-6.19,15.55-6.19,16.58,0,.16,.08,.24,.24,.24,.32,0,5.79-3.73,10.87-3.73,3.97,0,6.11,2.06,6.11,5.23,0,5.39-6.5,12.45-6.5,20.15Z"/>
        <path class="cls-2" d="M379.45,44.6c.63,0,1.27,.63,1.27,1.35,0,1.43-4.52,9.68-16.97,9.68-5.39,0-9.92-3.25-9.92-9.04,0-9.83,10.71-19.75,21.57-19.75,6.11,0,8.49,3.17,8.49,6.27,0,6.11-9.99,11.18-17.13,12.53,.48,1.67,1.75,2.62,4.04,2.62,5.39,0,7.46-3.65,8.65-3.65Zm-12.61-3.49c5.16-1.43,9.44-5.16,9.44-7.61,0-.95-.55-1.35-1.35-1.35-2.54,0-6.82,4.12-8.09,8.96Zm17.69-25.14c0,1.27-.32,1.9-1.82,3.17-3.17,2.78-8.72,4.12-11.03,4.12-.87,0-1.35-.56-1.35-1.11,0-.63,.24-.95,1.19-1.51,2.3-1.35,5-4.44,7.3-8.09,.63-1.03,1.03-1.51,1.82-1.51,1.19,0,3.89,3.25,3.89,4.92Z"/>
      </g>
      <g>
        <path class="cls-1" d="M114.89,3.82q-6.79,.55-8.14,.55s0-2.37-.16-3.43c0,0,12.14-.23,12.84-.36,0,0-.42,4.89-3.33,8.63,0,0,3.82,4.24,6.21,4.11l-2.34,3.56s-3.15-2.44-5.72-5.2c-.86,1.43-4.58,3.48-8.66,4,5.43-4.13,8.61-8.71,9.28-11.86Z"/>
        <path class="cls-1" d="M144.58,9.88s-2.96-.05-5.43-.18c.21,3.35-1.64,7.67-7.8,7.51,3.85-2.65,4.68-5.62,4.32-7.77,0,0-4.34,.39-7.23,.44l-.08-3.43c5.12-.03,15.21-.08,16.33-.05l-.1,3.48Zm-12.66-6.14l-.05-3.54s7.57,.03,9.83,.18l-.08,2.83s-6.97,.62-9.7,.52Z"/>
        <path class="cls-1" d="M151.78,6.37c3.56,.05,13.44,.16,15.39-.08l-.26,3.51s-7.98-.03-14.69,.08l-.44-3.51Z"/>
        <path class="cls-1" d="M173,7.02l2.31-1.95,2.6,2.18s-1.48,1.56-2.6,2.65c0,0-1.27-1.9-2.31-2.89Zm16.48-2.05c.16,5.36-3.48,10.22-11.1,12.19l-1.87-3.87c6.08-.94,10.01-4.11,12.97-8.32Zm-10.19-4.97l2.76,2.34s-1.56,1.53-2.73,2.42c0,0-1.22-1.72-2.24-2.78l2.21-1.98Zm8.4,2.76s-.7,.18-1.14,.42l-.49-2.05,1.64-.29v1.92Zm.75-2l1.61-.29-.16,1.92s-.68,.16-1.14,.39l-.31-2.03Z"/>
        <path class="cls-1" d="M213.92,2.63c-1.07,4.5-3.93,7.02-7.46,8.45,1.2-1.85,1.95-3.64,2.24-5.36,0,0-10.79,.49-12.61,.49l-.13-3.59s15.99,.05,17.97,0Zm-5.85,10.79l-2.55,2.68s-2.86-2.96-3.93-4.47l2.26-2s2.63,2.83,4.21,3.8Z"/>
        <path class="cls-1" d="M218.16,14.82c2.26-3.69,3.02-6.71,2.81-10.09l4.08,.75c-.62,5.69-3.35,8.42-6.89,9.33Zm12.95-4.11s2.65-.21,6.29-1.61c-1.35,2.29-3.64,5.17-9.39,6.16,0,0-.34-12.92-.34-14.09h4.06l-.62,9.54Z"/>
        <path class="cls-1" d="M242.16,7.02l2.31-1.95,2.6,2.18s-1.48,1.56-2.6,2.65c0,0-1.27-1.9-2.31-2.89Zm16.48-2.05c.16,5.36-3.48,10.22-11.1,12.19l-1.87-3.87c6.08-.94,10.01-4.11,12.97-8.32Zm-10.19-4.97l2.76,2.34s-1.56,1.53-2.73,2.42c0,0-1.22-1.72-2.24-2.78l2.21-1.98Z"/>
        <path class="cls-1" d="M267.4,13.21c1.66-.08,2.57-.23,4.39-.39l-.05-4.42s-1.17,.16-3.02-.03l-.26-2.83s6.76-.05,9.62,0l-.21,2.96s-1.53,.1-3.12,.16c.03,1.01-.13,2.05-.16,4,0,0,1.82,.1,4.32,.26l-.26,3.07s-9.65-.05-11.05-.1l-.21-2.68Z"/>
      </g>
    </g>
  </g>
</svg>