<svg width="24" height="24" viewBox="0 0 24 24" fill="none" xmlns="http://www.w3.org/2000/svg">
<path fill-rule="evenodd" clip-rule="evenodd" d="M13.8725 1.49711C12.7772 0.621679 11.2216 0.621718 10.1263 1.4972L1.12686 8.69086C0.414652 9.26015 0 10.1224 0 11.0342V21C0 22.6569 1.34315 24 3 24H21C22.6569 24 24 22.6569 24 21V11.0343C24 10.1225 23.5853 9.26015 22.873 8.69086L13.8725 1.49711ZM20.8485 10.1191C21.3232 10.4986 21.5996 11.0735 21.5996 11.6813V20.6396C21.5996 21.1919 21.1519 21.6396 20.5996 21.6396H3.40036C2.84808 21.6396 2.40037 21.1919 2.40037 20.6396V11.6813C2.40037 11.0735 2.67679 10.4986 3.15159 10.1191L11.3762 3.54474C11.7413 3.25288 12.2599 3.25289 12.625 3.54478L20.8485 10.1191Z" fill="#9E9E9E"/>
</svg>
