<svg width="24" height="24" viewBox="0 0 24 24" fill="none" xmlns="http://www.w3.org/2000/svg">
<path d="M22.5854 8.30896L21.3847 6.1927C21.174 5.82139 20.7085 5.68112 20.3272 5.87437H20.3267C19.9398 6.0711 19.4686 5.92952 19.2545 5.55213C19.0404 5.17518 19.1607 4.6979 19.5277 4.46643H19.5285C19.8894 4.23756 20.0075 3.76593 19.7969 3.39462L18.5436 1.18543C18.2678 0.699467 17.8444 0.34987 17.3615 0.161392C17.3484 0.15618 17.3358 0.151403 17.3228 0.14706C16.9094 -0.00667535 16.4551 -0.0427208 16.0143 0.052387C15.7881 0.101461 15.5661 0.184843 15.3546 0.304705L2.18461 7.77739C1.88235 7.9485 1.63307 8.17693 1.44242 8.44141C1.29173 8.6503 1.17795 8.88177 1.10325 9.12584C0.966886 9.56968 0.962543 10.0539 1.10846 10.5142C1.1115 10.5251 1.11498 10.536 1.11845 10.5464C1.16535 10.6893 1.22789 10.8295 1.30476 10.9659L1.58009 11.451C1.70603 11.2768 1.84891 11.114 2.00743 10.9642C2.28233 10.7045 2.59588 10.4925 2.93896 10.3353C3.00627 10.3045 3.07402 10.2758 3.14264 10.2502L3.00237 10.0031C2.96719 9.94142 2.95025 9.87584 2.95199 9.80506C2.95503 9.66609 3.02842 9.54232 3.14785 9.47457L16.3179 2.00231C16.4191 1.94455 16.5168 1.94759 16.5811 1.95975C16.6931 1.98147 16.7899 2.05052 16.8455 2.14867L17.6711 3.60351C17.09 4.45818 17.0288 5.58427 17.5569 6.51494C18.085 7.44604 19.0834 7.97195 20.1152 7.91159L20.8878 9.27263C20.9929 9.45807 20.9274 9.69518 20.7419 9.80028L20.2216 10.0956C20.3306 10.1182 20.4388 10.1464 20.5452 10.1794C21.1532 10.3696 21.6943 10.7236 22.1134 11.2047C22.9151 10.4864 23.1383 9.28348 22.5854 8.30896Z" fill="white"/>
<path d="M7.11636 10.0232H6.25995L5.93945 9.45817L6.5874 9.09033L7.11636 10.0232Z" fill="white"/>
<path d="M21.0919 16.8095H21.0927C21.5192 16.7891 21.8549 16.4374 21.8549 16.0105V13.4703C21.8549 12.9114 21.6591 12.3985 21.332 11.9964C21.3234 11.9855 21.3147 11.9751 21.3055 11.9647C21.2595 11.91 21.2104 11.857 21.1596 11.8075C20.8978 11.5473 20.5747 11.3497 20.2142 11.2368C19.9936 11.1678 19.7591 11.1309 19.5159 11.1309H4.37376C4.13882 11.1309 3.91212 11.1656 3.69846 11.2299C3.59597 11.2607 3.49651 11.2981 3.40054 11.3424C3.16646 11.4496 2.95323 11.5947 2.76779 11.7701C2.53154 11.9933 2.34176 12.2652 2.21495 12.5705C2.16023 12.7017 2.11724 12.8385 2.08727 12.9805C2.08423 12.9913 2.08206 13.0022 2.07989 13.013C2.05036 13.1607 2.03516 13.3136 2.03516 13.4699V16.0248C2.03516 16.4226 2.32743 16.76 2.72132 16.8165C2.91979 16.8451 3.09394 16.9455 3.21814 17.0888C3.34278 17.2325 3.41748 17.4188 3.41748 17.619C3.41748 18.0199 3.11826 18.3651 2.72176 18.4216H2.72132C2.32743 18.478 2.03516 18.8155 2.03516 19.2133V21.6609C2.03516 22.9529 3.08221 23.9999 4.37376 23.9999H19.5159C20.8074 23.9999 21.8549 22.9529 21.8549 21.6609V19.2276C21.8549 18.8007 21.5192 18.4489 21.0923 18.429H21.0919C20.6585 18.4086 20.3184 18.0529 20.3184 17.619C20.3184 17.1852 20.6585 16.8299 21.0919 16.8095ZM19.9028 15.1428C18.9756 15.5996 18.3668 16.549 18.3668 17.619C18.3668 18.6891 18.9756 19.6393 19.9028 20.0962V21.6613C19.9028 21.8746 19.7291 22.0483 19.5159 22.0483H4.37376C4.1601 22.0483 3.98638 21.8746 3.98638 21.6613V20.0102C4.49493 19.7144 4.89751 19.2628 5.13419 18.7282C5.22713 18.5184 5.29488 18.2956 5.33266 18.0646C5.33874 18.0277 5.34438 17.9908 5.34873 17.9534L5.35437 17.9078V17.9035C5.36393 17.8079 5.36914 17.7124 5.36914 17.619C5.36914 16.925 5.10727 16.2597 4.63129 15.7455C4.6022 15.7138 4.57223 15.683 4.5414 15.6535C4.40199 15.5158 4.24869 15.3938 4.08453 15.2891C4.0524 15.2683 4.01939 15.2483 3.98638 15.2287V13.4703C3.98638 13.3995 4.00419 13.334 4.04067 13.2732C4.11189 13.1537 4.23653 13.0825 4.37376 13.0825H19.5159C19.6327 13.0825 19.7161 13.1329 19.766 13.1755C19.8529 13.2497 19.9028 13.3574 19.9028 13.4703V15.1428Z" fill="white"/>
<path d="M7.55485 19.2742H6.81006V20.7929H7.55485V19.2742Z" fill="white"/>
<path d="M7.55485 16.8599H6.81006V18.3781H7.55485V16.8599Z" fill="white"/>
<path d="M7.55485 14.4453H6.81006V15.964H7.55485V14.4453Z" fill="white"/>
</svg>
