<svg width="24" height="24" viewBox="0 0 24 24" fill="none" xmlns="http://www.w3.org/2000/svg">
<path d="M0.503438 15.1426C0.490022 14.7447 0.605165 14.3906 0.845081 14.068C1.11525 13.7047 1.46225 13.4206 1.78545 13.1117C2.01642 12.891 2.25319 12.6763 2.48735 12.4589C2.50004 12.4471 2.51385 12.436 2.52457 12.4225C2.67593 12.2325 2.63822 11.6838 2.45906 11.5163C2.03535 11.1202 1.60064 10.7353 1.18789 10.3282C0.883435 10.0279 0.607583 9.69766 0.533372 9.25359C0.472376 8.88868 0.489418 8.53091 0.631111 8.18118C0.753184 7.87986 0.847861 7.56798 0.973117 7.2673C1.16928 6.79645 1.39147 6.33829 1.65459 5.90191C2.03991 5.26282 2.46378 4.65268 2.96601 4.09518C3.23263 3.79921 3.53194 3.57637 3.90597 3.45621C4.25813 3.34305 4.61782 3.34229 4.97344 3.44328C5.58341 3.61651 6.19168 3.79566 6.80023 3.97381C6.87601 3.996 6.95022 4.00143 7.02528 3.97808C7.17301 3.93209 7.31998 3.88611 7.44198 3.78266C7.5489 3.69197 7.61993 3.58522 7.65264 3.44638C7.79567 2.83943 7.92866 2.22949 8.09468 1.62878C8.22276 1.16538 8.49394 0.781303 8.89606 0.508973C9.12457 0.354224 9.39337 0.283554 9.66286 0.229756C10.659 0.0309145 11.6644 -0.0362118 12.6787 0.0181094C13.2763 0.0501222 13.8703 0.119785 14.4511 0.258427C15.2555 0.450464 15.7423 0.982682 15.9457 1.77294C16.09 2.33314 16.2138 2.89862 16.347 3.46172C16.3994 3.6834 16.5516 3.81282 16.7521 3.89702C16.7713 3.90507 16.7904 3.91329 16.8092 3.92223C16.9555 3.99181 17.1002 4.0059 17.2615 3.95694C17.8185 3.78789 18.3798 3.63334 18.9377 3.4672C19.5651 3.2804 20.1398 3.3774 20.6784 3.74992C20.9941 3.96829 21.2176 4.26865 21.4512 4.56035C22.2902 5.60823 22.8741 6.7936 23.3321 8.04846C23.4514 8.37531 23.52 8.70212 23.4747 9.04577C23.4306 9.38112 23.3371 9.69678 23.1199 9.97313C22.7628 10.4275 22.3055 10.7772 21.8984 11.1789C21.7748 11.3008 21.6449 11.4162 21.5176 11.5344C21.4572 11.5904 21.4179 11.6581 21.4031 11.7392C21.369 11.9257 21.37 12.1122 21.4122 12.297C21.4268 12.3611 21.461 12.4163 21.512 12.4633C21.9507 12.8687 22.3987 13.2651 22.8216 13.6864C23.1159 13.9797 23.3926 14.3 23.4642 14.7333C23.529 15.1256 23.5096 15.5175 23.375 15.8935C23.1047 16.6484 22.7463 17.3621 22.3668 18.0682C21.9995 18.7517 21.5398 19.3653 21.0304 19.9424C20.4809 20.565 19.7845 20.7578 18.9848 20.5436C18.3958 20.3858 17.8118 20.2095 17.2268 20.0372C17.1111 20.0031 17 19.9983 16.892 20.0469C16.8052 20.0859 16.7132 20.1073 16.6298 20.1617C16.4471 20.2809 16.3651 20.4469 16.3185 20.6543C16.19 21.2254 16.0594 21.7967 15.9045 22.361C15.7759 22.8294 15.5021 23.2136 15.1002 23.4915C14.8785 23.6449 14.6158 23.7123 14.3539 23.7664C13.5175 23.939 12.6712 24.0113 11.8179 23.9986C11.0907 23.9877 10.3691 23.9144 9.65641 23.7691C8.76528 23.5875 8.24234 23.026 8.03087 22.1577C7.89969 21.6192 7.77633 21.0787 7.64894 20.5392C7.59664 20.3177 7.43795 20.2017 7.24614 20.1001C7.01678 19.9787 6.80293 20.0214 6.57433 20.0911C6.03745 20.2548 5.49916 20.4148 4.95725 20.5608C4.36872 20.7192 3.82487 20.6063 3.32763 20.2536C3.17796 20.1474 3.06459 20.0097 2.9447 19.8747C2.65152 19.5447 2.37273 19.2043 2.12536 18.8382C1.51141 17.9294 1.01381 16.9642 0.666162 15.9212C0.580751 15.6651 0.500013 15.415 0.503438 15.1426ZM21.1828 8.74255C21.1754 8.72202 21.1673 8.69918 21.159 8.67643C20.7646 7.5979 20.1904 6.62302 19.4644 5.73516C19.4221 5.68341 19.3849 5.67592 19.3233 5.69449C18.8455 5.83812 18.3677 5.98196 17.8876 6.11802C17.4995 6.22808 17.1018 6.25449 16.7006 6.21853C16.289 6.18165 15.9151 6.03286 15.5568 5.83301C14.8257 5.42522 14.3603 4.80779 14.1441 4.00977C14.0075 3.50521 13.9124 2.98934 13.8022 2.47782C13.7874 2.40921 13.7583 2.38291 13.6887 2.37272C13.2931 2.3149 12.8957 2.28055 12.4965 2.26175C11.755 2.22683 11.0178 2.26964 10.2838 2.37699C10.2436 2.38287 10.2224 2.39338 10.2115 2.44343C10.125 2.84301 10.0246 3.23973 9.94318 3.64027C9.84464 4.12485 9.68264 4.5808 9.39394 4.98646C9.11877 5.37307 8.75448 5.64963 8.34636 5.88822C7.72432 6.25187 7.06988 6.34336 6.38143 6.17214C5.81007 6.03004 5.24611 5.85789 4.67962 5.6965C4.61649 5.6785 4.57532 5.68039 4.52911 5.73701C3.8061 6.62262 3.23437 7.59468 2.83765 8.66838C2.81114 8.74018 2.81795 8.78351 2.87552 8.83795C3.24899 9.19114 3.6198 9.54718 3.98832 9.90561C4.28714 10.1963 4.53007 10.5263 4.68961 10.9152C4.83892 11.2789 4.86378 11.6587 4.87184 12.0467C4.88912 12.8801 4.56428 13.5663 3.98683 14.1403C3.62746 14.4976 3.24484 14.8316 2.86916 15.1722C2.81505 15.2212 2.81154 15.2594 2.83495 15.3233C3.22994 16.4019 3.80533 17.3759 4.53035 18.2644C4.57197 18.3154 4.60888 18.3257 4.671 18.3071C5.14555 18.1646 5.62051 18.0235 6.09664 17.8863C6.59774 17.7419 7.10388 17.6996 7.61888 17.8138C7.92193 17.881 8.18928 18.0251 8.45413 18.1766C9.1854 18.5947 9.65029 19.2194 9.86039 20.0293C9.98565 20.512 10.086 21.0013 10.1959 21.488C10.2078 21.5407 10.2288 21.57 10.2865 21.5807C10.5664 21.6324 10.8472 21.6796 11.1302 21.7087C11.9932 21.7974 12.8501 21.7496 13.7009 21.5821C13.759 21.5707 13.7875 21.5459 13.8007 21.4862C13.8896 21.0836 13.9886 20.6831 14.0719 20.2793C14.1612 19.8465 14.3154 19.4426 14.5624 19.0751C14.8416 18.6598 15.2203 18.3642 15.6504 18.1125C16.2867 17.7401 16.9588 17.6614 17.6581 17.8291C18.2168 17.9631 18.765 18.1413 19.3166 18.3041C19.388 18.3251 19.4265 18.311 19.473 18.255C20.2046 17.3739 20.7509 16.3869 21.1608 15.321C21.1856 15.2566 21.1787 15.2182 21.127 15.1692C20.7738 14.835 20.424 14.4971 20.0739 14.1597C19.4804 13.5879 19.1547 12.9016 19.1251 12.0672C19.0928 11.1561 19.4253 10.4107 20.0781 9.79491C20.4268 9.46604 20.7819 9.1441 21.1338 8.8187C21.1557 8.79849 21.1883 8.78415 21.1827 8.74259L21.1828 8.74255Z" fill="#9E9E9E"/>
<path d="M16.4998 12.0121C16.4945 14.4732 14.4588 16.5027 11.9968 16.5014C9.52929 16.5002 7.49357 14.458 7.49365 12C7.49369 9.53902 9.52337 7.49741 12.0087 7.50172C14.4847 7.50602 16.5052 9.54353 16.4998 12.0121ZM9.74846 12.0145C9.78633 13.2427 10.7038 14.2593 12.0137 14.2482C13.3798 14.2367 14.2532 13.147 14.2402 11.9928C14.226 10.7344 13.2694 9.73923 11.9763 9.75252C10.636 9.76629 9.7713 10.8315 9.74846 12.0145Z" fill="#9E9E9E"/>
</svg>
