<svg width="280" height="160" viewBox="0 0 280 160" fill="none" xmlns="http://www.w3.org/2000/svg">
<mask id="mask0_181_2471" style="mask-type:alpha" maskUnits="userSpaceOnUse" x="0" y="0" width="280" height="160">
<rect width="280" height="160" fill="#D9D9D9"/>
</mask>
<g mask="url(#mask0_181_2471)">
</g>
<g clip-path="url(#clip0_181_2471)">
<path opacity="0.1" d="M203.643 21.2065V106.793C203.643 109.579 203.095 112.337 202.03 114.91C200.965 117.483 199.402 119.821 197.433 121.791C195.464 123.76 193.126 125.322 190.552 126.387C187.979 127.453 185.221 128.001 182.436 128H96.8491C92.0572 128.007 87.4053 126.384 83.6567 123.399C82.1052 122.163 80.7329 120.718 79.5792 119.104C77.0181 115.51 75.6419 111.207 75.6426 106.793V21.2065C75.6426 20.639 75.6647 20.0775 75.709 19.522C75.7934 18.4371 75.9623 17.3605 76.2142 16.3019C77.3188 11.6597 79.9564 7.52561 83.7007 4.56755C87.445 1.6095 92.0773 0.000308885 96.8491 0H182.436C187.208 0.000308885 191.84 1.6095 195.584 4.56755C199.329 7.52561 201.966 11.6597 203.071 16.3019C203.323 17.3605 203.492 18.4371 203.576 19.522C203.62 20.0775 203.643 20.639 203.643 21.2065Z" fill="#9C519D"/>
<path opacity="0.1" d="M141.253 67.4214H203.643V70.6415H141.253V92.9811H203.643V96.2013H141.253V128H138.033V96.2013H75.6426V92.9811H138.033V70.6415H75.6426V67.4214H138.033V45.0818H75.6426V41.8616H138.033V19.522H75.709C75.7934 18.4371 75.9623 17.3605 76.2141 16.3019H138.033V0H141.253V16.3019H203.071C203.323 17.3605 203.492 18.4371 203.576 19.522H141.253V41.8616H203.643V45.0818H141.253V67.4214Z" fill="#9C519D"/>
<path opacity="0.1" d="M139.643 160C196.441 160 242.485 152.776 242.485 143.865C242.485 134.954 196.441 127.73 139.643 127.73C82.8441 127.73 36.7998 134.954 36.7998 143.865C36.7998 152.776 82.8441 160 139.643 160Z" fill="#9C519D"/>
<path d="M218.475 138.065C221.287 138.065 223.567 137.626 223.567 137.085C223.567 136.544 221.287 136.105 218.475 136.105C215.663 136.105 213.383 136.544 213.383 137.085C213.383 137.626 215.663 138.065 218.475 138.065Z" fill="#9C519D"/>
<path d="M218.391 137.447C218.718 137.447 218.984 137.099 218.984 136.67C218.984 136.241 218.718 135.893 218.391 135.893C218.063 135.893 217.797 136.241 217.797 136.67C217.797 137.099 218.063 137.447 218.391 137.447Z" fill="#3F3D56"/>
<path d="M218.391 136.497C218.718 136.497 218.984 136.149 218.984 135.72C218.984 135.291 218.718 134.943 218.391 134.943C218.063 134.943 217.797 135.291 217.797 135.72C217.797 136.149 218.063 136.497 218.391 136.497Z" fill="#3F3D56"/>
<path d="M218.391 135.549C218.718 135.549 218.984 135.201 218.984 134.772C218.984 134.343 218.718 133.995 218.391 133.995C218.063 133.995 217.797 134.343 217.797 134.772C217.797 135.201 218.063 135.549 218.391 135.549Z" fill="#3F3D56"/>
<path d="M218.391 134.601C218.718 134.601 218.984 134.254 218.984 133.824C218.984 133.395 218.718 133.048 218.391 133.048C218.063 133.048 217.797 133.395 217.797 133.824C217.797 134.254 218.063 134.601 218.391 134.601Z" fill="#3F3D56"/>
<path d="M218.391 133.651C218.718 133.651 218.984 133.304 218.984 132.875C218.984 132.445 218.718 132.098 218.391 132.098C218.063 132.098 217.797 132.445 217.797 132.875C217.797 133.304 218.063 133.651 218.391 133.651Z" fill="#3F3D56"/>
<path d="M218.391 132.703C218.718 132.703 218.984 132.356 218.984 131.927C218.984 131.497 218.718 131.15 218.391 131.15C218.063 131.15 217.797 131.497 217.797 131.927C217.797 132.356 218.063 132.703 218.391 132.703Z" fill="#3F3D56"/>
<path d="M218.391 131.755C218.718 131.755 218.984 131.408 218.984 130.979C218.984 130.549 218.718 130.202 218.391 130.202C218.063 130.202 217.797 130.549 217.797 130.979C217.797 131.408 218.063 131.755 218.391 131.755Z" fill="#3F3D56"/>
<path d="M220.609 124.488C220.69 124.385 220.764 124.276 220.83 124.162L219.272 123.906L220.957 123.919C221.118 123.567 221.206 123.186 221.216 122.799C221.225 122.412 221.155 122.028 221.011 121.668L218.751 122.842L220.836 121.308C220.642 120.969 220.379 120.673 220.065 120.44C219.751 120.207 219.392 120.041 219.011 119.953C218.63 119.865 218.235 119.856 217.85 119.928C217.466 119.999 217.1 120.15 216.776 120.369C216.452 120.589 216.177 120.873 215.968 121.203C215.759 121.534 215.621 121.904 215.562 122.291C215.502 122.677 215.524 123.072 215.624 123.45C215.724 123.828 215.902 124.182 216.145 124.488C216.019 124.649 215.91 124.822 215.821 125.005L217.833 126.056L215.678 125.331C215.526 125.779 215.488 126.257 215.568 126.723C215.647 127.188 215.842 127.627 216.135 127.998C215.805 128.417 215.6 128.92 215.543 129.45C215.486 129.98 215.579 130.515 215.812 130.994C216.045 131.474 216.408 131.878 216.86 132.161C217.311 132.444 217.834 132.593 218.367 132.593C218.9 132.593 219.422 132.444 219.873 132.161C220.325 131.878 220.688 131.474 220.921 130.994C221.154 130.515 221.247 129.98 221.19 129.45C221.133 128.92 220.928 128.417 220.599 127.998C220.992 127.498 221.206 126.88 221.206 126.243C221.206 125.606 220.992 124.988 220.599 124.488H220.609Z" fill="#9C519D"/>
<path opacity="0.1" d="M215.537 126.243C215.535 126.879 215.748 127.498 216.141 127.998C215.811 128.417 215.606 128.92 215.549 129.45C215.492 129.98 215.585 130.515 215.818 130.994C216.051 131.474 216.414 131.878 216.866 132.161C217.317 132.444 217.84 132.594 218.372 132.594C218.905 132.594 219.428 132.444 219.879 132.161C220.331 131.878 220.694 131.474 220.927 130.994C221.16 130.515 221.253 129.98 221.196 129.45C221.139 128.92 220.934 128.417 220.604 127.998C220.989 127.515 215.537 125.925 215.537 126.243Z" fill="black"/>
<path d="M199.718 112.101H78.3594V139.975H199.718V112.101Z" fill="#46455B"/>
<path d="M79.1646 83.2202L67.6929 91.8743L76.5482 99.9246L81.5797 91.8743L88.4224 83.2202H79.1646Z" fill="#46455B"/>
<path d="M197.705 93.6855L196.095 91.8742L185.831 86.0377L195.29 85.8364L209.982 91.8742L203.944 95.6981L197.705 93.6855Z" fill="#46455B"/>
<path d="M78.3593 94.0881L88.4222 83.2202V108.176L81.5794 113.811L77.353 107.975L78.3593 94.0881Z" fill="#46455B"/>
<path d="M197.907 98.5158L196.095 91.8743L192.674 87.4466L185.831 86.0378V113.811H199.718L197.907 98.5158Z" fill="#46455B"/>
<path d="M90.6462 75.7737H184.613C185.443 75.7737 186.239 76.1034 186.826 76.6903C187.413 77.2772 187.743 78.0732 187.743 78.9032V107.572H87.5166V78.9032C87.5166 78.0732 87.8463 77.2772 88.4332 76.6903C89.0201 76.1034 89.8161 75.7737 90.6462 75.7737Z" fill="#46455B"/>
<path d="M81.5796 113.811L88.4224 105.358H185.831L196.095 113.811H81.5796Z" fill="#46455B"/>
<path opacity="0.05" d="M81.5796 113.811L88.4224 105.358H185.831L196.095 113.811H81.5796Z" fill="black"/>
<path d="M81.5797 91.8743H67.6929V139.975H81.5797V91.8743Z" fill="#46455B"/>
<path opacity="0.05" d="M81.5797 91.8743H67.6929V139.975H81.5797V91.8743Z" fill="white"/>
<path d="M209.982 91.8743H196.095V139.975H209.982V91.8743Z" fill="#46455B"/>
<path opacity="0.05" d="M209.982 91.8743H196.095V139.975H209.982V91.8743Z" fill="white"/>
<path d="M125.353 82.9183C134.245 82.9183 141.454 73.4121 141.454 61.6856C141.454 49.9591 134.245 40.4529 125.353 40.4529C116.461 40.4529 109.252 49.9591 109.252 61.6856C109.252 73.4121 116.461 82.9183 125.353 82.9183Z" fill="#2F2E41"/>
<path d="M132.397 52.5283H114.485V77.4843H132.397V52.5283Z" fill="#2F2E41"/>
<path opacity="0.1" d="M132.397 52.5283H114.485V77.4843H132.397V52.5283Z" fill="black"/>
<path d="M115.785 67.1637C115.225 67.8462 114.502 68.3763 113.682 68.7049C112.862 69.0335 111.973 69.1499 111.096 69.0435C111.016 70.2953 111.865 71.3941 112.668 72.3582L118.953 79.8993C118.978 79.9591 119.019 80.0109 119.071 80.049C119.123 80.0872 119.185 80.1102 119.249 80.1156C119.314 80.121 119.378 80.1086 119.436 80.0796C119.494 80.0507 119.543 80.0064 119.577 79.9516L129.177 70.8447C128.219 71.2472 127.086 70.6092 126.561 69.7116C126.035 68.814 125.983 67.7353 125.935 66.6928C125.865 65.1364 125.798 63.5813 125.734 62.0276C125.718 61.6814 125.683 61.2991 125.428 61.0656C125.229 60.9159 124.992 60.8259 124.743 60.806C123.228 60.5464 118.504 59.1959 117.629 60.7899C117.226 61.5164 117.408 62.9333 117.226 63.7544C116.955 64.972 116.57 66.1856 115.785 67.1637Z" fill="#FBBEBE"/>
<path opacity="0.1" d="M115.785 67.1637C115.225 67.8462 114.502 68.3763 113.682 68.7049C112.862 69.0335 111.973 69.1499 111.096 69.0435C111.016 70.2953 111.865 71.3941 112.668 72.3582L118.953 79.8993C118.978 79.9591 119.019 80.0109 119.071 80.049C119.123 80.0872 119.185 80.1102 119.249 80.1156C119.314 80.121 119.378 80.1086 119.436 80.0796C119.494 80.0507 119.543 80.0064 119.577 79.9516L129.177 70.8447C128.219 71.2472 127.086 70.6092 126.561 69.7116C126.035 68.814 125.983 67.7353 125.935 66.6928C125.865 65.1364 125.798 63.5813 125.734 62.0276C125.718 61.6814 125.683 61.2991 125.428 61.0656C125.229 60.9159 124.992 60.8259 124.743 60.806C123.228 60.5464 118.504 59.1959 117.629 60.7899C117.226 61.5164 117.408 62.9333 117.226 63.7544C116.955 64.972 116.57 66.1856 115.785 67.1637Z" fill="black"/>
<path d="M122.737 65.6101C127.961 65.6101 132.196 61.3751 132.196 56.151C132.196 50.9269 127.961 46.6919 122.737 46.6919C117.513 46.6919 113.278 50.9269 113.278 56.151C113.278 61.3751 117.513 65.6101 122.737 65.6101Z" fill="#FBBEBE"/>
<path d="M119.316 75.198L117.798 70.4141C117.194 68.4982 116.337 66.3266 114.425 65.7087C113.218 65.3223 111.916 65.6765 110.658 65.5699C108.21 65.3585 105.827 63.4124 103.539 64.3039C100.722 65.3988 100.746 69.7258 98.2441 71.4244C98.2441 75.4677 99.5502 79.2232 100.257 83.2021C100.963 87.1809 101.166 91.4758 99.3228 95.0763C98.5419 96.6018 97.4249 97.9301 96.5917 99.4275C95.2258 101.897 94.667 104.731 94.9937 107.534C105.677 107.668 116.361 107.701 127.046 107.631C126.947 106.246 126.33 104.882 126.229 103.497C126.169 103.079 126.202 102.653 126.326 102.249C126.561 101.645 127.161 101.285 127.674 100.893C128.362 100.363 128.944 99.7088 129.391 98.9646C130.103 97.7792 130.441 96.4126 130.771 95.0682L134.772 78.7663C135.249 76.8242 135.712 74.7049 134.883 72.8856C133.973 70.8871 131.792 69.8486 129.777 68.9731C128.57 68.4438 127.181 67.9085 125.953 68.3955C124.947 68.798 124.315 69.7621 123.679 70.6355C122.449 72.3558 120.979 73.8921 119.316 75.198Z" fill="#F86D70"/>
<path opacity="0.1" d="M98.1373 72.8593C97.8234 74.0346 97.9985 75.2905 97.767 76.4819C97.3786 78.4764 95.9235 80.0623 94.9494 81.8414C93.4398 84.6041 93.0576 87.8437 93.8828 90.8819C94.1283 91.7695 94.565 92.7194 95.4264 93.0454C96.0423 93.2809 96.7306 93.134 97.3887 93.1923C98.2581 93.2688 99.1618 93.6995 99.9648 93.3574C100.957 92.9347 101.154 91.6447 101.263 90.572C101.513 88.0843 102.049 85.6337 102.859 83.2683C103.664 80.9015 104.769 78.5529 104.753 76.0512C104.741 74.2882 102.483 75.9103 101.009 74.8658C99.3469 73.6945 98.6828 70.8286 98.1373 72.8593Z" fill="black"/>
<path d="M97.7345 72.6582C97.4206 73.8335 97.5956 75.0894 97.3642 76.2808C96.9758 78.2753 95.5207 79.8612 94.5466 81.6403C93.037 84.403 92.6547 87.6426 93.4799 90.6808C93.7255 91.5684 94.1622 92.5183 95.0236 92.8443C95.6394 93.0798 96.3277 92.9329 96.9858 92.9913C97.8553 93.0677 98.7589 93.4984 99.5619 93.1563C100.554 92.7337 100.751 91.4436 100.86 90.3709C101.11 87.8832 101.646 85.4326 102.456 83.0672C103.261 80.7004 104.366 78.3518 104.35 75.8501C104.338 74.0871 103.563 72.1389 102.09 71.0944C100.427 69.9231 98.2799 70.6275 97.7345 72.6582Z" fill="#F86D70"/>
<path d="M111.507 61.5909C112.714 60.9146 113.904 60.182 115.147 59.5541C117.092 58.582 119.277 57.8233 120.807 56.334C120.886 56.2589 120.982 56.2051 121.088 56.1779C121.193 56.1507 121.304 56.151 121.409 56.1786C121.514 56.2063 121.611 56.2604 121.689 56.3358C121.768 56.4113 121.826 56.5056 121.857 56.6097C122.515 58.7532 123.294 60.8576 124.19 62.9131C124.963 64.6842 125.824 66.4231 126.404 68.2666C126.806 69.5486 127.058 70.8829 127.559 72.1166C128.213 73.7267 129.258 75.1597 130.294 76.5644C130.675 77.0837 131.067 77.611 131.6 77.9732C132.349 78.4824 133.466 78.8085 133.544 79.7101C132.572 80.4125 131.25 80.181 130.053 80.171C128.855 80.1609 127.638 80.4085 126.454 80.7003C125.072 81.0157 123.724 81.466 122.429 82.0447C121.169 82.6384 120.014 83.4193 118.847 84.1961L108.146 91.375C107.359 90.4754 107.389 89.1612 107.22 87.9697C107.076 87.1124 106.868 86.2668 106.6 85.4399L105.533 81.8475C105.026 80.1408 104.527 78.4361 103.956 76.7476C103.485 75.3388 102.961 73.9159 102.04 72.7526C100.929 71.3438 99.3306 70.4301 97.944 69.297C97.4529 68.8945 96.9679 68.4356 96.7847 67.8278C96.7239 67.6294 96.7068 67.4201 96.7346 67.2145C96.7624 67.0088 96.8344 66.8116 96.9457 66.6364C97.2396 66.2117 97.6602 66.2741 98.1271 66.1997C99.2662 66.0185 100.396 65.7898 101.516 65.5134C103.739 64.9618 105.911 64.2254 108.011 63.3116C109.204 62.7964 110.369 62.2228 111.507 61.5909Z" fill="#BBBDC8"/>
<path opacity="0.1" d="M111.946 63.0802C113.006 62.4925 114.037 61.8485 115.121 61.3051C116.82 60.4558 118.724 59.7957 120.058 58.5016C120.127 58.4354 120.211 58.388 120.303 58.3638C120.395 58.3397 120.492 58.3397 120.584 58.3637C120.676 58.3878 120.761 58.4351 120.829 58.5012C120.898 58.5673 120.948 58.6499 120.976 58.7411C121.55 60.6109 122.229 62.4466 123.011 64.2394C123.685 65.7851 124.436 67.3026 124.937 68.9106C125.283 70.0276 125.506 71.1848 125.943 72.2696C126.513 73.6784 127.426 74.9242 128.328 76.1499C128.636 76.6204 129.021 77.0355 129.467 77.3776C130.123 77.8223 131.097 78.1061 131.164 78.895C130.316 79.4988 129.163 79.2976 128.119 79.2976C127.057 79.3189 126.003 79.4744 124.981 79.7604C123.776 80.035 122.601 80.428 121.473 80.9338C120.385 81.4815 119.34 82.1113 118.348 82.8176L109.011 89.0706C108.325 88.2857 108.353 87.1325 108.206 86.0981C108.081 85.3478 107.901 84.6079 107.667 83.8842L106.735 80.7506C106.292 79.2613 105.849 77.774 105.358 76.3008C104.956 75.0711 104.493 73.8314 103.688 72.815C102.718 71.5894 101.325 70.7904 100.114 69.7962C99.6869 69.448 99.2622 69.0455 99.1073 68.5162C99.0542 68.3432 99.0393 68.1607 99.0636 67.9814C99.0879 67.8021 99.1509 67.6303 99.2481 67.4777C99.5037 67.1053 99.872 67.1597 100.279 67.0953C101.273 66.9383 102.258 66.737 103.235 66.4915C105.174 66.0118 107.069 65.3695 108.9 64.5715C109.94 64.1234 110.955 63.6263 111.946 63.0802Z" fill="black"/>
<path d="M108.039 71.2734C108.484 71.2734 108.844 70.913 108.844 70.4684C108.844 70.0238 108.484 69.6633 108.039 69.6633C107.594 69.6633 107.234 70.0238 107.234 70.4684C107.234 70.913 107.594 71.2734 108.039 71.2734Z" fill="#BBBDC8"/>
<path d="M116.623 67.2985C117.068 67.2985 117.428 66.9381 117.428 66.4935C117.428 66.0489 117.068 65.6885 116.623 65.6885C116.178 65.6885 115.818 66.0489 115.818 66.4935C115.818 66.9381 116.178 67.2985 116.623 67.2985Z" fill="#BBBDC8"/>
<path d="M112.098 80.0402C112.543 80.0402 112.904 79.6798 112.904 79.2352C112.904 78.7906 112.543 78.4302 112.098 78.4302C111.654 78.4302 111.293 78.7906 111.293 79.2352C111.293 79.6798 111.654 80.0402 112.098 80.0402Z" fill="#BBBDC8"/>
<path d="M120.682 76.0654C121.127 76.0654 121.487 75.705 121.487 75.2604C121.487 74.8157 121.127 74.4553 120.682 74.4553C120.237 74.4553 119.877 74.8157 119.877 75.2604C119.877 75.705 120.237 76.0654 120.682 76.0654Z" fill="#BBBDC8"/>
<path d="M99.6508 84.2949C100.456 84.0634 101.303 83.8098 101.895 83.2161C102.354 82.7532 102.609 82.1313 102.931 81.5638C103.573 80.4307 104.59 79.4264 105.868 79.1769C107.146 78.9273 108.647 79.6659 108.921 80.9399C109.098 81.7691 108.752 82.6124 108.408 83.3892C107.892 84.5525 107.311 85.7721 106.248 86.4745C105.318 87.0883 104.133 87.2232 103.219 87.8612C102.414 88.4247 101.907 89.3163 101.207 90.0106C100.291 90.9123 99.0799 91.452 97.7972 91.5301C97.6025 91.5531 97.4051 91.5261 97.2236 91.4516C97.0459 91.3463 96.8967 91.1991 96.7889 91.0229C96.1972 90.2179 95.5975 89.3887 95.2835 88.4368C94.1907 85.118 97.284 84.9731 99.6508 84.2949Z" fill="#FBBEBE"/>
<path d="M121.093 84.7375C120.821 83.1154 120.785 81.3463 119.783 80.0422C118.943 78.9534 117.549 78.4019 116.176 78.3094C115.774 78.2812 115.301 78.3214 115.067 78.6515C114.934 78.8844 114.881 79.1544 114.916 79.4203C115.001 81.4816 115.77 83.4558 117.102 85.0314C117.603 85.6191 118.185 86.1544 118.535 86.8427C118.841 87.4364 118.953 88.1147 119.237 88.7184C119.608 89.5053 120.244 90.1272 120.731 90.8518C121.421 91.8897 121.779 93.1133 121.757 94.3597C122.288 93.4923 122.224 92.4075 122.274 91.3911C122.341 89.9602 123.343 89.1773 122.693 88.01C122.043 86.8427 121.328 86.1564 121.093 84.7375Z" fill="#FBBEBE"/>
<path opacity="0.1" d="M128.521 83.1215C128.012 84.4498 127.75 85.8707 127.15 87.1607C126.992 87.5643 126.721 87.9136 126.37 88.167C125.725 88.5695 124.874 88.32 124.234 87.9195C123.594 87.519 123.027 86.9675 122.328 86.7019C122.014 89.759 119.474 92.4498 116.439 92.9409C118.251 94.6053 120.159 96.4548 120.567 98.878C120.644 99.3228 120.67 99.7957 120.907 100.18C121.29 100.794 122.097 100.995 122.821 100.985C124.663 100.971 126.351 99.999 127.889 98.9726C128.408 98.6304 128.934 98.2641 129.28 97.7489C129.626 97.2337 129.775 96.5796 129.906 95.9557C130.795 91.728 131.684 87.4982 132.572 83.2664C132.814 82.1172 132.774 79.8591 130.99 80.0865C129.781 80.2636 128.895 82.1494 128.521 83.1215Z" fill="black"/>
<path d="M128.924 83.1215C128.415 84.4498 128.153 85.8707 127.553 87.1607C127.395 87.5643 127.124 87.9136 126.772 88.167C126.128 88.5695 125.277 88.32 124.637 87.9195C123.997 87.519 123.429 86.9675 122.731 86.7019C122.417 89.759 119.877 92.4498 116.842 92.9409C118.654 94.6053 120.562 96.4548 120.97 98.878C121.047 99.3228 121.073 99.7957 121.31 100.18C121.693 100.794 122.5 100.995 123.224 100.985C125.066 100.971 126.754 99.999 128.292 98.9726C128.811 98.6304 129.336 98.2641 129.683 97.7489C130.029 97.2337 130.178 96.5796 130.308 95.9557C131.198 91.728 132.087 87.4982 132.975 83.2664C133.217 82.1172 133.176 79.8591 131.393 80.0865C130.184 80.2636 129.298 82.1494 128.924 83.1215Z" fill="#F86D70"/>
<path d="M99.5639 90.9706C99.4915 91.3389 99.1272 91.5623 98.7972 91.7394C98.1592 92.0836 97.4648 92.4398 96.7463 92.3432C96.0278 92.2466 95.4261 91.7153 94.9551 91.1517C94.7205 90.8837 94.5179 90.5892 94.3514 90.2743C93.6248 88.8393 93.5463 82.7331 96.5491 84.7256C97.7889 85.5507 97.0905 86.9595 97.2455 88.1731C97.3132 88.8929 97.6006 89.5744 98.0686 90.1253C98.1592 90.23 99.5177 91.2081 99.5639 90.9706Z" fill="#F86D70"/>
<path d="M125.253 53.9372C130.199 53.9372 134.209 52.045 134.209 49.7108C134.209 47.3766 130.199 45.4844 125.253 45.4844C120.307 45.4844 116.297 47.3766 116.297 49.7108C116.297 52.045 120.307 53.9372 125.253 53.9372Z" fill="#2F2E41"/>
<path opacity="0.1" d="M125.655 52.5284C120.809 52.5284 116.866 50.7171 116.707 48.4429C116.45 48.8162 116.31 49.2576 116.305 49.7108C116.305 52.0454 120.314 53.9372 125.261 53.9372C130.208 53.9372 134.217 52.0454 134.217 49.7108C134.217 49.6625 134.217 49.6162 134.217 49.5699C133.059 51.2846 129.666 52.5284 125.655 52.5284Z" fill="black"/>
<path d="M164.598 82.5157C176.825 82.5157 186.737 73.5051 186.737 62.3899C186.737 51.2748 176.825 42.2642 164.598 42.2642C152.372 42.2642 142.46 51.2748 142.46 62.3899C142.46 73.5051 152.372 82.5157 164.598 82.5157Z" fill="#2F2E41"/>
<path opacity="0.1" d="M164.598 77.2831C153.386 77.2831 144.12 69.7037 142.661 59.8743C142.528 60.7738 142.461 61.6819 142.46 62.5912C142.46 73.7067 152.372 82.717 164.598 82.717C176.825 82.717 186.737 73.7067 186.737 62.5912C186.736 61.6819 186.669 60.7738 186.535 59.8743C185.076 69.7037 175.81 77.2831 164.598 77.2831Z" fill="black"/>
<path d="M164.196 77.4842C170.087 77.4842 174.863 71.0416 174.863 63.0943C174.863 55.1469 170.087 48.7043 164.196 48.7043C158.305 48.7043 153.529 55.1469 153.529 63.0943C153.529 71.0416 158.305 77.4842 164.196 77.4842Z" fill="#2F2E41"/>
<path opacity="0.1" d="M164.196 77.4842C170.087 77.4842 174.863 71.0416 174.863 63.0943C174.863 55.1469 170.087 48.7043 164.196 48.7043C158.305 48.7043 153.529 55.1469 153.529 63.0943C153.529 71.0416 158.305 77.4842 164.196 77.4842Z" fill="black"/>
<path d="M159.292 70.3879C158.889 71.3821 158.084 72.4387 156.876 72.5152C158.487 73.8375 160.117 75.1738 162.041 76.1379C163.965 77.1019 166.243 77.6674 168.433 77.3213C169.978 77.0777 171.383 76.3995 172.695 75.6569C174.929 74.393 177.123 72.7326 177.689 70.4825C176.011 70.5668 174.33 70.5352 172.657 70.3879C171.79 70.3135 170.902 70.1987 170.149 69.8204C169.687 69.5765 169.279 69.2424 168.948 68.838C168.617 68.4336 168.371 67.9669 168.223 67.4657C167.924 66.5157 167.93 65.5155 167.984 64.5313C168.014 63.9577 168.036 63.3238 167.595 62.885C167.155 62.4463 166.426 62.3879 165.764 62.3738C164.432 62.3468 163.1 62.4255 161.781 62.6093C161.089 62.6811 160.403 62.8056 159.73 62.9816C158.857 63.2473 158.939 63.1447 159.151 63.8752C159.807 66.1132 160.207 68.1258 159.292 70.3879Z" fill="#A0616A"/>
<path opacity="0.1" d="M159.292 70.3879C158.889 71.3821 158.084 72.4387 156.876 72.5152C158.487 73.8375 160.117 75.1738 162.041 76.1379C163.965 77.1019 166.243 77.6674 168.433 77.3213C169.978 77.0777 171.383 76.3995 172.695 75.6569C174.929 74.393 177.123 72.7326 177.689 70.4825C176.011 70.5668 174.33 70.5352 172.657 70.3879C171.79 70.3135 170.902 70.1987 170.149 69.8204C169.687 69.5765 169.279 69.2424 168.948 68.838C168.617 68.4336 168.371 67.9669 168.223 67.4657C167.924 66.5157 167.93 65.5155 167.984 64.5313C168.014 63.9577 168.036 63.3238 167.595 62.885C167.155 62.4463 166.426 62.3879 165.764 62.3738C164.432 62.3468 163.1 62.4255 161.781 62.6093C161.089 62.6811 160.403 62.8056 159.73 62.9816C158.857 63.2473 158.939 63.1447 159.151 63.8752C159.807 66.1132 160.207 68.1258 159.292 70.3879Z" fill="black"/>
<path d="M163.894 68.3269C169.118 68.3269 173.353 64.0919 173.353 58.8678C173.353 53.6437 169.118 49.4087 163.894 49.4087C158.67 49.4087 154.435 53.6437 154.435 58.8678C154.435 64.0919 158.67 68.3269 163.894 68.3269Z" fill="#A0616A"/>
<path d="M160.634 71.2211C160.016 70.4804 159.38 69.7237 158.557 69.2205C157.208 68.3934 155.538 68.3411 153.958 68.3149C152.245 68.2847 150.384 68.3008 149.029 69.3493C148.426 69.8223 147.963 70.4704 147.522 71.1063L141.784 79.3579C141.561 79.6799 141.325 80.0442 141.382 80.4326C141.446 80.7121 141.585 80.9689 141.784 81.1753L148.095 89.0565C148.456 89.5053 148.828 89.9783 148.949 90.5418C149.07 91.1053 148.921 91.697 148.727 92.2444C147.965 94.416 146.514 96.4709 146.646 98.7592C146.741 100.252 147.522 101.625 148.478 102.784C150.672 105.427 153.829 107.146 157.132 108.083C160.435 109.021 163.902 109.227 167.338 109.249C173.814 109.291 180.621 108.585 185.97 104.932L181.766 100.971C180.935 100.186 180.063 99.3408 179.775 98.2339C179.574 97.4892 179.671 96.7043 179.761 95.9416C179.93 94.5468 180.099 93.1421 180.55 91.8138C181.804 88.1126 185.026 85.4782 187.176 82.2158C187.445 81.8133 187.707 81.3504 187.677 80.8613C187.653 80.4487 187.423 80.0804 187.2 79.7343C186.218 78.2107 185.199 76.6953 184.487 75.0288C183.956 73.7891 183.595 72.4709 182.937 71.2935C182.279 70.1161 181.235 69.0575 179.918 68.81C178.224 68.492 176.571 69.5526 174.851 69.6251C173.591 69.6794 172.277 69.2065 171.099 69.6553C169.703 70.1886 169.087 71.7624 168.304 73.0404C167.726 73.9924 166.003 76.5966 164.653 75.9566C163.918 75.6065 163.244 74.3466 162.717 73.7287L160.634 71.2211Z" fill="#F98A8D"/>
<path d="M168.169 77.6191C167.85 77.4393 167.48 77.3726 167.118 77.4299C166.94 77.4642 166.777 77.5566 166.657 77.6928C166.536 77.8289 166.464 78.0012 166.452 78.1826L165.87 78.1484C165.803 78.1413 165.735 78.1447 165.669 78.1584C165.585 78.1766 165.512 78.2274 165.465 78.2997C165.418 78.372 165.402 78.4598 165.421 78.5439C165.439 78.6279 165.489 78.7013 165.562 78.748C165.634 78.7946 165.722 78.8106 165.806 78.7924C165.52 78.9056 165.266 79.0849 165.063 79.3157C164.911 79.544 164.856 79.823 164.909 80.0921C164.961 80.3612 165.118 80.5986 165.345 80.7527C165.583 80.8895 165.863 80.9348 166.132 80.8799C166.401 80.8251 166.641 80.6739 166.806 80.4548C166.772 80.575 166.782 80.7034 166.833 80.8172C166.885 80.9311 166.975 81.023 167.088 81.0767C168.179 81.6664 168.734 80.8654 168.883 79.9376C169.052 78.9192 169.27 78.1625 168.169 77.6191Z" fill="#FFE9B3"/>
<path opacity="0.15" d="M168.169 77.6191C167.85 77.4393 167.48 77.3726 167.118 77.4299C166.94 77.4642 166.777 77.5566 166.657 77.6928C166.536 77.8289 166.464 78.0012 166.452 78.1826L165.87 78.1484C165.803 78.1413 165.735 78.1447 165.669 78.1584C165.585 78.1766 165.512 78.2274 165.465 78.2997C165.418 78.372 165.402 78.4598 165.421 78.5439C165.439 78.6279 165.489 78.7013 165.562 78.748C165.634 78.7946 165.722 78.8106 165.806 78.7924C165.52 78.9056 165.266 79.0849 165.063 79.3157C164.911 79.544 164.856 79.823 164.909 80.0921C164.961 80.3612 165.118 80.5986 165.345 80.7527C165.583 80.8895 165.863 80.9348 166.132 80.8799C166.401 80.8251 166.641 80.6739 166.806 80.4548C166.772 80.575 166.782 80.7034 166.833 80.8172C166.885 80.9311 166.975 81.023 167.088 81.0767C168.179 81.6664 168.734 80.8654 168.883 79.9376C169.052 78.9192 169.27 78.1625 168.169 77.6191Z" fill="black"/>
<path d="M171.139 76.9349C170.82 76.7549 170.45 76.6889 170.089 76.7478C169.91 76.7814 169.748 76.8734 169.628 77.0093C169.508 77.1452 169.436 77.3173 169.424 77.4984L168.843 77.4642C168.776 77.4573 168.708 77.4607 168.642 77.4743C168.563 77.499 168.496 77.5519 168.454 77.6229C168.412 77.6939 168.398 77.7778 168.414 77.8587C168.436 77.9385 168.486 78.0073 168.556 78.0516C168.625 78.096 168.709 78.1126 168.791 78.0982C168.505 78.2119 168.251 78.3911 168.048 78.6215C167.897 78.8499 167.841 79.1288 167.894 79.3977C167.947 79.6667 168.103 79.904 168.33 80.0584C168.568 80.1956 168.848 80.2413 169.117 80.1868C169.386 80.1324 169.627 79.9815 169.793 79.7626C169.759 79.8823 169.768 80.0102 169.819 80.1237C169.871 80.2371 169.96 80.3288 170.073 80.3825C171.165 80.9742 171.719 80.1812 171.87 79.2454C172.025 78.235 172.246 77.4783 171.139 76.9349Z" fill="#FFE9B3"/>
<path d="M173.562 77.2811C173.244 77.1016 172.874 77.0356 172.514 77.0939C172.335 77.1271 172.173 77.219 172.052 77.3549C171.931 77.4909 171.859 77.6632 171.848 77.8446L171.266 77.8104C171.199 77.8033 171.131 77.8066 171.065 77.8205C170.986 77.8452 170.919 77.8981 170.877 77.9691C170.835 78.0401 170.821 78.124 170.837 78.2049C170.859 78.2846 170.909 78.3535 170.979 78.3978C171.049 78.4422 171.132 78.4588 171.214 78.4444C170.928 78.557 170.673 78.7364 170.471 78.9676C170.319 79.196 170.264 79.475 170.316 79.7441C170.369 80.0132 170.526 80.2506 170.753 80.4046C170.99 80.5421 171.27 80.5879 171.539 80.5334C171.809 80.479 172.048 80.3279 172.214 80.1088C172.18 80.2287 172.19 80.3568 172.241 80.4703C172.293 80.5838 172.383 80.6753 172.496 80.7286C173.586 81.3203 174.14 80.5173 174.291 79.5915C174.448 78.5913 174.661 77.8245 173.562 77.2811Z" fill="#FFE9B3"/>
<path opacity="0.15" d="M173.562 77.2811C173.244 77.1016 172.874 77.0356 172.514 77.0939C172.335 77.1271 172.173 77.219 172.052 77.3549C171.931 77.4909 171.859 77.6632 171.848 77.8446L171.266 77.8104C171.199 77.8033 171.131 77.8066 171.065 77.8205C170.986 77.8452 170.919 77.8981 170.877 77.9691C170.835 78.0401 170.821 78.124 170.837 78.2049C170.859 78.2846 170.909 78.3535 170.979 78.3978C171.049 78.4422 171.132 78.4588 171.214 78.4444C170.928 78.557 170.673 78.7364 170.471 78.9676C170.319 79.196 170.264 79.475 170.316 79.7441C170.369 80.0132 170.526 80.2506 170.753 80.4046C170.99 80.5421 171.27 80.5879 171.539 80.5334C171.809 80.479 172.048 80.3279 172.214 80.1088C172.18 80.2287 172.19 80.3568 172.241 80.4703C172.293 80.5838 172.383 80.6753 172.496 80.7286C173.586 81.3203 174.14 80.5173 174.291 79.5915C174.448 78.5913 174.661 77.8245 173.562 77.2811Z" fill="black"/>
<path d="M179.492 78.6918V100.311C179.491 100.448 179.436 100.58 179.339 100.677C179.242 100.775 179.11 100.83 178.972 100.83H162.099C161.961 100.83 161.83 100.775 161.732 100.677C161.635 100.58 161.58 100.448 161.58 100.311V78.6918C161.579 78.6055 161.601 78.5206 161.642 78.4446C161.683 78.3687 161.742 78.3042 161.814 78.2568C161.886 78.2095 161.969 78.1808 162.055 78.1735C162.141 78.1662 162.227 78.1804 162.306 78.2148C162.735 78.4 163.164 78.571 163.592 78.728C164.196 78.9494 164.8 79.1419 165.403 79.3056C166.007 79.4686 166.611 79.6035 167.215 79.7081C167.819 79.8128 168.422 79.8933 169.026 79.9416C169.63 79.9899 170.234 80.01 170.837 79.9979C171.441 79.9859 172.045 79.9517 172.649 79.8852C173.253 79.8188 173.856 79.7202 174.46 79.5934C175.064 79.4666 175.668 79.3177 176.271 79.1346C176.74 78.9917 177.211 78.8327 177.68 78.6556C178.042 78.5207 178.403 78.3738 178.765 78.2168C178.844 78.1824 178.93 78.1682 179.016 78.1755C179.102 78.1827 179.184 78.2112 179.256 78.2583C179.328 78.3054 179.388 78.3697 179.429 78.4453C179.47 78.521 179.491 78.6057 179.492 78.6918Z" fill="#BBBDC8"/>
<path d="M165.404 79.3056V100.84H163.592V78.728C164.196 78.9494 164.8 79.1419 165.404 79.3056Z" fill="white"/>
<path d="M169.026 79.9395V100.83H167.215V79.698C167.819 79.8147 168.422 79.8912 169.026 79.9395Z" fill="white"/>
<path d="M172.649 79.8833V100.83H170.837V80C171.441 79.9893 172.045 79.9504 172.649 79.8833Z" fill="white"/>
<path d="M176.271 79.1326V100.83H174.46V79.5975C175.064 79.4714 175.668 79.3164 176.271 79.1326Z" fill="white"/>
<path opacity="0.1" d="M179.491 78.6918V100.311C179.491 100.448 179.436 100.58 179.339 100.677C179.242 100.775 179.11 100.83 178.972 100.83H177.68V78.6535C178.042 78.5187 178.403 78.3718 178.765 78.2148C178.844 78.1804 178.93 78.1662 179.016 78.1735C179.102 78.1808 179.185 78.2095 179.257 78.2568C179.329 78.3042 179.388 78.3687 179.429 78.4446C179.47 78.5206 179.492 78.6055 179.491 78.6918Z" fill="black"/>
<path d="M166.291 76.5887C165.973 76.4092 165.603 76.3432 165.243 76.4016C165.064 76.4348 164.902 76.5266 164.781 76.6626C164.66 76.7985 164.588 76.9708 164.577 77.1522L163.995 77.118C163.928 77.1109 163.86 77.1143 163.794 77.1281C163.715 77.1528 163.648 77.2057 163.606 77.2767C163.564 77.3477 163.55 77.4317 163.566 77.5125C163.588 77.5923 163.638 77.6611 163.708 77.7054C163.778 77.7498 163.861 77.7664 163.943 77.752C163.657 77.8646 163.402 78.0441 163.2 78.2753C163.048 78.5036 162.993 78.7826 163.045 79.0517C163.098 79.3208 163.255 79.5582 163.482 79.7122C163.72 79.8493 163.999 79.8949 164.268 79.8404C164.537 79.7859 164.777 79.6352 164.943 79.4164C164.909 79.5364 164.919 79.6644 164.97 79.7779C165.022 79.8914 165.112 79.9829 165.225 80.0363C166.315 80.626 166.869 79.8249 167.02 78.8992C167.177 77.8888 167.394 77.1321 166.291 76.5887Z" fill="#FFE9B3"/>
<path d="M169.31 73.1673C168.992 72.9878 168.622 72.9218 168.261 72.9802C168.083 73.0134 167.92 73.1052 167.799 73.2412C167.679 73.3771 167.607 73.5495 167.595 73.7309L167.014 73.6966C166.946 73.6895 166.878 73.6929 166.812 73.7067C166.734 73.7314 166.667 73.7844 166.625 73.8553C166.583 73.9263 166.569 74.0103 166.585 74.0911C166.606 74.1709 166.657 74.2397 166.726 74.2841C166.796 74.3284 166.88 74.345 166.961 74.3306C166.675 74.4432 166.421 74.6227 166.219 74.8539C166.067 75.0822 166.011 75.3612 166.064 75.6303C166.117 75.8994 166.273 76.1368 166.5 76.2909C166.738 76.4279 167.018 76.4735 167.287 76.419C167.556 76.3646 167.796 76.2138 167.961 75.995C167.928 76.115 167.937 76.243 167.989 76.3565C168.04 76.47 168.131 76.5615 168.243 76.6149C169.334 77.2046 169.888 76.4036 170.038 75.4778C170.195 74.4675 170.413 73.7107 169.31 73.1673Z" fill="#FFE9B3"/>
<path d="M171.361 77.8144C171.599 77.5368 171.736 77.1861 171.749 76.8202C171.753 76.6378 171.695 76.4596 171.586 76.3137C171.476 76.1678 171.321 76.0627 171.145 76.0151L171.292 75.4516C171.314 75.3867 171.324 75.3187 171.322 75.2503C171.319 75.1655 171.282 75.0854 171.22 75.0276C171.158 74.9699 171.075 74.9392 170.99 74.9424C170.905 74.9456 170.825 74.9824 170.768 75.0447C170.71 75.107 170.679 75.1896 170.682 75.2745C170.627 74.9727 170.501 74.6884 170.314 74.4453C170.119 74.2526 169.856 74.1445 169.581 74.1445C169.307 74.1445 169.044 74.2526 168.849 74.4453C168.667 74.6512 168.567 74.9164 168.567 75.191C168.567 75.4656 168.667 75.7307 168.849 75.9366C168.737 75.8802 168.61 75.8651 168.488 75.8938C168.367 75.9225 168.259 75.9933 168.185 76.0936C167.394 77.0476 168.072 77.748 168.952 78.076C169.914 78.4302 170.614 78.7925 171.361 77.8144Z" fill="#FFE9B3"/>
<path d="M173.977 77.8144C174.216 77.5368 174.353 77.1861 174.366 76.8202C174.369 76.6378 174.312 76.4596 174.202 76.3137C174.093 76.1678 173.938 76.0627 173.762 76.0151L173.909 75.4516C173.93 75.3867 173.94 75.3187 173.939 75.2503C173.936 75.1655 173.899 75.0854 173.837 75.0276C173.775 74.9699 173.692 74.9392 173.607 74.9424C173.522 74.9456 173.442 74.9824 173.384 75.0447C173.326 75.107 173.296 75.1896 173.299 75.2745C173.244 74.9727 173.118 74.6884 172.931 74.4453C172.736 74.2526 172.472 74.1445 172.198 74.1445C171.924 74.1445 171.661 74.2526 171.466 74.4453C171.284 74.6512 171.184 74.9164 171.184 75.191C171.184 75.4656 171.284 75.7307 171.466 75.9366C171.354 75.8802 171.226 75.8651 171.105 75.8938C170.983 75.9225 170.876 75.9933 170.801 76.0936C170.011 77.0476 170.689 77.748 171.568 78.076C172.53 78.4302 173.231 78.7925 173.977 77.8144Z" fill="#FFE9B3"/>
<path d="M175.616 79.5351C175.8 79.2187 175.871 78.8488 175.817 78.4866C175.785 78.3075 175.695 78.144 175.56 78.0219C175.425 77.8998 175.253 77.8261 175.072 77.8123L175.114 77.2327C175.125 77.166 175.125 77.0982 175.114 77.0315C175.095 76.9487 175.044 76.8769 174.972 76.8318C174.901 76.7867 174.814 76.772 174.731 76.791C174.648 76.8099 174.576 76.8609 174.531 76.9328C174.486 77.0047 174.472 77.0916 174.49 77.1744C174.38 76.8878 174.203 76.6314 173.975 76.4257C173.748 76.2715 173.47 76.2129 173.2 76.2626C172.93 76.3124 172.691 76.4664 172.534 76.6913C172.395 76.9279 172.346 77.2074 172.398 77.4772C172.45 77.747 172.599 77.9886 172.816 78.1565C172.696 78.1215 172.568 78.13 172.454 78.1805C172.34 78.2309 172.247 78.3201 172.192 78.4322C171.588 79.517 172.393 80.0805 173.311 80.2435C174.307 80.4025 175.064 80.63 175.616 79.5351Z" fill="#FFE9B3"/>
<path d="M167.565 76.3149C167.75 75.9984 167.821 75.6286 167.766 75.2663C167.735 75.0872 167.644 74.9238 167.51 74.8017C167.375 74.6796 167.203 74.6059 167.022 74.5921L167.064 74.0125C167.074 73.9458 167.074 73.8779 167.064 73.8112C167.045 73.7285 166.994 73.6567 166.922 73.6116C166.85 73.5665 166.763 73.5518 166.681 73.5707C166.598 73.5897 166.526 73.6407 166.481 73.7126C166.436 73.7845 166.421 73.8714 166.44 73.9541C166.33 73.6676 166.153 73.4112 165.925 73.2055C165.698 73.0513 165.42 72.9927 165.15 73.0424C164.88 73.0922 164.641 73.2462 164.484 73.4711C164.344 73.7077 164.296 73.9872 164.348 74.257C164.4 74.5268 164.548 74.7684 164.766 74.9363C164.646 74.9013 164.518 74.9098 164.403 74.9602C164.289 75.0107 164.197 75.0999 164.142 75.212C163.538 76.2968 164.343 76.8603 165.261 77.0233C166.257 77.1823 167.014 77.4097 167.565 76.3149Z" fill="#FFE9B3"/>
<path d="M168.37 75.204C168.052 75.0243 167.681 74.9576 167.32 75.0149C167.141 75.0491 166.979 75.1415 166.858 75.2777C166.738 75.4139 166.666 75.5861 166.654 75.7676L166.072 75.7333C166.005 75.7262 165.937 75.7296 165.871 75.7434C165.787 75.7616 165.713 75.8124 165.667 75.8846C165.62 75.9569 165.604 76.0447 165.622 76.1288C165.64 76.2129 165.691 76.2863 165.763 76.3329C165.836 76.3795 165.924 76.3955 166.008 76.3774C165.722 76.4906 165.468 76.6699 165.265 76.9006C165.113 77.129 165.058 77.408 165.11 77.6771C165.163 77.9462 165.32 78.1836 165.547 78.3376C165.785 78.4745 166.065 78.5197 166.334 78.4649C166.603 78.41 166.842 78.2589 167.008 78.0398C166.974 78.16 166.983 78.2884 167.035 78.4022C167.087 78.516 167.177 78.6079 167.29 78.6616C168.38 79.2513 168.936 78.4503 169.085 77.5225C169.254 76.5042 169.471 75.7474 168.37 75.204Z" fill="#FFE9B3"/>
<path opacity="0.15" d="M168.37 75.204C168.052 75.0243 167.681 74.9576 167.32 75.0149C167.141 75.0491 166.979 75.1415 166.858 75.2777C166.738 75.4139 166.666 75.5861 166.654 75.7676L166.072 75.7333C166.005 75.7262 165.937 75.7296 165.871 75.7434C165.787 75.7616 165.713 75.8124 165.667 75.8846C165.62 75.9569 165.604 76.0447 165.622 76.1288C165.64 76.2129 165.691 76.2863 165.763 76.3329C165.836 76.3795 165.924 76.3955 166.008 76.3774C165.722 76.4906 165.468 76.6699 165.265 76.9006C165.113 77.129 165.058 77.408 165.11 77.6771C165.163 77.9462 165.32 78.1836 165.547 78.3376C165.785 78.4745 166.065 78.5197 166.334 78.4649C166.603 78.41 166.842 78.2589 167.008 78.0398C166.974 78.16 166.983 78.2884 167.035 78.4022C167.087 78.516 167.177 78.6079 167.29 78.6616C168.38 79.2513 168.936 78.4503 169.085 77.5225C169.254 76.5042 169.471 75.7474 168.37 75.204Z" fill="black"/>
<path d="M177.026 75.8963C176.708 75.7163 176.337 75.6503 175.976 75.7092C175.797 75.7427 175.635 75.8346 175.514 75.9705C175.394 76.1064 175.322 76.2786 175.31 76.4599L174.73 76.4257C174.663 76.4187 174.595 76.4221 174.529 76.4357C174.45 76.4604 174.383 76.5134 174.341 76.5843C174.299 76.6553 174.285 76.7393 174.301 76.8201C174.323 76.8999 174.373 76.9687 174.443 77.0131C174.513 77.0574 174.596 77.074 174.678 77.0596C174.393 77.1733 174.138 77.3525 173.935 77.5829C173.784 77.8114 173.728 78.0902 173.781 78.3592C173.834 78.6281 173.99 78.8655 174.217 79.0199C174.455 79.1569 174.734 79.2025 175.003 79.148C175.272 79.0936 175.512 78.9428 175.678 78.724C175.644 78.844 175.654 78.9721 175.705 79.0855C175.757 79.199 175.847 79.2905 175.96 79.3439C177.051 79.9336 177.606 79.1326 177.755 78.2048C177.91 77.1965 178.127 76.4397 177.026 75.8963Z" fill="#FFE9B3"/>
<path opacity="0.15" d="M177.026 75.8963C176.708 75.7163 176.337 75.6503 175.976 75.7092C175.797 75.7427 175.635 75.8346 175.514 75.9705C175.394 76.1064 175.322 76.2786 175.31 76.4599L174.73 76.4257C174.663 76.4187 174.595 76.4221 174.529 76.4357C174.45 76.4604 174.383 76.5134 174.341 76.5843C174.299 76.6553 174.285 76.7393 174.301 76.8201C174.323 76.8999 174.373 76.9687 174.443 77.0131C174.513 77.0574 174.596 77.074 174.678 77.0596C174.393 77.1733 174.138 77.3525 173.935 77.5829C173.784 77.8114 173.728 78.0902 173.781 78.3592C173.834 78.6281 173.99 78.8655 174.217 79.0199C174.455 79.1569 174.734 79.2025 175.003 79.148C175.272 79.0936 175.512 78.9428 175.678 78.724C175.644 78.844 175.654 78.9721 175.705 79.0855C175.757 79.199 175.847 79.2905 175.96 79.3439C177.051 79.9336 177.606 79.1326 177.755 78.2048C177.91 77.1965 178.127 76.4397 177.026 75.8963Z" fill="black"/>
<path d="M171.794 72.475C171.475 72.295 171.104 72.2289 170.743 72.2878C170.564 72.3213 170.402 72.4133 170.281 72.5492C170.161 72.6851 170.089 72.8572 170.077 73.0385L169.497 73.0043C169.43 72.9973 169.362 73.0007 169.296 73.0143C169.217 73.0391 169.15 73.092 169.109 73.1629C169.067 73.2339 169.052 73.3179 169.068 73.3987C169.09 73.4785 169.14 73.5473 169.21 73.5917C169.28 73.636 169.364 73.6526 169.445 73.6382C169.16 73.7519 168.905 73.9312 168.702 74.1615C168.551 74.39 168.496 74.6689 168.548 74.9378C168.601 75.2067 168.758 75.4441 168.984 75.5985C169.222 75.7355 169.501 75.7811 169.77 75.7266C170.039 75.6722 170.279 75.5214 170.445 75.3026C170.411 75.4226 170.421 75.5507 170.472 75.6641C170.524 75.7776 170.614 75.8692 170.727 75.9225C171.818 76.5122 172.373 75.7112 172.522 74.7834C172.677 73.7751 172.894 73.0184 171.794 72.475Z" fill="#FFE9B3"/>
<path opacity="0.15" d="M171.794 72.475C171.475 72.295 171.104 72.2289 170.743 72.2878C170.564 72.3213 170.402 72.4133 170.281 72.5492C170.161 72.6851 170.089 72.8572 170.077 73.0385L169.497 73.0043C169.43 72.9973 169.362 73.0007 169.296 73.0143C169.217 73.0391 169.15 73.092 169.109 73.1629C169.067 73.2339 169.052 73.3179 169.068 73.3987C169.09 73.4785 169.14 73.5473 169.21 73.5917C169.28 73.636 169.364 73.6526 169.445 73.6382C169.16 73.7519 168.905 73.9312 168.702 74.1615C168.551 74.39 168.496 74.6689 168.548 74.9378C168.601 75.2067 168.758 75.4441 168.984 75.5985C169.222 75.7355 169.501 75.7811 169.77 75.7266C170.039 75.6722 170.279 75.5214 170.445 75.3026C170.411 75.4226 170.421 75.5507 170.472 75.6641C170.524 75.7776 170.614 75.8692 170.727 75.9225C171.818 76.5122 172.373 75.7112 172.522 74.7834C172.677 73.7751 172.894 73.0184 171.794 72.475Z" fill="black"/>
<path d="M167.769 71.2674C167.45 71.0874 167.079 71.0214 166.718 71.0803C166.539 71.1138 166.377 71.2057 166.257 71.3416C166.136 71.4775 166.064 71.6497 166.052 71.831L165.472 71.7967C165.405 71.7898 165.337 71.7932 165.271 71.8068C165.192 71.8315 165.126 71.8845 165.084 71.9554C165.042 72.0264 165.027 72.1104 165.044 72.1912C165.065 72.271 165.115 72.3398 165.185 72.3842C165.255 72.4285 165.339 72.4451 165.42 72.4307C165.135 72.5444 164.88 72.7236 164.677 72.954C164.526 73.1825 164.471 73.4613 164.523 73.7303C164.576 73.9992 164.733 74.2366 164.959 74.391C165.197 74.528 165.476 74.5736 165.746 74.5191C166.015 74.4647 166.254 74.3139 166.42 74.0951C166.386 74.2151 166.396 74.3432 166.448 74.4566C166.499 74.5701 166.589 74.6616 166.702 74.715C167.793 75.3047 168.348 74.5037 168.497 73.5759C168.652 72.5676 168.869 71.8108 167.769 71.2674Z" fill="#FFE9B3"/>
<path opacity="0.15" d="M167.769 71.2674C167.45 71.0874 167.079 71.0214 166.718 71.0803C166.539 71.1138 166.377 71.2057 166.257 71.3416C166.136 71.4775 166.064 71.6497 166.052 71.831L165.472 71.7967C165.405 71.7898 165.337 71.7932 165.271 71.8068C165.192 71.8315 165.126 71.8845 165.084 71.9554C165.042 72.0264 165.027 72.1104 165.044 72.1912C165.065 72.271 165.115 72.3398 165.185 72.3842C165.255 72.4285 165.339 72.4451 165.42 72.4307C165.135 72.5444 164.88 72.7236 164.677 72.954C164.526 73.1825 164.471 73.4613 164.523 73.7303C164.576 73.9992 164.733 74.2366 164.959 74.391C165.197 74.528 165.476 74.5736 165.746 74.5191C166.015 74.4647 166.254 74.3139 166.42 74.0951C166.386 74.2151 166.396 74.3432 166.448 74.4566C166.499 74.5701 166.589 74.6616 166.702 74.715C167.793 75.3047 168.348 74.5037 168.497 73.5759C168.652 72.5676 168.869 71.8108 167.769 71.2674Z" fill="black"/>
<path d="M172.196 70.4625C171.877 70.2825 171.507 70.2165 171.145 70.2753C170.967 70.3089 170.804 70.4008 170.684 70.5367C170.563 70.6726 170.491 70.8447 170.479 71.026L169.899 70.9918C169.832 70.9849 169.764 70.9882 169.698 71.0019C169.62 71.0266 169.553 71.0795 169.511 71.1505C169.469 71.2215 169.455 71.3054 169.471 71.3863C169.492 71.4661 169.543 71.5349 169.612 71.5792C169.682 71.6236 169.766 71.6402 169.847 71.6258C169.562 71.7394 169.308 71.9187 169.105 72.149C168.953 72.3775 168.898 72.6564 168.951 72.9253C169.003 73.1943 169.16 73.4316 169.386 73.586C169.624 73.7231 169.904 73.7687 170.173 73.7142C170.442 73.6597 170.682 73.509 170.847 73.2902C170.814 73.4101 170.823 73.5382 170.875 73.6517C170.926 73.7652 171.017 73.8567 171.129 73.9101C172.22 74.4997 172.775 73.6987 172.924 72.7709C173.079 71.7626 173.297 71.0059 172.196 70.4625Z" fill="#FFE9B3"/>
<path opacity="0.15" d="M172.196 70.4625C171.877 70.2825 171.507 70.2165 171.145 70.2753C170.967 70.3089 170.804 70.4008 170.684 70.5367C170.563 70.6726 170.491 70.8447 170.479 71.026L169.899 70.9918C169.832 70.9849 169.764 70.9882 169.698 71.0019C169.62 71.0266 169.553 71.0795 169.511 71.1505C169.469 71.2215 169.455 71.3054 169.471 71.3863C169.492 71.4661 169.543 71.5349 169.612 71.5792C169.682 71.6236 169.766 71.6402 169.847 71.6258C169.562 71.7394 169.308 71.9187 169.105 72.149C168.953 72.3775 168.898 72.6564 168.951 72.9253C169.003 73.1943 169.16 73.4316 169.386 73.586C169.624 73.7231 169.904 73.7687 170.173 73.7142C170.442 73.6597 170.682 73.509 170.847 73.2902C170.814 73.4101 170.823 73.5382 170.875 73.6517C170.926 73.7652 171.017 73.8567 171.129 73.9101C172.22 74.4997 172.775 73.6987 172.924 72.7709C173.079 71.7626 173.297 71.0059 172.196 70.4625Z" fill="black"/>
<path d="M173.806 71.67C173.487 71.49 173.117 71.424 172.756 71.4829C172.577 71.5164 172.415 71.6083 172.294 71.7442C172.174 71.8801 172.102 72.0523 172.089 72.2336L171.51 72.1993C171.443 72.1924 171.375 72.1958 171.309 72.2094C171.23 72.2341 171.163 72.287 171.121 72.358C171.079 72.429 171.065 72.513 171.081 72.5938C171.103 72.6736 171.153 72.7424 171.223 72.7868C171.292 72.8311 171.376 72.8477 171.458 72.8333C171.172 72.947 170.918 73.1262 170.715 73.3566C170.564 73.585 170.508 73.8639 170.561 74.1329C170.614 74.4018 170.77 74.6391 170.997 74.7936C171.234 74.9306 171.514 74.9762 171.783 74.9217C172.052 74.8672 172.292 74.7165 172.458 74.4977C172.424 74.6177 172.434 74.7457 172.485 74.8592C172.537 74.9727 172.627 75.0642 172.74 75.1176C173.83 75.7073 174.386 74.9063 174.535 73.9785C174.69 72.9702 174.907 72.2134 173.806 71.67Z" fill="#FFE9B3"/>
<path opacity="0.15" d="M173.806 71.67C173.487 71.49 173.117 71.424 172.756 71.4829C172.577 71.5164 172.415 71.6083 172.294 71.7442C172.174 71.8801 172.102 72.0523 172.089 72.2336L171.51 72.1993C171.443 72.1924 171.375 72.1958 171.309 72.2094C171.23 72.2341 171.163 72.287 171.121 72.358C171.079 72.429 171.065 72.513 171.081 72.5938C171.103 72.6736 171.153 72.7424 171.223 72.7868C171.292 72.8311 171.376 72.8477 171.458 72.8333C171.172 72.947 170.918 73.1262 170.715 73.3566C170.564 73.585 170.508 73.8639 170.561 74.1329C170.614 74.4018 170.77 74.6391 170.997 74.7936C171.234 74.9306 171.514 74.9762 171.783 74.9217C172.052 74.8672 172.292 74.7165 172.458 74.4977C172.424 74.6177 172.434 74.7457 172.485 74.8592C172.537 74.9727 172.627 75.0642 172.74 75.1176C173.83 75.7073 174.386 74.9063 174.535 73.9785C174.69 72.9702 174.907 72.2134 173.806 71.67Z" fill="black"/>
<path d="M163.944 75.8963C163.626 75.7163 163.255 75.6503 162.894 75.7092C162.715 75.7427 162.553 75.8346 162.432 75.9705C162.312 76.1064 162.24 76.2786 162.228 76.4599L161.648 76.4257C161.581 76.4187 161.513 76.4221 161.447 76.4357C161.368 76.4604 161.301 76.5134 161.259 76.5843C161.217 76.6553 161.203 76.7393 161.219 76.8201C161.241 76.8999 161.291 76.9687 161.361 77.0131C161.431 77.0574 161.514 77.074 161.596 77.0596C161.31 77.1733 161.056 77.3525 160.853 77.5829C160.702 77.8114 160.646 78.0902 160.699 78.3592C160.752 78.6281 160.908 78.8655 161.135 79.0199C161.373 79.1569 161.652 79.2025 161.921 79.148C162.19 79.0936 162.43 78.9428 162.596 78.724C162.562 78.844 162.572 78.9721 162.623 79.0855C162.675 79.199 162.765 79.2905 162.878 79.3439C163.969 79.9336 164.524 79.1326 164.673 78.2048C164.828 77.1965 165.045 76.4397 163.944 75.8963Z" fill="#FFE9B3"/>
<path opacity="0.15" d="M163.944 75.8963C163.626 75.7163 163.255 75.6503 162.894 75.7092C162.715 75.7427 162.553 75.8346 162.432 75.9705C162.312 76.1064 162.24 76.2786 162.228 76.4599L161.648 76.4257C161.581 76.4187 161.513 76.4221 161.447 76.4357C161.368 76.4604 161.301 76.5134 161.259 76.5843C161.217 76.6553 161.203 76.7393 161.219 76.8201C161.241 76.8999 161.291 76.9687 161.361 77.0131C161.431 77.0574 161.514 77.074 161.596 77.0596C161.31 77.1733 161.056 77.3525 160.853 77.5829C160.702 77.8114 160.646 78.0902 160.699 78.3592C160.752 78.6281 160.908 78.8655 161.135 79.0199C161.373 79.1569 161.652 79.2025 161.921 79.148C162.19 79.0936 162.43 78.9428 162.596 78.724C162.562 78.844 162.572 78.9721 162.623 79.0855C162.675 79.199 162.765 79.2905 162.878 79.3439C163.969 79.9336 164.524 79.1326 164.673 78.2048C164.828 77.1965 165.045 76.4397 163.944 75.8963Z" fill="black"/>
<path d="M175.617 73.0787C175.299 72.8987 174.928 72.8327 174.567 72.8916C174.388 72.9251 174.226 73.017 174.105 73.1529C173.985 73.2888 173.913 73.461 173.9 73.6422L173.321 73.608C173.254 73.6011 173.186 73.6045 173.12 73.6181C173.041 73.6428 172.974 73.6957 172.932 73.7667C172.89 73.8377 172.876 73.9217 172.892 74.0025C172.914 74.0823 172.964 74.1511 173.034 74.1954C173.103 74.2398 173.187 74.2564 173.269 74.242C172.983 74.3557 172.729 74.5349 172.526 74.7653C172.375 74.9937 172.319 75.2726 172.372 75.5415C172.425 75.8105 172.581 76.0478 172.808 76.2022C173.045 76.3393 173.325 76.3849 173.594 76.3304C173.863 76.2759 174.103 76.1252 174.269 75.9064C174.235 76.0264 174.245 76.1544 174.296 76.2679C174.348 76.3814 174.438 76.4729 174.551 76.5263C175.641 77.116 176.197 76.3149 176.346 75.3871C176.501 74.3788 176.718 73.6221 175.617 73.0787Z" fill="#FFE9B3"/>
<path opacity="0.15" d="M175.617 73.0787C175.299 72.8987 174.928 72.8327 174.567 72.8916C174.388 72.9251 174.226 73.017 174.105 73.1529C173.985 73.2888 173.913 73.461 173.9 73.6422L173.321 73.608C173.254 73.6011 173.186 73.6045 173.12 73.6181C173.041 73.6428 172.974 73.6957 172.932 73.7667C172.89 73.8377 172.876 73.9217 172.892 74.0025C172.914 74.0823 172.964 74.1511 173.034 74.1954C173.103 74.2398 173.187 74.2564 173.269 74.242C172.983 74.3557 172.729 74.5349 172.526 74.7653C172.375 74.9937 172.319 75.2726 172.372 75.5415C172.425 75.8105 172.581 76.0478 172.808 76.2022C173.045 76.3393 173.325 76.3849 173.594 76.3304C173.863 76.2759 174.103 76.1252 174.269 75.9064C174.235 76.0264 174.245 76.1544 174.296 76.2679C174.348 76.3814 174.438 76.4729 174.551 76.5263C175.641 77.116 176.197 76.3149 176.346 75.3871C176.501 74.3788 176.718 73.6221 175.617 73.0787Z" fill="black"/>
<path d="M179.441 75.0914C179.123 74.9114 178.752 74.8454 178.391 74.9042C178.212 74.9378 178.05 75.0297 177.929 75.1656C177.809 75.3015 177.737 75.4737 177.725 75.6549L177.145 75.6207C177.078 75.6138 177.01 75.6172 176.944 75.6308C176.865 75.6555 176.798 75.7084 176.756 75.7794C176.714 75.8504 176.7 75.9343 176.716 76.0152C176.738 76.095 176.788 76.1638 176.858 76.2081C176.928 76.2525 177.011 76.2691 177.093 76.2547C176.808 76.3684 176.553 76.5476 176.35 76.778C176.199 77.0064 176.144 77.2853 176.196 77.5542C176.249 77.8232 176.405 78.0605 176.632 78.2149C176.87 78.352 177.149 78.3976 177.418 78.3431C177.687 78.2886 177.927 78.1379 178.093 77.9191C178.059 78.039 178.069 78.1671 178.12 78.2806C178.172 78.3941 178.262 78.4856 178.375 78.539C179.466 79.1286 180.021 78.3276 180.17 77.3998C180.325 76.3915 180.542 75.6348 179.441 75.0914Z" fill="#FFE9B3"/>
<path opacity="0.15" d="M179.441 75.0914C179.123 74.9114 178.752 74.8454 178.391 74.9042C178.212 74.9378 178.05 75.0297 177.929 75.1656C177.809 75.3015 177.737 75.4737 177.725 75.6549L177.145 75.6207C177.078 75.6138 177.01 75.6172 176.944 75.6308C176.865 75.6555 176.798 75.7084 176.756 75.7794C176.714 75.8504 176.7 75.9343 176.716 76.0152C176.738 76.095 176.788 76.1638 176.858 76.2081C176.928 76.2525 177.011 76.2691 177.093 76.2547C176.808 76.3684 176.553 76.5476 176.35 76.778C176.199 77.0064 176.144 77.2853 176.196 77.5542C176.249 77.8232 176.405 78.0605 176.632 78.2149C176.87 78.352 177.149 78.3976 177.418 78.3431C177.687 78.2886 177.927 78.1379 178.093 77.9191C178.059 78.039 178.069 78.1671 178.12 78.2806C178.172 78.3941 178.262 78.4856 178.375 78.539C179.466 79.1286 180.021 78.3276 180.17 77.3998C180.325 76.3915 180.542 75.6348 179.441 75.0914Z" fill="black"/>
<path d="M176.221 70.6637C175.903 70.4837 175.532 70.4177 175.171 70.4765C174.992 70.51 174.83 70.602 174.709 70.7379C174.589 70.8738 174.517 71.0459 174.505 71.2272L173.925 71.193C173.858 71.186 173.79 71.1894 173.724 71.2031C173.645 71.2278 173.578 71.2807 173.536 71.3517C173.494 71.4226 173.48 71.5066 173.496 71.5875C173.518 71.6672 173.568 71.7361 173.638 71.7804C173.707 71.8247 173.791 71.8414 173.873 71.827C173.587 71.9406 173.333 72.1199 173.13 72.3502C172.979 72.5787 172.923 72.8576 172.976 73.1265C173.029 73.3954 173.185 73.6328 173.412 73.7872C173.649 73.9243 173.929 73.9698 174.198 73.9154C174.467 73.8609 174.707 73.7101 174.873 73.4914C174.839 73.6113 174.849 73.7394 174.9 73.8529C174.952 73.9663 175.042 74.0579 175.155 74.1112C176.245 74.7009 176.801 73.8999 176.95 72.9721C177.105 71.9638 177.322 71.2071 176.221 70.6637Z" fill="#FFE9B3"/>
<path opacity="0.15" d="M176.221 70.6637C175.903 70.4837 175.532 70.4177 175.171 70.4765C174.992 70.51 174.83 70.602 174.709 70.7379C174.589 70.8738 174.517 71.0459 174.505 71.2272L173.925 71.193C173.858 71.186 173.79 71.1894 173.724 71.2031C173.645 71.2278 173.578 71.2807 173.536 71.3517C173.494 71.4226 173.48 71.5066 173.496 71.5875C173.518 71.6672 173.568 71.7361 173.638 71.7804C173.707 71.8247 173.791 71.8414 173.873 71.827C173.587 71.9406 173.333 72.1199 173.13 72.3502C172.979 72.5787 172.923 72.8576 172.976 73.1265C173.029 73.3954 173.185 73.6328 173.412 73.7872C173.649 73.9243 173.929 73.9698 174.198 73.9154C174.467 73.8609 174.707 73.7101 174.873 73.4914C174.839 73.6113 174.849 73.7394 174.9 73.8529C174.952 73.9663 175.042 74.0579 175.155 74.1112C176.245 74.7009 176.801 73.8999 176.95 72.9721C177.105 71.9638 177.322 71.2071 176.221 70.6637Z" fill="black"/>
<path d="M179.037 75.51C179.221 75.1935 179.292 74.8236 179.238 74.4614C179.206 74.2823 179.116 74.1188 178.981 73.9968C178.846 73.8747 178.675 73.801 178.493 73.7872L178.536 73.2076C178.546 73.1409 178.546 73.073 178.536 73.0063C178.526 72.9653 178.509 72.9266 178.485 72.8924C178.46 72.8581 178.429 72.829 178.394 72.8067C178.358 72.7843 178.319 72.7692 178.277 72.7622C178.236 72.7552 178.193 72.7564 178.152 72.7658C178.111 72.7752 178.073 72.7926 178.038 72.8169C178.004 72.8412 177.975 72.8721 177.953 72.9077C177.93 72.9433 177.915 72.983 177.908 73.0244C177.901 73.0658 177.902 73.1082 177.912 73.1492C177.801 72.8627 177.625 72.6062 177.397 72.4005C177.17 72.2463 176.891 72.1878 176.622 72.2375C176.352 72.2872 176.113 72.4412 175.956 72.6662C175.816 72.9028 175.767 73.1823 175.819 73.4521C175.871 73.7219 176.02 73.9634 176.237 74.1313C176.118 74.0964 175.989 74.1049 175.875 74.1553C175.761 74.2058 175.668 74.2949 175.613 74.4071C175.01 75.4918 175.815 76.0554 176.732 76.2184C177.729 76.3774 178.485 76.6048 179.037 75.51Z" fill="#FFE9B3"/>
<path d="M179.037 72.2897C179.221 71.9733 179.292 71.6034 179.238 71.2412C179.206 71.0621 179.116 70.8986 178.981 70.7765C178.846 70.6545 178.675 70.5807 178.493 70.567L178.536 69.9874C178.546 69.9207 178.546 69.8528 178.536 69.7861C178.517 69.7034 178.466 69.6315 178.394 69.5864C178.322 69.5413 178.235 69.5266 178.152 69.5456C178.07 69.5645 177.998 69.6156 177.953 69.6875C177.908 69.7594 177.893 69.8463 177.912 69.929C177.801 69.6425 177.625 69.386 177.397 69.1803C177.17 69.0261 176.891 68.9676 176.622 69.0173C176.352 69.067 176.113 69.221 175.956 69.446C175.816 69.6826 175.767 69.962 175.819 70.2318C175.871 70.5017 176.02 70.7432 176.237 70.9111C176.118 70.8762 175.989 70.8846 175.875 70.9351C175.761 70.9855 175.668 71.0747 175.613 71.1869C175.01 72.2716 175.815 72.8352 176.732 72.9982C177.729 73.1572 178.485 73.3846 179.037 72.2897Z" fill="#FFE9B3"/>
<path d="M175.616 76.5163C175.8 76.1999 175.871 75.83 175.817 75.4678C175.785 75.2887 175.695 75.1252 175.56 75.0031C175.425 74.881 175.253 74.8073 175.072 74.7935L175.114 74.2139C175.125 74.1472 175.125 74.0794 175.114 74.0127C175.095 73.9299 175.044 73.8581 174.972 73.813C174.901 73.7679 174.814 73.7532 174.731 73.7722C174.648 73.7911 174.576 73.8421 174.531 73.914C174.486 73.9859 174.472 74.0728 174.49 74.1556C174.38 73.869 174.203 73.6126 173.975 73.4069C173.748 73.2527 173.47 73.1941 173.2 73.2438C172.93 73.2936 172.691 73.4476 172.534 73.6725C172.395 73.9091 172.346 74.1886 172.398 74.4584C172.45 74.7282 172.599 74.9698 172.816 75.1377C172.696 75.1027 172.568 75.1112 172.454 75.1617C172.34 75.2121 172.247 75.3013 172.192 75.4134C171.588 76.4982 172.393 77.0617 173.311 77.2247C174.307 77.3837 175.064 77.6112 175.616 76.5163Z" fill="#FFE9B3"/>
<path d="M179.439 80.1389C179.624 79.8224 179.695 79.4526 179.64 79.0903C179.609 78.9112 179.518 78.7477 179.384 78.6257C179.249 78.5036 179.077 78.4299 178.896 78.4161L178.938 77.8365C178.948 77.7698 178.948 77.7019 178.938 77.6352C178.919 77.5525 178.868 77.4807 178.796 77.4356C178.724 77.3905 178.637 77.3758 178.555 77.3947C178.472 77.4137 178.4 77.4647 178.355 77.5366C178.31 77.6085 178.295 77.6954 178.314 77.7781C178.204 77.4916 178.027 77.2351 177.799 77.0294C177.572 76.8752 177.294 76.8167 177.024 76.8664C176.754 76.9161 176.515 77.0702 176.358 77.2951C176.218 77.5317 176.17 77.8112 176.222 78.081C176.274 78.3508 176.422 78.5924 176.64 78.7603C176.52 78.7253 176.392 78.7338 176.277 78.7842C176.163 78.8347 176.071 78.9238 176.016 79.036C175.412 80.1208 176.217 80.6843 177.135 80.8473C178.131 81.0063 178.888 81.2337 179.439 80.1389Z" fill="#FFE9B3"/>
<path d="M172.194 81.5476C172.379 81.2311 172.45 80.8612 172.395 80.499C172.364 80.3199 172.273 80.1564 172.139 80.0344C172.004 79.9123 171.832 79.8386 171.651 79.8248L171.693 79.2452C171.703 79.1785 171.703 79.1106 171.693 79.0439C171.674 78.9612 171.623 78.8894 171.551 78.8443C171.479 78.7992 171.392 78.7845 171.31 78.8034C171.227 78.8224 171.155 78.8734 171.11 78.9453C171.065 79.0172 171.05 79.1041 171.069 79.1868C170.958 78.9003 170.782 78.6438 170.554 78.4381C170.327 78.2839 170.049 78.2254 169.779 78.2751C169.509 78.3248 169.27 78.4788 169.113 78.7038C168.973 78.9404 168.925 79.2198 168.977 79.4897C169.028 79.7595 169.177 80.001 169.395 80.1689C169.275 80.134 169.146 80.1425 169.032 80.1929C168.918 80.2434 168.826 80.3325 168.771 80.4447C168.167 81.5294 168.972 82.093 169.89 82.256C170.886 82.415 171.643 82.6424 172.194 81.5476Z" fill="#FFE9B3"/>
<path d="M170.584 73.2961C170.768 72.9796 170.839 72.6098 170.785 72.2475C170.753 72.0684 170.663 71.905 170.528 71.7829C170.393 71.6608 170.222 71.5871 170.04 71.5733L170.083 70.9937C170.093 70.927 170.093 70.8591 170.083 70.7924C170.064 70.7097 170.013 70.6379 169.941 70.5928C169.869 70.5477 169.782 70.533 169.699 70.5519C169.616 70.5709 169.545 70.6219 169.5 70.6938C169.454 70.7657 169.44 70.8526 169.459 70.9353C169.348 70.6488 169.172 70.3924 168.944 70.1867C168.717 70.0325 168.438 69.9739 168.168 70.0236C167.899 70.0734 167.659 70.2274 167.503 70.4523C167.363 70.6889 167.314 70.9684 167.366 71.2382C167.418 71.508 167.567 71.7496 167.784 71.9175C167.664 71.8825 167.536 71.891 167.422 71.9414C167.308 71.9919 167.215 72.0811 167.16 72.1932C166.557 73.278 167.362 73.8415 168.279 74.0045C169.276 74.1635 170.032 74.3909 170.584 73.2961Z" fill="#FFE9B3"/>
<path d="M174.81 72.2897C174.995 71.9733 175.066 71.6034 175.012 71.2412C174.98 71.0621 174.89 70.8986 174.755 70.7765C174.62 70.6545 174.448 70.5807 174.267 70.567L174.309 69.9874C174.319 69.9207 174.319 69.8528 174.309 69.7861C174.29 69.7034 174.239 69.6315 174.167 69.5864C174.095 69.5413 174.009 69.5266 173.926 69.5456C173.843 69.5645 173.771 69.6156 173.726 69.6875C173.681 69.7594 173.666 69.8463 173.685 69.929C173.575 69.6425 173.398 69.386 173.17 69.1803C172.943 69.0261 172.665 68.9676 172.395 69.0173C172.125 69.067 171.886 69.221 171.729 69.446C171.589 69.6826 171.541 69.962 171.593 70.2318C171.645 70.5017 171.793 70.7432 172.011 70.9111C171.891 70.8762 171.763 70.8846 171.649 70.9351C171.534 70.9855 171.442 71.0747 171.387 71.1869C170.783 72.2716 171.588 72.8352 172.506 72.9982C173.502 73.1572 174.259 73.3846 174.81 72.2897Z" fill="#FFE9B3"/>
<path d="M166.358 76.1137C166.542 75.7973 166.613 75.4274 166.559 75.0652C166.527 74.8861 166.437 74.7226 166.302 74.6005C166.167 74.4784 165.996 74.4047 165.814 74.391L165.857 73.8113C165.867 73.7446 165.867 73.6768 165.857 73.6101C165.838 73.5273 165.787 73.4555 165.715 73.4104C165.643 73.3653 165.556 73.3506 165.473 73.3696C165.39 73.3885 165.319 73.4396 165.274 73.5115C165.228 73.5834 165.214 73.6702 165.233 73.753C165.122 73.4665 164.946 73.21 164.717 73.0043C164.491 72.8501 164.212 72.7915 163.942 72.8413C163.673 72.891 163.433 73.045 163.276 73.2699C163.137 73.5065 163.088 73.786 163.14 74.0558C163.192 74.3256 163.341 74.5672 163.558 74.7351C163.438 74.7001 163.31 74.7086 163.196 74.7591C163.082 74.8095 162.989 74.8987 162.934 75.0108C162.331 76.0956 163.136 76.6591 164.053 76.8221C165.05 76.9811 165.806 77.2086 166.358 76.1137Z" fill="#FFE9B3"/>
<path d="M163.151 85.3453C164.198 85.2608 165.23 84.9931 166.281 85.0072C167.655 85.0253 168.978 85.5225 170.23 86.09C170.597 86.2318 170.935 86.4422 171.224 86.7099C171.43 86.9477 171.58 87.229 171.663 87.5328C171.746 87.8366 171.76 88.1551 171.703 88.4648C171.585 89.0842 171.34 89.6722 170.982 90.1916C170.616 90.7733 170.163 91.3469 169.525 91.6004C169.168 91.7236 168.794 91.7882 168.416 91.7916C166.84 91.8782 165.234 91.7916 163.739 91.2865C162.972 91.0248 162.246 90.6586 161.495 90.3486C159.102 89.3584 156.514 88.968 153.972 88.4689C153.843 88.4535 153.72 88.4057 153.614 88.33C153.084 87.8731 154.234 86.2269 154.503 85.766C154.958 84.9831 155.371 84.8986 156.292 84.8764C158.595 84.8181 160.843 85.4882 163.151 85.3453Z" fill="#A0616A"/>
<path d="M181.057 90.9142C180.329 90.5559 179.675 90.0608 178.952 89.6885C178.042 89.2205 177.042 88.9548 176.02 88.9096C175.358 88.8794 174.637 88.968 174.156 89.4248C173.47 90.0769 173.552 91.1858 173.778 92.1056C174.12 93.4842 174.808 94.9433 176.13 95.4646C176.65 95.6384 177.193 95.7313 177.741 95.7403C180.19 95.9094 182.74 96.0623 185.01 95.1365C185.176 95.0847 185.319 94.9756 185.413 94.8286C185.511 94.6274 185.413 94.3858 185.312 94.1826C184.95 93.454 184.376 91.9265 183.676 91.4716C183.024 91.0349 181.87 91.3126 181.057 90.9142Z" fill="#A0616A"/>
<path opacity="0.1" d="M186.813 79.9536C188.155 82.082 189.258 84.3518 190.102 86.7219C190.338 87.3048 190.474 87.9233 190.504 88.5514C190.504 89.2497 190.261 89.926 190.005 90.5861C189.191 92.6983 188.246 94.7578 187.175 96.7526C186.853 97.3564 186.485 97.9863 185.847 98.3184C185.177 98.6686 184.352 98.6143 183.585 98.5197C181.664 98.3094 179.758 97.9719 177.881 97.5094C179.063 97.5476 180.129 96.6621 180.675 95.698C181.22 94.734 181.341 93.6311 181.432 92.5544C181.514 91.9746 181.49 91.3844 181.359 90.8135C181.283 90.5189 181.136 90.247 180.932 90.021C180.728 89.795 180.473 89.6216 180.188 89.5154C180.133 88.9901 180.635 88.5494 181.152 88.3078C181.669 88.0663 182.257 87.9315 182.677 87.5692C183.297 87.0379 183.386 86.1504 183.182 85.3977C182.979 84.645 182.536 83.9647 182.222 83.2422C181.782 82.2359 184.056 81.1773 184.147 80.0905C184.167 79.845 183.994 80.2918 184.147 80.0905C184.299 79.8892 185.249 80.5876 185.465 80.493C186.88 79.8812 186.03 78.7099 186.813 79.9536Z" fill="black"/>
<path d="M187.252 79.9538C188.594 82.0826 189.697 84.3523 190.543 86.7221C190.78 87.3046 190.916 87.9233 190.945 88.5515C190.945 89.2499 190.702 89.9261 190.448 90.5862C189.633 92.6981 188.688 94.7576 187.618 96.7528C187.296 97.3566 186.928 97.9865 186.29 98.3186C185.62 98.6688 184.793 98.6144 184.028 98.5198C182.106 98.31 180.2 97.9725 178.322 97.5095C179.502 97.5478 180.57 96.6622 181.114 95.6982C181.657 94.7342 181.782 93.6313 181.872 92.5546C181.954 91.9747 181.93 91.3847 181.8 90.8137C181.723 90.5193 181.576 90.2478 181.373 90.0219C181.169 89.796 180.914 89.6223 180.629 89.5156C180.572 88.9903 181.075 88.5495 181.593 88.308C182.11 88.0665 182.698 87.9317 183.118 87.5694C183.736 87.0381 183.825 86.1505 183.621 85.3978C183.418 84.6451 182.975 83.9649 182.661 83.2423C182.222 82.2346 182.038 81.1341 182.126 80.0383C182.13 79.7876 182.204 79.5431 182.339 79.3319C182.489 79.1523 182.683 79.0138 182.901 78.9294C184.322 78.3256 186.469 78.71 187.252 79.9538Z" fill="#F98A8D"/>
<path opacity="0.1" d="M144.231 77.9573C142.925 79.1649 141.577 80.4408 140.941 82.1052C140.595 83.0129 140.48 83.991 140.367 84.9571C140.178 86.6034 140.007 88.3664 140.77 89.8356C141.615 91.4456 143.386 92.309 145.049 93.0396C145.623 93.3096 146.219 93.533 146.83 93.7078C147.63 93.8866 148.445 93.9864 149.265 94.0056L157.655 94.4725C156.56 93.3696 155.86 91.6429 156.009 90.0952C156.144 88.7125 156.814 87.4446 157.488 86.2351C157.838 85.6112 158.235 84.9551 158.881 84.6471C156.147 84.043 153.337 83.8665 150.549 84.1239C150.362 84.14 150.146 84.146 150.024 83.9971C149.962 83.9036 149.934 83.7924 149.943 83.6811C149.943 82.4313 150.877 81.3928 151.263 80.2054C151.881 78.3015 149.778 79.346 147.886 78.6919C145.994 78.0378 144.618 75.993 144.231 77.9573Z" fill="black"/>
<path d="M143.627 77.9572C142.321 79.1647 140.973 80.4407 140.337 82.1051C139.991 83.0128 139.876 83.9909 139.763 84.9569C139.574 86.6032 139.403 88.3663 140.166 89.8354C141.011 91.4455 142.782 92.3089 144.445 93.0395C145.019 93.3095 145.615 93.5329 146.226 93.7076C147.026 93.8865 147.841 93.9862 148.661 94.0055L157.051 94.4724C155.956 93.3695 155.256 91.6427 155.405 90.0951C155.54 88.7124 156.21 87.4445 156.884 86.2349C157.234 85.611 157.631 84.9549 158.277 84.647C155.543 84.0429 152.733 83.8663 149.945 84.1237C149.758 84.1398 149.542 84.1459 149.42 83.9969C149.358 83.9035 149.33 83.7923 149.339 83.681C149.339 82.4312 150.273 81.3927 150.659 80.2052C151.277 78.3013 150.203 75.9788 148.309 75.3207C146.415 74.6626 144.014 75.9929 143.627 77.9572Z" fill="#F98A8D"/>
<path d="M164.699 56.3522C170.312 56.3522 174.863 54.46 174.863 52.1258C174.863 49.7916 170.312 47.8994 164.699 47.8994C159.086 47.8994 154.536 49.7916 154.536 52.1258C154.536 54.46 159.086 56.3522 164.699 56.3522Z" fill="#2F2E41"/>
<path opacity="0.1" d="M164.498 54.541C159.634 54.541 155.568 53.1181 154.57 51.2202C154.419 51.4983 154.338 51.8093 154.334 52.1259C154.334 54.4605 158.885 56.3523 164.498 56.3523C170.111 56.3523 174.662 54.4605 174.662 52.1259C174.658 51.8093 174.577 51.4983 174.426 51.2202C173.428 53.1181 169.362 54.541 164.498 54.541Z" fill="black"/>
<path d="M178.234 54.9654C177.915 54.7854 177.545 54.7194 177.183 54.7783C177.005 54.8118 176.842 54.9037 176.722 55.0396C176.601 55.1755 176.529 55.3477 176.517 55.529L175.938 55.4947C175.87 55.4878 175.803 55.4912 175.736 55.5048C175.658 55.5295 175.591 55.5825 175.549 55.6534C175.507 55.7244 175.493 55.8084 175.509 55.8892C175.53 55.969 175.581 56.0378 175.65 56.0822C175.72 56.1265 175.804 56.1431 175.885 56.1287C175.6 56.2424 175.346 56.4216 175.143 56.652C174.991 56.8805 174.936 57.1593 174.989 57.4283C175.041 57.6972 175.198 57.9346 175.424 58.089C175.662 58.226 175.942 58.2716 176.211 58.2171C176.48 58.1627 176.72 58.0119 176.886 57.7931C176.852 57.9131 176.861 58.0412 176.913 58.1546C176.964 58.2681 177.055 58.3596 177.167 58.413C178.258 59.0027 178.814 58.2017 178.962 57.2739C179.117 56.2656 179.335 55.5088 178.234 54.9654Z" fill="#FFE9B3"/>
<path opacity="0.15" d="M178.234 54.9654C177.915 54.7854 177.545 54.7194 177.183 54.7783C177.005 54.8118 176.842 54.9037 176.722 55.0396C176.601 55.1755 176.529 55.3477 176.517 55.529L175.938 55.4947C175.87 55.4878 175.803 55.4912 175.736 55.5048C175.658 55.5295 175.591 55.5825 175.549 55.6534C175.507 55.7244 175.493 55.8084 175.509 55.8892C175.53 55.969 175.581 56.0378 175.65 56.0822C175.72 56.1265 175.804 56.1431 175.885 56.1287C175.6 56.2424 175.346 56.4216 175.143 56.652C174.991 56.8805 174.936 57.1593 174.989 57.4283C175.041 57.6972 175.198 57.9346 175.424 58.089C175.662 58.226 175.942 58.2716 176.211 58.2171C176.48 58.1627 176.72 58.0119 176.886 57.7931C176.852 57.9131 176.861 58.0412 176.913 58.1546C176.964 58.2681 177.055 58.3596 177.167 58.413C178.258 59.0027 178.814 58.2017 178.962 57.2739C179.117 56.2656 179.335 55.5088 178.234 54.9654Z" fill="black"/>
<path d="M187.894 70.2611C187.575 70.0811 187.205 70.0151 186.844 70.0739C186.665 70.1075 186.503 70.1994 186.382 70.3353C186.261 70.4712 186.189 70.6433 186.177 70.8246L185.598 70.7904C185.531 70.7834 185.463 70.7868 185.396 70.8005C185.318 70.8252 185.251 70.8781 185.209 70.9491C185.167 71.02 185.153 71.104 185.169 71.1849C185.19 71.2646 185.241 71.3335 185.311 71.3778C185.38 71.4222 185.464 71.4388 185.545 71.4244C185.26 71.538 185.006 71.7173 184.803 71.9476C184.651 72.1761 184.596 72.455 184.649 72.7239C184.702 72.9929 184.858 73.2302 185.085 73.3846C185.322 73.5217 185.602 73.5673 185.871 73.5128C186.14 73.4583 186.38 73.3075 186.546 73.0888C186.512 73.2087 186.521 73.3368 186.573 73.4503C186.625 73.5638 186.715 73.6553 186.827 73.7086C187.918 74.2983 188.474 73.4973 188.623 72.5695C188.778 71.5612 188.995 70.8045 187.894 70.2611Z" fill="#FFE9B3"/>
<path opacity="0.15" d="M187.894 70.2611C187.575 70.0811 187.205 70.0151 186.844 70.0739C186.665 70.1075 186.503 70.1994 186.382 70.3353C186.261 70.4712 186.189 70.6433 186.177 70.8246L185.598 70.7904C185.531 70.7834 185.463 70.7868 185.396 70.8005C185.318 70.8252 185.251 70.8781 185.209 70.9491C185.167 71.02 185.153 71.104 185.169 71.1849C185.19 71.2646 185.241 71.3335 185.311 71.3778C185.38 71.4222 185.464 71.4388 185.545 71.4244C185.26 71.538 185.006 71.7173 184.803 71.9476C184.651 72.1761 184.596 72.455 184.649 72.7239C184.702 72.9929 184.858 73.2302 185.085 73.3846C185.322 73.5217 185.602 73.5673 185.871 73.5128C186.14 73.4583 186.38 73.3075 186.546 73.0888C186.512 73.2087 186.521 73.3368 186.573 73.4503C186.625 73.5638 186.715 73.6553 186.827 73.7086C187.918 74.2983 188.474 73.4973 188.623 72.5695C188.778 71.5612 188.995 70.8045 187.894 70.2611Z" fill="black"/>
<path d="M199.165 86.5631C198.846 86.3831 198.475 86.3171 198.114 86.3759C197.935 86.4095 197.773 86.5014 197.653 86.6373C197.532 86.7732 197.46 86.9453 197.448 87.1266L196.868 87.0924C196.801 87.0854 196.733 87.0888 196.667 87.1025C196.588 87.1272 196.522 87.1801 196.48 87.2511C196.438 87.322 196.423 87.406 196.44 87.4869C196.461 87.5666 196.511 87.6355 196.581 87.6798C196.651 87.7242 196.735 87.7408 196.816 87.7264C196.531 87.84 196.276 88.0193 196.073 88.2496C195.922 88.4781 195.867 88.757 195.919 89.0259C195.972 89.2949 196.129 89.5322 196.355 89.6866C196.593 89.8237 196.872 89.8693 197.142 89.8148C197.411 89.7603 197.65 89.6095 197.816 89.3908C197.782 89.5107 197.792 89.6388 197.844 89.7523C197.895 89.8658 197.985 89.9573 198.098 90.0106C199.189 90.6003 199.744 89.7993 199.893 88.8715C200.048 87.8632 200.265 87.1065 199.165 86.5631Z" fill="#FFE9B3"/>
<path opacity="0.15" d="M199.165 86.5631C198.846 86.3831 198.475 86.3171 198.114 86.3759C197.935 86.4095 197.773 86.5014 197.653 86.6373C197.532 86.7732 197.46 86.9453 197.448 87.1266L196.868 87.0924C196.801 87.0854 196.733 87.0888 196.667 87.1025C196.588 87.1272 196.522 87.1801 196.48 87.2511C196.438 87.322 196.423 87.406 196.44 87.4869C196.461 87.5666 196.511 87.6355 196.581 87.6798C196.651 87.7242 196.735 87.7408 196.816 87.7264C196.531 87.84 196.276 88.0193 196.073 88.2496C195.922 88.4781 195.867 88.757 195.919 89.0259C195.972 89.2949 196.129 89.5322 196.355 89.6866C196.593 89.8237 196.872 89.8693 197.142 89.8148C197.411 89.7603 197.65 89.6095 197.816 89.3908C197.782 89.5107 197.792 89.6388 197.844 89.7523C197.895 89.8658 197.985 89.9573 198.098 90.0106C199.189 90.6003 199.744 89.7993 199.893 88.8715C200.048 87.8632 200.265 87.1065 199.165 86.5631Z" fill="black"/>
<path d="M181.854 50.5539C182.039 50.2375 182.11 49.8676 182.056 49.5054C182.024 49.3263 181.934 49.1628 181.799 49.0407C181.664 48.9186 181.492 48.8449 181.311 48.8311L181.353 48.2515C181.363 48.1848 181.363 48.117 181.353 48.0503C181.334 47.9675 181.283 47.8957 181.211 47.8506C181.139 47.8055 181.052 47.7908 180.97 47.8098C180.887 47.8287 180.815 47.8797 180.77 47.9516C180.725 48.0235 180.71 48.1104 180.729 48.1932C180.619 47.9066 180.442 47.6502 180.214 47.4445C179.987 47.2903 179.709 47.2317 179.439 47.2814C179.169 47.3312 178.93 47.4852 178.773 47.7101C178.633 47.9467 178.585 48.2262 178.637 48.496C178.689 48.7658 178.837 49.0074 179.055 49.1753C178.935 49.1403 178.807 49.1488 178.692 49.1993C178.578 49.2497 178.486 49.3389 178.431 49.451C177.827 50.5358 178.632 51.0993 179.55 51.2623C180.546 51.4213 181.303 51.6488 181.854 50.5539Z" fill="#FFE9B3"/>
<path d="M180.647 43.51C180.831 43.1935 180.902 42.8236 180.848 42.4614C180.816 42.2823 180.726 42.1188 180.591 41.9968C180.456 41.8747 180.285 41.801 180.103 41.7872L180.146 41.2076C180.156 41.1409 180.156 41.073 180.146 41.0063C180.127 40.9236 180.076 40.8518 180.004 40.8067C179.932 40.7616 179.845 40.7469 179.762 40.7658C179.679 40.7848 179.608 40.8358 179.563 40.9077C179.517 40.9796 179.503 41.0665 179.522 41.1492C179.411 40.8627 179.235 40.6062 179.007 40.4005C178.78 40.2463 178.501 40.1878 178.231 40.2375C177.962 40.2872 177.722 40.4412 177.565 40.6662C177.426 40.9028 177.377 41.1823 177.429 41.4521C177.481 41.7219 177.63 41.9634 177.847 42.1313C177.727 42.0964 177.599 42.1049 177.485 42.1553C177.371 42.2058 177.278 42.2949 177.223 42.4071C176.62 43.4918 177.425 44.0554 178.342 44.2184C179.339 44.3774 180.095 44.6048 180.647 43.51Z" fill="#FFE9B3"/>
<path d="M150.46 101.456C150.141 101.276 149.771 101.21 149.409 101.269C149.231 101.303 149.069 101.394 148.948 101.53C148.827 101.666 148.755 101.838 148.743 102.02L148.164 101.985C148.097 101.975 148.029 101.975 147.962 101.985C147.884 102.01 147.817 102.063 147.775 102.134C147.733 102.205 147.719 102.289 147.735 102.37C147.756 102.45 147.807 102.518 147.877 102.563C147.946 102.607 148.03 102.624 148.111 102.609C147.826 102.723 147.572 102.902 147.369 103.133C147.217 103.361 147.162 103.64 147.215 103.909C147.268 104.178 147.424 104.415 147.65 104.57C147.888 104.707 148.168 104.752 148.437 104.698C148.706 104.643 148.946 104.493 149.112 104.274C149.078 104.394 149.087 104.522 149.139 104.635C149.191 104.749 149.281 104.84 149.393 104.894C150.484 105.483 151.04 104.692 151.189 103.755C151.344 102.756 151.561 102 150.46 101.456Z" fill="#FFE9B3"/>
<path opacity="0.15" d="M150.46 101.456C150.141 101.276 149.771 101.21 149.409 101.269C149.231 101.303 149.069 101.394 148.948 101.53C148.827 101.666 148.755 101.838 148.743 102.02L148.164 101.985C148.097 101.975 148.029 101.975 147.962 101.985C147.884 102.01 147.817 102.063 147.775 102.134C147.733 102.205 147.719 102.289 147.735 102.37C147.756 102.45 147.807 102.518 147.877 102.563C147.946 102.607 148.03 102.624 148.111 102.609C147.826 102.723 147.572 102.902 147.369 103.133C147.217 103.361 147.162 103.64 147.215 103.909C147.268 104.178 147.424 104.415 147.65 104.57C147.888 104.707 148.168 104.752 148.437 104.698C148.706 104.643 148.946 104.493 149.112 104.274C149.078 104.394 149.087 104.522 149.139 104.635C149.191 104.749 149.281 104.84 149.393 104.894C150.484 105.483 151.04 104.692 151.189 103.755C151.344 102.756 151.561 102 150.46 101.456Z" fill="black"/>
<path d="M143.213 101.07C143.397 100.753 143.468 100.383 143.414 100.021C143.382 99.8421 143.292 99.6786 143.157 99.5566C143.022 99.4345 142.851 99.3608 142.669 99.347L142.712 98.7674C142.722 98.7007 142.722 98.6328 142.712 98.5661C142.693 98.4834 142.642 98.4116 142.57 98.3665C142.498 98.3214 142.411 98.3067 142.328 98.3256C142.245 98.3446 142.174 98.3956 142.128 98.4675C142.083 98.5394 142.069 98.6263 142.088 98.709C141.977 98.4225 141.801 98.166 141.572 97.9603C141.346 97.8062 141.067 97.7476 140.797 97.7973C140.528 97.847 140.288 98.0011 140.131 98.226C139.992 98.4626 139.943 98.7421 139.995 99.0119C140.047 99.2817 140.196 99.5233 140.413 99.6912C140.293 99.6562 140.165 99.6647 140.051 99.7151C139.937 99.7656 139.844 99.8547 139.789 99.9669C139.186 101.052 139.991 101.615 140.908 101.778C141.904 101.937 142.661 102.165 143.213 101.07Z" fill="#FFE9B3"/>
<path d="M152.873 90.0004C153.058 89.684 153.129 89.3141 153.075 88.9519C153.043 88.7728 152.953 88.6093 152.818 88.4872C152.683 88.3652 152.511 88.2914 152.33 88.2777L152.372 87.6981C152.382 87.6314 152.382 87.5635 152.372 87.4968C152.353 87.4141 152.302 87.3422 152.23 87.2971C152.158 87.252 152.072 87.2373 151.989 87.2563C151.906 87.2752 151.834 87.3263 151.789 87.3982C151.744 87.4701 151.729 87.557 151.748 87.6397C151.638 87.3532 151.461 87.0967 151.233 86.891C151.006 86.7368 150.728 86.6782 150.458 86.728C150.188 86.7777 149.949 86.9317 149.792 87.1567C149.652 87.3933 149.604 87.6727 149.656 87.9425C149.708 88.2124 149.856 88.4539 150.074 88.6218C149.954 88.5868 149.826 88.5953 149.712 88.6458C149.597 88.6962 149.505 88.7854 149.45 88.8975C148.846 89.9823 149.651 90.5458 150.569 90.7089C151.565 90.8679 152.322 91.0953 152.873 90.0004Z" fill="#FFE9B3"/>
<path d="M137.411 93.6553C135.45 93.1541 133.41 92.649 131.429 93.0515C130.548 93.2306 129.714 93.5848 128.857 93.8565C126.746 94.5108 124.514 94.681 122.328 94.3545C120.142 94.028 118.058 93.2133 116.23 91.9708C114.177 90.5519 112.044 88.483 109.613 89.0445C108.959 89.1974 108.353 89.5396 107.685 89.614C106.431 89.7569 105.27 88.9438 104.026 88.7526C101.885 88.4246 99.9384 89.926 98.2921 91.3348L89.6118 98.7632C88.9537 99.3267 88.2292 100.071 88.4043 100.917C88.672 102.158 90.5738 102.325 91.0629 103.503C91.4171 104.346 90.8315 105.328 90.0566 105.809C89.2818 106.29 88.3439 106.413 87.4745 106.705C86.1608 107.145 84.9834 107.917 84.0566 108.947C83.1298 109.977 82.4852 111.229 82.1854 112.582C82.0325 113.302 81.9842 114.051 81.7004 114.731C81.3945 115.472 80.841 116.079 80.4325 116.768C78.6453 119.766 79.8186 123.745 78.4621 126.961C77.7437 128.668 76.3047 130.318 76.7595 132.112C77.1741 133.738 78.9592 134.569 80.5834 135C80.7746 136.107 80.3821 136.887 79.5771 137.682C86.3293 140.458 93.5766 143.292 100.739 141.873C103.197 141.388 105.59 140.403 108.093 140.444C109.87 140.472 111.627 141.019 113.401 140.895C117.142 140.631 120.577 137.433 124.202 138.393C123.109 138.467 122.705 140.065 123.349 140.953C123.993 141.84 125.178 142.124 126.269 142.229C127.36 142.334 128.515 142.342 129.461 142.897C128.744 144.388 126.178 144.91 126.426 146.55C126.516 147.142 126.995 147.59 127.47 147.959C132.351 151.696 139.073 151.338 145.181 151.984C149.685 152.455 154.101 153.556 158.591 154.143C165.764 155.079 173.035 154.697 180.256 154.31C181.567 154.24 183.036 154.095 183.879 153.089C184.998 151.748 184.376 149.762 184.235 148.023C183.688 141.219 191.13 136.535 193.215 130.035C194.02 127.497 193.986 124.77 193.841 122.107C193.517 116.102 192.577 109.766 188.749 105.129C185.598 101.305 180.886 99.1516 176.195 97.5738C173.208 96.5675 170.079 95.7403 166.937 96.0362C161.664 96.5333 156.337 100.134 151.468 98.0487C150.18 97.4973 149.084 96.5856 147.86 95.9054C144.644 94.088 140.995 94.571 137.411 93.6553Z" fill="#9C519D"/>
<g opacity="0.1">
<path d="M164.641 148.902C160.151 148.315 155.743 147.22 151.231 146.743C145.117 146.103 138.395 146.461 133.52 142.718C133.045 142.354 132.566 141.913 132.476 141.309C132.228 139.673 134.794 139.147 135.511 137.656C134.565 137.101 133.412 137.095 132.319 136.988C131.226 136.881 130.043 136.6 129.398 135.712C128.754 134.824 129.159 133.226 130.252 133.152C126.629 132.192 123.192 135.39 119.45 135.654C117.677 135.778 115.92 135.231 114.143 135.203C111.64 135.163 109.247 136.147 106.789 136.632C99.6264 138.041 92.3811 135.223 85.6269 132.442C86.4219 131.637 86.8184 130.866 86.6332 129.759C85.0131 129.328 83.2279 128.497 82.8093 126.871C82.3545 125.078 83.7935 123.427 84.512 121.721C85.8684 118.5 84.6951 114.526 86.4823 111.527C86.8848 110.839 87.4443 110.231 87.7502 109.49C88.03 108.81 88.0823 108.061 88.2352 107.341C88.3012 107.025 88.3886 106.715 88.4969 106.411C88.1588 106.503 87.8166 106.588 87.4906 106.697C86.1769 107.137 84.9995 107.909 84.0727 108.939C83.1459 109.969 82.5013 111.221 82.2015 112.573C82.0486 113.294 82.0003 114.043 81.7165 114.723C81.4106 115.463 80.8571 116.071 80.4486 116.76C78.6614 119.758 79.8347 123.737 78.4783 126.953C77.7598 128.66 76.3208 130.31 76.7756 132.103C77.1902 133.73 78.9754 134.561 80.5995 134.992C80.7907 136.098 80.3983 136.879 79.5932 137.674C86.3474 140.45 93.5927 143.283 100.755 141.864C103.213 141.379 105.606 140.395 108.109 140.436C109.887 140.464 111.644 141.011 113.417 140.886C117.158 140.623 120.593 137.425 124.218 138.385C123.125 138.459 122.721 140.057 123.365 140.945C124.009 141.832 125.194 142.116 126.285 142.221C127.376 142.325 128.531 142.333 129.477 142.889C128.761 144.38 126.194 144.901 126.442 146.542C126.533 147.133 127.012 147.582 127.487 147.951C132.367 151.688 139.089 151.33 145.197 151.976C149.701 152.447 154.117 153.547 158.607 154.135C165.78 155.071 173.051 154.689 180.272 154.302C181.583 154.232 183.052 154.087 183.895 153.081C184.771 152.03 184.579 150.585 184.388 149.17C177.795 149.512 171.176 149.756 164.641 148.902Z" fill="black"/>
<path d="M90.7733 103.052C91.5697 102.343 92.5034 101.806 93.5165 101.474C94.3859 101.192 95.3278 101.058 96.0986 100.579C96.8694 100.1 97.4611 99.1154 97.1049 98.2721C96.6158 97.1028 94.714 96.9277 94.4463 95.686C94.3235 95.1144 94.6153 94.5891 95.0219 94.1343L89.6101 98.7632C88.9519 99.3267 88.2274 100.071 88.4025 100.917C88.638 101.979 90.0589 102.263 90.7733 103.052Z" fill="black"/>
</g>
<path d="M108.999 99.0571C109.183 98.7406 109.254 98.3708 109.2 98.0085C109.169 97.8294 109.078 97.666 108.944 97.5439C108.809 97.4218 108.637 97.3481 108.456 97.3343L108.498 96.7547C108.505 96.6875 108.501 96.6196 108.488 96.5534C108.469 96.4707 108.418 96.3989 108.346 96.3538C108.274 96.3087 108.187 96.294 108.105 96.3129C108.022 96.3319 107.95 96.3829 107.905 96.4548C107.86 96.5267 107.845 96.6136 107.864 96.6963C107.753 96.4098 107.577 96.1533 107.349 95.9476C107.122 95.7935 106.843 95.7349 106.574 95.7846C106.304 95.8343 106.065 95.9884 105.908 96.2133C105.768 96.4499 105.72 96.7294 105.772 96.9992C105.823 97.269 105.972 97.5106 106.19 97.6785C106.07 97.6435 105.941 97.652 105.827 97.7024C105.713 97.7529 105.62 97.8421 105.566 97.9542C104.962 99.039 105.767 99.6025 106.685 99.7655C107.691 99.9245 108.448 100.152 108.999 99.0571Z" fill="#FFE9B3"/>
<path d="M138.383 138.101C138.567 137.785 138.638 137.415 138.584 137.052C138.552 136.873 138.462 136.71 138.327 136.588C138.192 136.466 138.021 136.392 137.839 136.378L137.881 135.799C137.892 135.732 137.892 135.664 137.881 135.597C137.863 135.515 137.811 135.443 137.74 135.398C137.668 135.353 137.581 135.338 137.498 135.357C137.415 135.376 137.344 135.427 137.298 135.499C137.253 135.571 137.239 135.658 137.258 135.74C137.147 135.454 136.97 135.197 136.742 134.992C136.516 134.837 136.237 134.779 135.967 134.829C135.698 134.878 135.458 135.032 135.301 135.257C135.162 135.494 135.113 135.773 135.165 136.043C135.217 136.313 135.366 136.555 135.583 136.722C135.463 136.687 135.335 136.696 135.221 136.746C135.107 136.797 135.014 136.886 134.959 136.998C134.355 138.083 135.16 138.646 136.078 138.809C137.074 138.968 137.831 139.196 138.383 138.101Z" fill="#FFE9B3"/>
<path d="M158.509 99.6608C158.693 99.3444 158.764 98.9745 158.71 98.6123C158.678 98.4332 158.588 98.2697 158.453 98.1476C158.318 98.0256 158.147 97.9518 157.965 97.9381L158.007 97.3585C158.018 97.2918 158.018 97.2239 158.007 97.1572C157.988 97.0745 157.937 97.0026 157.866 96.9575C157.794 96.9124 157.707 96.8977 157.624 96.9167C157.541 96.9356 157.469 96.9867 157.424 97.0586C157.379 97.1305 157.365 97.2174 157.384 97.3001C157.273 97.0136 157.096 96.7571 156.868 96.5514C156.641 96.3972 156.363 96.3386 156.093 96.3884C155.824 96.4381 155.584 96.5921 155.427 96.8171C155.288 97.0537 155.239 97.3331 155.291 97.6029C155.343 97.8728 155.492 98.1143 155.709 98.2822C155.589 98.2473 155.461 98.2557 155.347 98.3062C155.233 98.3566 155.14 98.4458 155.085 98.558C154.481 99.6427 155.286 100.206 156.204 100.369C157.2 100.528 157.957 100.756 158.509 99.6608Z" fill="#FFE9B3"/>
<path d="M162.294 99.2182C162.629 99.07 162.902 98.8123 163.071 98.4876C163.151 98.3248 163.175 98.1399 163.139 97.962C163.102 97.7842 163.008 97.6235 162.87 97.5055L163.242 97.0587C163.29 97.0076 163.329 96.9491 163.359 96.8856C163.392 96.8074 163.393 96.7191 163.361 96.6403C163.33 96.5614 163.268 96.4983 163.19 96.465C163.111 96.4316 163.023 96.4307 162.944 96.4624C162.865 96.4941 162.802 96.5558 162.769 96.634C162.848 96.3374 162.855 96.0264 162.791 95.7263C162.698 95.4681 162.506 95.2571 162.259 95.1392C162.011 95.0212 161.726 95.0059 161.467 95.0964C161.215 95.2059 161.012 95.4037 160.896 95.6524C160.78 95.9011 160.759 96.1836 160.837 96.4468C160.761 96.3484 160.652 96.28 160.53 96.2535C160.408 96.227 160.281 96.2441 160.171 96.3019C159.048 96.8272 159.366 97.749 160.018 98.4212C160.722 99.1558 161.201 99.7817 162.294 99.2182Z" fill="#FFE9B3"/>
<path d="M118.662 100.249C118.343 100.069 117.972 100.003 117.611 100.061C117.433 100.095 117.27 100.187 117.15 100.323C117.029 100.459 116.957 100.631 116.945 100.812L116.365 100.778C116.299 100.768 116.231 100.768 116.164 100.778C116.085 100.803 116.019 100.856 115.977 100.927C115.935 100.998 115.92 101.082 115.937 101.162C115.958 101.242 116.009 101.311 116.078 101.355C116.148 101.4 116.232 101.416 116.313 101.402C116.028 101.516 115.773 101.695 115.57 101.925C115.419 102.154 115.364 102.432 115.416 102.701C115.469 102.97 115.626 103.208 115.852 103.362C116.09 103.499 116.37 103.545 116.639 103.49C116.908 103.436 117.147 103.285 117.313 103.066C117.279 103.186 117.289 103.314 117.341 103.428C117.392 103.541 117.482 103.633 117.595 103.686C118.686 104.276 119.241 103.485 119.39 102.547C119.545 101.549 119.763 100.792 118.662 100.249Z" fill="#FFE9B3"/>
<path opacity="0.15" d="M118.662 100.249C118.343 100.069 117.972 100.003 117.611 100.061C117.433 100.095 117.27 100.187 117.15 100.323C117.029 100.459 116.957 100.631 116.945 100.812L116.365 100.778C116.299 100.768 116.231 100.768 116.164 100.778C116.085 100.803 116.019 100.856 115.977 100.927C115.935 100.998 115.92 101.082 115.937 101.162C115.958 101.242 116.009 101.311 116.078 101.355C116.148 101.4 116.232 101.416 116.313 101.402C116.028 101.516 115.773 101.695 115.57 101.925C115.419 102.154 115.364 102.432 115.416 102.701C115.469 102.97 115.626 103.208 115.852 103.362C116.09 103.499 116.37 103.545 116.639 103.49C116.908 103.436 117.147 103.285 117.313 103.066C117.279 103.186 117.289 103.314 117.341 103.428C117.392 103.541 117.482 103.633 117.595 103.686C118.686 104.276 119.241 103.485 119.39 102.547C119.545 101.549 119.763 100.792 118.662 100.249Z" fill="black"/>
<path d="M136.582 115.22C136.643 114.86 136.582 114.489 136.408 114.168C136.317 114.01 136.176 113.887 136.007 113.819C135.838 113.751 135.652 113.741 135.477 113.791L135.316 113.232C135.3 113.161 135.273 113.093 135.235 113.03C135.189 112.959 135.116 112.909 135.033 112.892C134.949 112.874 134.863 112.89 134.791 112.937C134.72 112.983 134.67 113.056 134.653 113.139C134.635 113.223 134.651 113.309 134.698 113.381C134.496 113.149 134.242 112.968 133.957 112.853C133.691 112.787 133.409 112.828 133.173 112.968C132.937 113.108 132.765 113.335 132.695 113.6C132.646 113.87 132.696 114.149 132.838 114.384C132.98 114.62 133.202 114.795 133.464 114.878C133.34 114.886 133.222 114.938 133.132 115.025C133.042 115.111 132.986 115.227 132.973 115.351C132.772 116.577 133.722 116.832 134.645 116.663C135.652 116.48 136.437 116.428 136.582 115.22Z" fill="#FFE9B3"/>
<path opacity="0.15" d="M136.582 115.22C136.643 114.86 136.582 114.489 136.408 114.168C136.317 114.01 136.176 113.887 136.007 113.819C135.838 113.751 135.652 113.741 135.477 113.791L135.316 113.232C135.3 113.161 135.273 113.093 135.235 113.03C135.189 112.959 135.116 112.909 135.033 112.892C134.949 112.874 134.863 112.89 134.791 112.937C134.72 112.983 134.67 113.056 134.653 113.139C134.635 113.223 134.651 113.309 134.698 113.381C134.496 113.149 134.242 112.968 133.957 112.853C133.691 112.787 133.409 112.828 133.173 112.968C132.937 113.108 132.765 113.335 132.695 113.6C132.646 113.87 132.696 114.149 132.838 114.384C132.98 114.62 133.202 114.795 133.464 114.878C133.34 114.886 133.222 114.938 133.132 115.025C133.042 115.111 132.986 115.227 132.973 115.351C132.772 116.577 133.722 116.832 134.645 116.663C135.652 116.48 136.437 116.428 136.582 115.22Z" fill="black"/>
<path d="M160.732 96.9057C160.794 96.5454 160.733 96.1747 160.559 95.8531C160.468 95.6956 160.327 95.573 160.158 95.5048C159.989 95.4366 159.803 95.4267 159.628 95.4768L159.467 94.9173C159.451 94.8463 159.423 94.7784 159.386 94.716C159.363 94.6808 159.333 94.6503 159.299 94.6265C159.264 94.6027 159.225 94.586 159.184 94.5773C159.142 94.5686 159.1 94.5682 159.058 94.5759C159.017 94.5836 158.978 94.5995 158.942 94.6225C158.907 94.6455 158.877 94.6752 158.853 94.7099C158.829 94.7447 158.812 94.7837 158.804 94.825C158.795 94.8662 158.794 94.9087 158.802 94.9501C158.81 94.9915 158.826 95.0309 158.849 95.0662C158.647 94.8344 158.393 94.6537 158.108 94.5389C157.842 94.4727 157.56 94.5139 157.324 94.6536C157.088 94.7934 156.916 95.0204 156.846 95.2856C156.797 95.5557 156.847 95.8346 156.989 96.0699C157.13 96.3053 157.353 96.4808 157.615 96.5636C157.49 96.5719 157.373 96.6239 157.283 96.7105C157.193 96.797 157.137 96.9125 157.124 97.0365C156.923 98.2622 157.873 98.5178 158.796 98.3487C159.803 98.1656 160.588 98.1133 160.732 96.9057Z" fill="#FFE9B3"/>
<path opacity="0.15" d="M160.732 96.9057C160.794 96.5454 160.733 96.1747 160.559 95.8531C160.468 95.6956 160.327 95.573 160.158 95.5048C159.989 95.4366 159.803 95.4267 159.628 95.4768L159.467 94.9173C159.451 94.8463 159.423 94.7784 159.386 94.716C159.363 94.6808 159.333 94.6503 159.299 94.6265C159.264 94.6027 159.225 94.586 159.184 94.5773C159.142 94.5686 159.1 94.5682 159.058 94.5759C159.017 94.5836 158.978 94.5995 158.942 94.6225C158.907 94.6455 158.877 94.6752 158.853 94.7099C158.829 94.7447 158.812 94.7837 158.804 94.825C158.795 94.8662 158.794 94.9087 158.802 94.9501C158.81 94.9915 158.826 95.0309 158.849 95.0662C158.647 94.8344 158.393 94.6537 158.108 94.5389C157.842 94.4727 157.56 94.5139 157.324 94.6536C157.088 94.7934 156.916 95.0204 156.846 95.2856C156.797 95.5557 156.847 95.8346 156.989 96.0699C157.13 96.3053 157.353 96.4808 157.615 96.5636C157.49 96.5719 157.373 96.6239 157.283 96.7105C157.193 96.797 157.137 96.9125 157.124 97.0365C156.923 98.2622 157.873 98.5178 158.796 98.3487C159.803 98.1656 160.588 98.1133 160.732 96.9057Z" fill="black"/>
</g>
<defs>
<clipPath id="clip0_181_2471">
<rect width="205.686" height="160" fill="white" transform="translate(36.7998)"/>
</clipPath>
</defs>
</svg>
