<svg width="16" height="16" viewBox="0 0 16 16" fill="none" xmlns="http://www.w3.org/2000/svg">
<mask id="mask0_260_3274" style="mask-type:luminance" maskUnits="userSpaceOnUse" x="0" y="0" width="16" height="16">
<path d="M16 0H0V16H16V0Z" fill="white"/>
</mask>
<g mask="url(#mask0_260_3274)">
<path d="M9.334 1.00001H6.668C6.4957 1.00669 6.33268 1.07983 6.21314 1.20409C6.09359 1.32835 6.02682 1.49408 6.02682 1.66651C6.02682 1.83894 6.09359 2.00467 6.21314 2.12893C6.33268 2.2532 6.4957 2.32634 6.668 2.33301H9.334C9.4237 2.33649 9.51317 2.32182 9.59707 2.28989C9.68096 2.25796 9.75755 2.20943 9.82224 2.14719C9.88693 2.08496 9.93839 2.01031 9.97355 1.92772C10.0087 1.84512 10.0268 1.75628 10.0268 1.66651C10.0268 1.57675 10.0087 1.4879 9.97355 1.40531C9.93839 1.32271 9.88693 1.24806 9.82224 1.18583C9.75755 1.1236 9.68096 1.07506 9.59707 1.04313C9.51317 1.0112 9.4237 0.996537 9.334 1.00001ZM8.001 9.66601C8.17774 9.66548 8.34708 9.59504 8.47206 9.47007C8.59703 9.3451 8.66747 9.17575 8.668 8.99901V6.33301C8.668 6.15611 8.59773 5.98646 8.47264 5.86137C8.34755 5.73628 8.1779 5.66601 8.001 5.66601C7.8241 5.66601 7.65445 5.73628 7.52936 5.86137C7.40427 5.98646 7.334 6.15611 7.334 6.33301V9.00001C7.33479 9.17658 7.40535 9.34567 7.53029 9.47042C7.65524 9.59518 7.82443 9.66549 8.001 9.66601ZM12.688 5.25901L13.188 4.75901C13.3112 4.635 13.3803 4.4673 13.3803 4.29251C13.3803 4.11772 13.3112 3.95003 13.188 3.82601L13.181 3.81901C13.057 3.69584 12.8893 3.62672 12.7145 3.62672C12.5397 3.62672 12.372 3.69584 12.248 3.81901L11.748 4.31901C10.686 3.4648 9.36389 2.99939 8.001 3.00001C6.44211 3.01614 4.94926 3.63173 3.83211 4.71909C2.71495 5.80646 2.05924 7.28213 2.001 8.84001C1.97475 9.80491 2.18169 10.7619 2.60424 11.6298C3.0268 12.4976 3.6525 13.2507 4.42824 13.8251C5.20398 14.3995 6.10685 14.7783 7.06023 14.9293C8.01361 15.0803 8.98934 14.999 9.90461 14.6924C10.8199 14.3858 11.6477 13.8629 12.3177 13.1681C12.9878 12.4733 13.4803 11.6271 13.7535 10.7013C14.0266 9.77551 14.0724 8.79747 13.887 7.8502C13.7015 6.90293 13.2902 6.0134 12.688 5.25901ZM8.001 13.666C7.07795 13.666 6.17564 13.3923 5.40815 12.8795C4.64067 12.3667 4.04249 11.6378 3.68925 10.785C3.33602 9.93221 3.2436 8.99383 3.42367 8.08853C3.60375 7.18322 4.04824 6.35164 4.70093 5.69894C5.35362 5.04625 6.1852 4.60176 7.09051 4.42169C7.99582 4.24161 8.9342 4.33403 9.78698 4.68727C10.6398 5.0405 11.3687 5.63868 11.8815 6.40617C12.3943 7.17365 12.668 8.07597 12.668 8.99901C12.6685 9.61204 12.5482 10.2192 12.3138 10.7856C12.0795 11.3521 11.7357 11.8668 11.3022 12.3003C10.8688 12.7337 10.3541 13.0775 9.7876 13.3118C9.22114 13.5462 8.61403 13.6665 8.001 13.666Z" fill="#828282"/>
</g>
</svg>
