<?xml version="1.0" encoding="utf-8"?>
<!-- Generator: Adobe Illustrator 26.5.0, SVG Export Plug-In . SVG Version: 6.00 Build 0)  -->
<svg version="1.1" id="レイヤー_1" xmlns="http://www.w3.org/2000/svg" xmlns:xlink="http://www.w3.org/1999/xlink" x="0px"
	 y="0px" viewBox="0 0 18.3 24" style="enable-background:new 0 0 18.3 24;" xml:space="preserve">
<style type="text/css">
	.st0{fill:#FFFFFF;}
</style>
<g>
	<path class="st0" d="M5.4,17c0-0.9,0-3,0.2-3.6c0.2-0.8,1.1-1.7,1.8-2L12.2,9c0.9-0.4,1.1-0.9,1.1-1.9c0-2-1-2.1-5.1-2.1
		C5.4,5,5,5.5,5,8v0.4H0C0,1.7,0.7,0,9.2,0c7.1,0,9.1,1.6,9.1,6.5c0,2.1,0,4.8-3,6.1l-3.6,1.6c-1.2,0.5-1.2,1-1.2,2.9H5.4z M5.3,24
		v-5.1h5.1V24H5.3z"/>
</g>
</svg>
