<svg width="280" height="160" viewBox="0 0 280 160" fill="none" xmlns="http://www.w3.org/2000/svg">
<mask id="mask0_181_2781" style="mask-type:alpha" maskUnits="userSpaceOnUse" x="0" y="0" width="280" height="160">
<rect width="280" height="160" fill="#D9D9D9"/>
</mask>
<g mask="url(#mask0_181_2781)">
<path d="M154.31 78.2351C158.946 78.2351 162.704 74.477 162.704 69.8411C162.704 65.2052 158.946 61.447 154.31 61.447C149.674 61.447 145.916 65.2052 145.916 69.8411C145.916 74.477 149.674 78.2351 154.31 78.2351Z" fill="#E6E6E6"/>
<path d="M174.882 80.6278L166.11 71.8559C166.782 70.81 167.238 69.6398 167.45 68.4147C167.662 67.1895 167.626 65.9343 167.344 64.7234C167.061 63.5125 166.539 62.3705 165.808 61.3651C165.076 60.3597 164.15 59.5114 163.085 58.8704C161.079 57.6719 158.696 57.2706 156.408 57.7459C154.12 58.2212 152.094 59.5383 150.731 61.4366C149.477 63.1949 148.875 65.3352 149.028 67.4895C149.181 69.6437 150.079 71.6774 151.569 73.2409C153.059 74.8043 155.047 75.7999 157.192 76.0564C159.336 76.3129 161.503 75.8143 163.32 74.6463L172.092 83.4182C172.462 83.7879 172.964 83.9955 173.487 83.9954C174.01 83.9952 174.511 83.7873 174.881 83.4174C175.251 83.0475 175.459 82.5459 175.459 82.0228C175.459 81.4997 175.252 80.9979 174.882 80.6278ZM162.992 71.5284C161.905 72.6153 160.475 73.2918 158.945 73.4425C157.416 73.5931 155.881 73.2088 154.603 72.3548C153.325 71.5008 152.382 70.2301 151.936 68.7592C151.49 67.2882 151.568 65.7081 152.156 64.2879C152.744 62.8678 153.806 61.6956 155.162 60.971C156.518 60.2464 158.083 60.0142 159.59 60.3141C161.098 60.614 162.455 61.4273 163.43 62.6155C164.405 63.8037 164.938 65.2933 164.938 66.8305C164.939 67.7031 164.768 68.5674 164.434 69.3736C164.1 70.1798 163.61 70.9121 162.992 71.5284Z" fill="#3F3D56"/>
<path d="M238.469 93.567C260.902 118.376 195.872 154.129 143.326 154.129C90.7807 154.129 54.4272 126.426 48.1839 93.567C33.046 13.8941 177.162 -36.7455 143.326 33.0054C94.0067 134.676 220.802 74.0297 238.469 93.567Z" fill="#E6E6E6"/>
<path d="M228.404 99.4383C250.837 124.247 185.807 160 133.261 160C80.7152 160 44.3618 132.298 38.1184 99.4383C22.9806 19.7655 167.097 -30.8742 133.261 38.8768C83.9413 140.547 210.737 79.901 228.404 99.4383Z" fill="#3F3D56"/>
<path d="M68.369 41.2732C52.6278 40.5801 40.4228 37.1846 40.5831 33.543C40.6792 31.3597 45.1342 29.604 52.8055 28.7264C52.833 28.723 52.8608 28.7252 52.8875 28.7327C52.9141 28.7401 52.939 28.7528 52.9607 28.7699C52.9824 28.7871 53.0005 28.8083 53.0139 28.8325C53.0274 28.8567 53.0359 28.8832 53.0391 28.9107C53.0422 28.9382 53.0399 28.966 53.0323 28.9926C53.0246 29.0192 53.0118 29.044 52.9945 29.0656C52.9772 29.0872 52.9558 29.1051 52.9316 29.1184C52.9073 29.1317 52.8807 29.1401 52.8532 29.143C45.6268 29.9699 41.0857 31.6629 41.0021 33.5614C40.8571 36.8546 53.398 40.1943 68.3875 40.8542C83.3769 41.5142 96.1629 39.2897 96.3079 35.9966C96.3918 34.0901 91.9888 31.9986 84.8171 30.5385C84.79 30.5331 84.7643 30.5224 84.7414 30.507C84.7185 30.4916 84.6989 30.4719 84.6836 30.4489C84.6684 30.4259 84.6578 30.4001 84.6525 30.373C84.6472 30.346 84.6473 30.3181 84.6528 30.2911C84.6583 30.264 84.6691 30.2384 84.6846 30.2155C84.7 30.1926 84.7198 30.173 84.7429 30.1579C84.7659 30.1427 84.7917 30.1322 84.8188 30.127C84.8459 30.1218 84.8738 30.122 84.9008 30.1275C92.5129 31.6773 96.8234 33.8232 96.7269 36.015C96.5665 39.6567 84.1103 41.9663 68.369 41.2732Z" fill="#46b4bc"/>
<path d="M54.3887 41.8831C55.7055 44.3846 57.6562 46.4965 60.0456 48.0074C62.435 49.5183 65.1792 50.3753 68.0038 50.4925C70.8284 50.6098 73.6342 49.9832 76.1406 48.6755C78.6469 47.3678 80.7659 45.4248 82.2856 43.0409C72.9724 43.1665 63.6594 42.7799 54.3887 41.8831Z" fill="#46b4bc"/>
<path d="M84.0269 38.6301C84.8194 36.253 85.0477 33.724 84.6939 31.2434C84.34 28.7627 83.4136 26.3985 81.988 24.3378C80.5624 22.2771 78.6768 20.5764 76.4803 19.3705C74.2838 18.1646 71.8368 17.4864 69.3329 17.3897C66.829 17.293 64.3369 17.7804 62.054 18.8134C59.771 19.8464 57.7598 21.3965 56.1796 23.3411C54.5993 25.2858 53.4934 27.5715 52.9492 30.0175C52.4051 32.4635 52.4378 35.0025 53.0446 37.4337C63.2768 39.1707 73.6912 39.5729 84.0269 38.6301Z" fill="#46b4bc"/>
<path d="M72.4039 27.8058C73.4462 27.8058 74.2911 26.9608 74.2911 25.9185C74.2911 24.8762 73.4462 24.0312 72.4039 24.0312C71.3616 24.0312 70.5166 24.8762 70.5166 25.9185C70.5166 26.9608 71.3616 27.8058 72.4039 27.8058Z" fill="white"/>
<path d="M62.6908 35.1429C64.428 35.1429 65.8362 33.7346 65.8362 31.9975C65.8362 30.2603 64.428 28.8521 62.6908 28.8521C60.9537 28.8521 59.5454 30.2603 59.5454 31.9975C59.5454 33.7346 60.9537 35.1429 62.6908 35.1429Z" fill="white"/>
<path d="M110.163 32.0617C111.321 32.0617 112.26 31.1229 112.26 29.9648C112.26 28.8067 111.321 27.8679 110.163 27.8679C109.005 27.8679 108.066 28.8067 108.066 29.9648C108.066 31.1229 109.005 32.0617 110.163 32.0617Z" fill="#46b4bc"/>
<path d="M62.7723 96.2285C63.4672 96.2285 64.0305 95.6652 64.0305 94.9703C64.0305 94.2755 63.4672 93.7122 62.7723 93.7122C62.0775 93.7122 61.5142 94.2755 61.5142 94.9703C61.5142 95.6652 62.0775 96.2285 62.7723 96.2285Z" fill="#E6E6E6"/>
<path d="M150.845 139.426C151.539 139.426 152.103 138.862 152.103 138.167C152.103 137.472 151.539 136.909 150.845 136.909C150.15 136.909 149.586 137.472 149.586 138.167C149.586 138.862 150.15 139.426 150.845 139.426Z" fill="#E6E6E6"/>
<path d="M68.8537 71.9039C69.2011 71.9039 69.4828 71.6223 69.4828 71.2748C69.4828 70.9274 69.2011 70.6458 68.8537 70.6458C68.5063 70.6458 68.2246 70.9274 68.2246 71.2748C68.2246 71.6223 68.5063 71.9039 68.8537 71.9039Z" fill="#E6E6E6"/>
<path d="M120.858 118.875C121.206 118.875 121.487 118.594 121.487 118.246C121.487 117.899 121.206 117.617 120.858 117.617C120.511 117.617 120.229 117.899 120.229 118.246C120.229 118.594 120.511 118.875 120.858 118.875Z" fill="#E6E6E6"/>
<path d="M215.43 112.794C215.777 112.794 216.059 112.513 216.059 112.165C216.059 111.818 215.777 111.536 215.43 111.536C215.082 111.536 214.801 111.818 214.801 112.165C214.801 112.513 215.082 112.794 215.43 112.794Z" fill="#E6E6E6"/>
<path d="M185.863 131.457C186.211 131.457 186.493 131.176 186.493 130.828C186.493 130.481 186.211 130.199 185.863 130.199C185.516 130.199 185.234 130.481 185.234 130.828C185.234 131.176 185.516 131.457 185.863 131.457Z" fill="#E6E6E6"/>
<path d="M155.038 108.81C155.386 108.81 155.667 108.529 155.667 108.181C155.667 107.834 155.386 107.552 155.038 107.552C154.691 107.552 154.409 107.834 154.409 108.181C154.409 108.529 154.691 108.81 155.038 108.81Z" fill="#E6E6E6"/>
<path d="M115.196 46.7406C115.543 46.7406 115.825 46.459 115.825 46.1115C115.825 45.7641 115.543 45.4824 115.196 45.4824C114.849 45.4824 114.567 45.7641 114.567 46.1115C114.567 46.459 114.849 46.7406 115.196 46.7406Z" fill="#E6E6E6"/>
<path d="M120.229 15.7057C120.576 15.7057 120.858 15.424 120.858 15.0766C120.858 14.7292 120.576 14.4475 120.229 14.4475C119.881 14.4475 119.6 14.7292 119.6 15.0766C119.6 15.424 119.881 15.7057 120.229 15.7057Z" fill="#E6E6E6"/>
<path d="M117.293 146.345C117.641 146.345 117.922 146.064 117.922 145.716C117.922 145.369 117.641 145.087 117.293 145.087C116.946 145.087 116.664 145.369 116.664 145.716C116.664 146.064 116.946 146.345 117.293 146.345Z" fill="#E6E6E6"/>
<path d="M86.2585 133.135C86.6059 133.135 86.8876 132.853 86.8876 132.506C86.8876 132.158 86.6059 131.876 86.2585 131.876C85.911 131.876 85.6294 132.158 85.6294 132.506C85.6294 132.853 85.911 133.135 86.2585 133.135Z" fill="#E6E6E6"/>
<path d="M184.605 110.488C184.953 110.488 185.234 110.206 185.234 109.859C185.234 109.511 184.953 109.229 184.605 109.229C184.258 109.229 183.976 109.511 183.976 109.859C183.976 110.206 184.258 110.488 184.605 110.488Z" fill="#E6E6E6"/>
<path d="M68.1133 49.0265C69.1556 49.0265 70.0006 48.1815 70.0006 47.1392C70.0006 46.0969 69.1556 45.252 68.1133 45.252C67.071 45.252 66.2261 46.0969 66.2261 47.1392C66.2261 48.1815 67.071 49.0265 68.1133 49.0265Z" fill="white"/>
<path d="M110.792 76.0979C110.792 81.7345 102.078 94.8689 99.5308 98.5869C99.454 98.6993 99.3509 98.7913 99.2305 98.8548C99.11 98.9183 98.976 98.9516 98.8398 98.9516C98.7036 98.9516 98.5696 98.9183 98.4491 98.8548C98.3287 98.7913 98.2256 98.6993 98.1488 98.5869C95.602 94.8689 86.8872 81.7345 86.8872 76.0979C86.8872 74.5282 87.1964 72.974 87.797 71.5238C88.3977 70.0736 89.2781 68.756 90.388 67.6461C91.4979 66.5362 92.8156 65.6558 94.2657 65.0551C95.7159 64.4544 97.2702 64.1453 98.8398 64.1453C100.409 64.1453 101.964 64.4544 103.414 65.0551C104.864 65.6558 106.182 66.5362 107.292 67.6461C108.401 68.756 109.282 70.0736 109.883 71.5238C110.483 72.974 110.792 74.5282 110.792 76.0979Z" fill="white"/>
<path d="M98.8399 81.3403C102.198 81.3403 104.921 78.6176 104.921 75.2591C104.921 71.9006 102.198 69.178 98.8399 69.178C95.4814 69.178 92.7588 71.9006 92.7588 75.2591C92.7588 78.6176 95.4814 81.3403 98.8399 81.3403Z" fill="#46b4bc"/>
<path d="M98.7352 105.455C102.615 105.455 105.76 104.845 105.76 104.092C105.76 103.339 102.615 102.729 98.7352 102.729C94.8555 102.729 91.7104 103.339 91.7104 104.092C91.7104 104.845 94.8555 105.455 98.7352 105.455Z" fill="white"/>
<path d="M208.29 66.6659C208.237 66.7691 208.192 66.8762 208.156 66.9865L198.136 69.7705L196.33 68.0035L193.307 70.38L196.2 73.8188C196.433 74.0966 196.751 74.2911 197.104 74.3731C197.458 74.4552 197.829 74.4202 198.161 74.2736L208.985 69.4958C209.352 69.7507 209.788 69.8877 210.235 69.8887C210.682 69.8897 211.119 69.7545 211.487 69.5013C211.855 69.248 212.138 68.8886 212.297 68.4709C212.456 68.0532 212.484 67.5969 212.377 67.1628C212.271 66.7287 212.035 66.3373 211.7 66.0407C211.366 65.7441 210.949 65.5563 210.505 65.5024C210.062 65.4485 209.612 65.5309 209.216 65.7388C208.82 65.9466 208.497 66.27 208.29 66.6659Z" fill="#FFB8B8"/>
<path d="M197.782 69.9338L194.022 72.8611C193.914 72.9444 193.791 73.0036 193.659 73.0348C193.527 73.0659 193.39 73.0683 193.257 73.0417C193.124 73.0151 192.998 72.9601 192.888 72.8806C192.778 72.801 192.687 72.6987 192.62 72.5807L190.283 68.4439C189.86 67.894 189.672 67.1988 189.761 66.5106C189.85 65.8225 190.208 65.1976 190.756 64.773C191.305 64.3484 192 64.1588 192.688 64.2458C193.377 64.3327 194.003 64.6891 194.429 65.2368L197.855 68.5068C197.953 68.6004 198.029 68.7141 198.079 68.8401C198.13 68.9661 198.152 69.1014 198.145 69.2368C198.138 69.3722 198.102 69.5046 198.04 69.6249C197.977 69.7452 197.889 69.8505 197.782 69.9338Z" fill="#46b4bc"/>
<path d="M209.25 65.2815L213.064 66.9974C213.224 67.0693 213.348 67.2017 213.411 67.3654C213.473 67.5291 213.467 67.7109 213.395 67.8706L212.944 68.8742C212.997 68.8983 213.038 68.9425 213.059 68.997C213.08 69.0515 213.078 69.112 213.054 69.1653L212.874 69.5667C212.85 69.6199 212.805 69.6613 212.751 69.682C212.696 69.7027 212.636 69.7009 212.583 69.6772L212.402 70.0786C212.455 70.1027 212.497 70.1469 212.517 70.2014C212.538 70.2559 212.536 70.3164 212.512 70.3697L212.332 70.7712C212.308 70.8243 212.264 70.8657 212.209 70.8864C212.155 70.9071 212.094 70.9054 212.041 70.8816L209.602 76.3014C209.531 76.4611 209.398 76.5857 209.234 76.6478C209.071 76.71 208.889 76.7045 208.729 76.6327L204.915 74.9167C204.756 74.8449 204.631 74.7125 204.569 74.5488C204.507 74.385 204.512 74.2033 204.584 74.0436L208.377 65.6128C208.449 65.4531 208.581 65.3285 208.745 65.2663C208.909 65.2042 209.091 65.2097 209.25 65.2815Z" fill="#3F3D56"/>
<path d="M205.608 74.3826L208.668 75.7605C208.821 75.829 208.995 75.8342 209.152 75.7748C209.309 75.7154 209.437 75.5963 209.506 75.4435L210.92 72.3003L211.41 71.2107L212.689 68.3668C212.758 68.2138 212.763 68.04 212.703 67.8833C212.644 67.7266 212.525 67.5997 212.372 67.5304L211.41 67.0968L209.31 66.1525C209.157 66.084 208.983 66.0792 208.826 66.139C208.669 66.1989 208.543 66.3185 208.474 66.4716L207.237 69.2209L205.828 72.3509L205.291 73.5461C205.223 73.6991 205.218 73.873 205.277 74.0298C205.336 74.1866 205.455 74.3134 205.608 74.3826Z" fill="#F2F2F2"/>
<path d="M199.215 113.328L201.786 113.328L203.009 103.412L199.214 103.412L199.215 113.328Z" fill="#FFB8B8"/>
<path d="M198.559 112.489L203.622 112.489C204.046 112.489 204.465 112.572 204.857 112.734C205.248 112.896 205.604 113.134 205.904 113.433C206.203 113.733 206.441 114.089 206.603 114.48C206.765 114.872 206.849 115.291 206.849 115.715V115.82L198.559 115.82L198.559 112.489Z" fill="#2F2E41"/>
<path d="M205.925 112.699L208.496 112.699L209.719 102.783L205.925 102.783L205.925 112.699Z" fill="#FFB8B8"/>
<path d="M205.27 111.86L210.332 111.859C210.756 111.859 211.176 111.943 211.567 112.105C211.959 112.267 212.314 112.505 212.614 112.804C212.914 113.104 213.151 113.46 213.313 113.851C213.476 114.243 213.559 114.662 213.559 115.086V115.191L205.27 115.191L205.27 111.86Z" fill="#2F2E41"/>
<path d="M187.683 90.0592C188.231 91.6829 189.27 93.0961 190.656 94.1033C192.043 95.1105 193.708 95.6619 195.421 95.6811L195.551 95.6832C196.879 95.721 198.437 95.2932 199.965 94.6788C202.985 93.4647 205.885 91.5208 206.655 90.9861L205.35 103.524L204.822 108.607C204.808 108.738 204.823 108.871 204.864 108.997C204.905 109.122 204.972 109.238 205.06 109.336C205.149 109.434 205.257 109.513 205.378 109.567C205.498 109.621 205.629 109.649 205.761 109.649H209.018C209.227 109.649 209.43 109.58 209.595 109.452C209.76 109.325 209.879 109.146 209.932 108.944L215.309 88.4677C215.47 87.8548 215.483 87.2123 215.346 86.5933C215.21 85.9744 214.928 85.3969 214.524 84.9085C214.12 84.4202 213.606 84.0351 213.024 83.785C212.441 83.535 211.808 83.4272 211.176 83.4706L200.007 84.236L200.787 81.1158L190.818 80.4531L190.789 80.4741C190.55 80.6481 190.317 80.8306 190.095 81.0214C189.539 81.4914 189.047 82.0313 188.629 82.6277C187.883 83.6977 187.407 84.9328 187.242 86.2271C187.077 87.5214 187.229 88.8363 187.683 90.0592Z" fill="#2F2E41"/>
<path d="M187.683 90.0593C188.231 91.6829 189.27 93.0961 190.656 94.1033C192.043 95.1105 193.708 95.6619 195.421 95.6812C197.06 94.8519 198.641 93.9139 200.154 92.8734L199.965 94.6788L198.321 110.494C198.308 110.626 198.322 110.758 198.363 110.884C198.404 111.01 198.471 111.125 198.56 111.223C198.648 111.322 198.757 111.4 198.877 111.454C198.998 111.508 199.129 111.536 199.261 111.536H202.517C202.726 111.536 202.929 111.467 203.094 111.34C203.26 111.212 203.378 111.034 203.431 110.832L205.35 103.524L208.808 90.3549C208.969 89.742 208.982 89.0995 208.846 88.4806C208.71 87.8617 208.428 87.2842 208.024 86.7958C207.62 86.3075 207.105 85.9223 206.523 85.6723C205.941 85.4222 205.307 85.3145 204.675 85.3579L193.507 86.1233L194.287 83.003L188.629 82.6277C187.883 83.6977 187.407 84.9328 187.242 86.2271C187.077 87.5214 187.229 88.8363 187.683 90.0593Z" fill="#2F2E41"/>
<path d="M190.08 81.7448L190.005 81.7358L188.266 73.1834C188.251 73.1091 186.829 65.7322 191.188 61.8757L191.264 61.3479C191.284 61.2128 191.332 61.0836 191.406 60.969C191.481 60.8545 191.579 60.7575 191.694 60.6846C191.81 60.6116 191.939 60.5646 192.075 60.5467C192.21 60.5288 192.347 60.5405 192.478 60.5809L196.585 61.8547C196.817 61.9264 197.013 62.0851 197.131 62.2979C197.249 62.5106 197.28 62.7607 197.218 62.9959L196.818 64.5144C197.372 65.1645 203.888 73.0096 201.618 79.0537L200.602 83.0278L190.08 81.7448Z" fill="#46b4bc"/>
<path d="M207.133 75.07C207.035 75.1318 206.942 75.2012 206.855 75.2777L196.811 72.5814L196.154 70.1418L192.343 70.6516L193.085 75.0834C193.145 75.4414 193.32 75.7703 193.583 76.0207C193.846 76.2711 194.183 76.4295 194.543 76.4721L206.293 77.86C206.479 78.2662 206.785 78.6059 207.17 78.834C207.554 79.0621 207.999 79.1677 208.445 79.1369C208.891 79.106 209.317 78.9401 209.666 78.6613C210.015 78.3824 210.272 78.0038 210.401 77.5758C210.529 77.1478 210.525 76.6907 210.388 76.2653C210.251 75.8399 209.987 75.4663 209.632 75.1943C209.278 74.9222 208.849 74.7647 208.402 74.7425C207.956 74.7203 207.513 74.8345 207.133 75.07Z" fill="#FFB8B8"/>
<path d="M196.424 72.5426L191.697 73.1514C191.562 73.1688 191.426 73.1569 191.296 73.1167C191.167 73.0764 191.048 73.0087 190.947 72.9182C190.846 72.8277 190.765 72.7165 190.711 72.5922C190.657 72.4678 190.63 72.3333 190.633 72.1977L190.723 67.4472C190.638 66.7585 190.83 66.0644 191.256 65.517C191.683 64.9695 192.309 64.6135 192.997 64.5269C193.685 64.4402 194.38 64.6301 194.929 65.0549C195.477 65.4797 195.835 66.1047 195.923 66.7928L197.211 71.3504C197.248 71.4809 197.256 71.6178 197.236 71.7518C197.215 71.8857 197.165 72.0137 197.091 72.1268C197.016 72.24 196.918 72.3357 196.803 72.4074C196.687 72.4792 196.558 72.5253 196.424 72.5426Z" fill="#46b4bc"/>
<path d="M195.093 59.42C197.938 59.42 200.244 57.1141 200.244 54.2697C200.244 51.4253 197.938 49.1194 195.093 49.1194C192.249 49.1194 189.943 51.4253 189.943 54.2697C189.943 57.1141 192.249 59.42 195.093 59.42Z" fill="#FFB8B8"/>
<path d="M194.822 54.6998L194.177 53.5256C192.956 58.5021 195.114 62.6207 195.114 62.6207L186.74 58.7202L186.82 57.3362L185.991 58.2765L184.801 57.6204L184.643 56.7228L183.745 56.9454L187.025 50.9927C190.209 45.3282 194.837 47.4909 194.837 47.4909C202.201 47.1408 201.301 54.4056 201.301 54.4056L194.822 54.6998Z" fill="#2F2E41"/>
<path d="M136.194 93.0807C137.381 92.3194 135.937 87.948 132.968 83.3169C129.999 78.6858 126.63 75.5486 125.443 76.3099C124.255 77.0711 125.699 81.4425 128.668 86.0736C131.637 90.7047 135.006 93.8419 136.194 93.0807Z" fill="#3F3D56"/>
</g>
</svg>
