<svg width="280" height="200" viewBox="0 0 280 200" fill="none" xmlns="http://www.w3.org/2000/svg">
<mask id="mask0_171_1400" style="mask-type:alpha" maskUnits="userSpaceOnUse" x="0" y="0" width="280" height="200">
<rect width="280" height="200" fill="#D9D9D9"/>
</mask>
<g mask="url(#mask0_171_1400)">
<path d="M169.566 84.1797C169.566 84.1797 170.226 93.0943 170.226 93.4245C170.226 93.7547 165.604 116.536 165.604 116.536C165.604 116.536 159 129.083 165.604 128.753C172.207 128.423 170.226 116.867 170.226 116.867L177.16 97.7167L174.188 84.1797L169.566 84.1797Z" fill="#FFB8B8"/>
<path d="M202.253 183.891L203.243 191.155L196.31 191.815L197.3 182.9L202.253 183.891Z" fill="#FFB8B8"/>
<path d="M180.461 183.891L179.471 191.155L186.404 191.815L185.414 182.9L180.461 183.891Z" fill="#FFB8B8"/>
<path d="M172.867 115.876L171.217 118.187C171.217 118.187 170.226 128.092 171.217 131.394C172.207 134.696 174.188 149.884 174.188 150.874C174.188 151.865 174.518 152.525 174.188 152.855C173.858 153.185 174.188 156.487 174.188 156.487V158.138L178.48 182.571C178.48 182.571 175.839 185.542 177.82 185.542C179.801 185.542 187.065 185.542 186.735 182.24L186.074 181.91C186.074 181.91 185.084 160.119 185.414 159.128C185.744 158.138 186.074 151.865 186.074 151.865L189.046 131.724L194.659 151.204L195.979 180.259C195.979 180.259 194.659 183.561 195.979 184.221C197.3 184.882 202.913 187.193 203.243 183.891C203.573 180.589 205.224 151.865 205.224 150.544C205.224 149.223 204.564 128.753 204.564 128.753C204.564 128.753 204.894 125.451 205.224 124.791C205.554 124.13 204.894 123.47 205.224 122.479C205.554 121.489 204.564 118.187 204.564 118.187L189.706 114.225L172.867 115.876Z" fill="#2F2E41"/>
<path d="M184.423 189.834C184.423 189.834 186.074 188.184 183.763 188.184C182.279 188.214 180.818 188.551 179.471 189.174L177.82 195.117C177.82 195.117 171.051 200.565 178.645 199.905C186.239 199.244 187.395 199.079 187.725 198.419C187.957 197.955 187.538 193.101 187.267 190.247C187.255 190.11 187.206 189.978 187.126 189.866C187.045 189.754 186.936 189.666 186.81 189.611C186.683 189.556 186.544 189.536 186.407 189.554C186.27 189.571 186.141 189.625 186.032 189.71C185.817 189.909 185.541 190.03 185.249 190.052C184.957 190.075 184.666 189.998 184.423 189.834Z" fill="#2F2E41"/>
<path d="M198.62 189.834C198.62 189.834 196.969 188.184 199.281 188.184C200.764 188.214 202.226 188.551 203.573 189.174L205.224 195.117C205.224 195.117 211.992 200.565 204.398 199.905C196.804 199.244 194.658 199.079 194.328 198.419C194.098 197.959 194.99 193.173 195.552 190.312C195.583 190.154 195.653 190.006 195.757 189.883C195.861 189.76 195.995 189.666 196.146 189.609C196.296 189.552 196.459 189.535 196.618 189.559C196.778 189.582 196.928 189.646 197.056 189.745C197.27 189.93 197.54 190.038 197.823 190.055C198.106 190.071 198.386 189.993 198.62 189.834Z" fill="#2F2E41"/>
<path d="M174.188 55.7851C174.188 55.7851 175.509 62.3885 175.509 63.379C175.509 64.3696 181.122 67.3411 181.122 67.3411L187.395 59.417C187.395 59.417 183.433 53.8041 183.433 52.4834L174.188 55.7851Z" fill="#FFB8B8"/>
<path d="M179.14 64.3695C179.14 64.3695 176.263 63.6035 175.39 62.3356C175.39 62.3356 166.264 71.3031 166.264 72.9539L173.527 85.8306C173.527 85.8306 173.527 90.453 174.188 90.7832C174.848 91.1133 174.188 90.7831 174.188 92.1038C174.188 93.4245 172.207 102.009 172.867 103.33C173.527 104.65 174.188 103.66 173.527 105.641C172.867 107.622 171.216 118.187 171.216 118.187C171.216 118.187 177.159 116.206 185.744 119.508C194.328 122.81 204.564 118.187 204.564 118.187C204.564 118.187 201.922 112.244 202.583 110.263C203.243 108.282 200.932 104.65 200.932 104.65L199.281 74.2746C199.281 74.2746 201.592 60.7376 199.941 60.0772L196.639 58.7565L186.066 57.457C186.066 57.457 183.433 64.0393 179.14 64.3695Z" fill="#3F3D56"/>
<path d="M169.566 70.6426L166.264 72.9538C166.264 72.9538 164.613 77.9063 166.264 80.2175C167.915 82.5287 168.575 85.8304 168.575 85.8304L175.179 85.1701L169.566 70.6426Z" fill="#3F3D56"/>
<path d="M153.906 4.53322H145.581C145.963 5.47187 146.11 6.49027 146.006 7.4987C145.903 8.50714 145.553 9.47466 144.987 10.316C144.422 11.1574 143.658 11.8468 142.764 12.3235C141.869 12.8002 140.871 13.0496 139.857 13.0497H103.319C102.305 13.0496 101.307 12.8002 100.412 12.3235C99.5174 11.8468 98.7537 11.1574 98.1883 10.316C97.6228 9.47466 97.273 8.50714 97.1695 7.4987C97.0661 6.49026 97.2122 5.47185 97.5951 4.5332H89.8192C86.3683 4.5332 83.0588 5.90406 80.6186 8.34421C78.1785 10.7844 76.8076 14.0939 76.8076 17.5448V182.456C76.8076 185.907 78.1785 189.216 80.6186 191.656C83.0588 194.096 86.3683 195.467 89.8192 195.467H153.906C155.615 195.467 157.307 195.131 158.885 194.477C160.464 193.823 161.898 192.865 163.107 191.656C164.315 190.448 165.273 189.014 165.927 187.435C166.581 185.856 166.918 184.164 166.918 182.456V17.5448C166.918 15.8361 166.581 14.1441 165.927 12.5655C165.273 10.9868 164.315 9.55245 163.107 8.34421C161.898 7.13597 160.464 6.17755 158.885 5.52366C157.307 4.86976 155.615 4.53321 153.906 4.53322Z" fill="white"/>
<path d="M162.369 78.2415H83.1501C82.7612 78.2411 82.3883 78.0863 82.1133 77.8113C81.8383 77.5363 81.6836 77.1634 81.6831 76.7745V57.1237C81.6836 56.7348 81.8383 56.3619 82.1133 56.0869C82.3883 55.8119 82.7612 55.6572 83.1501 55.6567H162.369C162.758 55.6572 163.131 55.8119 163.406 56.0869C163.681 56.3619 163.835 56.7348 163.836 57.1237V76.7745C163.835 77.1634 163.681 77.5363 163.406 77.8113C163.131 78.0863 162.758 78.2411 162.369 78.2415ZM83.1501 56.2435C82.9167 56.2438 82.693 56.3366 82.528 56.5016C82.363 56.6666 82.2702 56.8904 82.2699 57.1238V76.7745C82.2702 77.0079 82.363 77.2316 82.528 77.3966C82.693 77.5617 82.9167 77.6545 83.1501 77.6547H162.369C162.602 77.6545 162.826 77.5617 162.991 77.3966C163.156 77.2316 163.249 77.0079 163.249 76.7745V57.1237C163.249 56.8904 163.156 56.6666 162.991 56.5016C162.826 56.3366 162.602 56.2438 162.369 56.2435L83.1501 56.2435Z" fill="#E6E6E6"/>
<path d="M95.4592 72.1709C98.7596 72.1709 101.435 69.4954 101.435 66.1951C101.435 62.8947 98.7596 60.2192 95.4592 60.2192C92.1589 60.2192 89.4834 62.8947 89.4834 66.1951C89.4834 69.4954 92.1589 72.1709 95.4592 72.1709Z" fill="#E6E6E6"/>
<path d="M109.26 62.2109C108.997 62.2114 108.744 62.3165 108.557 62.5032C108.371 62.69 108.266 62.9431 108.266 63.2069C108.266 63.4708 108.371 63.7238 108.557 63.9106C108.744 64.0973 108.997 64.2024 109.26 64.2029H156.213C156.344 64.2031 156.474 64.1775 156.595 64.1275C156.716 64.0776 156.826 64.0043 156.919 63.9118C157.011 63.8193 157.085 63.7094 157.135 63.5884C157.185 63.4675 157.211 63.3378 157.211 63.2069C157.211 63.076 157.185 62.9463 157.135 62.8254C157.085 62.7044 157.011 62.5946 156.919 62.5021C156.826 62.4096 156.716 62.3362 156.595 62.2863C156.474 62.2363 156.344 62.2107 156.213 62.2109H109.26Z" fill="#E6E6E6"/>
<path d="M109.261 68.187C108.996 68.187 108.743 68.2919 108.556 68.4787C108.37 68.6655 108.265 68.9188 108.265 69.183C108.265 69.4471 108.37 69.7005 108.556 69.8872C108.743 70.074 108.996 70.179 109.261 70.179H129.465C129.729 70.179 129.982 70.074 130.169 69.8872C130.356 69.7005 130.461 69.4471 130.461 69.183C130.461 68.9188 130.356 68.6655 130.169 68.4787C129.982 68.2919 129.729 68.187 129.465 68.187H109.261Z" fill="#E6E6E6"/>
<path d="M162.369 141.997H83.1501C82.7612 141.996 82.3883 141.842 82.1133 141.567C81.8383 141.292 81.6836 140.919 81.6831 140.53V120.879C81.6836 120.49 81.8383 120.117 82.1133 119.842C82.3883 119.567 82.7612 119.413 83.1501 119.412H162.369C162.758 119.413 163.131 119.567 163.406 119.842C163.681 120.117 163.835 120.49 163.836 120.879V140.53C163.835 140.919 163.681 141.292 163.406 141.567C163.131 141.842 162.758 141.996 162.369 141.997ZM83.1501 119.999C82.9167 119.999 82.693 120.092 82.528 120.257C82.363 120.422 82.2702 120.646 82.2699 120.879V140.53C82.2702 140.763 82.363 140.987 82.528 141.152C82.693 141.317 82.9167 141.41 83.1501 141.41H162.369C162.602 141.41 162.826 141.317 162.991 141.152C163.156 140.987 163.249 140.763 163.249 140.53V120.879C163.249 120.646 163.156 120.422 162.991 120.257C162.826 120.092 162.602 119.999 162.369 119.999L83.1501 119.999Z" fill="#E6E6E6"/>
<path d="M95.4592 135.926C98.7596 135.926 101.435 133.251 101.435 129.95C101.435 126.65 98.7596 123.975 95.4592 123.975C92.1589 123.975 89.4834 126.65 89.4834 129.95C89.4834 133.251 92.1589 135.926 95.4592 135.926Z" fill="#E6E6E6"/>
<path d="M109.261 125.967C108.996 125.967 108.743 126.072 108.556 126.258C108.37 126.445 108.265 126.699 108.265 126.963C108.265 127.227 108.37 127.48 108.556 127.667C108.743 127.854 108.996 127.959 109.261 127.959H156.213C156.344 127.959 156.474 127.933 156.595 127.883C156.716 127.833 156.826 127.76 156.919 127.668C157.011 127.575 157.085 127.465 157.135 127.344C157.185 127.223 157.211 127.094 157.211 126.963C157.211 126.832 157.185 126.702 157.135 126.581C157.085 126.46 157.011 126.35 156.919 126.258C156.826 126.165 156.716 126.092 156.595 126.042C156.474 125.992 156.344 125.967 156.213 125.967H109.261Z" fill="#E6E6E6"/>
<path d="M109.26 131.942C108.997 131.943 108.744 132.048 108.557 132.235C108.371 132.421 108.266 132.675 108.266 132.938C108.266 133.202 108.371 133.455 108.557 133.642C108.744 133.829 108.997 133.934 109.26 133.934H129.464C129.729 133.934 129.982 133.829 130.169 133.643C130.355 133.456 130.46 133.203 130.46 132.938C130.46 132.674 130.355 132.421 130.169 132.234C129.982 132.047 129.729 131.942 129.464 131.942H109.26Z" fill="#E6E6E6"/>
<path d="M163.285 90.9254V110.577C163.285 110.966 163.13 111.338 162.856 111.613C162.581 111.888 162.209 112.043 161.82 112.044H121.162V89.8398H162.801C162.954 89.9765 163.076 90.1439 163.159 90.331C163.242 90.518 163.285 90.7206 163.285 90.9254Z" fill="#46b4bc"/>
<path d="M142.498 89.458H141.948V111.457H142.498V89.458Z" fill="white"/>
<path d="M162.802 89.84C162.534 89.5934 162.184 89.457 161.82 89.458H82.6013C82.2123 89.4589 81.8396 89.6138 81.5645 89.8888C81.2895 90.1638 81.1346 90.5366 81.1338 90.9255V110.577C81.1346 110.966 81.2895 111.339 81.5645 111.614C81.8396 111.889 82.2123 112.044 82.6013 112.045H161.82C162.209 112.044 162.582 111.889 162.856 111.614C163.131 111.338 163.285 110.966 163.285 110.577V90.9255C163.286 90.7207 163.243 90.5182 163.159 90.3311C163.076 90.1441 162.954 89.9767 162.802 89.84ZM162.7 110.577C162.699 110.81 162.606 111.033 162.442 111.198C162.277 111.363 162.053 111.456 161.82 111.456H82.6013C82.3681 111.456 82.1446 111.364 81.9797 111.199C81.8148 111.034 81.7221 110.81 81.7219 110.577V90.9255C81.7218 90.81 81.7444 90.6956 81.7886 90.5888C81.8327 90.4821 81.8975 90.3851 81.9792 90.3034C82.0608 90.2217 82.1578 90.1569 82.2646 90.1128C82.3713 90.0686 82.4858 90.046 82.6013 90.0461H161.82C162.054 90.0463 162.277 90.139 162.442 90.3039C162.607 90.4688 162.7 90.6923 162.7 90.9255L162.7 110.577Z" fill="#E6E6E6"/>
<path d="M107.847 99.8594H88.9239C88.6597 99.8594 88.4063 99.9643 88.2195 100.151C88.0327 100.338 87.9277 100.591 87.9277 100.856C87.9277 101.12 88.0327 101.373 88.2195 101.56C88.4063 101.747 88.6597 101.852 88.9239 101.852H107.847C108.111 101.852 108.365 101.747 108.552 101.56C108.739 101.373 108.843 101.12 108.843 100.856C108.843 100.591 108.739 100.338 108.552 100.151C108.365 99.9643 108.111 99.8594 107.847 99.8594Z" fill="#E6E6E6"/>
<path d="M130.62 98.5568C130.263 98.2764 129.815 98.1397 129.363 98.1735C128.911 98.2074 128.487 98.4094 128.177 98.7398C127.857 99.0985 127.688 99.5672 127.705 100.048C127.722 100.528 127.924 100.983 128.269 101.318L130.586 103.635C130.638 103.687 130.708 103.716 130.781 103.716C130.853 103.716 130.923 103.687 130.975 103.635L133.292 101.318C133.637 100.983 133.839 100.528 133.856 100.048C133.873 99.5671 133.704 99.0985 133.384 98.7397C133.074 98.4094 132.65 98.2074 132.198 98.1735C131.746 98.1397 131.298 98.2764 130.941 98.5568C130.895 98.5925 130.839 98.6119 130.781 98.6119C130.722 98.6119 130.666 98.5925 130.62 98.5568Z" fill="white"/>
<path d="M154.749 103.828H151.331C151.27 103.828 151.21 103.807 151.162 103.769C151.113 103.732 151.079 103.679 151.064 103.619L150.102 99.7721C150.092 99.7316 150.092 99.6893 150.1 99.6485C150.109 99.6076 150.127 99.5693 150.152 99.5364C150.178 99.5034 150.211 99.4768 150.249 99.4585C150.286 99.4402 150.327 99.4307 150.369 99.4307H155.711C155.753 99.4307 155.794 99.4402 155.831 99.4585C155.869 99.4768 155.902 99.5034 155.928 99.5364C155.953 99.5693 155.971 99.6076 155.98 99.6485C155.988 99.6893 155.988 99.7316 155.978 99.7721L155.016 103.619C155.001 103.679 154.966 103.732 154.918 103.769C154.87 103.807 154.81 103.828 154.749 103.828Z" fill="white"/>
<path d="M153.04 100.667C153.003 100.667 152.968 100.682 152.943 100.707C152.917 100.733 152.902 100.768 152.902 100.804V102.728C152.902 102.765 152.917 102.799 152.943 102.825C152.968 102.851 153.003 102.865 153.04 102.865C153.076 102.865 153.111 102.851 153.137 102.825C153.163 102.799 153.177 102.765 153.177 102.728V100.804C153.177 100.768 153.163 100.733 153.137 100.707C153.111 100.682 153.076 100.667 153.04 100.667Z" fill="#46b4bc"/>
<path d="M154.023 102.691C154.013 102.727 154.017 102.764 154.035 102.796C154.053 102.827 154.083 102.851 154.118 102.86C154.153 102.87 154.191 102.866 154.222 102.848C154.254 102.83 154.277 102.8 154.287 102.765L154.806 100.913C154.815 100.878 154.81 100.84 154.793 100.809C154.775 100.777 154.745 100.754 154.71 100.744C154.675 100.735 154.637 100.739 154.606 100.757C154.574 100.775 154.551 100.804 154.541 100.839L154.023 102.691Z" fill="#46b4bc"/>
<path d="M151.407 100.738C151.395 100.738 151.382 100.74 151.37 100.743C151.335 100.753 151.305 100.777 151.287 100.808C151.269 100.84 151.265 100.878 151.275 100.913L151.793 102.765C151.803 102.8 151.826 102.83 151.858 102.848C151.89 102.866 151.927 102.871 151.962 102.861C151.997 102.851 152.027 102.827 152.045 102.796C152.063 102.764 152.067 102.726 152.058 102.691L151.539 100.839C151.531 100.81 151.514 100.784 151.49 100.766C151.466 100.748 151.437 100.738 151.407 100.738Z" fill="#46b4bc"/>
<path d="M155.513 98.8811H153.59V98.6063C153.59 98.4605 153.532 98.3207 153.429 98.2176C153.325 98.1145 153.186 98.0566 153.04 98.0566C152.894 98.0566 152.754 98.1145 152.651 98.2176C152.548 98.3207 152.49 98.4605 152.49 98.6063V98.8811H150.567C150.53 98.8811 150.495 98.8955 150.469 98.9213C150.444 98.9471 150.429 98.982 150.429 99.0185C150.429 99.0549 150.444 99.0899 150.469 99.1156C150.495 99.1414 150.53 99.1559 150.567 99.1559H155.513C155.55 99.1559 155.585 99.1414 155.61 99.1156C155.636 99.0899 155.651 99.0549 155.651 99.0185C155.651 98.982 155.636 98.9471 155.61 98.9213C155.585 98.8955 155.55 98.8811 155.513 98.8811Z" fill="white"/>
<path d="M177.16 58.0957C181.901 58.0957 185.744 54.2523 185.744 49.5112C185.744 44.7701 181.901 40.9268 177.16 40.9268C172.419 40.9268 168.575 44.7701 168.575 49.5112C168.575 54.2523 172.419 58.0957 177.16 58.0957Z" fill="#FFB8B8"/>
<path d="M170.605 40.4391L169.116 39.8429C169.116 39.8429 172.23 36.4151 176.562 36.7132L175.343 35.3719C175.343 35.3719 178.321 34.1796 181.029 37.3093C182.452 38.9546 184.099 40.8884 185.125 43.0669H186.72L186.054 44.5324L188.384 45.9979L185.993 45.7347C186.219 46.9999 186.142 48.3008 185.767 49.5302L185.831 50.6885C185.831 50.6885 183.059 46.4005 183.059 45.8043V47.2947C183.059 47.2947 181.57 45.9534 181.57 45.0592L180.758 46.1024L180.352 44.463L175.343 46.1024L176.155 44.7611L173.042 45.2082L174.26 43.5688C174.26 43.5688 170.741 45.5063 170.605 47.1457C170.47 48.7851 168.71 50.8715 168.71 50.8715L167.898 49.3812C167.898 49.3812 166.68 42.6746 170.605 40.4391Z" fill="#2F2E41"/>
<path d="M193.998 73.6143C193.998 73.6143 192.086 78.5307 192.486 83.3951C192.559 84.2661 192.852 85.1041 193.338 85.8306L169.914 96.9511C169.914 96.9511 159.33 98.0469 161.972 102.669C164.613 107.292 174.188 100.358 174.188 100.358C174.188 100.358 199.281 96.7262 201.262 93.0944C203.243 89.4625 204.564 74.2746 204.564 74.2746L193.998 73.6143Z" fill="#FFB8B8"/>
<path d="M194.989 60.0771H199.941C199.941 60.0771 203.573 60.7375 204.564 67.3409C205.554 73.9443 206.545 75.5952 205.554 75.5952C204.564 75.5952 192.678 75.265 192.678 74.9348C192.678 74.6047 194.989 60.0771 194.989 60.0771Z" fill="#3F3D56"/>
<path d="M277.275 5H87.8115C87.0899 5.00063 86.398 5.28759 85.8877 5.79789C85.3774 6.30819 85.0905 7.00012 85.0898 7.72178V76.2065H130.942C132.183 76.208 133.373 76.7017 134.251 77.5794C135.129 78.4572 135.622 79.6472 135.624 80.8884V138.829H277.275C277.669 138.829 278.057 138.744 278.415 138.579C278.772 138.414 279.089 138.174 279.345 137.874C279.366 137.851 279.386 137.826 279.404 137.799C279.566 137.601 279.698 137.379 279.794 137.141C279.931 136.813 280.001 136.462 280 136.108V7.72178C279.999 6.99962 279.712 6.30732 279.201 5.79696C278.69 5.28661 277.997 4.99996 277.275 5Z" fill="#F2F2F2"/>
<path d="M279.609 15.9097H85.4771V16.6878H279.609V15.9097Z" fill="#CCCCCC"/>
<path d="M92.0908 13.1705C93.38 13.1705 94.4251 12.1254 94.4251 10.8362C94.4251 9.54703 93.38 8.50195 92.0908 8.50195C90.8017 8.50195 89.7566 9.54703 89.7566 10.8362C89.7566 12.1254 90.8017 13.1705 92.0908 13.1705Z" fill="#CCCCCC"/>
<path d="M98.8013 13.1705C100.09 13.1705 101.136 12.1254 101.136 10.8362C101.136 9.54703 100.09 8.50195 98.8013 8.50195C97.5121 8.50195 96.467 9.54703 96.467 10.8362C96.467 12.1254 97.5121 13.1705 98.8013 13.1705Z" fill="#CCCCCC"/>
<path d="M105.512 13.1705C106.802 13.1705 107.847 12.1254 107.847 10.8362C107.847 9.54703 106.802 8.50195 105.512 8.50195C104.223 8.50195 103.178 9.54703 103.178 10.8362C103.178 12.1254 104.223 13.1705 105.512 13.1705Z" fill="#CCCCCC"/>
<path d="M231.235 32.8984H133.85C132.774 32.8984 131.742 33.3259 130.981 34.0869C130.22 34.8479 129.793 35.88 129.793 36.9561C129.793 38.0323 130.22 39.0644 130.981 39.8254C131.742 40.5863 132.774 41.0138 133.85 41.0138H231.235C232.311 41.0138 233.344 40.5863 234.105 39.8254C234.866 39.0644 235.293 38.0323 235.293 36.9561C235.293 35.88 234.866 34.8479 234.105 34.0869C233.344 33.3259 232.311 32.8984 231.235 32.8984ZM231.235 40.3896H133.85C132.94 40.3896 132.067 40.0278 131.423 39.3839C130.779 38.7401 130.417 37.8667 130.417 36.9561C130.417 36.0455 130.779 35.1722 131.423 34.5283C132.067 33.8844 132.94 33.5227 133.85 33.5227H231.235C232.146 33.5227 233.019 33.8844 233.663 34.5283C234.307 35.1722 234.669 36.0455 234.669 36.9561C234.669 37.8667 234.307 38.7401 233.663 39.3839C233.019 40.0278 232.146 40.3896 231.235 40.3896Z" fill="#CCCCCC"/>
<path d="M261.035 65.2261H163.65C162.574 65.2261 161.542 65.6536 160.781 66.4145C160.02 67.1755 159.592 68.2076 159.592 69.2838C159.592 70.3599 160.02 71.392 160.781 72.153C161.542 72.914 162.574 73.3415 163.65 73.3415H261.035C262.111 73.3415 263.143 72.914 263.904 72.153C264.665 71.392 265.093 70.3599 265.093 69.2838C265.093 68.2076 264.665 67.1755 263.904 66.4145C263.143 65.6536 262.111 65.2261 261.035 65.2261Z" fill="white"/>
<path d="M261.035 80.208H163.65C162.574 80.208 161.542 80.6355 160.781 81.3965C160.02 82.1575 159.592 83.1895 159.592 84.2657C159.592 85.3419 160.02 86.374 160.781 87.1349C161.542 87.8959 162.574 88.3234 163.65 88.3234H261.035C262.111 88.3234 263.143 87.8959 263.904 87.1349C264.665 86.374 265.093 85.3419 265.093 84.2657C265.093 83.1895 264.665 82.1575 263.904 81.3965C263.143 80.6355 262.111 80.208 261.035 80.208Z" fill="white"/>
<path d="M261.035 95.1904H163.65C162.574 95.1904 161.542 95.6179 160.781 96.3789C160.02 97.1399 159.592 98.172 159.592 99.2481C159.592 100.324 160.02 101.356 160.781 102.117C161.542 102.878 162.574 103.306 163.65 103.306H261.035C262.111 103.306 263.143 102.878 263.904 102.117C264.665 101.356 265.093 100.324 265.093 99.2481C265.093 98.172 264.665 97.1399 263.904 96.3789C263.143 95.6179 262.111 95.1904 261.035 95.1904Z" fill="white"/>
<path d="M147.912 58.5146H103.583C102.632 58.5158 101.721 58.894 101.049 59.5663C100.376 60.2386 99.998 61.1502 99.9968 62.101V76.2062H100.621V62.101C100.622 61.3158 100.935 60.563 101.49 60.0078C102.045 59.4525 102.798 59.1401 103.583 59.1389H147.912C148.698 59.1396 149.451 59.4519 150.006 60.0072C150.561 60.5626 150.874 61.3156 150.874 62.101V106.43C150.874 107.215 150.561 107.968 150.006 108.524C149.451 109.079 148.698 109.391 147.912 109.392H135.624V110.016H147.912C148.863 110.016 149.775 109.638 150.447 108.965C151.12 108.293 151.498 107.381 151.498 106.43V62.101C151.498 61.1501 151.12 60.2382 150.447 59.5658C149.775 58.8933 148.863 58.5153 147.912 58.5146Z" fill="#CCCCCC"/>
<path d="M32.9684 104.122C32.8116 104.129 26.1296 103.666 25.959 103.66L26.5592 97.6677L30.3652 97.5531L37.6378 84.083C36.6291 82.1596 37.8704 79.6076 40.0101 79.2142C44.3218 78.2342 45.803 85.0178 41.4781 85.9204L35.4627 102.38C35.2739 102.89 34.9339 103.33 34.4882 103.642C34.0424 103.953 33.5122 104.121 32.9684 104.122Z" fill="#FFB8B8"/>
<path d="M15.3521 107.209C8.99349 107.225 8.4353 97.6151 14.808 96.9379C31.6595 95.9197 29.527 91.6873 30.8067 104.172C30.846 104.542 30.7368 104.913 30.503 105.203C30.2693 105.492 29.9301 105.678 29.5599 105.718L15.904 107.18C15.7207 107.199 15.5365 107.209 15.3521 107.209Z" fill="#46b4bc"/>
<path d="M13.9009 76.8261C22.6607 81.8108 15.4694 94.9629 6.54627 90.2796C-2.21326 85.2951 4.97811 72.143 13.9009 76.8261Z" fill="#FFB8B8"/>
<path d="M21.8644 190.038L25.6908 190.038L27.5115 175.278L21.8638 175.278L21.8644 190.038Z" fill="#FFB8B8"/>
<path d="M21.0446 193.591L33.0713 193.591C33.0253 187.386 24.9814 189.174 21.0444 188.945L21.0446 193.591Z" fill="#2F2E41"/>
<path d="M5.32142 190.038L9.14784 190.038L10.9685 175.278L5.3208 175.278L5.32142 190.038Z" fill="#FFB8B8"/>
<path d="M4.50167 193.591L16.5283 193.591C16.4824 187.386 8.43844 189.174 4.50146 188.945L4.50167 193.591Z" fill="#2F2E41"/>
<path d="M9.67039 184.884C8.74555 184.63 3.71998 185.397 3.12688 184.39C1.05557 163.63 1.516 143.313 6.11389 132.148L21.9228 131.181C25.4579 137.634 33.5841 180.458 28.6822 183.062L22.3789 183.287C22.0195 183.298 21.6669 183.186 21.3805 182.969C21.0941 182.751 20.8912 182.442 20.806 182.092L15.5326 152.091C14.2194 150.256 11.6381 183.687 11.2118 183.562C11.1562 183.93 10.9699 184.267 10.687 184.509C10.404 184.752 10.0432 184.885 9.67039 184.884Z" fill="#2F2E41"/>
<path d="M5.61173 134.772C-2.36995 126.422 2.72128 104.034 2.46361 104.51C2.48547 103.962 4.29331 95.5159 8.96981 94.1298C12.68 92.9053 16.7866 96.5681 17.2931 100.273L22.851 133.094C22.8798 133.273 22.8661 133.456 22.8112 133.628C22.7562 133.801 22.6615 133.958 22.5346 134.087C22.8079 134.938 6.00248 134.602 5.61173 134.772Z" fill="#46b4bc"/>
<path d="M8.20219 82.7C8.90314 82.2569 9.24861 81.4969 9.65661 80.8045C11.8058 79.5797 14.2764 82.5428 16.5495 81.4369C22.9772 75.2664 16.3703 73.4459 10.4503 73.1205C9.05188 72.9482 7.86224 73.4443 6.80494 74.2636C-5.02037 73.3605 0.650882 89.0844 8.11408 91.1612C9.43178 91.7384 10.4202 90.5702 9.2582 89.5084C7.65045 87.8228 5.65882 84.43 8.20219 82.7Z" fill="#2F2E41"/>
<path d="M130.942 75.582H45.418C44.0114 75.584 42.6629 76.1437 41.6682 77.1384C40.6735 78.1331 40.1138 79.4816 40.1118 80.8883V188.886C40.1138 190.292 40.6735 191.641 41.6682 192.635C42.6629 193.63 44.0114 194.19 45.418 194.192H130.942C132.349 194.19 133.697 193.63 134.692 192.635C135.687 191.641 136.246 190.292 136.248 188.886V80.8883C136.246 79.4816 135.687 78.1331 134.692 77.1384C133.697 76.1437 132.349 75.584 130.942 75.582ZM135.624 188.886C135.622 190.127 135.129 191.317 134.251 192.195C133.373 193.072 132.183 193.566 130.942 193.568H45.418C44.1768 193.566 42.9868 193.072 42.1091 192.195C41.2314 191.317 40.7376 190.127 40.7361 188.886V80.8883C40.7376 79.647 41.2314 78.457 42.1091 77.5793C42.9868 76.7016 44.1768 76.2078 45.418 76.2063H130.942C132.183 76.2078 133.373 76.7016 134.251 77.5793C135.129 78.457 135.622 79.647 135.624 80.8883V188.886Z" fill="#3F3D56"/>
<path d="M21.3209 121.028C18.5022 121.347 17.2647 114.788 16.187 113.116L21.8006 110.937L23.6273 114.277L38.9304 114.658C39.0214 114.534 39.1207 114.418 39.2277 114.308C42.2626 111.13 47.205 115.892 44.1816 119.062C43.848 119.417 43.4431 119.697 42.9936 119.883C42.544 120.07 42.0601 120.159 41.5736 120.145C41.087 120.131 40.609 120.014 40.171 119.802C39.733 119.589 39.345 119.287 39.0325 118.914C38.6545 118.941 21.6905 121.038 21.3209 121.028Z" fill="#FFB8B8"/>
<path d="M17.1637 117.897C16.2251 118.801 9.01994 106.107 8.49354 105.748C4.85275 100.089 13.4239 94.5018 17.1274 100.13L24.6176 111.641C24.8204 111.953 24.8909 112.333 24.8138 112.698C24.7368 113.062 24.5183 113.381 24.2064 113.584C23.8651 113.744 17.4046 118.241 17.1637 117.897Z" fill="#46b4bc"/>
<path d="M114.087 150.338H62.2732C56.9804 150.312 56.9584 142.25 62.2735 142.222H114.087C119.376 142.247 119.405 150.31 114.087 150.338Z" fill="#CCCCCC"/>
<path d="M114.087 165.32H62.2732C56.9804 165.295 56.9584 157.232 62.2735 157.205H114.087C119.376 157.229 119.405 165.292 114.087 165.32Z" fill="#CCCCCC"/>
<path d="M114.087 180.302H62.2732C56.9804 180.277 56.9584 172.215 62.2735 172.187H114.087C119.376 172.212 119.405 180.275 114.087 180.302Z" fill="#CCCCCC"/>
<path d="M133.439 85.5702C131.834 85.5702 130.265 85.0942 128.93 84.2025C127.596 83.3107 126.556 82.0433 125.941 80.5604C125.327 79.0775 125.167 77.4458 125.48 75.8715C125.793 74.2973 126.566 72.8513 127.701 71.7163C128.836 70.5814 130.282 69.8084 131.856 69.4953C133.43 69.1822 135.062 69.3429 136.545 69.9571C138.028 70.5713 139.295 71.6115 140.187 72.9461C141.079 74.2807 141.555 75.8497 141.555 77.4548C141.552 79.6064 140.696 81.6691 139.175 83.1905C137.654 84.7119 135.591 85.5677 133.439 85.5702Z" fill="#46b4bc"/>
<path d="M137.185 77.143H133.751V73.2413C133.751 73.1585 133.718 73.0792 133.66 73.0206C133.601 72.9621 133.522 72.9292 133.439 72.9292C133.356 72.9292 133.277 72.9621 133.218 73.0206C133.16 73.0792 133.127 73.1585 133.127 73.2413V77.143H129.693C129.611 77.143 129.531 77.1758 129.473 77.2344C129.414 77.2929 129.381 77.3723 129.381 77.4551C129.381 77.5379 129.414 77.6173 129.473 77.6758C129.531 77.7343 129.611 77.7672 129.693 77.7672H133.127V81.6689C133.127 81.7517 133.16 81.831 133.218 81.8896C133.277 81.9481 133.356 81.981 133.439 81.981C133.522 81.981 133.601 81.9481 133.66 81.8896C133.718 81.831 133.751 81.7517 133.751 81.6689V77.7672H137.185C137.267 77.7672 137.347 77.7343 137.405 77.6758C137.464 77.6173 137.497 77.5379 137.497 77.4551C137.497 77.3723 137.464 77.2929 137.405 77.2344C137.347 77.1758 137.267 77.143 137.185 77.143Z" fill="white"/>
<path d="M113.15 132.483H63.2092C61.8438 132.482 60.5347 131.939 59.5692 130.973C58.6037 130.008 58.0606 128.699 58.0591 127.333V99.3665C58.0606 98.001 58.6037 96.692 59.5692 95.7265C60.5347 94.761 61.8438 94.2179 63.2092 94.2163H113.15C114.516 94.2179 115.825 94.761 116.79 95.7265C117.756 96.692 118.299 98.001 118.3 99.3665V127.333C118.299 128.699 117.756 130.008 116.79 130.973C115.825 131.939 114.516 132.482 113.15 132.483Z" fill="#46b4bc"/>
</g>
</svg>
