<?xml version="1.0" encoding="UTF-8"?>
<svg id="_レイヤー_2" data-name="レイヤー 2" xmlns="http://www.w3.org/2000/svg" viewBox="0 0 384.52 408.77">
  <defs>
    <style>
      .cls-1 {
        fill: #ed8599;
      }

      .cls-2 {
        fill: #fff;
      }

      .cls-3 {
        fill: #fcd13e;
      }

      .cls-4 {
        fill: #d9da21;
      }

      .cls-5 {
        fill: #c6c6c6;
      }

      .cls-6 {
        fill: #231815;
      }
    </style>
  </defs>
  <g id="_レイヤー_1-2" data-name="レイヤー 1">
    <g>
      <g>
        <path class="cls-2" d="M22.53,335.48c3.41-3.33,8.33-5.47,13.96-5.47,6.5,0,10.23,3.49,10.23,8.49,0,4.52-3.49,7.93-8.25,7.93-4.04,0-6.98-1.43-9.91-2.93,.71,6.35,11.42,12.29,11.42,22.6s-9.04,17.69-19.75,17.69c-8.09,0-15.62-4.44-15.62-10.71s7.53-11.26,13.01-11.26c.71,0,1.43,.32,1.43,.95,0,1.27-3.25,3.01-3.25,9.2,0,3.97,2.22,6.58,6.11,6.58,3.41,0,6.74-3.09,6.74-7.53,0-8.17-11.02-15.7-11.02-24.43,0-2.14,.48-4.2,1.35-6.11-5.31,0-8.8,3.17-8.8,6.66s2.62,5.63,2.62,6.42c0,.56-.32,.79-1.03,.79-2.54,0-11.74-4.84-11.74-12.37,0-5.16,4.2-9.76,11.02-9.76,4.6,0,8.01,1.59,11.5,3.25Zm7.46,3.01c1.9,.56,3.89,.87,6.27,.87,2.62,0,3.57-.95,3.57-2.06,0-1.19-1.03-1.82-3.01-1.82-2.46,0-5.16,.95-6.82,3.01Z"/>
        <path class="cls-2" d="M47.19,361.1c0-.95,1.35-4.05,2.38-5,.79-.71,1.74-.79,2.85-.79,2.06-5.08,3.89-9.52,3.89-11.5,0-.71,.71-1.27,2.22-1.27,3.33,0,7.69,3.49,7.69,5.79,0,1.11-1.19,3.57-2.54,6.98,3.33,0,3.89-.32,4.76-.32,.55,0,.79,.32,.79,.87,0,2.93-1.9,6.35-8.33,6.35-2.06,4.28-6.98,15.94-6.98,18.96,0,1.19-.32,1.9-1.59,1.9-3.65,0-8.8-.95-8.8-3.81,0-3.49,6.03-14.67,6.03-17.13-.79,0-2.38,0-2.38-1.03Z"/>
        <path class="cls-2" d="M94.23,383.07c-6.42,0-8.96-4.44-9.52-4.44-.95,0-5,4.44-12.21,4.44-4.04,0-6.58-2.7-6.58-7.14,0-10.31,10.47-21.49,23.4-21.49,6.82,0,11.74,3.97,11.74,5.79,0,1.51-6.19,8.57-6.19,18.32,0,2.38,.56,2.62,.56,3.57,0,.56-.4,.95-1.19,.95Zm-16.81-9.04c0,.79,.48,1.43,1.43,1.43,4.2,0,10.79-12.93,10.79-14.67,0-.71-.32-1.03-.95-1.03-4.84,0-11.26,9.12-11.26,14.28Z"/>
        <path class="cls-2" d="M118.66,379.34c0-.16-.16-.16-.24-.16-.56,0-4.44,3.89-11.34,3.89-4.04,0-6.58-2.7-6.58-7.14,0-10.31,10.47-21.49,23.4-21.49,6.82,0,11.66,3.97,11.66,5.79s-3.81,5.55-6.11,15.47c-3.09,13.32-7.38,33.07-22.76,33.07-9.91,0-14.83-8.01-14.83-10.63,0-.71,.56-1.19,1.19-1.19,1.11,0,2.06,1.82,6.9,1.82,11.74,0,16.34-11.98,18.56-18.88,.08-.16,.16-.32,.16-.55Zm-6.66-5.31c0,.79,.48,1.43,1.43,1.43,4.2,0,10.79-12.93,10.79-14.67,0-.71-.32-1.03-.95-1.03-4.84,0-11.26,9.12-11.26,14.28Z"/>
        <path class="cls-2" d="M160.54,372.2c.63,0,1.27,.63,1.27,1.35,0,1.43-4.52,9.68-16.97,9.68-5.39,0-9.92-3.25-9.92-9.04,0-9.83,10.71-19.75,21.57-19.75,6.11,0,8.49,3.17,8.49,6.27,0,6.11-9.99,11.18-17.13,12.53,.48,1.67,1.75,2.62,4.04,2.62,5.39,0,7.46-3.65,8.65-3.65Zm-12.61-3.49c5.16-1.43,9.44-5.16,9.44-7.61,0-.95-.55-1.35-1.35-1.35-2.54,0-6.82,4.12-8.09,8.96Z"/>
        <path class="cls-2" d="M220.81,379.82c0,3.97,2.46,7.06,7.3,7.06,2.46,0,3.57-.87,4.28-.87,.56,0,.95,.4,.95,.95,0,1.59-5,6.82-13.48,6.82-6.58,0-11.98-4.36-11.98-10.79,0-9.28,7.38-16.89,7.38-20.07,0-.71-.4-1.19-1.27-1.19-1.19,0-3.81,1.03-6.11,4.6-2.78,4.28-5.63,11.42-5.63,14.83,0,1.19-.24,1.9-1.51,1.9-3.73,0-8.49-.95-8.49-3.81,0-4.52,5.31-13.88,5.31-16.34,0-.71-.55-1.19-1.35-1.19-1.19,0-2.46,.56-4.76,4.12-2.78,4.36-6.5,11.9-6.5,15.31,0,1.19-.24,1.9-1.51,1.9-3.73,0-8.88-.95-8.88-3.81,0-5.71,7.22-17.13,7.22-23.48,0-.79,.71-1.35,2.22-1.35,7.06,0,7.38,5.08,7.69,5.08,.4,0,4.52-5.08,10.55-5.08,6.35,0,7.46,5.08,7.77,5.08s5.08-5.08,11.18-5.08c3.97,0,6.03,2.06,6.03,5.23,0,5.39-6.42,12.45-6.42,20.15Z"/>
        <path class="cls-2" d="M255.48,383.07c-6.42,0-8.96-4.44-9.52-4.44-.95,0-5,4.44-12.21,4.44-4.04,0-6.58-2.7-6.58-7.14,0-10.31,10.47-21.49,23.4-21.49,6.82,0,11.74,3.97,11.74,5.79,0,1.51-6.19,8.57-6.19,18.32,0,2.38,.56,2.62,.56,3.57,0,.56-.4,.95-1.19,.95Zm-16.81-9.04c0,.79,.48,1.43,1.43,1.43,4.2,0,10.79-12.93,10.79-14.67,0-.71-.32-1.03-.95-1.03-4.84,0-11.26,9.12-11.26,14.28Z"/>
        <path class="cls-2" d="M286.65,354.43c2.46,0,4.04,1.43,4.04,4.04,0,4.12-5.16,9.76-7.46,9.76-.79,0-1.11-.32-1.27-.95-.4-1.27-.32-4.12-2.22-4.12-.87,0-2.3,.87-3.65,3.09-2.62,4.2-5.55,12.37-5.55,14.91,0,1.19-.24,1.9-1.51,1.9-3.73,0-8.88-.95-8.88-3.81,0-5.71,7.3-17.13,7.3-23.48,0-.79,.71-1.35,2.22-1.35,7.06,0,6.98,5.08,7.3,5.08s4.28-5.08,9.68-5.08Z"/>
        <path class="cls-2" d="M299.42,383.54c-6.98,0-10.71-3.73-10.71-9.6,0-9.12,11.26-19.51,21.65-19.51,6.27,0,9.04,2.62,9.04,6.11,0,4.68-5.63,8.01-10.07,8.01-.71,0-1.27-.4-1.27-.87,0-.71,.48-1.11,1.43-2.46,.87-1.19,1.9-2.94,1.9-4.28,0-.95-.48-1.43-1.43-1.43-3.57,0-7.85,7.22-7.85,11.9,0,3.17,1.51,4.44,4.28,4.44,5.23,0,7.46-3.65,8.65-3.65,.55,0,1.19,.63,1.19,1.35,0,1.43-5.63,9.99-16.81,9.99Z"/>
        <path class="cls-2" d="M347.8,379.82c0,3.97,2.54,7.06,7.3,7.06,2.46,0,3.57-.87,4.28-.87,.56,0,.95,.4,.95,.95,0,1.59-4.92,6.82-13.48,6.82-6.58,0-11.98-4.36-11.98-10.79,0-9.28,7.3-17.37,7.3-20.54,0-.71-.48-1.27-1.27-1.27-1.51,0-4.92,1.19-7.22,5.16-2.46,4.12-5.39,12.13-5.39,14.83,0,1.19-.24,1.9-1.51,1.9-3.73,0-8.88-.95-8.88-3.81,0-5.23,15.39-36.33,15.39-42.35,0-.79,.71-1.35,2.22-1.35,4.12,0,7.77,3.57,7.77,5.79,0,3.41-6.19,15.55-6.19,16.58,0,.16,.08,.24,.24,.24,.32,0,5.79-3.73,10.87-3.73,3.97,0,6.11,2.06,6.11,5.23,0,5.39-6.5,12.45-6.5,20.15Z"/>
        <path class="cls-2" d="M379.45,372.2c.63,0,1.27,.63,1.27,1.35,0,1.43-4.52,9.68-16.97,9.68-5.39,0-9.92-3.25-9.92-9.04,0-9.83,10.71-19.75,21.57-19.75,6.11,0,8.49,3.17,8.49,6.27,0,6.11-9.99,11.18-17.13,12.53,.48,1.67,1.75,2.62,4.04,2.62,5.39,0,7.46-3.65,8.65-3.65Zm-12.61-3.49c5.16-1.43,9.44-5.16,9.44-7.61,0-.95-.55-1.35-1.35-1.35-2.54,0-6.82,4.12-8.09,8.96Zm17.69-25.14c0,1.27-.32,1.9-1.82,3.17-3.17,2.78-8.72,4.12-11.03,4.12-.87,0-1.35-.56-1.35-1.11,0-.63,.24-.95,1.19-1.51,2.3-1.35,5-4.44,7.3-8.09,.63-1.03,1.03-1.51,1.82-1.51,1.19,0,3.89,3.25,3.89,4.92Z"/>
      </g>
      <g>
        <path class="cls-5" d="M114.89,331.42q-6.79,.55-8.14,.55s0-2.37-.16-3.43c0,0,12.14-.23,12.84-.36,0,0-.42,4.89-3.33,8.63,0,0,3.82,4.24,6.21,4.11l-2.34,3.56s-3.15-2.44-5.72-5.2c-.86,1.43-4.58,3.48-8.66,4,5.43-4.13,8.61-8.71,9.28-11.86Z"/>
        <path class="cls-5" d="M144.58,337.48s-2.96-.05-5.43-.18c.21,3.35-1.64,7.67-7.8,7.51,3.85-2.65,4.68-5.62,4.32-7.77,0,0-4.34,.39-7.23,.44l-.08-3.43c5.12-.03,15.21-.08,16.33-.05l-.1,3.48Zm-12.66-6.14l-.05-3.54s7.57,.03,9.83,.18l-.08,2.83s-6.97,.62-9.7,.52Z"/>
        <path class="cls-5" d="M151.78,333.97c3.56,.05,13.44,.16,15.39-.08l-.26,3.51s-7.98-.03-14.69,.08l-.44-3.51Z"/>
        <path class="cls-5" d="M173,334.62l2.31-1.95,2.6,2.18s-1.48,1.56-2.6,2.65c0,0-1.27-1.9-2.31-2.89Zm16.48-2.05c.16,5.36-3.48,10.22-11.1,12.19l-1.87-3.87c6.08-.94,10.01-4.11,12.97-8.32Zm-10.19-4.97l2.76,2.34s-1.56,1.53-2.73,2.42c0,0-1.22-1.72-2.24-2.78l2.21-1.98Zm8.4,2.76s-.7,.18-1.14,.42l-.49-2.05,1.64-.29v1.92Zm.75-2l1.61-.29-.16,1.92s-.68,.16-1.14,.39l-.31-2.03Z"/>
        <path class="cls-5" d="M213.92,330.22c-1.07,4.5-3.93,7.02-7.46,8.45,1.2-1.85,1.95-3.64,2.24-5.36,0,0-10.79,.49-12.61,.49l-.13-3.59s15.99,.05,17.97,0Zm-5.85,10.79l-2.55,2.68s-2.86-2.96-3.93-4.47l2.26-2s2.63,2.83,4.21,3.8Z"/>
        <path class="cls-5" d="M218.16,342.42c2.26-3.69,3.02-6.71,2.81-10.09l4.08,.75c-.62,5.69-3.35,8.42-6.89,9.33Zm12.95-4.11s2.65-.21,6.29-1.61c-1.35,2.29-3.64,5.17-9.39,6.16,0,0-.34-12.92-.34-14.09h4.06l-.62,9.54Z"/>
        <path class="cls-5" d="M242.16,334.62l2.31-1.95,2.6,2.18s-1.48,1.56-2.6,2.65c0,0-1.27-1.9-2.31-2.89Zm16.48-2.05c.16,5.36-3.48,10.22-11.1,12.19l-1.87-3.87c6.08-.94,10.01-4.11,12.97-8.32Zm-10.19-4.97l2.76,2.34s-1.56,1.53-2.73,2.42c0,0-1.22-1.72-2.24-2.78l2.21-1.98Z"/>
        <path class="cls-5" d="M267.4,340.81c1.66-.08,2.57-.23,4.39-.39l-.05-4.42s-1.17,.16-3.02-.03l-.26-2.83s6.76-.05,9.62,0l-.21,2.96s-1.53,.1-3.12,.16c.03,1.01-.13,2.05-.16,4,0,0,1.82,.1,4.32,.26l-.26,3.07s-9.65-.05-11.05-.1l-.21-2.68Z"/>
      </g>
      <g>
        <g>
          <path class="cls-6" d="M367.11,233.86c-.1,0-.2-.03-.29-.09-.31-.22-7.6-5.56-10-14.29-3.42-12.44,3.92-26.67,4-26.81,.13-.24,.43-.34,.67-.21,.24,.13,.34,.43,.21,.67-.07,.14-7.23,14.03-3.92,26.08,2.3,8.38,9.55,13.69,9.62,13.75,.22,.16,.27,.47,.11,.7-.1,.14-.25,.21-.41,.21Z"/>
          <path class="cls-1" d="M368.22,153.19c20.76,4.36,17.11,26.6,8.25,35.84-7.38,7.7-29.17,5.54-30.68-12.27-1.52-17.95,9.36-26.32,22.43-23.57Z"/>
          <polygon class="cls-1" points="362.99 192 365.39 201.81 354.12 199.39 360.47 191.47 362.99 192"/>
          <path class="cls-6" d="M363.44,194.35s-.06,0-.1,0l-3.76-.74c-.27-.05-.45-.32-.39-.59,.05-.27,.31-.45,.59-.39l3.76,.74c.27,.05,.45,.32,.39,.59-.05,.24-.26,.4-.49,.4Z"/>
        </g>
        <path class="cls-2" d="M364.85,161.29c-2.78-2.78-7.58,3.11-5.56,5.09,2.02,1.99,7.84-2.82,5.56-5.09Z"/>
      </g>
      <rect class="cls-1" x="137.94" y="80.77" width="12.48" height="12.48" transform="translate(33.45 213.89) rotate(-80)"/>
      <rect class="cls-3" x="259.82" y="146.44" width="12.48" height="12.48" transform="translate(69.5 388.17) rotate(-80)"/>
      <rect class="cls-4" x="59.46" y="64.26" width="12.93" height="12.93" transform="translate(-11.28 12.52) rotate(-10)"/>
      <rect class="cls-3" x="157.96" y="39.12" width="12.93" height="12.93" transform="translate(61.42 -90.44) rotate(37.37)"/>
      <rect class="cls-2" x="95.27" y="135.43" width="12.93" height="12.93" transform="translate(107 -32.63) rotate(37.37)"/>
      <rect class="cls-4" x="325.42" y="136.29" width="11.22" height="11.22" transform="translate(154.06 -171.79) rotate(37.37)"/>
      <rect class="cls-2" x="298.16" y="168.57" width="12.78" height="12.78" transform="translate(-30.89 70.83) rotate(-12.63)"/>
      <rect class="cls-2" x="104.42" y="28.43" width="12.78" height="12.78" transform="translate(-4.93 25.07) rotate(-12.63)"/>
      <g>
        <g>
          <path class="cls-6" d="M58.44,202.35c-.12,0-.25-.05-.34-.14-.08-.07-7.7-7.32-12.94-14.31-7.98-10.65-14.92-30.51-14.99-30.71-.09-.26,.05-.55,.31-.64,.26-.09,.54,.05,.64,.31,.07,.2,6.95,19.92,14.84,30.44,5.19,6.92,12.75,14.12,12.83,14.19,.2,.19,.21,.51,.02,.71-.1,.1-.23,.16-.36,.16Z"/>
          <path class="cls-3" d="M21.37,104.17c-27.63,5.81-22.78,35.41-10.99,47.71,9.82,10.25,38.83,7.38,40.84-16.33,2.02-23.89-12.47-35.03-29.85-31.38Z"/>
          <polygon class="cls-3" points="28.34 155.84 25.14 168.9 40.14 165.68 31.68 155.13 28.34 155.84"/>
          <path class="cls-6" d="M27.74,158.8c-.23,0-.44-.17-.49-.4-.05-.27,.12-.53,.39-.59l5-.98c.28-.05,.53,.12,.59,.39,.05,.27-.12,.53-.39,.59l-5,.98s-.07,0-.1,0Z"/>
        </g>
        <path class="cls-2" d="M19.36,112.09c-3.7-3.7-10.09,4.13-7.4,6.78,2.69,2.64,10.43-3.75,7.4-6.78Z"/>
      </g>
      <path class="cls-2" d="M184.8,130.29c-23.8,42.35-57.36,81.87-99.79,115.24-14.2-3.71-28.26-8.13-42.11-13.32,58.85-24.37,106.18-61.04,139.57-103.32,.74,.52,1.52,.99,2.33,1.4Z"/>
      <path class="cls-2" d="M191.31,132.44c-4.75,42.3-11.39,84.48-19.91,126.43-14.53-.74-29.04-2.21-43.46-4.44,25.56-39.17,45.56-80.52,59.82-122.87,1.14,.4,2.33,.7,3.55,.88Z"/>
      <path class="cls-2" d="M258.5,254.43c-14.42,2.23-28.92,3.7-43.46,4.44-8.5-41.86-15.13-83.96-19.88-126.17,1.28-.03,2.54-.17,3.76-.41,14.25,42.1,34.17,83.19,59.58,122.14Z"/>
      <path class="cls-2" d="M343.55,232.21c-13.85,5.19-27.91,9.61-42.11,13.32-42.1-33.1-75.45-72.25-99.21-114.21,.93-.34,1.83-.76,2.69-1.23,33.34,41.77,80.33,77.98,138.63,102.12Z"/>
      <g>
        <path class="cls-4" d="M50.4,286.22c-2.14,0-4.28-.32-6.37-.96-5.54-1.69-9.93-5.3-12.37-10.18-2.33-4.66-2.56-9.84-.65-14.6l8.15-20.88c11.76,4.11,23.91,7.81,36.19,11.01l-5.85,21.51c-2.17,8.31-10.02,14.1-19.09,14.1Z"/>
        <path class="cls-1" d="M289.09,298.01c-9.91,0-18.11-6.72-19.49-15.99l-3.54-22.01c12.27-1.94,24.66-4.41,36.87-7.36l5.86,21.55c1.41,4.98,.63,10.15-2.2,14.56-2.92,4.57-7.61,7.7-13.22,8.81-1.43,.28-2.87,.43-4.29,.43Z"/>
        <path class="cls-4" d="M241.34,305.09c-10.65,0-19.33-7.87-19.76-17.91l-1.18-22.25c12.47-.73,25-1.95,37.29-3.66l3.53,21.99c.88,5.11-.45,10.19-3.73,14.3-3.37,4.24-8.34,6.87-13.99,7.43-.73,.07-1.45,.11-2.16,.11h0Z"/>
        <path class="cls-4" d="M145.13,305.09c-.72,0-1.44-.04-2.17-.11-5.65-.55-10.62-3.19-13.99-7.42-3.28-4.12-4.61-9.19-3.74-14.27l3.54-22.03c12.29,1.71,24.82,2.94,37.29,3.66l-1.18,22.22c-.43,10.08-9.11,17.95-19.75,17.95Z"/>
        <path class="cls-1" d="M97.37,298.01c-1.42,0-2.86-.14-4.28-.43-5.61-1.11-10.3-4.24-13.22-8.81-2.82-4.42-3.61-9.57-2.21-14.52l5.87-21.59c12.19,2.95,24.58,5.42,36.87,7.36l-3.53,21.97c-1.4,9.29-9.6,16.03-19.51,16.03Z"/>
        <path class="cls-1" d="M193.23,307.45c-5.67,0-10.88-2.13-14.67-6-3.7-3.78-5.56-8.7-5.23-13.84l1.18-22.26c6.25,.25,12.53,.37,18.71,.37s12.47-.13,18.71-.37l1.18,22.22c.33,5.19-1.53,10.11-5.24,13.89-3.79,3.86-8.98,5.99-14.63,5.99h-.02Z"/>
        <path class="cls-4" d="M336.06,286.22c-9.07,0-16.92-5.78-19.08-14.07l-5.86-21.55c12.29-3.2,24.45-6.9,36.19-11.01l8.13,20.84c1.92,4.78,1.69,9.97-.63,14.63-2.44,4.89-6.83,8.51-12.37,10.19-2.09,.64-4.24,.96-6.38,.96Z"/>
      </g>
      <path class="cls-1" d="M284.9,90.05v-14.56c-30.56,.13-61.12,4.63-91.68-10.9v49.81h3.14v-4.25c6.55,1.09,13.1,1.29,19.65,.85,16.96-1.14,33.93-6.59,50.89-12.16v8.16c19.58-5.94,39.16-10.08,58.74-5.98-13.58-6.91-27.16-9.84-40.74-10.97Z"/>
      <path class="cls-2" d="M357.46,27.38c-12.26-10.34-25.88-3.6-29.97,.78-4.49,4.8-5.35,9.35-7.23,8.97-6.86-1.41-9.94,3.4-13.32,4.92,0,0,8.49,4.98,8.44,8.8-.05,3.17-.91,10.6,.7,15.44,4.38,13.08,19.65,13.61,19.65,13.61,0,0-1.68-9.2-.91-13.14,.9-4.6,2.93-7.5,5.94-8.23,3.01-.73,10.01,4.36,11.85,3.5,1.84-.86,4.58-8.4,3.63-9.97-.96-1.57-11.04-2.25-12.66-4.91-1.1-1.81-1.96-5.82,1.68-11.72,2.56-4.14,12.2-8.04,12.2-8.04Z"/>
      <path class="cls-6" d="M352.31,54.63s-.07,0-.1,0l-3.87-.67c-.32-.06-.53-.36-.48-.68,.06-.32,.36-.53,.68-.48l3.87,.67c.32,.06,.53,.36,.48,.68-.05,.28-.3,.48-.58,.48Z"/>
      <path class="cls-6" d="M351.55,58.62c-.08,0-.15-.01-.23-.05l-3.91-1.64c-.3-.12-.44-.47-.31-.77,.12-.3,.47-.44,.76-.31l3.91,1.64c.3,.12,.44,.47,.31,.77-.09,.22-.31,.36-.54,.36Z"/>
      <path class="cls-6" d="M318.68,41.02c0,.99-.8,1.79-1.79,1.79s-1.79-.8-1.79-1.79,.8-1.79,1.79-1.79,1.79,.8,1.79,1.79Z"/>
      <g>
        <path class="cls-3" d="M301.5,3.97c-8.91-7.52-18.81-2.61-21.79,.57-3.26,3.49-3.89,6.8-5.26,6.52-4.98-1.02-7.23,2.47-9.68,3.58,0,0,6.17,3.62,6.13,6.4-.03,2.3-.66,7.71,.51,11.22,3.18,9.5,14.28,9.89,14.28,9.89,0,0-1.22-6.68-.66-9.55,.65-3.34,2.13-5.45,4.32-5.98s7.28,3.17,8.61,2.54c1.34-.62,3.33-6.11,2.64-7.25-.69-1.14-8.02-1.63-9.2-3.57-.8-1.32-1.43-4.23,1.22-8.52,1.86-3.01,8.87-5.84,8.87-5.84Z"/>
        <path class="cls-6" d="M297.77,23.77s-.05,0-.07,0l-2.81-.49c-.23-.04-.39-.26-.35-.49,.04-.23,.26-.38,.49-.35l2.81,.49c.23,.04,.39,.26,.35,.49-.04,.21-.22,.35-.42,.35Z"/>
        <path class="cls-6" d="M297.21,26.68c-.05,0-.11-.01-.16-.03l-2.85-1.19c-.22-.09-.32-.34-.23-.56,.09-.22,.34-.32,.56-.23l2.85,1.19c.22,.09,.32,.34,.23,.56-.07,.16-.23,.26-.39,.26Z"/>
        <path class="cls-6" d="M273.32,13.89c0,.72-.58,1.3-1.3,1.3s-1.3-.58-1.3-1.3,.58-1.3,1.3-1.3,1.3,.58,1.3,1.3Z"/>
      </g>
    </g>
  </g>
</svg>