<svg width="21" height="21" viewBox="0 0 21 21" fill="none" xmlns="http://www.w3.org/2000/svg">
<g id="Group 59">
<g id="Vector">
<mask id="path-1-outside-1_435_1410" maskUnits="userSpaceOnUse" x="0" y="-0.5" width="21" height="22" fill="black">
<rect fill="white" y="-0.5" width="21" height="22"/>
<path d="M17.3802 17.0995C17.2166 17.1003 17.0588 17.0726 16.9036 17.0214C16.2925 16.8199 15.681 16.6215 15.0699 16.4196C15.0166 16.402 14.9804 16.4104 14.9377 16.4443C14.4289 16.8508 13.8721 17.1757 13.2703 17.4231C13.2178 17.4447 13.1949 17.4738 13.1834 17.5262C13.0383 18.1743 12.8977 18.8229 12.7438 19.4688C12.6385 19.9101 12.407 20.2584 11.9577 20.4202C11.8012 20.4762 11.639 20.5 11.4728 20.5C10.7638 20.5 10.0553 20.5 9.34639 20.5C8.63877 20.5 8.1829 20.1336 8.02638 19.4406C7.88177 18.7986 7.73584 18.1567 7.59255 17.5143C7.58241 17.4689 7.56302 17.4451 7.52157 17.4279C6.91051 17.1793 6.34706 16.8482 5.83211 16.4359C5.78714 16.3998 5.75231 16.406 5.70645 16.4209C5.08701 16.6242 4.46757 16.827 3.84769 17.0289C3.22163 17.2326 2.61983 17.01 2.2874 16.4443C1.9175 15.8147 1.54187 15.1878 1.19048 14.5481C0.877016 13.9771 0.942267 13.434 1.44708 12.9627C1.92896 12.5125 2.41438 12.0659 2.90023 11.6197C2.94917 11.5748 2.96813 11.5351 2.95843 11.4645C2.86761 10.8076 2.86805 10.1498 2.96372 9.49334C2.97165 9.43999 2.94256 9.42015 2.91346 9.39414C2.42981 8.95855 1.94219 8.52736 1.46295 8.08692C1.15257 7.80167 0.97401 7.45293 1.0106 7.01778C1.02824 6.80748 1.09525 6.61128 1.20018 6.4292C1.55333 5.81637 1.9078 5.20442 2.26404 4.5938C2.61895 3.98538 3.15903 3.80638 3.8036 3.9942C4.43495 4.17849 5.06144 4.37909 5.68926 4.57528C5.75363 4.59556 5.79772 4.58983 5.85239 4.54663C6.35764 4.14586 6.90874 3.8227 7.50526 3.57712C7.55376 3.55728 7.58197 3.53436 7.59476 3.4766C7.74069 2.82013 7.88927 2.16409 8.04093 1.50894C8.18113 0.904486 8.69256 0.500637 9.31509 0.500196C10.0064 0.499755 10.6981 0.500196 11.3894 0.500196C12.1209 0.500196 12.6019 0.885087 12.7615 1.59711C12.9017 2.22229 13.0436 2.84746 13.1825 3.47263C13.1953 3.52951 13.2231 3.55816 13.2769 3.57977C13.8791 3.82666 14.4346 4.1538 14.943 4.56029C14.9897 4.59733 15.0272 4.59424 15.0766 4.57793C15.696 4.37468 16.3159 4.17232 16.9353 3.96951C17.5578 3.76582 18.1663 3.9942 18.4943 4.55721C18.8562 5.17841 19.2165 5.80006 19.5758 6.42259C19.9135 7.0072 19.8169 7.63413 19.317 8.08824C18.8351 8.52604 18.351 8.96075 17.8656 9.39414C17.8233 9.43206 17.8114 9.46777 17.8193 9.52156C17.9123 10.1727 17.9114 10.8244 17.8193 11.4756C17.8109 11.5337 17.8277 11.5708 17.87 11.61C18.3598 12.0606 18.8479 12.5125 19.3355 12.9649C19.5277 13.143 19.6754 13.3511 19.7411 13.6081C19.8271 13.9441 19.753 14.2593 19.5877 14.5512C19.2279 15.1865 18.8633 15.8196 18.4894 16.4465C18.2421 16.8618 17.8775 17.099 17.3802 17.099V17.0995ZM3.37021 4.53913C3.14801 4.52458 2.96989 4.6326 2.83322 4.86803C2.47213 5.48968 2.11193 6.11132 1.75129 6.73341C1.5498 7.08127 1.58904 7.34535 1.88443 7.61473C2.41085 8.09397 2.93682 8.57277 3.46633 9.04805C3.57434 9.14504 3.61711 9.25482 3.59594 9.39458C3.58801 9.44617 3.58184 9.49775 3.57522 9.54933C3.48793 10.219 3.4941 10.8883 3.58977 11.5558C3.61093 11.703 3.57743 11.8115 3.46897 11.9116C2.93771 12.4023 2.40909 12.8956 1.88047 13.389C1.58772 13.6623 1.55024 13.9198 1.74952 14.2641C2.1084 14.8836 2.46772 15.5026 2.82704 16.1216C3.00737 16.4324 3.25029 16.5285 3.59639 16.424C4.29519 16.2133 4.99399 16.0021 5.69191 15.7892C5.85459 15.7393 5.99656 15.764 6.1297 15.8707C6.68257 16.3156 7.29011 16.6687 7.94747 16.9333C8.09031 16.991 8.15248 17.0827 8.18334 17.2229C8.34162 17.9389 8.5021 18.654 8.66522 19.3691C8.74017 19.6985 8.96635 19.8744 9.30671 19.8744C10.0298 19.8748 10.7532 19.8748 11.4763 19.8744C11.8158 19.8744 12.0477 19.6866 12.1209 19.359C12.2827 18.632 12.4458 17.9054 12.6085 17.1788C12.6301 17.0818 12.672 16.9994 12.7716 16.9597C13.4523 16.689 14.0806 16.3275 14.6529 15.8694C14.7865 15.7627 14.9284 15.7398 15.0911 15.7896C15.789 16.003 16.4878 16.2137 17.1862 16.4245C17.531 16.5285 17.7739 16.4315 17.9551 16.1198C18.1522 15.7803 18.3492 15.4409 18.5463 15.1014C18.713 14.8144 18.8809 14.5278 19.0458 14.2399C19.2209 13.9344 19.1887 13.7016 18.9369 13.4622C18.7734 13.3065 18.6071 13.154 18.4418 13.0006C18.0605 12.6457 17.6795 12.2907 17.2977 11.9367C17.2065 11.8521 17.1637 11.7582 17.1862 11.6281C17.2144 11.4632 17.2294 11.2957 17.2413 11.1286C17.2814 10.5642 17.2761 10.0008 17.1884 9.44132C17.1633 9.27995 17.2179 9.1737 17.3312 9.06921C17.8594 8.5838 18.3836 8.09397 18.9087 7.60503C19.1763 7.35594 19.2288 7.08303 19.0551 6.7797C18.6834 6.13116 18.3069 5.48527 17.9304 4.83937C17.8427 4.68903 17.7192 4.57837 17.5411 4.54751C17.4044 4.52414 17.2713 4.54839 17.1394 4.58851C16.4552 4.79661 15.7701 5.00338 15.0863 5.21192C14.9275 5.26042 14.7865 5.23749 14.656 5.133C14.0912 4.67977 13.4704 4.32178 12.7994 4.05107C12.6905 4.00698 12.6336 3.93468 12.6089 3.82534C12.5335 3.49027 12.4581 3.1552 12.381 2.82057C12.2858 2.40702 12.1971 1.99171 12.0896 1.58168C12.0111 1.28232 11.7823 1.12581 11.4719 1.12537C10.7515 1.12537 10.0311 1.12537 9.31068 1.12537C8.99677 1.12537 8.77368 1.28717 8.68727 1.58786C8.63789 1.7598 8.60306 1.93571 8.56338 2.10986C8.4342 2.67552 8.30502 3.24117 8.17761 3.80726C8.15027 3.92939 8.08943 4.00919 7.96775 4.05813C7.29893 4.32618 6.68213 4.6855 6.11956 5.13697C5.99215 5.23925 5.85151 5.25953 5.69631 5.21192C5.12537 5.03733 4.55443 4.8623 3.98216 4.69212C3.78112 4.63216 3.58536 4.54751 3.37109 4.53825L3.37021 4.53913Z"/>
</mask>
<path d="M17.3802 17.0995C17.2166 17.1003 17.0588 17.0726 16.9036 17.0214C16.2925 16.8199 15.681 16.6215 15.0699 16.4196C15.0166 16.402 14.9804 16.4104 14.9377 16.4443C14.4289 16.8508 13.8721 17.1757 13.2703 17.4231C13.2178 17.4447 13.1949 17.4738 13.1834 17.5262C13.0383 18.1743 12.8977 18.8229 12.7438 19.4688C12.6385 19.9101 12.407 20.2584 11.9577 20.4202C11.8012 20.4762 11.639 20.5 11.4728 20.5C10.7638 20.5 10.0553 20.5 9.34639 20.5C8.63877 20.5 8.1829 20.1336 8.02638 19.4406C7.88177 18.7986 7.73584 18.1567 7.59255 17.5143C7.58241 17.4689 7.56302 17.4451 7.52157 17.4279C6.91051 17.1793 6.34706 16.8482 5.83211 16.4359C5.78714 16.3998 5.75231 16.406 5.70645 16.4209C5.08701 16.6242 4.46757 16.827 3.84769 17.0289C3.22163 17.2326 2.61983 17.01 2.2874 16.4443C1.9175 15.8147 1.54187 15.1878 1.19048 14.5481C0.877016 13.9771 0.942267 13.434 1.44708 12.9627C1.92896 12.5125 2.41438 12.0659 2.90023 11.6197C2.94917 11.5748 2.96813 11.5351 2.95843 11.4645C2.86761 10.8076 2.86805 10.1498 2.96372 9.49334C2.97165 9.43999 2.94256 9.42015 2.91346 9.39414C2.42981 8.95855 1.94219 8.52736 1.46295 8.08692C1.15257 7.80167 0.97401 7.45293 1.0106 7.01778C1.02824 6.80748 1.09525 6.61128 1.20018 6.4292C1.55333 5.81637 1.9078 5.20442 2.26404 4.5938C2.61895 3.98538 3.15903 3.80638 3.8036 3.9942C4.43495 4.17849 5.06144 4.37909 5.68926 4.57528C5.75363 4.59556 5.79772 4.58983 5.85239 4.54663C6.35764 4.14586 6.90874 3.8227 7.50526 3.57712C7.55376 3.55728 7.58197 3.53436 7.59476 3.4766C7.74069 2.82013 7.88927 2.16409 8.04093 1.50894C8.18113 0.904486 8.69256 0.500637 9.31509 0.500196C10.0064 0.499755 10.6981 0.500196 11.3894 0.500196C12.1209 0.500196 12.6019 0.885087 12.7615 1.59711C12.9017 2.22229 13.0436 2.84746 13.1825 3.47263C13.1953 3.52951 13.2231 3.55816 13.2769 3.57977C13.8791 3.82666 14.4346 4.1538 14.943 4.56029C14.9897 4.59733 15.0272 4.59424 15.0766 4.57793C15.696 4.37468 16.3159 4.17232 16.9353 3.96951C17.5578 3.76582 18.1663 3.9942 18.4943 4.55721C18.8562 5.17841 19.2165 5.80006 19.5758 6.42259C19.9135 7.0072 19.8169 7.63413 19.317 8.08824C18.8351 8.52604 18.351 8.96075 17.8656 9.39414C17.8233 9.43206 17.8114 9.46777 17.8193 9.52156C17.9123 10.1727 17.9114 10.8244 17.8193 11.4756C17.8109 11.5337 17.8277 11.5708 17.87 11.61C18.3598 12.0606 18.8479 12.5125 19.3355 12.9649C19.5277 13.143 19.6754 13.3511 19.7411 13.6081C19.8271 13.9441 19.753 14.2593 19.5877 14.5512C19.2279 15.1865 18.8633 15.8196 18.4894 16.4465C18.2421 16.8618 17.8775 17.099 17.3802 17.099V17.0995ZM3.37021 4.53913C3.14801 4.52458 2.96989 4.6326 2.83322 4.86803C2.47213 5.48968 2.11193 6.11132 1.75129 6.73341C1.5498 7.08127 1.58904 7.34535 1.88443 7.61473C2.41085 8.09397 2.93682 8.57277 3.46633 9.04805C3.57434 9.14504 3.61711 9.25482 3.59594 9.39458C3.58801 9.44617 3.58184 9.49775 3.57522 9.54933C3.48793 10.219 3.4941 10.8883 3.58977 11.5558C3.61093 11.703 3.57743 11.8115 3.46897 11.9116C2.93771 12.4023 2.40909 12.8956 1.88047 13.389C1.58772 13.6623 1.55024 13.9198 1.74952 14.2641C2.1084 14.8836 2.46772 15.5026 2.82704 16.1216C3.00737 16.4324 3.25029 16.5285 3.59639 16.424C4.29519 16.2133 4.99399 16.0021 5.69191 15.7892C5.85459 15.7393 5.99656 15.764 6.1297 15.8707C6.68257 16.3156 7.29011 16.6687 7.94747 16.9333C8.09031 16.991 8.15248 17.0827 8.18334 17.2229C8.34162 17.9389 8.5021 18.654 8.66522 19.3691C8.74017 19.6985 8.96635 19.8744 9.30671 19.8744C10.0298 19.8748 10.7532 19.8748 11.4763 19.8744C11.8158 19.8744 12.0477 19.6866 12.1209 19.359C12.2827 18.632 12.4458 17.9054 12.6085 17.1788C12.6301 17.0818 12.672 16.9994 12.7716 16.9597C13.4523 16.689 14.0806 16.3275 14.6529 15.8694C14.7865 15.7627 14.9284 15.7398 15.0911 15.7896C15.789 16.003 16.4878 16.2137 17.1862 16.4245C17.531 16.5285 17.7739 16.4315 17.9551 16.1198C18.1522 15.7803 18.3492 15.4409 18.5463 15.1014C18.713 14.8144 18.8809 14.5278 19.0458 14.2399C19.2209 13.9344 19.1887 13.7016 18.9369 13.4622C18.7734 13.3065 18.6071 13.154 18.4418 13.0006C18.0605 12.6457 17.6795 12.2907 17.2977 11.9367C17.2065 11.8521 17.1637 11.7582 17.1862 11.6281C17.2144 11.4632 17.2294 11.2957 17.2413 11.1286C17.2814 10.5642 17.2761 10.0008 17.1884 9.44132C17.1633 9.27995 17.2179 9.1737 17.3312 9.06921C17.8594 8.5838 18.3836 8.09397 18.9087 7.60503C19.1763 7.35594 19.2288 7.08303 19.0551 6.7797C18.6834 6.13116 18.3069 5.48527 17.9304 4.83937C17.8427 4.68903 17.7192 4.57837 17.5411 4.54751C17.4044 4.52414 17.2713 4.54839 17.1394 4.58851C16.4552 4.79661 15.7701 5.00338 15.0863 5.21192C14.9275 5.26042 14.7865 5.23749 14.656 5.133C14.0912 4.67977 13.4704 4.32178 12.7994 4.05107C12.6905 4.00698 12.6336 3.93468 12.6089 3.82534C12.5335 3.49027 12.4581 3.1552 12.381 2.82057C12.2858 2.40702 12.1971 1.99171 12.0896 1.58168C12.0111 1.28232 11.7823 1.12581 11.4719 1.12537C10.7515 1.12537 10.0311 1.12537 9.31068 1.12537C8.99677 1.12537 8.77368 1.28717 8.68727 1.58786C8.63789 1.7598 8.60306 1.93571 8.56338 2.10986C8.4342 2.67552 8.30502 3.24117 8.17761 3.80726C8.15027 3.92939 8.08943 4.00919 7.96775 4.05813C7.29893 4.32618 6.68213 4.6855 6.11956 5.13697C5.99215 5.23925 5.85151 5.25953 5.69631 5.21192C5.12537 5.03733 4.55443 4.8623 3.98216 4.69212C3.78112 4.63216 3.58536 4.54751 3.37109 4.53825L3.37021 4.53913Z" fill="#828282"/>
<path d="M17.3802 17.0995C17.2166 17.1003 17.0588 17.0726 16.9036 17.0214C16.2925 16.8199 15.681 16.6215 15.0699 16.4196C15.0166 16.402 14.9804 16.4104 14.9377 16.4443C14.4289 16.8508 13.8721 17.1757 13.2703 17.4231C13.2178 17.4447 13.1949 17.4738 13.1834 17.5262C13.0383 18.1743 12.8977 18.8229 12.7438 19.4688C12.6385 19.9101 12.407 20.2584 11.9577 20.4202C11.8012 20.4762 11.639 20.5 11.4728 20.5C10.7638 20.5 10.0553 20.5 9.34639 20.5C8.63877 20.5 8.1829 20.1336 8.02638 19.4406C7.88177 18.7986 7.73584 18.1567 7.59255 17.5143C7.58241 17.4689 7.56302 17.4451 7.52157 17.4279C6.91051 17.1793 6.34706 16.8482 5.83211 16.4359C5.78714 16.3998 5.75231 16.406 5.70645 16.4209C5.08701 16.6242 4.46757 16.827 3.84769 17.0289C3.22163 17.2326 2.61983 17.01 2.2874 16.4443C1.9175 15.8147 1.54187 15.1878 1.19048 14.5481C0.877016 13.9771 0.942267 13.434 1.44708 12.9627C1.92896 12.5125 2.41438 12.0659 2.90023 11.6197C2.94917 11.5748 2.96813 11.5351 2.95843 11.4645C2.86761 10.8076 2.86805 10.1498 2.96372 9.49334C2.97165 9.43999 2.94256 9.42015 2.91346 9.39414C2.42981 8.95855 1.94219 8.52736 1.46295 8.08692C1.15257 7.80167 0.97401 7.45293 1.0106 7.01778C1.02824 6.80748 1.09525 6.61128 1.20018 6.4292C1.55333 5.81637 1.9078 5.20442 2.26404 4.5938C2.61895 3.98538 3.15903 3.80638 3.8036 3.9942C4.43495 4.17849 5.06144 4.37909 5.68926 4.57528C5.75363 4.59556 5.79772 4.58983 5.85239 4.54663C6.35764 4.14586 6.90874 3.8227 7.50526 3.57712C7.55376 3.55728 7.58197 3.53436 7.59476 3.4766C7.74069 2.82013 7.88927 2.16409 8.04093 1.50894C8.18113 0.904486 8.69256 0.500637 9.31509 0.500196C10.0064 0.499755 10.6981 0.500196 11.3894 0.500196C12.1209 0.500196 12.6019 0.885087 12.7615 1.59711C12.9017 2.22229 13.0436 2.84746 13.1825 3.47263C13.1953 3.52951 13.2231 3.55816 13.2769 3.57977C13.8791 3.82666 14.4346 4.1538 14.943 4.56029C14.9897 4.59733 15.0272 4.59424 15.0766 4.57793C15.696 4.37468 16.3159 4.17232 16.9353 3.96951C17.5578 3.76582 18.1663 3.9942 18.4943 4.55721C18.8562 5.17841 19.2165 5.80006 19.5758 6.42259C19.9135 7.0072 19.8169 7.63413 19.317 8.08824C18.8351 8.52604 18.351 8.96075 17.8656 9.39414C17.8233 9.43206 17.8114 9.46777 17.8193 9.52156C17.9123 10.1727 17.9114 10.8244 17.8193 11.4756C17.8109 11.5337 17.8277 11.5708 17.87 11.61C18.3598 12.0606 18.8479 12.5125 19.3355 12.9649C19.5277 13.143 19.6754 13.3511 19.7411 13.6081C19.8271 13.9441 19.753 14.2593 19.5877 14.5512C19.2279 15.1865 18.8633 15.8196 18.4894 16.4465C18.2421 16.8618 17.8775 17.099 17.3802 17.099V17.0995ZM3.37021 4.53913C3.14801 4.52458 2.96989 4.6326 2.83322 4.86803C2.47213 5.48968 2.11193 6.11132 1.75129 6.73341C1.5498 7.08127 1.58904 7.34535 1.88443 7.61473C2.41085 8.09397 2.93682 8.57277 3.46633 9.04805C3.57434 9.14504 3.61711 9.25482 3.59594 9.39458C3.58801 9.44617 3.58184 9.49775 3.57522 9.54933C3.48793 10.219 3.4941 10.8883 3.58977 11.5558C3.61093 11.703 3.57743 11.8115 3.46897 11.9116C2.93771 12.4023 2.40909 12.8956 1.88047 13.389C1.58772 13.6623 1.55024 13.9198 1.74952 14.2641C2.1084 14.8836 2.46772 15.5026 2.82704 16.1216C3.00737 16.4324 3.25029 16.5285 3.59639 16.424C4.29519 16.2133 4.99399 16.0021 5.69191 15.7892C5.85459 15.7393 5.99656 15.764 6.1297 15.8707C6.68257 16.3156 7.29011 16.6687 7.94747 16.9333C8.09031 16.991 8.15248 17.0827 8.18334 17.2229C8.34162 17.9389 8.5021 18.654 8.66522 19.3691C8.74017 19.6985 8.96635 19.8744 9.30671 19.8744C10.0298 19.8748 10.7532 19.8748 11.4763 19.8744C11.8158 19.8744 12.0477 19.6866 12.1209 19.359C12.2827 18.632 12.4458 17.9054 12.6085 17.1788C12.6301 17.0818 12.672 16.9994 12.7716 16.9597C13.4523 16.689 14.0806 16.3275 14.6529 15.8694C14.7865 15.7627 14.9284 15.7398 15.0911 15.7896C15.789 16.003 16.4878 16.2137 17.1862 16.4245C17.531 16.5285 17.7739 16.4315 17.9551 16.1198C18.1522 15.7803 18.3492 15.4409 18.5463 15.1014C18.713 14.8144 18.8809 14.5278 19.0458 14.2399C19.2209 13.9344 19.1887 13.7016 18.9369 13.4622C18.7734 13.3065 18.6071 13.154 18.4418 13.0006C18.0605 12.6457 17.6795 12.2907 17.2977 11.9367C17.2065 11.8521 17.1637 11.7582 17.1862 11.6281C17.2144 11.4632 17.2294 11.2957 17.2413 11.1286C17.2814 10.5642 17.2761 10.0008 17.1884 9.44132C17.1633 9.27995 17.2179 9.1737 17.3312 9.06921C17.8594 8.5838 18.3836 8.09397 18.9087 7.60503C19.1763 7.35594 19.2288 7.08303 19.0551 6.7797C18.6834 6.13116 18.3069 5.48527 17.9304 4.83937C17.8427 4.68903 17.7192 4.57837 17.5411 4.54751C17.4044 4.52414 17.2713 4.54839 17.1394 4.58851C16.4552 4.79661 15.7701 5.00338 15.0863 5.21192C14.9275 5.26042 14.7865 5.23749 14.656 5.133C14.0912 4.67977 13.4704 4.32178 12.7994 4.05107C12.6905 4.00698 12.6336 3.93468 12.6089 3.82534C12.5335 3.49027 12.4581 3.1552 12.381 2.82057C12.2858 2.40702 12.1971 1.99171 12.0896 1.58168C12.0111 1.28232 11.7823 1.12581 11.4719 1.12537C10.7515 1.12537 10.0311 1.12537 9.31068 1.12537C8.99677 1.12537 8.77368 1.28717 8.68727 1.58786C8.63789 1.7598 8.60306 1.93571 8.56338 2.10986C8.4342 2.67552 8.30502 3.24117 8.17761 3.80726C8.15027 3.92939 8.08943 4.00919 7.96775 4.05813C7.29893 4.32618 6.68213 4.6855 6.11956 5.13697C5.99215 5.23925 5.85151 5.25953 5.69631 5.21192C5.12537 5.03733 4.55443 4.8623 3.98216 4.69212C3.78112 4.63216 3.58536 4.54751 3.37109 4.53825L3.37021 4.53913Z" stroke="#828282" stroke-width="0.8" stroke-linejoin="round" mask="url(#path-1-outside-1_435_1410)"/>
</g>
<path id="Vector_2" d="M7.06905 10.496C7.06529 12.5689 8.79314 13.8223 10.3905 13.8223H10.3906C12.008 13.8218 13.7011 12.5428 13.7128 10.505L13.7128 10.5032C13.7063 8.49027 12.0435 7.17937 10.3892 7.17891C8.77626 7.17844 7.07234 8.44178 7.06905 10.496ZM7.06905 10.496L7.26905 10.4964L7.06905 10.496ZM8.09378 10.4971C8.09944 8.99915 9.37821 8.1977 10.3922 8.20011L10.3922 8.20011C11.4424 8.20299 12.6768 9.04616 12.6881 10.5027C12.6789 11.8792 11.5177 12.7987 10.3873 12.7971C9.27142 12.7955 8.08853 11.8978 8.09378 10.4971Z" fill="#828282" stroke="#828282" stroke-width="0.4" stroke-linejoin="round"/>
</g>
</svg>
