<svg width="24" height="24" viewBox="0 0 24 24" fill="none" xmlns="http://www.w3.org/2000/svg">
<path d="M11.4375 3.96161L11.9578 4.52411L12.5203 3.96255C14.0906 2.43208 16.2656 1.73552 18.4031 2.0913C21.6328 2.62943 24 5.42411 24 8.70068V8.97255C24 10.9179 23.1937 12.7788 21.7687 14.1054L13.2984 22.0132C12.9469 22.3413 12.4828 22.5241 12 22.5241C11.5172 22.5241 11.0531 22.3413 10.7016 22.0132L2.23078 14.1054C0.807656 12.7788 0 10.9179 0 8.97255V8.70068C0 5.42411 2.36813 2.62943 5.59688 2.0913C7.69219 1.73552 9.90938 2.43208 11.4375 3.96161C11.4375 3.96208 11.3953 3.96161 11.4375 3.96161ZM11.9578 7.70693L9.84844 5.51318C8.83125 4.53724 7.3875 4.07411 5.96719 4.31036C3.82266 4.66802 2.25 6.52568 2.25 8.70068V8.97255C2.25 10.2944 2.79891 11.5601 3.76594 12.4601L12 20.1476L20.2359 12.4601C21.2016 11.5601 21.75 10.2944 21.75 8.97255V8.70068C21.75 6.52568 20.175 4.66802 18.0328 4.31036C16.6125 4.07411 15.1687 4.53724 14.1516 5.51318L11.9578 7.70693Z" fill="#9E9E9E"/>
</svg>
