<?xml version="1.0" encoding="utf-8"?>
<!-- Generator: Adobe Illustrator 26.5.0, SVG Export Plug-In . SVG Version: 6.00 Build 0)  -->
<svg version="1.1" id="レイヤー_1" xmlns="http://www.w3.org/2000/svg" xmlns:xlink="http://www.w3.org/1999/xlink" x="0px"
	 y="0px" viewBox="0 0 24 24" style="enable-background:new 0 0 24 24;" xml:space="preserve">
<style type="text/css">
	.st0{fill:#FFFFFF;}
</style>
<g>
	<path class="st0" d="M22.6,8.3l-1.2-2.1c-0.2-0.4-0.7-0.5-1.1-0.3h0c-0.4,0.2-0.9,0.1-1.1-0.3c-0.2-0.4-0.1-0.9,0.3-1.1h0
		c0.4-0.2,0.5-0.7,0.3-1.1l-1.3-2.2c-0.3-0.5-0.7-0.8-1.2-1c0,0,0,0,0,0C16.9,0,16.5,0,16,0.1c-0.2,0-0.4,0.1-0.7,0.3L2.2,7.8
		C1.9,7.9,1.6,8.2,1.4,8.4C1.3,8.7,1.2,8.9,1.1,9.1C1,9.6,1,10.1,1.1,10.5c0,0,0,0,0,0c0,0.1,0.1,0.3,0.2,0.4l0.3,0.5
		C1.7,11.3,1.8,11.1,2,11c0.3-0.3,0.6-0.5,0.9-0.6c0.1,0,0.1-0.1,0.2-0.1L3,10C3,9.9,3,9.9,3,9.8C3,9.7,3,9.5,3.1,9.5L16.3,2
		c0.1-0.1,0.2-0.1,0.3,0c0.1,0,0.2,0.1,0.3,0.2l0.8,1.5c-0.6,0.9-0.6,2-0.1,2.9c0.5,0.9,1.5,1.5,2.6,1.4l0.8,1.4
		c0.1,0.2,0,0.4-0.1,0.5l-0.5,0.3c0.1,0,0.2,0.1,0.3,0.1c0.6,0.2,1.1,0.5,1.6,1C22.9,10.5,23.1,9.3,22.6,8.3z"/>
	<path class="st0" d="M7.1,10H6.3L5.9,9.5l0.6-0.4L7.1,10z"/>
	<path class="st0" d="M21.1,16.8L21.1,16.8c0.4,0,0.8-0.4,0.8-0.8v-2.5c0-0.6-0.2-1.1-0.5-1.5c0,0,0,0,0,0c0-0.1-0.1-0.1-0.1-0.2
		c-0.3-0.3-0.6-0.5-0.9-0.6c-0.2-0.1-0.5-0.1-0.7-0.1H4.4c-0.2,0-0.5,0-0.7,0.1c-0.1,0-0.2,0.1-0.3,0.1c-0.2,0.1-0.4,0.3-0.6,0.4
		c-0.2,0.2-0.4,0.5-0.6,0.8c-0.1,0.1-0.1,0.3-0.1,0.4c0,0,0,0,0,0c0,0.1,0,0.3,0,0.5V16c0,0.4,0.3,0.7,0.7,0.8
		c0.2,0,0.4,0.1,0.5,0.3c0.1,0.1,0.2,0.3,0.2,0.5c0,0.4-0.3,0.7-0.7,0.8h0C2.3,18.5,2,18.8,2,19.2v2.4C2,23,3.1,24,4.4,24h15.1
		c1.3,0,2.3-1,2.3-2.3v-2.4c0-0.4-0.3-0.8-0.8-0.8h0c-0.4,0-0.8-0.4-0.8-0.8C20.3,17.2,20.7,16.8,21.1,16.8z M19.9,15.1
		c-0.9,0.5-1.5,1.4-1.5,2.5c0,1.1,0.6,2,1.5,2.5v1.6c0,0.2-0.2,0.4-0.4,0.4H4.4C4.2,22,4,21.9,4,21.7V20c0.5-0.3,0.9-0.7,1.1-1.3
		c0.1-0.2,0.2-0.4,0.2-0.7c0,0,0-0.1,0-0.1l0,0v0c0-0.1,0-0.2,0-0.3c0-0.7-0.3-1.4-0.7-1.9c0,0-0.1-0.1-0.1-0.1
		c-0.1-0.1-0.3-0.3-0.5-0.4c0,0-0.1,0-0.1-0.1v-1.8c0-0.1,0-0.1,0.1-0.2c0.1-0.1,0.2-0.2,0.3-0.2h15.1c0.1,0,0.2,0.1,0.3,0.1
		c0.1,0.1,0.1,0.2,0.1,0.3V15.1z"/>
	<path class="st0" d="M7.6,19.3H6.8v1.5h0.7V19.3z"/>
	<path class="st0" d="M7.6,16.9H6.8v1.5h0.7V16.9z"/>
	<path class="st0" d="M7.6,14.4H6.8V16h0.7V14.4z"/>
</g>
</svg>
