<svg width="24" height="24" viewBox="0 0 24 24" fill="none" xmlns="http://www.w3.org/2000/svg">
<path d="M21.665 11.9995C21.665 14.9368 21.6645 17.8742 21.6655 20.8114C21.6657 21.404 21.5707 21.9812 21.2473 22.4815C20.5957 23.489 19.6414 23.9904 18.4504 23.9933C14.3769 24.0031 10.3034 24.0014 6.22988 23.9933C5.42742 23.9916 4.7163 23.7367 4.07655 23.2145C3.32565 22.6017 3.01209 21.8056 3.00983 20.8913C2.99548 14.9646 2.99914 9.03771 3.00632 3.11087C3.00733 2.303 3.25748 1.5641 3.84138 0.984584C4.50344 0.327518 5.31604 0.00175199 6.2532 0.00167406C10.3093 0.00151819 14.3655 -0.00393723 18.4217 0.00572665C19.3382 0.00790882 20.1363 0.305852 20.8104 0.978193C21.4302 1.59637 21.6591 2.33199 21.6616 3.16129C21.6704 6.1073 21.665 9.0533 21.665 11.9994V11.9995ZM19.3183 12.0259C19.3183 9.0971 19.3183 6.1684 19.3183 3.23962C19.3183 3.09201 19.3211 2.9451 19.2786 2.80022C19.1856 2.48326 18.9748 2.30238 18.6477 2.27292C18.5528 2.26435 18.4569 2.26435 18.3614 2.26435C14.3485 2.26396 10.3357 2.26388 6.32278 2.26458C6.21007 2.26458 6.09611 2.2638 5.98481 2.27869C5.65963 2.32225 5.43483 2.54811 5.39045 2.87512C5.37415 2.99506 5.36884 3.11742 5.36884 3.23868C5.36783 9.07878 5.36783 14.919 5.36884 20.7591C5.36884 20.8803 5.3736 21.0027 5.39006 21.1226C5.43507 21.451 5.6576 21.6742 5.98403 21.7196C6.08667 21.7339 6.19189 21.7341 6.29595 21.7341C10.3262 21.7348 14.3565 21.7348 18.3867 21.7339C18.4994 21.7339 18.6145 21.7364 18.7242 21.7156C18.9792 21.6672 19.1658 21.5289 19.2563 21.2742C19.313 21.1149 19.3189 20.9519 19.3188 20.7861C19.3181 17.8661 19.3183 14.946 19.3183 12.026L19.3183 12.0259Z" fill="#9E9E9E"/>
<path d="M12.3229 8.33014C11.2439 8.33014 10.1649 8.3247 9.08606 8.33327C8.7272 8.33615 8.39913 8.2442 8.08895 8.07369C7.66024 7.83805 7.52843 7.04778 7.83166 6.54015C8.07887 6.12631 8.49476 6.01634 8.91104 6.01322C11.1907 5.9964 13.4705 5.99464 15.7501 6.0137C16.2273 6.0177 16.673 6.18021 16.8964 6.69265C17.1527 7.28021 16.9204 7.91999 16.3467 8.17949C16.1219 8.28121 15.8859 8.33175 15.6381 8.33118C14.533 8.32886 13.428 8.33014 12.3229 8.33014Z" fill="#9E9E9E"/>
<path d="M12.338 12.6651C11.2257 12.6651 10.1136 12.6625 9.00132 12.6667C8.65948 12.668 8.34363 12.5874 8.06885 12.4208C7.7562 12.2312 7.64137 11.9274 7.67134 11.6111C7.70117 11.2962 7.8142 11.0009 8.19047 10.8437C8.47283 10.7257 8.7576 10.6664 9.06791 10.6667C11.2749 10.6696 13.482 10.6674 15.6891 10.6688C16.3951 10.6692 16.8575 10.966 16.978 11.4878C17.0805 11.9323 16.8199 12.3618 16.3319 12.5447C16.1226 12.623 15.9052 12.6668 15.6747 12.6663C14.5625 12.6637 13.4503 12.6651 12.338 12.6651Z" fill="#9E9E9E"/>
<path d="M9.95908 17.3293C9.5636 17.3003 9.08152 17.3791 8.604 17.2871C7.62599 17.0988 7.43502 16.0492 7.93023 15.4275C8.17076 15.1256 8.5244 15.0197 8.88692 15.0118C9.64713 14.995 10.4081 14.9979 11.1685 15.0097C11.7197 15.0184 12.1207 15.3256 12.2819 15.8256C12.4255 16.2706 12.2612 16.8031 11.8839 17.0977C11.6584 17.2736 11.3922 17.3232 11.1181 17.3278C10.7597 17.3338 10.4012 17.3293 9.95916 17.3293L9.95908 17.3293Z" fill="#9E9E9E"/>
</svg>
