<?xml version="1.0" encoding="utf-8"?>
<!-- Generator: Adobe Illustrator 26.5.0, SVG Export Plug-In . SVG Version: 6.00 Build 0)  -->
<svg version="1.1" id="レイヤー_1" xmlns="http://www.w3.org/2000/svg" xmlns:xlink="http://www.w3.org/1999/xlink" x="0px"
	 y="0px" viewBox="0 0 24 24" style="enable-background:new 0 0 24 24;" xml:space="preserve">
<style type="text/css">
	.st0{fill:#9E9E9E;}
</style>
<g>
	<path class="st0" d="M17.3,0H6.7C5,0,3.5,1.4,3.5,3.2V22c0,1.7,1.9,2.6,3.2,1.5l5.3-4.3l5.3,4.3c1.3,1,3.2,0.1,3.2-1.5V3.2
		C20.5,1.4,19,0,17.3,0z M16.8,9.8l-1.9,1.8l0.4,2.6c0.1,0.6-0.5,1-1,0.8L12,13.8L9.7,15c-0.5,0.3-1.1-0.2-1-0.8l0.4-2.6L7.2,9.8
		C6.8,9.4,7,8.7,7.6,8.6l2.6-0.4l1.2-2.3c0.3-0.5,1-0.5,1.3,0l1.2,2.3l2.6,0.4C17,8.7,17.2,9.4,16.8,9.8z"/>
</g>
</svg>
