<svg version="1.1" id="レイヤー_1" xmlns="http://www.w3.org/2000/svg" xmlns:xlink="http://www.w3.org/1999/xlink" width="24" height="24" viewBox="0 0 24 24" style="enable-background:new 0 0 24 24;" xml:space="preserve">
<g>
	<g>
		<path class="st0" d="M17.3,2.2c0.6,0,1,0.5,1,1v18.3l-4.9-4L12,16.4l-1.4,1.1l-4.9,4V3.2c0-0.6,0.5-1,1-1H17.3 M17.3,0H6.7
			C5,0,3.5,1.4,3.5,3.2V22c0,1.2,1,2,2,2c0.4,0,0.9-0.1,1.2-0.4l5.3-4.3l5.3,4.3c0.4,0.3,0.8,0.4,1.2,0.4c1,0,2-0.8,2-2V3.2
			C20.5,1.4,19,0,17.3,0L17.3,0z"/>
	</g>
</g>
</svg>
