<svg version="1.1" id="レイヤー_1" xmlns="http://www.w3.org/2000/svg" xmlns:xlink="http://www.w3.org/1999/xlink" width="24" height="24" viewBox="0 0 24 24" style="enable-background:new 0 0 24 24;" xml:space="preserve">
<g>
	<path class="st0" d="M11.9,0C8.5,0,5.7,2.8,5.7,6.3s2.8,6.3,6.2,6.3S18,9.8,18,6.3S15.3,0,11.9,0z M12,10.2c-2.2,0-3.9-1.8-3.9-3.9
		S9.8,2.4,12,2.4s3.9,1.8,3.9,3.9S14.2,10.2,12,10.2z"/>
	<path class="st0" d="M14.2,13.8H9.8c-4.8,0-8.8,3.9-8.8,8.8C1,23.3,1.6,24,2.5,24h19.1c0.8,0,1.5-0.7,1.5-1.5
		C23,17.7,19.1,13.8,14.2,13.8z M3.4,21.6c0.4-3.1,3.1-5.5,6.3-5.5h4.5c3.2,0,5.9,2.4,6.3,5.5H3.4z"/>
</g>
</svg>
