<svg width="16" height="16" viewBox="0 0 16 16" fill="none" xmlns="http://www.w3.org/2000/svg">
<path d="M5.06595 3.8315C5.276 3.8315 5.47745 3.74806 5.62598 3.59953C5.77451 3.451 5.85795 3.24955 5.85795 3.0395V1.7925C5.85795 1.58232 5.77445 1.38074 5.62583 1.23212C5.47721 1.0835 5.27563 1 5.06544 1C4.85526 1 4.65369 1.0835 4.50507 1.23212C4.35644 1.38074 4.27295 1.58232 4.27295 1.7925V3.0395C4.27295 3.14359 4.29346 3.24666 4.33333 3.34282C4.37319 3.43897 4.43162 3.52633 4.50527 3.59988C4.57892 3.67344 4.66635 3.73176 4.76256 3.7715C4.85876 3.81124 4.96186 3.83163 5.06595 3.8315Z" fill="#828282"/>
<path d="M10.909 3.8315C11.119 3.8315 11.3205 3.74806 11.469 3.59953C11.6175 3.451 11.701 3.24955 11.701 3.0395V1.7925C11.701 1.58232 11.6175 1.38074 11.4688 1.23212C11.3202 1.0835 11.1187 1 10.9085 1C10.6983 1 10.4967 1.0835 10.3481 1.23212C10.1995 1.38074 10.116 1.58232 10.116 1.7925V3.0395C10.116 3.14359 10.1365 3.24666 10.1764 3.34282C10.2162 3.43897 10.2746 3.52633 10.3483 3.59988C10.4219 3.67344 10.5094 3.73176 10.6056 3.7715C10.7018 3.81124 10.8049 3.83163 10.909 3.8315Z" fill="#828282"/>
<path d="M12.8879 2.12939H12.3979V3.03939C12.4031 3.23811 12.3684 3.43585 12.2959 3.62095C12.2234 3.80605 12.1146 3.97476 11.9759 4.11713C11.8371 4.2595 11.6713 4.37266 11.4881 4.44992C11.305 4.52718 11.1082 4.56698 10.9094 4.56698C10.7106 4.56698 10.5139 4.52718 10.3307 4.44992C10.1476 4.37266 9.98173 4.2595 9.843 4.11713C9.70427 3.97476 9.59545 3.80605 9.52296 3.62095C9.45047 3.43585 9.41578 3.23811 9.42093 3.03939V2.12939H6.55493V3.03939C6.56008 3.23811 6.52539 3.43585 6.4529 3.62095C6.38041 3.80605 6.2716 3.97476 6.13287 4.11713C5.99414 4.2595 5.82831 4.37266 5.64515 4.44992C5.46199 4.52718 5.26522 4.56698 5.06643 4.56698C4.86765 4.56698 4.67087 4.52718 4.48772 4.44992C4.30456 4.37266 4.13872 4.2595 4 4.11713C3.86127 3.97476 3.75245 3.80605 3.67996 3.62095C3.60747 3.43585 3.57278 3.23811 3.57793 3.03939V2.12939H3.08793C2.5819 2.12939 2.09659 2.33042 1.73877 2.68824C1.38095 3.04606 1.17993 3.53136 1.17993 4.0374V13.0954C1.17993 13.6014 1.38095 14.0867 1.73877 14.4446C2.09659 14.8024 2.5819 15.0034 3.08793 15.0034H12.8879C13.394 15.0034 13.8793 14.8024 14.2371 14.4446C14.5949 14.0867 14.7959 13.6014 14.7959 13.0954V4.0374C14.7959 3.53136 14.5949 3.04606 14.2371 2.68824C13.8793 2.33042 13.394 2.12939 12.8879 2.12939ZM13.2939 12.7604C13.2937 12.9948 13.2004 13.2195 13.0347 13.3852C12.869 13.5509 12.6443 13.6441 12.4099 13.6444H3.56593C3.33156 13.6441 3.10687 13.5509 2.94114 13.3852C2.77542 13.2195 2.6822 12.9948 2.68193 12.7604V5.6734H13.2939V12.7604Z" fill="#828282"/>
</svg>
